<svg xmlns="http://www.w3.org/2000/svg" width="1560.238" height="1560.24" viewBox="0 0 1560.238 1560.24">
  <g id="组_856" data-name="组 856" transform="translate(189.238 -1705.999)">
    <g id="组_740" data-name="组 740" transform="translate(-293.855 1601.382)">
      <g id="组_698" data-name="组 698" transform="translate(465.495 447.129)">
        <g id="组_697" data-name="组 697">
          <path id="路径_10114" data-name="路径 10114" d="M382.393,1153.427c-29.811,0-53.523-8.326-69.9-25.048-40.225-41.061-31.547-129.617,23.8-242.961C444.326,664.21,697.815,407.559,901.367,313.3c92.938-43.04,163.844-46.6,199.663-10.037,40.225,41.062,31.547,129.617-23.8,242.958C969.191,767.428,715.7,1024.08,512.154,1118.339,461.723,1141.694,417.766,1153.427,382.393,1153.427ZM902.326,315.373l.961,2.074C700.55,411.332,448.041,667.022,340.406,887.424c-54.455,111.5-63.438,198.156-24.651,237.754,34.365,35.075,103.432,31.174,194.48-10.988,202.734-93.882,455.242-349.573,562.881-569.978,54.453-111.5,63.436-198.156,24.649-237.753-34.359-35.073-103.424-31.177-194.478,10.988Z" transform="translate(-287.518 -278.21)" fill="#fef8ef"/>
        </g>
      </g>
      <g id="组_700" data-name="组 700" transform="translate(436.851 441.165)">
        <g id="组_699" data-name="组 699">
          <path id="路径_10115" data-name="路径 10115" d="M375.113,1162.332c-34.848,0-61.917-10.011-79.438-30.006-40.992-46.776-25.928-143.306,41.332-264.842C463.9,638.209,738.787,384.33,949.774,301.547c92.675-36.362,162.4-35.066,196.325,3.646,40.993,46.778,25.928,143.308-41.334,264.842C977.876,799.311,702.99,1053.19,492,1135.972,447.19,1153.554,407.738,1162.332,375.113,1162.332Zm691.571-882.625c-31.984,0-70.878,8.691-115.239,26.1C741.3,388.254,467.459,641.216,341.009,869.7c-66.271,119.748-81.543,214.374-41.894,259.615,32.558,37.153,100.465,38.006,191.215,2.4,210.144-82.453,483.985-335.415,610.434-563.895,66.273-119.748,81.543-214.372,41.9-259.613C1126.017,289.215,1100.132,279.707,1066.684,279.707Z" transform="translate(-273.001 -275.187)" fill="#fef8ef"/>
        </g>
      </g>
      <g id="组_702" data-name="组 702" transform="translate(407.979 436.62)">
        <g id="组_701" data-name="组 701">
          <path id="路径_10116" data-name="路径 10116" d="M369.748,1169.118c-41.044,0-72.177-12.1-90.892-36.06-41.5-53.141-19.326-157.82,60.842-287.2C486.081,609.63,782.046,360.779,999.455,291.125c91.823-29.421,159.991-23.091,191.939,17.819,41.5,53.141,19.328,157.82-60.84,287.2C984.172,832.371,688.208,1081.223,470.8,1150.876,432.76,1163.062,398.774,1169.118,369.748,1169.118Zm730.817-891.7c-28.517,0-62.049,5.994-99.715,18.061-216.525,69.369-511.371,317.35-657.264,552.789-79.1,127.656-101.381,230.431-61.126,281.974,30.687,39.29,97.079,45.073,186.943,16.28,216.525-69.369,511.372-317.35,657.265-552.789,79.1-127.656,101.38-230.431,61.124-281.974C1169.966,288.937,1140.088,277.418,1100.565,277.418Z" transform="translate(-258.368 -272.884)" fill="#fef8ef"/>
        </g>
      </g>
      <g id="组_704" data-name="组 704" transform="translate(379.127 433.139)">
        <g id="组_703" data-name="组 703">
          <path id="路径_10117" data-name="路径 10117" d="M365.614,1174.315c-48.232,0-83.421-14.723-103.535-43.818-41.638-60.234-11.6-173.167,82.417-309.848C510.9,578.734,827.436,337.313,1050.1,282.483c91.736-22.588,156.234-11.367,186.529,32.457,41.638,60.232,11.6,173.167-82.419,309.846-166.405,241.917-482.938,483.336-705.6,538.166C417.78,1170.543,390.025,1174.315,365.614,1174.315Zm767.52-898.638c-24.022,0-51.422,3.733-81.938,11.248-221.736,54.6-537.071,295.19-702.932,536.317-92.88,135.027-122.922,246.07-82.425,304.654,29.123,42.125,91.945,52.713,181.675,30.615,221.734-54.6,537.065-295.19,702.929-536.317,92.88-135.027,122.922-246.07,82.423-304.655C1213.651,289.74,1179.754,275.676,1133.134,275.676Z" transform="translate(-243.745 -271.12)" fill="#fef8ef"/>
        </g>
      </g>
      <g id="组_706" data-name="组 706" transform="translate(350.549 431.253)">
        <g id="组_705" data-name="组 705">
          <path id="路径_10118" data-name="路径 10118" d="M365.332,1177.136c-57.726,0-98.679-17.935-119.932-53.031-41.251-68.13-2.565-189.348,106.14-332.568C538.4,545.353,874.776,313.925,1101.392,275.647l.379,2.253-.379-2.253c89.8-15.167,152.086,1.271,180.106,47.543,41.251,68.13,2.565,189.348-106.14,332.568C988.506,901.943,652.123,1133.371,425.507,1171.65A363.3,363.3,0,0,1,365.332,1177.136ZM1161.6,274.726a359.244,359.244,0,0,0-59.453,5.428C876.522,318.268,541.433,548.912,355.183,794.3c-105.929,139.566-145.508,261.971-105.869,327.434,26.966,44.536,87.626,60.234,175.434,45.406,225.631-38.114,560.718-268.759,746.969-514.148,105.928-139.565,145.508-261.971,105.869-327.434C1257.215,291.918,1217.608,274.726,1161.6,274.726Z" transform="translate(-229.261 -270.164)" fill="#fef8ef"/>
        </g>
      </g>
      <g id="组_708" data-name="组 708" transform="translate(322.962 430.358)">
        <g id="组_707" data-name="组 707" transform="translate(0)">
          <path id="路径_10119" data-name="路径 10119" d="M368.65,1178.467c-69.689,0-117.763-22.051-139.986-64.6-39.568-75.766,9.8-208.5,132.072-355.078,207.6-248.872,562.888-467.6,792-487.586,87.439-7.632,147.156,14.2,172.705,63.119,39.568,75.766-9.8,208.5-132.072,355.079-207.6,248.874-562.891,467.6-792.006,487.586Q384.3,1178.47,368.65,1178.467Zm784.289-904.992.2,2.279c-228.07,19.893-581.964,237.893-788.891,485.958C243.2,906.82,194.033,1037.672,232.717,1111.747c24.626,47.148,82.808,68.138,168.252,60.678,228.072-19.893,581.966-237.892,788.894-485.958,121.042-145.108,170.213-275.96,131.529-350.034-24.622-47.15-82.812-68.132-168.256-60.68Z" transform="translate(-215.279 -269.71)" fill="#fef8ef"/>
        </g>
      </g>
      <g id="组_710" data-name="组 710" transform="translate(295.653 430.125)">
        <g id="组_709" data-name="组 709" transform="translate(0)">
          <path id="路径_10120" data-name="路径 10120" d="M376.905,1178.816h-.111c-84.7-.025-141.533-27.43-164.355-79.253-37.565-85.3,22.345-226.244,160.257-377.023,228.462-249.777,601.415-452.949,831.44-452.949h.112c84.7.026,141.535,27.431,164.355,79.254,37.563,85.3-22.345,226.244-160.257,377.021C979.885,975.645,606.932,1178.807,376.905,1178.816Zm827.229-904.651c-228.908,0-600.336,202.488-828.064,451.461-136.651,149.4-196.258,288.5-159.444,372.094,22.033,50.037,77.419,76.5,160.168,76.52h.112c228.91.018,600.339-202.487,828.066-451.459,136.653-149.4,196.258-288.5,159.447-372.092-22.036-50.039-77.422-76.5-160.171-76.524Z" transform="translate(-201.438 -269.592)" fill="#fef8ef"/>
        </g>
      </g>
      <g id="组_712" data-name="组 712" transform="translate(269.385 430.115)">
        <g id="组_711" data-name="组 711">
          <path id="路径_10121" data-name="路径 10121" d="M390.114,1178.835q-19.88,0-38.431-1.756c-81.681-7.8-135.306-41.026-155.074-96.1-34.361-95.736,36.932-244.5,190.707-397.941,249.42-248.874,638.783-433.534,867.956-411.7,81.681,7.794,135.305,41.024,155.074,96.1,34.359,95.738-36.932,244.5-190.708,397.942C983.674,1000.828,622.446,1178.827,390.114,1178.835Zm826.554-904.686c-231.167,0-590.924,177.441-826.12,412.126C238.057,838.432,167.165,985.409,200.912,1079.433c19.127,53.289,71.413,85.478,151.206,93.091,227.949,21.75,615.706-162.342,864.287-410.381,152.491-152.158,223.382-299.134,189.636-393.159-19.127-53.287-71.414-85.478-151.207-93.091Q1236.425,274.138,1216.669,274.148Z" transform="translate(-188.125 -269.587)" fill="#fef8ef"/>
        </g>
      </g>
      <g id="组_714" data-name="组 714" transform="translate(244.414 429.781)">
        <g id="组_713" data-name="组 713">
          <path id="路径_10122" data-name="路径 10122" d="M409.087,1179.329c-29.594,0-57.345-2.467-82.873-7.583-78.481-15.735-128.573-55.124-144.857-113.908-29.643-107.008,53.861-262.991,223.376-417.256C674.913,394.709,1078.955,231.6,1305.37,277c78.483,15.733,128.574,55.122,144.859,113.905,29.641,107.008-53.863,262.991-223.378,417.256C987.13,1026.321,642.01,1179.315,409.087,1179.329Zm813.13-905.371c-231.726,0-575.437,152.536-814.4,370C239.6,797.046,156.59,951.309,185.764,1056.618c15.791,57.012,64.669,95.272,141.349,110.644,25.317,5.077,52.9,7.525,82.254,7.527,231.728.014,575.441-152.537,814.4-370.007,168.215-153.081,251.223-307.342,222.05-412.653-15.792-57.012-64.669-95.272-141.349-110.644C1279.156,276.411,1251.568,273.958,1222.217,273.958Z" transform="translate(-175.469 -269.418)" fill="#fef8ef"/>
        </g>
      </g>
      <g id="组_716" data-name="组 716" transform="translate(220.982 428.448)">
        <g id="组_715" data-name="组 715" transform="translate(0)">
          <path id="路径_10123" data-name="路径 10123" d="M434.825,1181.321c-49.678,0-95-5.951-134.234-18.45-75.182-23.953-121.389-69.961-133.629-133.049-23.077-118.95,73.418-281.285,258.12-434.246,290.607-240.664,707.373-379,929.022-308.382,75.18,23.953,121.39,69.96,133.628,133.047,23.077,118.951-73.416,281.285-258.119,434.248C990.447,1052.554,665.809,1181.31,434.825,1181.321Zm784.727-908.072C989.77,273.249,666.419,401.652,428,599.1,244.607,750.975,148.7,911.668,171.451,1028.949c11.9,61.347,57.038,106.147,130.527,129.562,220.355,70.2,635.178-67.764,924.717-307.545,183.4-151.88,279.3-312.573,256.549-429.854-11.9-61.344-57.035-106.147-130.526-129.562C1313.809,279.156,1268.828,273.249,1219.553,273.249Z" transform="translate(-163.593 -268.742)" fill="#fef8ef"/>
        </g>
      </g>
      <g id="组_718" data-name="组 718" transform="translate(199.313 425.265)">
        <g id="组_717" data-name="组 717" transform="translate(0)">
          <path id="路径_10124" data-name="路径 10124" d="M468.151,1186.075c-74.032,0-140.047-11.4-193.093-35.488-71.843-32.621-113.754-85.882-121.2-154.024C139.512,865.29,249.663,697.8,448.513,548.531c310.5-233.087,737.792-343.4,952.5-245.916,71.844,32.621,113.753,85.882,121.2,154.024,14.346,131.273-95.8,298.761-294.655,448.032C993.77,1080.17,693.764,1186.075,468.151,1186.075Zm739.5-914.476c-224.457,0-523.318,105.625-756.394,280.589C253.713,700.479,144.233,866.415,158.4,996.066c7.261,66.448,48.254,118.442,118.544,150.358,213.345,96.872,638.558-13.22,947.865-245.409,197.544-148.292,307.024-314.228,292.854-443.879-7.261-66.447-48.254-118.442-118.544-150.358C1346.54,282.9,1281.064,271.6,1207.651,271.6Z" transform="translate(-152.611 -267.129)" fill="#fef8ef"/>
        </g>
      </g>
      <g id="组_720" data-name="组 720" transform="translate(179.584 419.242)">
        <g id="组_719" data-name="组 719" transform="translate(0)">
          <path id="路径_10125" data-name="路径 10125" d="M509.4,1195.067c-102.947,0-193.174-19.293-259.491-59.944-68.489-41.985-105.571-103.35-107.233-177.462-3.216-143.523,121.082-314.585,332.5-457.591,329.671-223,765.02-301.977,970.455-176.05,68.49,41.985,105.569,103.35,107.231,177.464,3.218,143.522-121.082,314.585-332.495,457.591C997.107,1110.089,725.35,1195.067,509.4,1195.067Zm676.6-926.55c-214.892,0-485.661,84.765-708.259,235.339C267.608,645.988,144.064,815.6,147.247,957.558c1.624,72.483,37.95,132.536,105.048,173.666,204.047,125.081,637.171,46.154,965.5-175.937,210.122-142.132,333.667-311.74,330.486-453.7-1.624-72.485-37.95-132.537-105.048-173.668C1377.526,287.64,1288.063,268.517,1185.992,268.517Z" transform="translate(-142.612 -264.076)" fill="#fef8ef"/>
        </g>
      </g>
      <g id="组_722" data-name="组 722" transform="translate(161.973 409.302)">
        <g id="组_721" data-name="组 721">
          <path id="路径_10126" data-name="路径 10126" d="M557.974,1209.908c-136.15,0-254.41-30.3-332.526-93.149-65.076-52.355-96.6-122.921-91.16-204.067C144.684,757.61,283.341,584.97,505.2,450.879c347.9-210.267,788.531-254.539,982.25-98.691,65.076,52.356,96.6,122.921,91.156,204.067-10.392,155.083-149.054,327.724-370.914,461.812C1000.089,1143.542,759.448,1209.908,557.974,1209.908Zm596.978-946.439c-200.552,0-440.359,66.2-647.384,191.325C286.984,588.111,149.145,759.4,138.851,913c-5.335,79.592,25.6,148.821,89.463,200.2,192.337,154.74,630.624,110.313,977.017-99.043,220.584-133.317,358.421-304.607,368.718-458.2,5.335-79.592-25.6-148.819-89.463-200.2C1407.2,293.491,1289.961,263.469,1154.951,263.469Z" transform="translate(-133.686 -259.039)" fill="#fef8ef"/>
        </g>
      </g>
      <g id="组_724" data-name="组 724" transform="translate(146.674 394.384)">
        <g id="组_723" data-name="组 723">
          <path id="路径_10127" data-name="路径 10127" d="M612.056,1232.186c-172.889,0-322.685-45.277-410.046-136.4-61.463-64.1-86.423-145.2-72.179-234.53,26.342-165.192,179.2-336.993,408.9-459.569,364.954-194.75,807.836-200.946,987.25-13.815,61.463,64.105,86.423,145.2,72.179,234.529-26.342,165.194-179.2,337-408.9,459.571C1002.012,1181.892,794.218,1232.186,612.056,1232.186Zm504.053-976.268c-181.4,0-388.489,50.159-575.224,149.806C312.44,527.628,160.462,698.191,134.347,861.977c-14.011,87.859,10.528,167.615,70.96,230.645,178.1,185.753,618.527,179.167,981.8-14.683,228.447-121.9,380.427-292.467,406.54-456.256,14.013-87.857-10.528-167.613-70.96-230.643C1436.136,300.77,1287.6,255.918,1116.109,255.918Z" transform="translate(-125.933 -251.477)" fill="#fef8ef"/>
        </g>
      </g>
      <g id="组_726" data-name="组 726" transform="translate(133.788 373.552)">
        <g id="组_725" data-name="组 725">
          <path id="路径_10128" data-name="路径 10128" d="M668.62,1263.289c-211.762.01-395.807-65.287-488.644-190.822-57.412-77.631-74.444-170.79-49.252-269.408C174.917,630.042,341.34,461.867,575.909,353.19,956.5,176.859,1398.288,212.1,1560.724,431.742h0c57.412,77.631,74.442,170.789,49.254,269.407-44.193,173.019-210.616,341.194-445.183,449.869C1001.724,1226.572,827.371,1263.283,668.62,1263.289Zm403.719-1017.9C914.2,245.389,740.449,282,577.83,357.34,344.5,465.443,179.011,632.491,135.154,804.19c-24.837,97.243-8.068,189.07,48.5,265.558,161.22,217.993,600.491,252.589,979.223,77.123,233.332-108.1,398.818-275.153,442.675-446.852,24.837-97.243,8.066-189.07-48.5-265.558C1465.057,310.071,1282.5,245.389,1072.338,245.389Z" transform="translate(-119.402 -240.92)" fill="#fef8ef"/>
        </g>
      </g>
      <g id="组_728" data-name="组 728" transform="translate(123.359 346.12)">
        <g id="组_727" data-name="组 727" transform="translate(0 0)">
          <path id="路径_10129" data-name="路径 10129" d="M723.948,1304.249c-251.228.012-470.76-91.521-564.167-257.3-52.574-93.313-59.9-200.147-21.2-308.95,63.239-177.756,242.041-339.252,478.3-432,394.573-154.9,831.655-74.9,974.326,178.323,52.574,93.313,59.906,200.145,21.2,308.95-63.237,177.758-242.039,339.252-478.295,432C997.848,1278.765,856.469,1304.243,723.948,1304.249ZM1027.286,231.522c-132.022,0-272.894,25.4-408.736,78.729C383.51,402.524,205.7,563,142.893,739.529,104.641,847.05,111.859,952.578,163.764,1044.7c141.606,251.317,576.144,330.408,968.671,176.31,235.041-92.273,412.856-252.751,475.659-429.279,38.25-107.521,31.033-213.047-20.873-305.172h0C1494.625,322.218,1276.756,231.522,1027.286,231.522Z" transform="translate(-114.116 -227.016)" fill="#fef8ef"/>
        </g>
      </g>
      <g id="组_730" data-name="组 730" transform="translate(115.38 311.693)">
        <g id="组_729" data-name="组 729" transform="translate(0)">
          <path id="路径_10130" data-name="路径 10130" d="M774.408,1355.656c-289.967.012-544.361-125.135-632.514-336.378-46.523-111.487-41.959-233.547,13.2-352.987,82.546-178.76,271.975-330.417,506.719-405.676,406.6-130.367,835.092-2.37,955.154,285.33,46.523,111.485,41.961,233.545-13.194,352.985-82.544,178.761-271.972,330.417-506.719,405.68C988.992,1339.256,879.356,1355.654,774.408,1355.656ZM984.629,214.106c-104.547,0-213.731,16.335-321.425,50.862C429.657,339.846,241.258,490.591,159.239,668.207c-54.6,118.248-59.143,239.038-13.125,349.309,87.433,209.517,340.057,333.592,628.115,333.6,104.549,0,213.731-16.337,321.426-50.864,233.547-74.878,421.946-225.623,503.965-403.241,54.6-118.246,59.141-239.036,13.123-349.307C1525.309,338.191,1272.685,214.106,984.629,214.106Z" transform="translate(-110.072 -209.568)" fill="#fef8ef"/>
        </g>
      </g>
      <g id="组_732" data-name="组 732" transform="translate(109.786 270.154)">
        <g id="组_731" data-name="组 731">
          <path id="路径_10131" data-name="路径 10131" d="M817.1,1417.681c-327.218,0-613.827-167.118-690.286-428.3C88.063,857,107.069,718.412,181.778,588.588,284.366,410.316,477.2,275.044,710.848,217.456c416.484-102.653,832.2,76.5,926.71,399.356,38.751,132.378,19.747,270.97-54.96,400.795-102.586,178.271-295.425,313.545-529.072,371.135A989,989,0,0,1,817.1,1417.681ZM947.364,193.075A984.412,984.412,0,0,0,711.943,221.9c-232.44,57.292-424.235,191.777-526.2,368.971C111.671,719.586,92.81,856.947,131.206,988.1c75.875,259.187,360.646,425.006,685.8,425.022a984.222,984.222,0,0,0,235.421-28.821c232.442-57.292,424.237-191.779,526.2-368.975,74.071-128.718,92.928-266.077,54.534-397.227C1557.293,358.91,1272.523,193.075,947.364,193.075Z" transform="translate(-107.237 -188.515)" fill="#fef8ef"/>
        </g>
      </g>
      <g id="组_734" data-name="组 734" transform="translate(106.746 221.608)">
        <g id="组_733" data-name="组 733" transform="translate(0)">
          <path id="路径_10132" data-name="路径 10132" d="M850,1490.169c-362.776.018-677.1-218.256-735.055-533.048-28.327-153.852,8.885-314.054,104.78-451.094C339.32,335.125,537.7,215.148,764.012,176.864c423.872-71.715,822.411,161.609,888.41,520.095,28.328,153.853-8.883,314.054-104.776,451.092-119.592,170.9-317.979,290.88-544.287,329.164A920.024,920.024,0,0,1,850,1490.169Zm67.39-1321.686a914.8,914.8,0,0,0-152.621,12.89c-225.108,38.08-422.4,157.368-541.3,327.276-95.189,136.028-132.135,295-104.032,447.643,57.553,312.582,369.963,529.3,730.533,529.3a914.578,914.578,0,0,0,152.621-12.89c225.11-38.08,422.406-157.369,541.3-327.278,95.187-136.026,132.131-295,104.029-447.641h0C1590.377,385.205,1277.967,168.483,917.395,168.483Z" transform="translate(-105.696 -163.911)" fill="#fef8ef"/>
        </g>
      </g>
      <g id="组_736" data-name="组 736" transform="translate(105.041 166.281)">
        <g id="组_735" data-name="组 735" transform="translate(0 0)">
          <path id="路径_10133" data-name="路径 10133" d="M872.674,1572.748c-396.923.033-732.808-279.074-765.3-650.43-34.5-394.343,286.06-745.663,714.585-783.153,207.552-18.156,409.192,39.136,567.782,161.329,158.645,122.236,255.221,294.777,271.937,485.842s-48.431,377.751-183.443,525.68c-134.962,147.874-323.59,239.314-531.14,257.472C922.119,1571.673,897.244,1572.746,872.674,1572.748ZM897.193,140.442q-37.226,0-74.835,3.277c-426.011,37.271-744.708,386.37-710.427,778.2,32.28,368.943,366.215,646.233,760.745,646.255q36.714,0,74.022-3.242c206.4-18.058,393.974-108.973,528.162-256,134.138-146.971,198.866-332.426,182.263-522.2S1544.571,425.563,1386.95,304.116C1248.412,197.373,1076.806,140.442,897.193,140.442Z" transform="translate(-104.832 -135.87)" fill="#fef8ef"/>
        </g>
      </g>
      <g id="组_738" data-name="组 738" transform="translate(104.617 104.617)">
        <g id="组_737" data-name="组 737">
          <path id="路径_10134" data-name="路径 10134" d="M884.735,1664.857c-430.158,0-780.118-349.96-780.118-780.12s349.96-780.12,780.118-780.12,780.12,349.96,780.12,780.12S1314.9,1664.857,884.735,1664.857Zm0-1555.667c-427.636,0-775.545,347.908-775.545,775.547S457.1,1660.284,884.735,1660.284s775.549-347.908,775.549-775.547S1312.373,109.191,884.735,109.191Z" transform="translate(-104.617 -104.617)" fill="#fef8ef"/>
        </g>
      </g>
    </g>
  </g>
</svg>
