<svg xmlns="http://www.w3.org/2000/svg" width="224.999" height="225" viewBox="0 0 224.999 225">
  <g id="组_739" data-name="组 739" transform="translate(-104.617 -104.617)">
    <g id="组_698" data-name="组 698" transform="translate(156.659 154.01)">
      <g id="组_697" data-name="组 697">
        <path id="路径_10114" data-name="路径 10114" d="M301.2,404.423c-4.3,0-7.719-1.2-10.08-3.612-5.8-5.921-4.549-18.692,3.433-35.037,15.579-31.9,52.134-68.911,81.488-82.5,13.4-6.207,23.628-6.72,28.793-1.447,5.8,5.921,4.549,18.692-3.433,35.037-15.58,31.9-52.135,68.911-81.488,82.5C312.64,402.731,306.3,404.423,301.2,404.423Zm74.979-120.854.139.3c-29.236,13.539-65.65,50.412-81.172,82.2-7.853,16.079-9.148,28.576-3.555,34.286,4.956,5.058,14.916,4.5,28.046-1.585,29.236-13.539,65.65-50.411,81.172-82.2,7.853-16.079,9.148-28.576,3.555-34.286-4.955-5.058-14.915-4.5-28.045,1.585Z" transform="translate(-287.518 -278.21)" fill="#f5e9d7"/>
      </g>
    </g>
    <g id="组_700" data-name="组 700" transform="translate(152.528 153.15)">
      <g id="组_699" data-name="组 699">
        <path id="路径_10115" data-name="路径 10115" d="M287.726,403.121c-5.025,0-8.929-1.444-11.456-4.327-5.911-6.745-3.739-20.666,5.96-38.192,18.3-33.063,57.94-69.675,88.366-81.613,13.365-5.244,23.419-5.057,28.312.526,5.911,6.746,3.739,20.666-5.961,38.192-18.3,33.063-57.939,69.675-88.366,81.613C298.12,401.855,292.431,403.121,287.726,403.121Zm99.73-127.282c-4.612,0-10.221,1.253-16.618,3.763-30.3,11.89-69.795,48.369-88.03,81.318-9.557,17.269-11.759,30.915-6.042,37.439,4.7,5.358,14.488,5.481,27.575.347,30.3-11.89,69.795-48.37,88.03-81.318,9.557-17.269,11.759-30.914,6.042-37.438C396.013,277.21,392.28,275.839,387.457,275.839Z" transform="translate(-273.001 -275.187)" fill="#f5e9d7"/>
      </g>
    </g>
    <g id="组_702" data-name="组 702" transform="translate(148.364 152.495)">
      <g id="组_701" data-name="组 701">
        <path id="路径_10116" data-name="路径 10116" d="M274.43,402.128c-5.919,0-10.409-1.745-13.107-5.2-5.985-7.663-2.787-22.759,8.774-41.416,21.11-34.066,63.79-69.953,95.142-80,13.242-4.243,23.072-3.33,27.679,2.57,5.985,7.663,2.787,22.759-8.774,41.416-21.11,34.066-63.79,69.953-95.142,80A48.743,48.743,0,0,1,274.43,402.128Zm105.39-128.59a48.144,48.144,0,0,0-14.38,2.6c-31.225,10-73.744,45.764-94.783,79.717-11.407,18.409-14.62,33.23-8.815,40.663,4.425,5.666,14,6.5,26.959,2.348,31.225-10,73.744-45.764,94.783-79.717,11.407-18.409,14.62-33.23,8.815-40.663C389.828,275.2,385.519,273.538,379.82,273.538Z" transform="translate(-258.368 -272.884)" fill="#f5e9d7"/>
      </g>
    </g>
    <g id="组_704" data-name="组 704" transform="translate(144.204 151.993)">
      <g id="组_703" data-name="组 703">
        <path id="路径_10117" data-name="路径 10117" d="M261.319,401.368c-6.955,0-12.03-2.123-14.931-6.319-6-8.686-1.672-24.972,11.885-44.683,24-34.886,69.644-69.7,101.754-77.608,13.229-3.257,22.53-1.639,26.9,4.681,6,8.686,1.672,24.972-11.886,44.682-24,34.886-69.644,69.7-101.753,77.608A50.686,50.686,0,0,1,261.319,401.368ZM372,271.777a50.056,50.056,0,0,0-11.816,1.622c-31.976,7.874-77.45,42.569-101.369,77.341-13.394,19.472-17.726,35.485-11.886,43.934,4.2,6.075,13.259,7.6,26.2,4.415,31.976-7.874,77.449-42.569,101.368-77.341,13.394-19.472,17.726-35.485,11.886-43.934C383.613,273.8,378.725,271.777,372,271.777Z" transform="translate(-243.745 -271.12)" fill="#f5e9d7"/>
      </g>
    </g>
    <g id="组_706" data-name="组 706" transform="translate(140.082 151.721)">
      <g id="组_705" data-name="组 705">
        <path id="路径_10118" data-name="路径 10118" d="M248.883,400.957c-8.325,0-14.23-2.586-17.3-7.647-5.949-9.825-.37-27.306,15.306-47.959,26.946-35.5,75.455-68.876,108.135-74.4l.055.325-.055-.325c12.95-2.187,21.932.183,25.973,6.856,5.949,9.825.37,27.306-15.306,47.959-26.946,35.5-75.455,68.876-108.135,74.4A52.4,52.4,0,0,1,248.883,400.957ZM363.712,270.822a51.806,51.806,0,0,0-8.574.783c-32.538,5.5-80.86,38.757-107.719,74.144-15.276,20.127-20.983,37.778-15.267,47.219,3.889,6.422,12.636,8.686,25.3,6.548,32.538-5.5,80.86-38.757,107.719-74.144,15.276-20.126,20.983-37.778,15.267-47.219C377.5,273.3,371.789,270.822,363.712,270.822Z" transform="translate(-229.261 -270.164)" fill="#f5e9d7"/>
      </g>
    </g>
    <g id="组_708" data-name="组 708" transform="translate(136.104 151.591)">
      <g id="组_707" data-name="组 707" transform="translate(0)">
        <path id="路径_10119" data-name="路径 10119" d="M237.4,400.76c-10.05,0-16.982-3.18-20.187-9.316-5.706-10.926,1.414-30.068,19.046-51.205,29.937-35.889,81.173-67.432,114.213-70.314,12.609-1.1,21.221,2.048,24.906,9.1,5.706,10.926-1.414,30.068-19.046,51.205-29.937,35.89-81.173,67.432-114.214,70.314Q239.653,400.761,237.4,400.76ZM350.5,270.253l.028.329c-32.89,2.869-83.924,34.306-113.764,70.079-17.455,20.926-24.546,39.8-18.968,50.478,3.551,6.8,11.942,9.826,24.263,8.75,32.89-2.869,83.924-34.306,113.765-70.079,17.455-20.926,24.546-39.8,18.968-50.478-3.551-6.8-11.942-9.825-24.264-8.751Z" transform="translate(-215.279 -269.71)" fill="#f5e9d7"/>
      </g>
    </g>
    <g id="组_710" data-name="组 710" transform="translate(132.166 151.558)">
      <g id="组_709" data-name="组 709" transform="translate(0)">
        <path id="路径_10120" data-name="路径 10120" d="M226.742,400.71h-.016c-12.214,0-20.41-3.956-23.7-11.429-5.417-12.3,3.222-32.626,23.11-54.37,32.946-36.02,86.729-65.319,119.9-65.319h.016c12.214,0,20.41,3.956,23.7,11.429,5.417,12.3-3.222,32.626-23.11,54.37C313.7,371.411,259.914,400.708,226.742,400.71ZM346.035,270.252c-33.01,0-86.573,29.2-119.414,65.1-19.706,21.545-28.3,41.6-22.993,53.659,3.177,7.216,11.165,11.032,23.1,11.035h.016c33.011,0,86.574-29.2,119.414-65.1,19.707-21.545,28.3-41.6,22.993-53.659-3.178-7.216-11.165-11.032-23.1-11.035Z" transform="translate(-201.438 -269.592)" fill="#f5e9d7"/>
      </g>
    </g>
    <g id="组_712" data-name="组 712" transform="translate(128.378 151.557)">
      <g id="组_711" data-name="组 711">
        <path id="路径_10121" data-name="路径 10121" d="M217.254,400.708q-2.867,0-5.542-.253c-11.779-1.124-19.512-5.916-22.363-13.858-4.955-13.806,5.326-35.259,27.5-57.386,35.968-35.89,92.118-62.519,125.166-59.37,11.779,1.124,19.512,5.916,22.363,13.858,4.955,13.806-5.326,35.259-27.5,57.386C302.85,375.038,250.758,400.707,217.254,400.708Zm119.2-130.463c-33.336,0-85.216,25.588-119.133,59.432-21.99,21.942-32.214,43.138-27.347,56.7,2.758,7.685,10.3,12.327,21.805,13.425,32.872,3.136,88.79-23.411,124.637-59.18,21.99-21.942,32.213-43.138,27.347-56.7-2.758-7.684-10.3-12.327-21.805-13.425Q339.3,270.243,336.45,270.245Z" transform="translate(-188.125 -269.587)" fill="#f5e9d7"/>
      </g>
    </g>
    <g id="组_714" data-name="组 714" transform="translate(124.777 151.508)">
      <g id="组_713" data-name="组 713">
        <path id="路径_10122" data-name="路径 10122" d="M209.159,400.634a60.976,60.976,0,0,1-11.951-1.093c-11.318-2.269-18.541-7.949-20.89-16.426-4.275-15.431,7.767-37.925,32.213-60.172,38.962-35.457,97.229-58.978,129.879-52.431,11.318,2.269,18.541,7.949,20.89,16.426,4.275,15.431-7.767,37.925-32.213,60.172C292.517,378.569,242.748,400.633,209.159,400.634Zm117.26-130.562c-33.417,0-82.983,22-117.444,53.358-24.258,22.076-36.228,44.322-32.021,59.508,2.277,8.222,9.326,13.739,20.384,15.956A60.576,60.576,0,0,0,209.2,399.98c33.417,0,82.983-22,117.444-53.358,24.258-22.076,36.229-44.321,32.021-59.508-2.277-8.222-9.326-13.739-20.384-15.956A60.579,60.579,0,0,0,326.419,270.073Z" transform="translate(-175.469 -269.418)" fill="#f5e9d7"/>
      </g>
    </g>
    <g id="组_716" data-name="组 716" transform="translate(121.398 151.316)">
      <g id="组_715" data-name="组 715" transform="translate(0)">
        <path id="路径_10123" data-name="路径 10123" d="M202.707,400.343a64.147,64.147,0,0,1-19.358-2.661c-10.842-3.454-17.505-10.089-19.27-19.187-3.328-17.154,10.588-40.564,37.223-62.622,41.908-34.706,102.009-54.655,133.973-44.471,10.842,3.454,17.505,10.089,19.27,19.186,3.328,17.154-10.587,40.564-37.223,62.622C282.833,381.774,236.017,400.342,202.707,400.343ZM315.871,269.392c-33.137,0-79.766,18.517-114.148,46.99-26.447,21.9-40.278,45.076-37,61.988,1.716,8.847,8.225,15.307,18.823,18.684,31.777,10.124,91.6-9.772,133.352-44.351,26.447-21.9,40.277-45.076,37-61.989-1.716-8.846-8.225-15.307-18.823-18.684A63.664,63.664,0,0,0,315.871,269.392Z" transform="translate(-163.593 -268.742)" fill="#f5e9d7"/>
      </g>
    </g>
    <g id="组_718" data-name="组 718" transform="translate(118.273 150.857)">
      <g id="组_717" data-name="组 717" transform="translate(0)">
        <path id="路径_10124" data-name="路径 10124" d="M198.115,399.648c-10.676,0-20.2-1.644-27.846-5.118-10.36-4.7-16.4-12.385-17.478-22.212-2.069-18.931,13.816-43.084,42.492-64.61,44.777-33.613,106.4-49.522,137.358-35.463,10.36,4.7,16.4,12.385,17.478,22.212,2.069,18.931-13.816,43.084-42.492,64.61C273.913,384.376,230.65,399.648,198.115,399.648ZM304.757,267.773c-32.368,0-75.467,15.232-109.078,40.463-28.487,21.385-44.275,45.314-42.232,64.011,1.047,9.582,6.959,17.08,17.1,21.683,30.766,13.97,92.085-1.906,136.69-35.39,28.488-21.385,44.275-45.314,42.232-64.011-1.047-9.582-6.959-17.08-17.1-21.683C324.785,269.4,315.343,267.773,304.757,267.773Z" transform="translate(-152.611 -267.129)" fill="#f5e9d7"/>
      </g>
    </g>
    <g id="组_720" data-name="组 720" transform="translate(115.428 149.988)">
      <g id="组_719" data-name="组 719" transform="translate(0)">
        <path id="路径_10125" data-name="路径 10125" d="M195.505,398.333c-14.846,0-27.857-2.782-37.421-8.644-9.877-6.055-15.224-14.9-15.464-25.592-.464-20.7,17.461-45.366,47.949-65.988,47.541-32.159,110.322-43.548,139.948-25.388,9.877,6.055,15.224,14.9,15.464,25.592.464,20.7-17.461,45.366-47.948,65.988C265.837,386.078,226.648,398.333,195.505,398.333Zm97.571-133.616c-30.989,0-70.036,12.224-102.137,33.938-30.3,20.5-48.118,44.956-47.659,65.428.234,10.453,5.473,19.113,15.149,25.044,29.425,18.038,91.885,6.656,139.233-25.372,30.3-20.5,48.117-44.955,47.659-65.427-.234-10.453-5.473-19.113-15.149-25.044C320.7,267.474,307.8,264.717,293.076,264.717Z" transform="translate(-142.612 -264.076)" fill="#f5e9d7"/>
      </g>
    </g>
    <g id="组_722" data-name="组 722" transform="translate(112.888 148.555)">
      <g id="组_721" data-name="组 721">
        <path id="路径_10126" data-name="路径 10126" d="M194.872,396.162c-19.634,0-36.688-4.37-47.953-13.433-9.384-7.55-13.93-17.726-13.146-29.428,1.5-22.364,21.495-47.26,53.489-66.6,50.17-30.322,113.713-36.707,141.649-14.232,9.384,7.55,13.93,17.726,13.145,29.428-1.5,22.364-21.495,47.26-53.489,66.6C258.629,386.591,223.926,396.162,194.872,396.162Zm86.089-136.484c-28.921,0-63.5,9.547-93.358,27.591-31.81,19.225-51.688,43.927-53.172,66.077-.769,11.478,3.692,21.461,12.9,28.87,27.737,22.315,90.941,15.908,140.894-14.283,31.81-19.225,51.687-43.927,53.172-66.077.769-11.478-3.692-21.461-12.9-28.87C317.337,264.007,300.431,259.678,280.961,259.678Z" transform="translate(-133.686 -259.039)" fill="#f5e9d7"/>
      </g>
    </g>
    <g id="组_724" data-name="组 724" transform="translate(110.682 146.404)">
      <g id="组_723" data-name="组 723">
        <path id="路径_10127" data-name="路径 10127" d="M196.035,392.9c-24.932,0-46.534-6.529-59.132-19.67-8.864-9.244-12.463-20.939-10.409-33.821,3.8-23.822,25.842-48.6,58.967-66.274,52.629-28.085,116.5-28.978,142.369-1.992,8.864,9.244,12.463,20.94,10.409,33.821-3.8,23.822-25.842,48.6-58.967,66.274C252.27,385.651,222.3,392.9,196.035,392.9Zm72.689-140.786c-26.159,0-56.023,7.233-82.952,21.6-32.944,17.58-54.86,42.176-58.626,65.8-2.02,12.67,1.518,24.171,10.233,33.261,25.683,26.787,89.2,25.837,141.583-2.117,32.944-17.58,54.861-42.176,58.626-65.8,2.021-12.67-1.518-24.171-10.233-33.261C314.875,258.586,293.455,252.118,268.724,252.118Z" transform="translate(-125.933 -251.477)" fill="#f5e9d7"/>
      </g>
    </g>
    <g id="组_726" data-name="组 726" transform="translate(108.824 143.4)">
      <g id="组_725" data-name="组 725">
        <path id="路径_10128" data-name="路径 10128" d="M198.6,388.354c-30.538,0-57.079-9.415-70.466-27.518-8.279-11.195-10.735-24.629-7.1-38.851,6.373-24.95,30.373-49.2,64.2-64.875,54.885-25.428,118.594-20.347,142.018,11.328h0c8.279,11.2,10.735,24.629,7.1,38.851-6.373,24.951-30.373,49.2-64.2,64.875A172.85,172.85,0,0,1,198.6,388.354Zm58.22-146.789c-22.8,0-47.861,5.279-71.312,16.144C151.862,273.3,128,297.387,121.673,322.148c-3.582,14.023-1.163,27.265,6.994,38.3,23.249,31.436,86.6,36.425,141.212,11.122,33.648-15.59,57.513-39.679,63.837-64.44,3.582-14.023,1.163-27.265-6.994-38.3C313.456,250.892,287.129,241.564,256.823,241.564Z" transform="translate(-119.402 -240.92)" fill="#f5e9d7"/>
      </g>
    </g>
    <g id="组_728" data-name="组 728" transform="translate(107.32 139.444)">
      <g id="组_727" data-name="组 727" transform="translate(0 0)">
        <path id="路径_10129" data-name="路径 10129" d="M202.059,382.362c-36.229,0-67.887-13.2-81.358-37.1-7.582-13.456-8.639-28.863-3.057-44.553,9.12-25.634,34.9-48.923,68.974-62.3,56.9-22.338,119.931-10.8,140.506,25.716,7.582,13.456,8.639,28.862,3.057,44.553-9.119,25.634-34.9,48.923-68.974,62.3A163.154,163.154,0,0,1,202.059,382.362Zm43.744-154.7A162.571,162.571,0,0,0,186.86,239.02c-33.895,13.306-59.537,36.449-68.594,61.905-5.516,15.505-4.475,30.723,3.01,44.009,20.421,36.242,83.085,47.647,139.69,25.425,33.895-13.307,59.537-36.449,68.594-61.906,5.516-15.505,4.475-30.723-3.01-44.008h0C313.2,240.745,281.778,227.666,245.8,227.666Z" transform="translate(-114.116 -227.017)" fill="#f5e9d7"/>
      </g>
    </g>
    <g id="组_730" data-name="组 730" transform="translate(106.169 134.479)">
      <g id="组_729" data-name="组 729" transform="translate(0)">
        <path id="路径_10130" data-name="路径 10130" d="M205.875,374.843c-41.816,0-78.5-18.045-91.214-48.508-6.709-16.077-6.051-33.679,1.9-50.9,11.9-25.779,39.221-47.649,73.073-58.5,58.636-18.8,120.427-.342,137.741,41.147,6.709,16.077,6.051,33.679-1.9,50.9-11.9,25.779-39.221,47.649-73.073,58.5A152.912,152.912,0,0,1,205.875,374.843ZM236.19,210.222a152.31,152.31,0,0,0-46.352,7.335c-33.679,10.8-60.848,32.537-72.676,58.15-7.874,17.052-8.529,34.471-1.893,50.373,12.609,30.214,49.039,48.107,90.579,48.108a152.3,152.3,0,0,0,46.352-7.335c33.679-10.8,60.848-32.537,72.676-58.151,7.874-17.052,8.529-34.471,1.892-50.373C314.161,228.117,277.73,210.222,236.19,210.222Z" transform="translate(-110.072 -209.568)" fill="#f5e9d7"/>
      </g>
    </g>
    <g id="组_732" data-name="组 732" transform="translate(105.362 128.489)">
      <g id="组_731" data-name="组 731">
        <path id="路径_10131" data-name="路径 10131" d="M209.605,365.771c-47.188,0-88.519-24.1-99.545-61.764-5.589-19.09-2.848-39.076,7.926-57.8,14.794-25.708,42.6-45.216,76.3-53.52,60.06-14.8,120.009,11.032,133.639,57.59,5.588,19.09,2.848,39.076-7.926,57.8-14.794,25.708-42.6,45.216-76.3,53.521A142.623,142.623,0,0,1,209.605,365.771Zm18.785-176.6a141.96,141.96,0,0,0-33.95,4.156c-33.52,8.262-61.178,27.656-75.883,53.209-10.682,18.562-13.4,38.371-7.865,57.284,10.942,37.377,52.008,61.289,98.9,61.292a141.933,141.933,0,0,0,33.95-4.156c33.52-8.262,61.178-27.656,75.883-53.209,10.682-18.562,13.4-38.371,7.864-57.283C316.347,213.087,275.281,189.173,228.39,189.173Z" transform="translate(-107.237 -188.515)" fill="#f5e9d7"/>
      </g>
    </g>
    <g id="组_734" data-name="组 734" transform="translate(104.924 121.488)">
      <g id="组_733" data-name="组 733" transform="translate(0)">
        <path id="路径_10132" data-name="路径 10132" d="M213.032,355.168c-52.315,0-97.643-31.474-106-76.87-4.085-22.187,1.281-45.289,15.11-65.051C139.387,188.6,168,171.3,200.631,165.779c61.126-10.342,118.6,23.305,128.116,75,4.085,22.187-1.281,45.289-15.11,65.051-17.246,24.646-45.855,41.947-78.491,47.468A132.675,132.675,0,0,1,213.032,355.168Zm9.718-190.6a131.922,131.922,0,0,0-22.009,1.859c-32.462,5.491-60.914,22.694-78.06,47.2-13.727,19.616-19.055,42.542-15,64.554,8.3,45.077,53.352,76.329,105.349,76.33a131.891,131.891,0,0,0,22.009-1.859c32.463-5.491,60.914-22.694,78.06-47.2,13.727-19.616,19.054-42.542,15-64.554h0C319.8,195.823,274.747,164.57,222.75,164.57Z" transform="translate(-105.696 -163.911)" fill="#f5e9d7"/>
      </g>
    </g>
    <g id="组_736" data-name="组 736" transform="translate(104.678 113.509)">
      <g id="组_735" data-name="组 735" transform="translate(0 0)">
        <path id="路径_10133" data-name="路径 10133" d="M215.561,343.079c-57.24,0-105.677-40.245-110.362-93.8-4.975-56.867,41.252-107.531,103.049-112.937,29.931-2.618,59.009,5.644,81.879,23.265s36.8,42.509,39.216,70.062-6.984,54.475-26.454,75.807-46.664,34.511-76.595,37.13C222.692,342.924,219.1,343.079,215.561,343.079Zm3.536-206.55q-5.368,0-10.792.473c-61.434,5.375-107.393,55.718-102.449,112.223,4.655,53.2,52.811,93.192,109.706,93.2q5.294,0,10.675-.467c29.765-2.6,56.814-15.715,76.165-36.917s28.678-47.939,26.284-75.306-16.231-52.084-38.961-69.6A115.265,115.265,0,0,0,219.1,136.529Z" transform="translate(-104.832 -135.87)" fill="#f5e9d7"/>
      </g>
    </g>
    <g id="组_738" data-name="组 738" transform="translate(104.617 104.617)">
      <g id="组_737" data-name="组 737">
        <path id="路径_10134" data-name="路径 10134" d="M217.116,329.616a112.5,112.5,0,1,1,112.5-112.5A112.627,112.627,0,0,1,217.116,329.616Zm0-224.34a111.84,111.84,0,1,0,111.84,111.84A111.967,111.967,0,0,0,217.116,105.277Z" transform="translate(-104.617 -104.617)" fill="#f5e9d7"/>
      </g>
    </g>
  </g>
</svg>
