<svg xmlns="http://www.w3.org/2000/svg" width="777" height="649.228" viewBox="0 0 777 649.228">
  <g id="组_1686" data-name="组 1686" transform="translate(-955.5 -2813)">
    <path id="路径_10419" data-name="路径 10419" d="M0,130.206,62.778,118.58,124.907,9.733l63.427,98.384,62.778-34.877,62.778-11.626,62.346,16.164.432.112,62.778,23.251,62.778-43.014,62.7-16.046" transform="translate(1084.5 2965.794)" fill="none" stroke="#c4aa88" stroke-linecap="round" stroke-linejoin="round" stroke-width="2.25"/>
    <text id="ROE" transform="translate(1332 2828)" fill="#595757" font-size="20" font-family="Helvetica" letter-spacing="0.085em"><tspan x="-23.37" y="0">ROE</tspan></text>
    <path id="路径_10334" data-name="路径 10334" d="M-4864,2173.108l-1,428.9h623.5" transform="translate(5921.5 771.629)" fill="none" stroke="#000" stroke-width="1"/>
    <text id="_2021" data-name="2021" transform="translate(1636.5 3418)" font-size="14" font-family="Helvetica"><tspan x="0" y="0">2021</tspan></text>
    <text id="_2020" data-name="2020" transform="translate(1573.5 3418)" font-size="14" font-family="Helvetica"><tspan x="0" y="0">2020</tspan></text>
    <text id="_2019" data-name="2019" transform="translate(1510.5 3418)" font-size="14" font-family="Helvetica"><tspan x="0" y="0">2019</tspan></text>
    <text id="_2018" data-name="2018" transform="translate(1448.5 3418)" font-size="14" font-family="Helvetica"><tspan x="0" y="0">2018</tspan></text>
    <text id="_2017" data-name="2017" transform="translate(1385.5 3418)" font-size="14" font-family="Helvetica"><tspan x="0" y="0">2017</tspan></text>
    <text id="_2016" data-name="2016" transform="translate(1322.5 3418)" font-size="14" font-family="Helvetica"><tspan x="0" y="0">2016</tspan></text>
    <text id="_2015" data-name="2015" transform="translate(1259.5 3418)" font-size="14" font-family="Helvetica"><tspan x="0" y="0">2015</tspan></text>
    <text id="_2014" data-name="2014" transform="translate(1197.5 3418)" font-size="14" font-family="Helvetica"><tspan x="0" y="0">2014</tspan></text>
    <text id="_2013" data-name="2013" transform="translate(1134.5 3418)" font-size="14" font-family="Helvetica"><tspan x="0" y="0">2013</tspan></text>
    <text id="_2012" data-name="2012" transform="translate(1071.5 3418)" font-size="14" font-family="Helvetica"><tspan x="0" y="0">2012</tspan></text>
    <line id="直线_632" data-name="直线 632" y1="15.958" transform="translate(1119 3374)" fill="none" stroke="#000" stroke-width="1"/>
    <line id="直线_633" data-name="直线 633" y1="15.958" transform="translate(1182 3374)" fill="none" stroke="#000" stroke-width="1"/>
    <line id="直线_634" data-name="直线 634" y1="15.958" transform="translate(1244 3374)" fill="none" stroke="#000" stroke-width="1"/>
    <line id="直线_635" data-name="直线 635" y1="15.958" transform="translate(1306 3374)" fill="none" stroke="#000" stroke-width="1"/>
    <line id="直线_636" data-name="直线 636" y1="15.958" transform="translate(1369 3374)" fill="none" stroke="#000" stroke-width="1"/>
    <line id="直线_637" data-name="直线 637" y1="15.958" transform="translate(1431 3374)" fill="none" stroke="#000" stroke-width="1"/>
    <line id="直线_638" data-name="直线 638" y1="15.958" transform="translate(1493 3374)" fill="none" stroke="#000" stroke-width="1"/>
    <line id="直线_639" data-name="直线 639" y1="15.958" transform="translate(1555 3374)" fill="none" stroke="#000" stroke-width="1"/>
    <line id="直线_640" data-name="直线 640" y1="15.958" transform="translate(1618 3374)" fill="none" stroke="#000" stroke-width="1"/>
    <line id="直线_641" data-name="直线 641" y1="15.958" transform="translate(1680 3374)" fill="none" stroke="#000" stroke-width="1"/>
    <line id="直线_622" data-name="直线 622" y1="15.958" transform="translate(1041.042 3324.5) rotate(-90)" fill="none" stroke="#000" stroke-width="1"/>
    <line id="直线_623" data-name="直线 623" y1="15.958" transform="translate(1041.042 3274.5) rotate(-90)" fill="none" stroke="#000" stroke-width="1"/>
    <line id="直线_624" data-name="直线 624" y1="15.958" transform="translate(1041.042 3225.5) rotate(-90)" fill="none" stroke="#000" stroke-width="1"/>
    <line id="直线_625" data-name="直线 625" y1="15.958" transform="translate(1041.042 3175.5) rotate(-90)" fill="none" stroke="#000" stroke-width="1"/>
    <line id="直线_626" data-name="直线 626" y1="15.958" transform="translate(1041.042 3126.5) rotate(-90)" fill="none" stroke="#000" stroke-width="1"/>
    <line id="直线_646" data-name="直线 646" y1="15.958" transform="translate(1680.542 3100.5) rotate(-90)" fill="none" stroke="#000" stroke-width="1"/>
    <line id="直线_655" data-name="直线 655" y1="15.958" transform="translate(1680.542 3236.5) rotate(-90)" fill="none" stroke="#000" stroke-width="1"/>
    <line id="直线_627" data-name="直线 627" y1="15.958" transform="translate(1041.042 3076.5) rotate(-90)" fill="none" stroke="#000" stroke-width="1"/>
    <line id="直线_644" data-name="直线 644" y1="15.958" transform="translate(1680.542 2963.5) rotate(-90)" fill="none" stroke="#000" stroke-width="1"/>
    <line id="直线_631" data-name="直线 631" y1="15.958" transform="translate(1041.042 3027.5) rotate(-90)" fill="none" stroke="#000" stroke-width="1"/>
    <line id="直线_654" data-name="直线 654" y1="15.958" transform="translate(1041.042 2977.5) rotate(-90)" fill="none" stroke="#000" stroke-width="1"/>
    <line id="直线_621" data-name="直线 621" y1="15.958" transform="translate(1040.5 3373.5) rotate(-90)" fill="none" stroke="#000" stroke-width="1"/>
    <line id="直线_651" data-name="直线 651" y1="15.958" transform="translate(1680 3373.5) rotate(-90)" fill="none" stroke="#000" stroke-width="1"/>
    <rect id="矩形_781" data-name="矩形 781" width="31" height="64" transform="translate(1072.5 3310)" fill="#ddd1b1"/>
    <rect id="矩形_780" data-name="矩形 780" width="31" height="75" transform="translate(1135.5 3299)" fill="#ddd1b1"/>
    <rect id="矩形_779" data-name="矩形 779" width="31" height="99" transform="translate(1197.5 3275)" fill="#ddd1b1"/>
    <rect id="矩形_778" data-name="矩形 778" width="31" height="130" transform="translate(1259.5 3244)" fill="#ddd1b1"/>
    <rect id="矩形_777" data-name="矩形 777" width="31" height="145" transform="translate(1322.5 3229)" fill="#ddd1b1"/>
    <rect id="矩形_776" data-name="矩形 776" width="31" height="183" transform="translate(1384.5 3191)" fill="#ddd1b1"/>
    <rect id="矩形_775" data-name="矩形 775" width="31" height="205" transform="translate(1446.5 3169)" fill="#ddd1b1"/>
    <rect id="矩形_774" data-name="矩形 774" width="31" height="231" transform="translate(1508.5 3143)" fill="#ddd1b1"/>
    <rect id="矩形_773" data-name="矩形 773" width="31" height="247.5" transform="translate(1571.5 3126.5)" fill="#ddd1b1"/>
    <rect id="矩形_772" data-name="矩形 772" width="31" height="282.232" transform="translate(1633.5 3091.768)" fill="#c4aa88"/>
    <path id="路径_10259" data-name="路径 10259" d="M31,168.494H639.5V-222H31Z" transform="translate(1040.5 3205.506)" fill="none"/>
    <text id="_0.00" data-name="0.00" transform="translate(1013.5 3379)" font-size="14" font-family="Helvetica" letter-spacing="-0.007em"><tspan x="0" y="0">0.00</tspan></text>
    <text id="_0_" data-name="0%" transform="translate(1704.5 3379)" font-size="14" font-family="Helvetica" letter-spacing="-0.007em"><tspan x="0" y="0">0%</tspan></text>
    <text id="_2000" data-name="2000" transform="translate(1009.5 3330)" font-size="14" font-family="Helvetica" letter-spacing="-0.007em"><tspan x="0" y="0">2000</tspan></text>
    <text id="_10_" data-name="10%" transform="translate(1704.5 3242)" font-size="14" font-family="Helvetica" letter-spacing="-0.007em"><tspan x="0" y="0">10%</tspan></text>
    <text id="_4000" data-name="4000" transform="translate(1009.5 3280)" font-size="14" font-family="Helvetica" letter-spacing="-0.007em"><tspan x="0" y="0">4000</tspan></text>
    <text id="_20_" data-name="20%" transform="translate(1704.5 3105)" font-size="14" font-family="Helvetica" letter-spacing="-0.007em"><tspan x="0" y="0">20%</tspan></text>
    <text id="_20_2" data-name="20%" transform="translate(1070.5 3085.268)" font-size="14" font-family="Helvetica" letter-spacing="-0.007em"><tspan x="0" y="0">20%</tspan></text>
    <text id="_21_" data-name="21%" transform="translate(1129.5 3067.268)" font-size="14" font-family="Helvetica" letter-spacing="-0.007em"><tspan x="0" y="0">21%</tspan></text>
    <text id="_29_" data-name="29%" transform="translate(1193.5 2962.506)" font-size="14" font-family="Helvetica" letter-spacing="-0.007em"><tspan x="0" y="0">29%</tspan></text>
    <text id="_21_2" data-name="21%" transform="translate(1263.5 3051.397)" font-size="14" font-family="Helvetica" letter-spacing="-0.007em"><tspan x="0" y="0">21%</tspan></text>
    <text id="_24_" data-name="24%" transform="translate(1320.5 3019)" font-size="14" font-family="Helvetica" letter-spacing="-0.007em"><tspan x="0" y="0">24%</tspan></text>
    <text id="_25_" data-name="25%" transform="translate(1382.5 3012)" font-size="14" font-family="Helvetica" letter-spacing="-0.007em"><tspan x="0" y="0">25%</tspan></text>
    <text id="_23_" data-name="23%" transform="translate(1446.5 3031.397)" font-size="14" font-family="Helvetica" letter-spacing="-0.007em"><tspan x="0" y="0">23%</tspan></text>
    <text id="_22_" data-name="22%" transform="translate(1508.5 3051.397)" font-size="14" font-family="Helvetica" letter-spacing="-0.007em"><tspan x="0" y="0">22%</tspan></text>
    <text id="_25_2" data-name="25%" transform="translate(1571.5 3008.397)" font-size="14" font-family="Helvetica" letter-spacing="-0.007em"><tspan x="0" y="0">25%</tspan></text>
    <text id="_25_3" data-name="25%" transform="translate(1633.5 2994.397)" font-size="14" font-family="Helvetica" letter-spacing="-0.007em"><tspan x="0" y="0">25%</tspan></text>
    <text id="_6000" data-name="6000" transform="translate(1009.5 3231)" font-size="14" font-family="Helvetica" letter-spacing="-0.007em"><tspan x="0" y="0">6000</tspan></text>
    <text id="_2_695.8_" data-name="2,695.8 " transform="translate(1061.5 3298.5)" font-size="14" font-family="Helvetica" letter-spacing="-0.007em"><tspan x="0" y="0">2,695.8 </tspan></text>
    <text id="_3_079.3_" data-name="3,079.3 " transform="translate(1126.5 3287)" font-size="14" font-family="Helvetica" letter-spacing="-0.007em"><tspan x="0" y="0">3,079.3 </tspan></text>
    <text id="_3_633.7_" data-name="3,633.7 " transform="translate(1188.5 3265)" font-size="14" font-family="Helvetica" letter-spacing="-0.007em"><tspan x="0" y="0">3,633.7 </tspan></text>
    <text id="_4_671.7_" data-name="4,671.7 " transform="translate(1246 3237.384)" font-size="14" font-family="Helvetica" letter-spacing="-0.007em"><tspan x="0" y="0">4,671.7 </tspan></text>
    <text id="_5_810.1_" data-name="5,810.1 " transform="translate(1313.5 3216)" font-size="14" font-family="Helvetica" letter-spacing="-0.007em"><tspan x="0" y="0">5,810.1 </tspan></text>
    <text id="_6_798.0_" data-name="6,798.0 " transform="translate(1375.75 3181)" font-size="14" font-family="Helvetica" letter-spacing="-0.007em"><tspan x="0" y="0">6,798.0 </tspan></text>
    <text id="_7_866.2_" data-name="7,866.2 " transform="translate(1434.5 3158)" font-size="14" font-family="Helvetica" letter-spacing="-0.007em"><tspan x="0" y="0">7,866.2 </tspan></text>
    <text id="_8_960.1_" data-name="8,960.1 " transform="translate(1499.5 3131)" font-size="14" font-family="Helvetica" letter-spacing="-0.007em"><tspan x="0" y="0">8,960.1 </tspan></text>
    <text id="_10_309.4_" data-name="10,309.4 " transform="translate(1566 3116)" font-size="14" font-family="Helvetica" letter-spacing="-0.007em"><tspan x="0" y="0">10,309.4 </tspan></text>
    <text id="_11_974.9_" data-name="11,974.9 " transform="translate(1614 3083)" font-size="14" font-family="Helvetica" letter-spacing="-0.007em"><tspan x="0" y="0">11,974.9 </tspan></text>
    <text id="_30_" data-name="30%" transform="translate(1704.5 2968)" font-size="14" font-family="Helvetica" letter-spacing="-0.007em"><tspan x="0" y="0">30%</tspan></text>
    <text id="_8000" data-name="8000" transform="translate(1009.5 3181)" font-size="14" font-family="Helvetica" letter-spacing="-0.007em"><tspan x="0" y="0">8000</tspan></text>
    <text id="_10000" data-name="10000" transform="translate(1002.5 3132)" font-size="14" font-family="Helvetica" letter-spacing="-0.007em"><tspan x="0" y="0">10000</tspan></text>
    <text id="_12000" data-name="12000" transform="translate(1002.5 3083)" font-size="14" font-family="Helvetica" letter-spacing="-0.007em"><tspan x="0" y="0">12000</tspan></text>
    <text id="_14000" data-name="14000" transform="translate(1002.5 3033)" font-size="14" font-family="Helvetica" letter-spacing="-0.007em"><tspan x="0" y="0">14000</tspan></text>
    <text id="_16000" data-name="16000" transform="translate(1002.5 2981.506)" font-size="14" font-family="Helvetica" letter-spacing="-0.007em"><tspan x="0" y="0">16000</tspan></text>
    <text id="_人民币百万元_" data-name="（人民币百万元）" transform="translate(955.5 2939.506)" font-size="14" font-family="PingFangSC-Regular, PingFang SC" letter-spacing="-0.007em"><tspan x="0" y="0">（人民币百万元）</tspan></text>
    <g id="组_1619" data-name="组 1619" transform="translate(781.943 -89)">
      <text id="平均净资产" transform="translate(442.5 3546.228)" font-size="14" font-family="PingFangSC-Regular, PingFang SC"><tspan x="0" y="0">平均净资产</tspan></text>
      <path id="路径_10320" data-name="路径 10320" d="M73-30.5h44.887v18.457H73Z" transform="translate(309.557 3562.5)" fill="#ddd1b1"/>
    </g>
    <rect id="矩形_791" data-name="矩形 791" width="7" height="7" transform="translate(1082.5 3091.768)" fill="#c4aa88"/>
    <rect id="矩形_792" data-name="矩形 792" width="7" height="7" transform="translate(1142.5 3080.268)" fill="#c4aa88"/>
    <rect id="矩形_793" data-name="矩形 793" width="7" height="7" transform="translate(1205.5 2972.506)" fill="#c4aa88"/>
    <rect id="矩形_794" data-name="矩形 794" width="7" height="7" transform="translate(1270.5 3068.268)" fill="#c4aa88"/>
    <rect id="矩形_795" data-name="矩形 795" width="7" height="7" transform="translate(1332.5 3035.268)" fill="#c4aa88"/>
    <rect id="矩形_796" data-name="矩形 796" width="7" height="7" transform="translate(1394.5 3023.897)" fill="#c4aa88"/>
    <rect id="矩形_797" data-name="矩形 797" width="7" height="7" transform="translate(1458.5 3038.397)" fill="#c4aa88"/>
    <rect id="矩形_798" data-name="矩形 798" width="7" height="7" transform="translate(1520.5 3062.268)" fill="#c4aa88"/>
    <rect id="矩形_799" data-name="矩形 799" width="7" height="7" transform="translate(1583.5 3020.397)" fill="#c4aa88"/>
    <rect id="矩形_800" data-name="矩形 800" width="7" height="7" transform="translate(1645.5 3003.397)" fill="#c4aa88"/>
    <g id="组_1620" data-name="组 1620" transform="translate(787 -89)">
      <text id="净资产收益率" transform="translate(730 3546)" font-size="14" font-family="PingFangSC-Regular, PingFang SC"><tspan x="0" y="0">净资产收益率</tspan></text>
      <g id="组_1617" data-name="组 1617">
        <rect id="矩形_801" data-name="矩形 801" width="19" height="18" transform="translate(665 3532)" fill="#c4aa88"/>
        <line id="直线_643" data-name="直线 643" x1="80" transform="translate(634.5 3541.321)" fill="none" stroke="#c4aa88" stroke-width="3"/>
      </g>
    </g>
    <line id="直线_653" data-name="直线 653" y1="411" transform="translate(1680 2963.5)" fill="none" stroke="#707070" stroke-width="1"/>
  </g>
</svg>
