<svg xmlns="http://www.w3.org/2000/svg" xmlns:xlink="http://www.w3.org/1999/xlink" width="727" height="544" viewBox="0 0 727 544">
  <defs>
    <linearGradient id="linear-gradient" y1="1" x2="1" y2="0.199" gradientUnits="objectBoundingBox">
      <stop offset="0" stop-color="#fff" stop-opacity="0"/>
      <stop offset="1" stop-color="#c4aa88"/>
    </linearGradient>
  </defs>
  <g id="组_1684" data-name="组 1684" transform="translate(-946 -2143)">
    <line id="直线_464" data-name="直线 464" y1="15.958" transform="translate(1672.5 2645.676)" fill="none" stroke="#000" stroke-width="1"/>
    <text id="_人民币百万元_" data-name="（人民币百万元）" transform="translate(998 2207)" font-size="12" font-family="PingFangSC-Regular, PingFang SC" letter-spacing="0.085em"><tspan x="-51.57" y="0">（人民币百万元）</tspan></text>
    <path id="路径_66" data-name="路径 66" d="M-4865,2191.547v410.464h623.5" transform="translate(5914 43.953)" fill="none" stroke="#000" stroke-width="1"/>
    <text id="_2021" data-name="2021" transform="translate(1629 2684)" font-size="14" font-family="Helvetica"><tspan x="0" y="0">2021</tspan></text>
    <text id="_2020" data-name="2020" transform="translate(1566 2684)" font-size="14" font-family="Helvetica"><tspan x="0" y="0">2020</tspan></text>
    <text id="_2019" data-name="2019" transform="translate(1503 2684)" font-size="14" font-family="Helvetica"><tspan x="0" y="0">2019</tspan></text>
    <text id="_2018" data-name="2018" transform="translate(1441 2684)" font-size="14" font-family="Helvetica"><tspan x="0" y="0">2018</tspan></text>
    <text id="_2017" data-name="2017" transform="translate(1378 2684)" font-size="14" font-family="Helvetica"><tspan x="0" y="0">2017</tspan></text>
    <text id="_2016" data-name="2016" transform="translate(1315 2684)" font-size="14" font-family="Helvetica"><tspan x="0" y="0">2016</tspan></text>
    <text id="_2015" data-name="2015" transform="translate(1252 2684)" font-size="14" font-family="Helvetica"><tspan x="0" y="0">2015</tspan></text>
    <text id="_2014" data-name="2014" transform="translate(1190 2684)" font-size="14" font-family="Helvetica"><tspan x="0" y="0">2014</tspan></text>
    <text id="_2013" data-name="2013" transform="translate(1127 2684)" font-size="14" font-family="Helvetica"><tspan x="0" y="0">2013</tspan></text>
    <text id="_2012" data-name="2012" transform="translate(1064 2684)" font-size="14" font-family="Helvetica"><tspan x="0" y="0">2012</tspan></text>
    <text id="_300" data-name="300" transform="translate(1004 2614)" font-size="14" font-family="Helvetica"><tspan x="0" y="0">300</tspan></text>
    <text id="_600" data-name="600" transform="translate(1004 2578)" font-size="14" font-family="Helvetica"><tspan x="0" y="0">600</tspan></text>
    <text id="_900" data-name="900" transform="translate(1004 2541)" font-size="14" font-family="Helvetica"><tspan x="0" y="0">900</tspan></text>
    <text id="_1_200" data-name="1,200" transform="translate(992 2503)" font-size="14" font-family="Helvetica"><tspan x="0" y="0">1,200</tspan></text>
    <text id="_1_500" data-name="1,500" transform="translate(992 2466)" font-size="14" font-family="Helvetica"><tspan x="0" y="0">1,500</tspan></text>
    <text id="_1_800" data-name="1,800" transform="translate(992 2428)" font-size="14" font-family="Helvetica"><tspan x="0" y="0">1,800</tspan></text>
    <text id="_2_100" data-name="2,100" transform="translate(992 2391)" font-size="14" font-family="Helvetica"><tspan x="0" y="0">2,100</tspan></text>
    <text id="_2_400" data-name="2,400" transform="translate(992 2353)" font-size="14" font-family="Helvetica"><tspan x="0" y="0">2,400</tspan></text>
    <text id="_2_700" data-name="2,700" transform="translate(992 2315)" font-size="14" font-family="Helvetica"><tspan x="0" y="0">2,700</tspan></text>
    <text id="_3_000" data-name="3,000" transform="translate(992 2278)" font-size="14" font-family="Helvetica"><tspan x="0" y="0">3,000</tspan></text>
    <line id="直线_455" data-name="直线 455" y1="15.958" transform="translate(1111.5 2645.676)" fill="none" stroke="#000" stroke-width="1"/>
    <line id="直线_456" data-name="直线 456" y1="15.958" transform="translate(1174.5 2645.676)" fill="none" stroke="#000" stroke-width="1"/>
    <line id="直线_457" data-name="直线 457" y1="15.958" transform="translate(1236.5 2645.676)" fill="none" stroke="#000" stroke-width="1"/>
    <line id="直线_458" data-name="直线 458" y1="15.958" transform="translate(1298.5 2645.676)" fill="none" stroke="#000" stroke-width="1"/>
    <line id="直线_459" data-name="直线 459" y1="15.958" transform="translate(1361.5 2645.676)" fill="none" stroke="#000" stroke-width="1"/>
    <line id="直线_460" data-name="直线 460" y1="15.958" transform="translate(1423.5 2645.676)" fill="none" stroke="#000" stroke-width="1"/>
    <line id="直线_461" data-name="直线 461" y1="15.958" transform="translate(1485.5 2645.676)" fill="none" stroke="#000" stroke-width="1"/>
    <line id="直线_462" data-name="直线 462" y1="15.958" transform="translate(1547.5 2645.676)" fill="none" stroke="#000" stroke-width="1"/>
    <line id="直线_463" data-name="直线 463" y1="15.958" transform="translate(1610.5 2645.676)" fill="none" stroke="#000" stroke-width="1"/>
    <line id="直线_465" data-name="直线 465" y1="15.958" transform="translate(1049 2645.676)" fill="none" stroke="#000" stroke-width="1"/>
    <line id="直线_466" data-name="直线 466" y1="15.958" transform="translate(1033.542 2608.5) rotate(-90)" fill="none" stroke="#000" stroke-width="1"/>
    <line id="直线_467" data-name="直线 467" y1="15.958" transform="translate(1033.542 2571.5) rotate(-90)" fill="none" stroke="#000" stroke-width="1"/>
    <line id="直线_468" data-name="直线 468" y1="15.958" transform="translate(1033.542 2534.5) rotate(-90)" fill="none" stroke="#000" stroke-width="1"/>
    <line id="直线_469" data-name="直线 469" y1="15.958" transform="translate(1033.542 2496.5) rotate(-90)" fill="none" stroke="#000" stroke-width="1"/>
    <line id="直线_470" data-name="直线 470" y1="15.958" transform="translate(1033.542 2459.5) rotate(-90)" fill="none" stroke="#000" stroke-width="1"/>
    <line id="直线_471" data-name="直线 471" y1="15.958" transform="translate(1033.542 2422.5) rotate(-90)" fill="none" stroke="#000" stroke-width="1"/>
    <line id="直线_472" data-name="直线 472" y1="15.958" transform="translate(1033.542 2384.5) rotate(-90)" fill="none" stroke="#000" stroke-width="1"/>
    <line id="直线_473" data-name="直线 473" y1="15.958" transform="translate(1033.542 2347.5) rotate(-90)" fill="none" stroke="#000" stroke-width="1"/>
    <line id="直线_474" data-name="直线 474" y1="15.958" transform="translate(1033.542 2310.5) rotate(-90)" fill="none" stroke="#000" stroke-width="1"/>
    <line id="直线_475" data-name="直线 475" y1="15.958" transform="translate(1033.542 2235.5) rotate(-90)" fill="none" stroke="#000" stroke-width="1"/>
    <line id="直线_476" data-name="直线 476" y1="15.958" transform="translate(1033 2646.5) rotate(-90)" fill="none" stroke="#000" stroke-width="1"/>
    <text id="_0" data-name="0" transform="translate(1019 2651)" font-size="14" font-family="Helvetica"><tspan x="0" y="0">0</tspan></text>
    <rect id="矩形_196" data-name="矩形 196" width="31" height="63" transform="translate(1065 2583)" fill="#ddd1b1"/>
    <text id="_535.7" data-name="535.7" transform="translate(1063 2573)" font-size="14" font-family="Helvetica"><tspan x="0" y="0">535.7</tspan></text>
    <rect id="矩形_197" data-name="矩形 197" width="31" height="77" transform="translate(1128 2569)" fill="#ddd1b1"/>
    <text id="_635.3" data-name="635.3" transform="translate(1126 2560)" font-size="14" font-family="Helvetica"><tspan x="0" y="0">635.3</tspan></text>
    <rect id="矩形_198" data-name="矩形 198" width="31" height="127" transform="translate(1190 2519)" fill="#ddd1b1"/>
    <text id="_1_043.0" data-name="1,043.0" transform="translate(1182 2507)" font-size="14" font-family="Helvetica"><tspan x="0" y="0">1,043.0</tspan></text>
    <rect id="矩形_199" data-name="矩形 199" width="31" height="123" transform="translate(1252 2523)" fill="#ddd1b1"/>
    <text id="_996.5" data-name="996.5" transform="translate(1250 2513)" font-size="14" font-family="Helvetica"><tspan x="0" y="0">996.5</tspan></text>
    <rect id="矩形_200" data-name="矩形 200" width="31" height="162" transform="translate(1315 2484)" fill="#ddd1b1"/>
    <text id="_1_377.9" data-name="1,377.9" transform="translate(1307 2473)" font-size="14" font-family="Helvetica"><tspan x="0" y="0">1,377.9</tspan></text>
    <rect id="矩形_201" data-name="矩形 201" width="31" height="198" transform="translate(1377 2448)" fill="#ddd1b1"/>
    <text id="_1_669.9" data-name="1,669.9" transform="translate(1369 2437)" font-size="14" font-family="Helvetica"><tspan x="0" y="0">1,669.9</tspan></text>
    <rect id="矩形_202" data-name="矩形 202" width="31" height="228" transform="translate(1439 2418)" fill="#ddd1b1"/>
    <text id="_1_844.6" data-name="1,844.6" transform="translate(1431 2407)" font-size="14" font-family="Helvetica"><tspan x="0" y="0">1,844.6</tspan></text>
    <rect id="矩形_203" data-name="矩形 203" width="31" height="247" transform="translate(1501 2399)" fill="#ddd1b1"/>
    <text id="_1_955.7" data-name="1,955.7" transform="translate(1493 2387)" font-size="14" font-family="Helvetica"><tspan x="0" y="0">1,955.7</tspan></text>
    <rect id="矩形_204" data-name="矩形 204" width="31" height="313" transform="translate(1564 2333)" fill="#ddd1b1"/>
    <text id="_2_555.7" data-name="2,555.7" transform="translate(1556 2322)" font-size="14" font-family="Helvetica"><tspan x="0" y="0">2,555.7</tspan></text>
    <rect id="矩形_205" data-name="矩形 205" width="31" height="375" transform="translate(1627 2271)" fill="#c4aa88"/>
    <text id="_3_025.3" data-name="3,025.3" transform="translate(1619 2259)" font-size="14" font-family="Helvetica"><tspan x="0" y="0">3,025.3</tspan></text>
    <text id="年度溢利" transform="translate(1354 2164)" fill="#595757" font-size="20" font-family="PingFangSC-Regular, PingFang SC" letter-spacing="0.085em"><tspan x="-42.55" y="0">年度溢利</tspan></text>
    <text id="_3_300" data-name="3,300" transform="translate(992 2240)" font-size="14" font-family="Helvetica"><tspan x="0" y="0">3,300</tspan></text>
    <line id="直线_478" data-name="直线 478" y1="15.958" transform="translate(1033.542 2272.5) rotate(-90)" fill="none" stroke="#000" stroke-width="1"/>
    <path id="路径_69" data-name="路径 69" d="M145.465-103.606a364.485,364.485,0,0,0-9.592-63.565,707.243,707.243,0,0,1-69.571,36l20.377,7.1c-.828.96-1.7,1.928-2.569,2.9-2.165,2.348-4.453,4.684-6.812,7.008-4.733,4.648-9.882,9.162-15.207,13.593A328.911,328.911,0,0,1,27.132-75.59C2.083-60-26.163-46.71-56.4-35.849a583.316,583.316,0,0,1-96.032,24.88A771.006,771.006,0,0,1-254.994-.374a790.191,790.191,0,0,0,104.621-2.91A633.11,633.11,0,0,0-47.567-21.515c33.326-8.976,65.477-20.783,95.1-35.609A400.165,400.165,0,0,0,89.9-81.6c6.661-4.481,13.186-9.1,19.413-14.014,3.11-2.462,6.175-4.975,9.179-7.579,1.492-1.327,2.99-2.628,4.463-4.022.737-.675,1.48-1.385,2.224-2.118l1-.988Z" transform="translate(1335.536 2392.438)" fill="url(#linear-gradient)"/>
    <text id="复合年增长率_21.2_" data-name="复合年增长率=21.2%" transform="translate(1216 2293)" font-size="14" font-family="PingFangSC-Regular, PingFang SC" letter-spacing="0.085em"><tspan x="0" y="0">复合年增长率</tspan><tspan y="0" font-family="Helvetica">=21.2%</tspan></text>
  </g>
</svg>
