<svg xmlns="http://www.w3.org/2000/svg" width="732" height="622.228" viewBox="0 0 732 622.228">
  <g id="组_1685" data-name="组 1685" transform="translate(-197 -2840)">
    <text id="派息比率与股息率" transform="translate(537 2861)" fill="#595757" font-size="20" font-family="PingFangSC-Regular, PingFang SC" letter-spacing="0.085em"><tspan x="-85.95" y="0">派息比率与股息率</tspan></text>
    <path id="路径_10334" data-name="路径 10334" d="M-4865,2191.547v404.134h623.5" transform="translate(5114 777.959)" fill="none" stroke="#000" stroke-width="1"/>
    <text id="_2021" data-name="2021" transform="translate(829 3418)" font-size="14" font-family="Helvetica"><tspan x="0" y="0">2021</tspan></text>
    <text id="_2020" data-name="2020" transform="translate(766 3418)" font-size="14" font-family="Helvetica"><tspan x="0" y="0">2020</tspan></text>
    <text id="_2019" data-name="2019" transform="translate(703 3418)" font-size="14" font-family="Helvetica"><tspan x="0" y="0">2019</tspan></text>
    <text id="_2018" data-name="2018" transform="translate(641 3418)" font-size="14" font-family="Helvetica"><tspan x="0" y="0">2018</tspan></text>
    <text id="_2017" data-name="2017" transform="translate(578 3418)" font-size="14" font-family="Helvetica"><tspan x="0" y="0">2017</tspan></text>
    <text id="_2016" data-name="2016" transform="translate(515 3418)" font-size="14" font-family="Helvetica"><tspan x="0" y="0">2016</tspan></text>
    <text id="_2015" data-name="2015" transform="translate(452 3418)" font-size="14" font-family="Helvetica"><tspan x="0" y="0">2015</tspan></text>
    <text id="_2014" data-name="2014" transform="translate(390 3418)" font-size="14" font-family="Helvetica"><tspan x="0" y="0">2014</tspan></text>
    <text id="_2013" data-name="2013" transform="translate(327 3418)" font-size="14" font-family="Helvetica"><tspan x="0" y="0">2013</tspan></text>
    <text id="_2012" data-name="2012" transform="translate(264 3418)" font-size="14" font-family="Helvetica"><tspan x="0" y="0">2012</tspan></text>
    <line id="直线_632" data-name="直线 632" y1="15.958" transform="translate(311.5 3374)" fill="none" stroke="#000" stroke-width="1"/>
    <line id="直线_633" data-name="直线 633" y1="15.958" transform="translate(374.5 3374)" fill="none" stroke="#000" stroke-width="1"/>
    <line id="直线_634" data-name="直线 634" y1="15.958" transform="translate(436.5 3374)" fill="none" stroke="#000" stroke-width="1"/>
    <line id="直线_635" data-name="直线 635" y1="15.958" transform="translate(498.5 3374)" fill="none" stroke="#000" stroke-width="1"/>
    <line id="直线_636" data-name="直线 636" y1="15.958" transform="translate(561.5 3374)" fill="none" stroke="#000" stroke-width="1"/>
    <line id="直线_637" data-name="直线 637" y1="15.958" transform="translate(623.5 3374)" fill="none" stroke="#000" stroke-width="1"/>
    <line id="直线_638" data-name="直线 638" y1="15.958" transform="translate(685.5 3374)" fill="none" stroke="#000" stroke-width="1"/>
    <line id="直线_639" data-name="直线 639" y1="15.958" transform="translate(747.5 3374)" fill="none" stroke="#000" stroke-width="1"/>
    <line id="直线_640" data-name="直线 640" y1="15.958" transform="translate(810.5 3374)" fill="none" stroke="#000" stroke-width="1"/>
    <line id="直线_641" data-name="直线 641" y1="15.958" transform="translate(872.5 3374)" fill="none" stroke="#000" stroke-width="1"/>
    <line id="直线_622" data-name="直线 622" y1="15.958" transform="translate(233.542 3326.5) rotate(-90)" fill="none" stroke="#000" stroke-width="1"/>
    <line id="直线_650" data-name="直线 650" y1="15.958" transform="translate(873.042 3279.5) rotate(-90)" fill="none" stroke="#000" stroke-width="1"/>
    <line id="直线_623" data-name="直线 623" y1="15.958" transform="translate(233.542 3266.5) rotate(-90)" fill="none" stroke="#000" stroke-width="1"/>
    <line id="直线_624" data-name="直线 624" y1="15.958" transform="translate(233.542 3205.5) rotate(-90)" fill="none" stroke="#000" stroke-width="1"/>
    <line id="直线_648" data-name="直线 648" y1="15.958" transform="translate(873.042 3186.5) rotate(-90)" fill="none" stroke="#000" stroke-width="1"/>
    <line id="直线_625" data-name="直线 625" y1="15.958" transform="translate(233.542 3144.5) rotate(-90)" fill="none" stroke="#000" stroke-width="1"/>
    <line id="直线_626" data-name="直线 626" y1="15.958" transform="translate(233.542 3084.5) rotate(-90)" fill="none" stroke="#000" stroke-width="1"/>
    <line id="直线_646" data-name="直线 646" y1="15.958" transform="translate(873.042 3092.5) rotate(-90)" fill="none" stroke="#000" stroke-width="1"/>
    <line id="直线_627" data-name="直线 627" y1="15.958" transform="translate(233.542 3023.5) rotate(-90)" fill="none" stroke="#000" stroke-width="1"/>
    <line id="直线_656" data-name="直线 656" y1="15.958" transform="translate(873.042 2998.5) rotate(-90)" fill="none" stroke="#000" stroke-width="1"/>
    <line id="直线_621" data-name="直线 621" y1="15.958" transform="translate(233 3373.64) rotate(-90)" fill="none" stroke="#000" stroke-width="1"/>
    <line id="直线_651" data-name="直线 651" y1="15.958" transform="translate(872.5 3373.5) rotate(-90)" fill="none" stroke="#000" stroke-width="1"/>
    <rect id="矩形_781" data-name="矩形 781" width="31" height="64" transform="translate(265 3310)" fill="#ddd1b1"/>
    <rect id="矩形_780" data-name="矩形 780" width="31" height="75" transform="translate(328 3299)" fill="#ddd1b1"/>
    <rect id="矩形_779" data-name="矩形 779" width="31" height="99" transform="translate(390 3275)" fill="#ddd1b1"/>
    <rect id="矩形_778" data-name="矩形 778" width="31" height="110" transform="translate(452 3264)" fill="#ddd1b1"/>
    <rect id="矩形_777" data-name="矩形 777" width="31" height="145" transform="translate(515 3229)" fill="#ddd1b1"/>
    <rect id="矩形_776" data-name="矩形 776" width="31" height="191" transform="translate(577 3183)" fill="#ddd1b1"/>
    <rect id="矩形_775" data-name="矩形 775" width="31" height="197" transform="translate(639 3177)" fill="#ddd1b1"/>
    <rect id="矩形_774" data-name="矩形 774" width="31" height="202" transform="translate(701 3172)" fill="#ddd1b1"/>
    <rect id="矩形_773" data-name="矩形 773" width="31" height="278" transform="translate(764 3096)" fill="#ddd1b1"/>
    <rect id="矩形_772" data-name="矩形 772" width="31" height="344" transform="translate(826 3030)" fill="#c4aa88"/>
    <path id="路径_10259" data-name="路径 10259" d="M31,168.494H639.5V-222H31Z" transform="translate(233 3205.506)" fill="none"/>
    <text id="_0.00" data-name="0.00" transform="translate(197 3379)" font-size="14" font-family="Helvetica" letter-spacing="-0.007em"><tspan x="0" y="0">0.00</tspan></text>
    <text id="_0.0_" data-name="0.0%" transform="translate(897 3379)" font-size="14" font-family="Helvetica" letter-spacing="-0.007em"><tspan x="0" y="0">0.0%</tspan></text>
    <text id="_0.10" data-name="0.10" transform="translate(197 3331.5)" font-size="14" font-family="Helvetica" letter-spacing="-0.007em"><tspan x="0" y="0">0.10</tspan></text>
    <text id="_10_" data-name="10%" transform="translate(897 3285)" font-size="14" font-family="Helvetica" letter-spacing="-0.007em"><tspan x="0" y="0">10%</tspan></text>
    <text id="_0.20" data-name="0.20" transform="translate(197 3271.5)" font-size="14" font-family="Helvetica" letter-spacing="-0.007em"><tspan x="0" y="0">0.20</tspan></text>
    <text id="_20_" data-name="20%" transform="translate(897 3192)" font-size="14" font-family="Helvetica" letter-spacing="-0.007em"><tspan x="0" y="0">20%</tspan></text>
    <text id="_0.11" data-name="0.11" transform="translate(267 3307)" font-size="14" font-family="Helvetica" letter-spacing="-0.007em"><tspan x="0" y="0">0.11</tspan></text>
    <text id="_0.13" data-name="0.13" transform="translate(329 3293)" font-size="14" font-family="Helvetica" letter-spacing="-0.007em"><tspan x="0" y="0">0.13</tspan></text>
    <text id="_0.17" data-name="0.17" transform="translate(390 3264)" font-size="14" font-family="Helvetica" letter-spacing="-0.007em"><tspan x="0" y="0">0.17</tspan></text>
    <text id="_0.19" data-name="0.19" transform="translate(452 3250)" font-size="14" font-family="Helvetica" letter-spacing="-0.007em"><tspan x="0" y="0">0.19</tspan></text>
    <text id="_0.25" data-name="0.25" transform="translate(515 3221)" font-size="14" font-family="Helvetica" letter-spacing="-0.007em"><tspan x="0" y="0">0.25</tspan></text>
    <text id="_0.33" data-name="0.33" transform="translate(578 3181)" font-size="14" font-family="Helvetica" letter-spacing="-0.007em"><tspan x="0" y="0">0.33</tspan></text>
    <text id="_0.34" data-name="0.34" transform="translate(641 3172)" font-size="14" font-family="Helvetica" letter-spacing="-0.007em"><tspan x="0" y="0">0.34</tspan></text>
    <text id="_0.350" data-name="0.350" transform="translate(698 3165)" font-size="14" font-family="Helvetica" letter-spacing="-0.007em"><tspan x="0" y="0">0.350</tspan></text>
    <text id="_0.480" data-name="0.480" transform="translate(762 3091)" font-size="14" font-family="Helvetica" letter-spacing="-0.007em"><tspan x="0" y="0">0.480</tspan></text>
    <text id="_0.596" data-name="0.596" transform="translate(825 3024)" font-size="14" font-family="Helvetica" letter-spacing="-0.007em"><tspan x="0" y="0">0.596</tspan></text>
    <text id="_0.30" data-name="0.30" transform="translate(197 3210.5)" font-size="14" font-family="Helvetica" letter-spacing="-0.007em"><tspan x="0" y="0">0.30</tspan></text>
    <text id="_30_" data-name="30%" transform="translate(897 3097)" font-size="14" font-family="Helvetica" letter-spacing="-0.007em"><tspan x="0" y="0">30%</tspan></text>
    <text id="_0.40" data-name="0.40" transform="translate(197 3149.5)" font-size="14" font-family="Helvetica" letter-spacing="-0.007em"><tspan x="0" y="0">0.40</tspan></text>
    <text id="_40_" data-name="40%" transform="translate(897 3004)" font-size="14" font-family="Helvetica" letter-spacing="-0.007em"><tspan x="0" y="0">40%</tspan></text>
    <text id="_0.50" data-name="0.50" transform="translate(197 3089.5)" font-size="14" font-family="Helvetica" letter-spacing="-0.007em"><tspan x="0" y="0">0.50</tspan></text>
    <text id="_0.60" data-name="0.60" transform="translate(197 3028.5)" font-size="14" font-family="Helvetica" letter-spacing="-0.007em"><tspan x="0" y="0">0.60</tspan></text>
    <g id="组_1619" data-name="组 1619" transform="translate(-26.557 -89)">
      <text id="年度每股股息" transform="translate(442.5 3546.228)" font-size="14" font-family="PingFangSC-Regular, PingFang SC"><tspan x="0" y="0">年度每股股息</tspan></text>
      <path id="路径_10320" data-name="路径 10320" d="M73-30.5h44.887v18.457H73Z" transform="translate(309.557 3562.5)" fill="#ddd1b1"/>
    </g>
    <g id="组_1639" data-name="组 1639" transform="translate(0 14.747)">
      <text id="_40.0_" data-name="40.0%" transform="translate(274 2969)" font-size="14" font-family="Helvetica" letter-spacing="-0.007em"><tspan x="0" y="0">40.0%</tspan></text>
      <text id="_40.0_2" data-name="40.0%" transform="translate(344 2969)" font-size="14" font-family="Helvetica" letter-spacing="-0.007em"><tspan x="0" y="0">40.0%</tspan></text>
      <text id="_40.0_3" data-name="40.0%" transform="translate(415 2969)" font-size="14" font-family="Helvetica" letter-spacing="-0.007em"><tspan x="0" y="0">40.0%</tspan></text>
      <text id="_40.0_4" data-name="40.0%" transform="translate(485 2969)" font-size="14" font-family="Helvetica" letter-spacing="-0.007em"><tspan x="0" y="0">40.0%</tspan></text>
      <text id="_40.0_5" data-name="40.0%" transform="translate(555 2969)" font-size="14" font-family="Helvetica" letter-spacing="-0.007em"><tspan x="0" y="0">40.0%</tspan></text>
      <text id="_40.0_6" data-name="40.0%" transform="translate(625 2969)" font-size="14" font-family="Helvetica" letter-spacing="-0.007em"><tspan x="0" y="0">40.0%</tspan></text>
      <text id="_40.0_7" data-name="40.0%" transform="translate(696 2969)" font-size="14" font-family="Helvetica" letter-spacing="-0.007em"><tspan x="0" y="0">40.0%</tspan></text>
      <text id="_40.0_8" data-name="40.0%" transform="translate(766 2969)" font-size="14" font-family="Helvetica" letter-spacing="-0.007em"><tspan x="0" y="0">40.0%</tspan></text>
      <text id="_40.0_9" data-name="40.0%" transform="translate(822 2969)" font-size="14" font-family="Helvetica" letter-spacing="-0.007em"><tspan x="0" y="0">40.0%</tspan></text>
      <g id="组_1638" data-name="组 1638" transform="translate(0 -186.494)">
        <path id="路径_10336" data-name="路径 10336" d="M0,0H594.9" transform="translate(256.5 3170.824)" fill="#c4aa88" stroke="#c4aa88" stroke-width="3"/>
        <rect id="矩形_782" data-name="矩形 782" width="6" height="10" transform="translate(291 3165)" fill="#c4aa88"/>
        <rect id="矩形_783" data-name="矩形 783" width="6" height="10" transform="translate(361 3165)" fill="#c4aa88"/>
        <rect id="矩形_784" data-name="矩形 784" width="6" height="10" transform="translate(431 3165)" fill="#c4aa88"/>
        <rect id="矩形_785" data-name="矩形 785" width="6" height="10" transform="translate(500 3165)" fill="#c4aa88"/>
        <rect id="矩形_786" data-name="矩形 786" width="6" height="10" transform="translate(570 3165)" fill="#c4aa88"/>
        <rect id="矩形_787" data-name="矩形 787" width="6" height="10" transform="translate(640 3165)" fill="#c4aa88"/>
        <rect id="矩形_788" data-name="矩形 788" width="6" height="10" transform="translate(710 3165)" fill="#c4aa88"/>
        <rect id="矩形_789" data-name="矩形 789" width="6" height="10" transform="translate(779 3165)" fill="#c4aa88"/>
        <rect id="矩形_790" data-name="矩形 790" width="6" height="10" transform="translate(834 3165)" fill="#c4aa88"/>
      </g>
    </g>
    <g id="组_1621" data-name="组 1621" transform="translate(389 -89)">
      <g id="组_1618" data-name="组 1618" transform="translate(-377.5)">
        <rect id="矩形_801" data-name="矩形 801" width="19" height="18" transform="translate(665 3532)" fill="#c4aa88"/>
        <path id="路径_10421" data-name="路径 10421" d="M80,0H0" transform="translate(634.5 3541.321)" fill="none" stroke="#c4aa88" stroke-width="3"/>
      </g>
      <text id="派息比率" transform="translate(352 3546)" font-size="14" font-family="PingFangSC-Regular, PingFang SC"><tspan x="0" y="0">派息比率</tspan></text>
    </g>
    <line id="直线_653" data-name="直线 653" y1="398" transform="translate(872.5 2976.5)" fill="none" stroke="#707070" stroke-width="1"/>
  </g>
</svg>
