<svg xmlns="http://www.w3.org/2000/svg" xmlns:xlink="http://www.w3.org/1999/xlink" width="727" height="583" viewBox="0 0 727 583">
  <defs>
    <linearGradient id="linear-gradient" y1="1" x2="1" y2="0.199" gradientUnits="objectBoundingBox">
      <stop offset="0" stop-color="#fff" stop-opacity="0"/>
      <stop offset="1" stop-color="#c4aa88"/>
    </linearGradient>
  </defs>
  <g id="组_1683" data-name="组 1683" transform="translate(-146 -2143)">
    <path id="路径_65" data-name="路径 65" d="M-4865,2191.547v410.464h623.5" transform="translate(5114 43.953)" fill="none" stroke="#000" stroke-width="1"/>
    <text id="_2021" data-name="2021" transform="translate(829 2684)" font-size="14" font-family="Helvetica"><tspan x="0" y="0">2021</tspan></text>
    <text id="_2020" data-name="2020" transform="translate(766 2684)" font-size="14" font-family="Helvetica"><tspan x="0" y="0">2020</tspan></text>
    <text id="_2019" data-name="2019" transform="translate(703 2684)" font-size="14" font-family="Helvetica"><tspan x="0" y="0">2019</tspan></text>
    <text id="_2018" data-name="2018" transform="translate(641 2684)" font-size="14" font-family="Helvetica"><tspan x="0" y="0">2018</tspan></text>
    <text id="_2017" data-name="2017" transform="translate(578 2684)" font-size="14" font-family="Helvetica"><tspan x="0" y="0">2017</tspan></text>
    <text id="_2016" data-name="2016" transform="translate(515 2684)" font-size="14" font-family="Helvetica"><tspan x="0" y="0">2016</tspan></text>
    <text id="_2015" data-name="2015" transform="translate(452 2684)" font-size="14" font-family="Helvetica"><tspan x="0" y="0">2015</tspan></text>
    <text id="_2014" data-name="2014" transform="translate(390 2684)" font-size="14" font-family="Helvetica"><tspan x="0" y="0">2014</tspan></text>
    <text id="_2013" data-name="2013" transform="translate(327 2684)" font-size="14" font-family="Helvetica"><tspan x="0" y="0">2013</tspan></text>
    <text id="_2012" data-name="2012" transform="translate(264 2684)" font-size="14" font-family="Helvetica"><tspan x="0" y="0">2012</tspan></text>
    <text id="_1_000" data-name="1,000" transform="translate(192 2610)" font-size="14" font-family="Helvetica"><tspan x="0" y="0">1,000</tspan></text>
    <text id="_2_000" data-name="2,000" transform="translate(192 2569)" font-size="14" font-family="Helvetica"><tspan x="0" y="0">2,000</tspan></text>
    <text id="_3_000" data-name="3,000" transform="translate(192 2528)" font-size="14" font-family="Helvetica"><tspan x="0" y="0">3,000</tspan></text>
    <text id="_4_000" data-name="4,000" transform="translate(192 2487)" font-size="14" font-family="Helvetica"><tspan x="0" y="0">4,000</tspan></text>
    <text id="_5_000" data-name="5,000" transform="translate(192 2446)" font-size="14" font-family="Helvetica"><tspan x="0" y="0">5,000</tspan></text>
    <text id="_6_000" data-name="6,000" transform="translate(192 2404)" font-size="14" font-family="Helvetica"><tspan x="0" y="0">6,000</tspan></text>
    <text id="_7_000" data-name="7,000" transform="translate(192 2363)" font-size="14" font-family="Helvetica"><tspan x="0" y="0">7,000</tspan></text>
    <text id="_8_000" data-name="8,000" transform="translate(192 2322)" font-size="14" font-family="Helvetica"><tspan x="0" y="0">8,000</tspan></text>
    <text id="_9_000" data-name="9,000" transform="translate(192 2281)" font-size="14" font-family="Helvetica"><tspan x="0" y="0">9,000</tspan></text>
    <text id="_10_000" data-name="10,000" transform="translate(184 2240)" font-size="14" font-family="Helvetica"><tspan x="0" y="0">10,000</tspan></text>
    <line id="直线_432" data-name="直线 432" y1="15.958" transform="translate(311.5 2645.676)" fill="none" stroke="#000" stroke-width="1"/>
    <line id="直线_433" data-name="直线 433" y1="15.958" transform="translate(374.5 2645.676)" fill="none" stroke="#000" stroke-width="1"/>
    <line id="直线_434" data-name="直线 434" y1="15.958" transform="translate(436.5 2645.676)" fill="none" stroke="#000" stroke-width="1"/>
    <line id="直线_435" data-name="直线 435" y1="15.958" transform="translate(498.5 2645.676)" fill="none" stroke="#000" stroke-width="1"/>
    <line id="直线_436" data-name="直线 436" y1="15.958" transform="translate(561.5 2645.676)" fill="none" stroke="#000" stroke-width="1"/>
    <line id="直线_437" data-name="直线 437" y1="15.958" transform="translate(623.5 2645.676)" fill="none" stroke="#000" stroke-width="1"/>
    <line id="直线_438" data-name="直线 438" y1="15.958" transform="translate(685.5 2645.676)" fill="none" stroke="#000" stroke-width="1"/>
    <line id="直线_439" data-name="直线 439" y1="15.958" transform="translate(747.5 2645.676)" fill="none" stroke="#000" stroke-width="1"/>
    <line id="直线_440" data-name="直线 440" y1="15.958" transform="translate(810.5 2645.676)" fill="none" stroke="#000" stroke-width="1"/>
    <line id="直线_441" data-name="直线 441" y1="15.958" transform="translate(872.5 2645.676)" fill="none" stroke="#000" stroke-width="1"/>
    <line id="直线_442" data-name="直线 442" y1="15.958" transform="translate(249 2645.676)" fill="none" stroke="#000" stroke-width="1"/>
    <line id="直线_443" data-name="直线 443" y1="15.958" transform="translate(233.542 2604.5) rotate(-90)" fill="none" stroke="#000" stroke-width="1"/>
    <line id="直线_444" data-name="直线 444" y1="15.958" transform="translate(233.542 2563.5) rotate(-90)" fill="none" stroke="#000" stroke-width="1"/>
    <line id="直线_445" data-name="直线 445" y1="15.958" transform="translate(233.542 2522.5) rotate(-90)" fill="none" stroke="#000" stroke-width="1"/>
    <line id="直线_446" data-name="直线 446" y1="15.958" transform="translate(233.542 2481.5) rotate(-90)" fill="none" stroke="#000" stroke-width="1"/>
    <line id="直线_447" data-name="直线 447" y1="15.958" transform="translate(233.542 2440.5) rotate(-90)" fill="none" stroke="#000" stroke-width="1"/>
    <line id="直线_448" data-name="直线 448" y1="15.958" transform="translate(233.542 2399.5) rotate(-90)" fill="none" stroke="#000" stroke-width="1"/>
    <line id="直线_449" data-name="直线 449" y1="15.958" transform="translate(233.542 2358.5) rotate(-90)" fill="none" stroke="#000" stroke-width="1"/>
    <line id="直线_450" data-name="直线 450" y1="15.958" transform="translate(233.542 2317.5) rotate(-90)" fill="none" stroke="#000" stroke-width="1"/>
    <line id="直线_451" data-name="直线 451" y1="15.958" transform="translate(233.542 2276.5) rotate(-90)" fill="none" stroke="#000" stroke-width="1"/>
    <line id="直线_452" data-name="直线 452" y1="15.958" transform="translate(233.542 2235.5) rotate(-90)" fill="none" stroke="#000" stroke-width="1"/>
    <line id="直线_453" data-name="直线 453" y1="15.958" transform="translate(233 2646) rotate(-90)" fill="none" stroke="#000" stroke-width="1"/>
    <text id="_0" data-name="0" transform="translate(219 2651)" font-size="14" font-family="Helvetica"><tspan x="0" y="0">0</tspan></text>
    <rect id="矩形_186" data-name="矩形 186" width="31" height="67" transform="translate(265 2579)" fill="#ddd1b1"/>
    <text id="_1_705.2" data-name="1,705.2" transform="translate(257 2569)" font-size="14" font-family="Helvetica"><tspan x="0" y="0">1,705.2</tspan></text>
    <rect id="矩形_187" data-name="矩形 187" width="31" height="77" transform="translate(328 2569)" fill="#ddd1b1"/>
    <text id="_1_967.9" data-name="1,967.9" transform="translate(320 2558)" font-size="14" font-family="Helvetica"><tspan x="0" y="0">1,967.9</tspan></text>
    <rect id="矩形_188" data-name="矩形 188" width="31" height="107" transform="translate(390 2539)" fill="#ddd1b1"/>
    <text id="_2_526.5" data-name="2,526.5" transform="translate(382 2527)" font-size="14" font-family="Helvetica"><tspan x="0" y="0">2,526.5</tspan></text>
    <rect id="矩形_189" data-name="矩形 189" width="31" height="125" transform="translate(452 2521)" fill="#ddd1b1"/>
    <text id="_3_080.5" data-name="3,080.5" transform="translate(444 2510)" font-size="14" font-family="Helvetica"><tspan x="0" y="0">3,080.5</tspan></text>
    <rect id="矩形_190" data-name="矩形 190" width="31" height="181" transform="translate(515 2465)" fill="#ddd1b1"/>
    <text id="_4_399.7" data-name="4,399.7" transform="translate(507 2454)" font-size="14" font-family="Helvetica"><tspan x="0" y="0">4,399.7</tspan></text>
    <rect id="矩形_191" data-name="矩形 191" width="31" height="222" transform="translate(577 2424)" fill="#ddd1b1"/>
    <text id="_5_322.0" data-name="5,322.0" transform="translate(569 2412)" font-size="14" font-family="Helvetica"><tspan x="0" y="0">5,322.0</tspan></text>
    <rect id="矩形_192" data-name="矩形 192" width="31" height="236" transform="translate(639 2410)" fill="#ddd1b1"/>
    <text id="_5_799.6" data-name="5,799.6" transform="translate(631 2399)" font-size="14" font-family="Helvetica"><tspan x="0" y="0">5,799.6</tspan></text>
    <rect id="矩形_193" data-name="矩形 193" width="31" height="264" transform="translate(701 2382)" fill="#ddd1b1"/>
    <text id="_6_416.3" data-name="6,416.3" transform="translate(693 2371)" font-size="14" font-family="Helvetica"><tspan x="0" y="0">6,416.3</tspan></text>
    <rect id="矩形_194" data-name="矩形 194" width="31" height="301" transform="translate(764 2345)" fill="#ddd1b1"/>
    <text id="_7_395.2" data-name="7,395.2" transform="translate(756 2334)" font-size="14" font-family="Helvetica"><tspan x="0" y="0">7,395.2</tspan></text>
    <rect id="矩形_195" data-name="矩形 195" width="31" height="384" transform="translate(826 2262)" fill="#c4aa88"/>
    <text id="_9_230.2" data-name="9,230.2" transform="translate(818 2251)" font-size="14" font-family="Helvetica"><tspan x="0" y="0">9,230.2</tspan></text>
    <text id="_若全按药品销售收入计算" data-name="*若全按药品销售收入计算" transform="translate(192 2721)" font-size="14" font-family="Helvetica" letter-spacing="0.085em"><tspan x="0" y="0">*</tspan><tspan y="0" font-family="PingFangSC-Regular, PingFang SC">若全按药品销售收入计算</tspan></text>
    <text id="营业额" transform="translate(537 2164)" fill="#595757" font-size="20" font-family="PingFangSC-Regular, PingFang SC" letter-spacing="0.085em"><tspan x="-31.7" y="0">营业额</tspan></text>
    <text id="_人民币百万元_" data-name="（人民币百万元）" transform="translate(198 2207)" font-size="12" font-family="PingFangSC-Regular, PingFang SC" letter-spacing="0.085em"><tspan x="-51.57" y="0">（人民币百万元）</tspan></text>
    <path id="路径_217" data-name="路径 217" d="M145.465-103.606a364.485,364.485,0,0,0-9.592-63.565,707.243,707.243,0,0,1-69.571,36l20.377,7.1c-.828.96-1.7,1.928-2.569,2.9-2.165,2.348-4.453,4.684-6.812,7.008-4.733,4.648-9.882,9.162-15.207,13.593A328.911,328.911,0,0,1,27.132-75.59C2.083-60-26.163-46.71-56.4-35.849a583.316,583.316,0,0,1-96.032,24.88A771.006,771.006,0,0,1-254.994-.374a790.191,790.191,0,0,0,104.621-2.91A633.11,633.11,0,0,0-47.567-21.515c33.326-8.976,65.477-20.783,95.1-35.609A400.165,400.165,0,0,0,89.9-81.6c6.661-4.481,13.186-9.1,19.413-14.014,3.11-2.462,6.175-4.975,9.179-7.579,1.492-1.327,2.99-2.628,4.463-4.022.737-.675,1.48-1.385,2.224-2.118l1-.988Z" transform="translate(539.535 2392.438)" fill="url(#linear-gradient)"/>
    <text id="复合年增长率_20.6_" data-name="复合年增长率=20.6%" transform="translate(396 2293)" font-size="14" font-family="PingFangSC-Regular, PingFang SC" letter-spacing="0.085em"><tspan x="0" y="0">复合年增长率</tspan><tspan y="0" font-family="Helvetica">=20.6%</tspan></text>
  </g>
</svg>
