<svg xmlns="http://www.w3.org/2000/svg" width="1540.88" height="262.48" viewBox="0 0 1540.88 262.48"><path d="M29.24,0H90.1V-96.56h86.36v-50.66H90.1v-55.42H190.74v-50.32H29.24ZM234.6,0h60.86V-252.96H234.6Zm119,0H512.72V-51H414.46V-252.96H353.6ZM556.58,0H720.8V-51H617.44v-53.72H702.1v-51H617.44v-46.92h99.62v-50.32H556.58Zm321.3,4.76c32.98,0,61.2-12.58,82.62-37.4L928.54-70.72C916.64-57.8,900.32-47.6,880.26-47.6c-35.7,0-58.82-29.24-58.82-79.56,0-49.3,26.86-78.54,59.5-78.54,18.02,0,31.28,8.16,43.86,19.72l31.96-38.76c-17.34-17.68-43.86-32.98-76.84-32.98-64.26,0-120.7,48.28-120.7,132.6C759.22-39.44,813.62,4.76,877.88,4.76Zm209.44,0c69.02,0,115.94-49.64,115.94-132.6,0-82.62-46.92-129.88-115.94-129.88S971.38-210.8,971.38-127.84,1018.3,4.76,1087.32,4.76Zm0-52.36c-33.32,0-53.72-30.94-53.72-80.24,0-48.96,20.4-77.86,53.72-77.86s54.06,28.9,54.06,77.86C1141.38-78.54,1120.64-47.6,1087.32-47.6ZM1250.18,0h60.86V-252.96h-60.86Zm119,0h57.8V-83.98c0-30.6-5.1-65.28-7.82-93.5h1.7l24.82,55.42L1508.24,0h61.88V-252.96h-57.8v83.64c0,30.26,4.76,66.64,8.16,93.5h-1.7l-24.82-56.1-62.9-121.04h-61.88Z" transform="translate(-29.24 257.72)"/></svg>