<svg xmlns="http://www.w3.org/2000/svg" width="1572" height="308.8" viewBox="0 0 1572 308.8"><path d="M168.4,5.6c41.6,0,78.4-16.4,99.2-36.4V-170H156.8v58.4H204v48c-6.4,4.8-17.6,7.6-28.4,7.6C120.4-56,94-90.4,94-149.6c0-58,31.6-92.4,75.6-92.4,24.8,0,40.4,10,54.8,23.2l38-45.6c-20.4-20.4-51.6-38.8-95.2-38.8-79.6,0-146.4,56.8-146.4,156C20.8-46.4,85.6,5.6,168.4,5.6ZM327.6,0H514.8V-60H399.2V-297.6H327.6ZM672,5.6c81.2,0,136.4-58.4,136.4-156,0-97.2-55.2-152.8-136.4-152.8S535.6-248,535.6-150.4,590.8,5.6,672,5.6ZM672-56c-39.2,0-63.2-36.4-63.2-94.4,0-57.6,24-91.6,63.2-91.6s63.6,34,63.6,91.6C735.6-92.4,711.2-56,672-56ZM863.6,0H976c64.8,0,116.4-27.2,116.4-88,0-39.6-22.8-62-52.8-70v-1.6c24-9.2,38.8-38,38.8-64.4,0-57.2-49.2-73.6-110.8-73.6h-104Zm71.6-179.6v-63.6h29.6c30,0,44,8.8,44,30,0,20.4-13.6,33.6-44,33.6Zm0,124.8v-72h35.6c34.8,0,52,9.6,52,34,0,25.6-17.6,38-52,38Zm272.4-68.8,6.4-25.2c7.6-29.6,15.6-64.4,22.8-95.6h1.6c8,30.4,15.6,66,23.6,95.6l6.4,25.2ZM1299.2,0h75.2L1282-297.6h-85.6L1104,0h72.8L1194-68.4h88Zm106.4,0h187.2V-60H1477.2V-297.6h-71.6Z" transform="translate(-20.8 303.2)"/></svg>