<svg width="375" height="166" viewBox="0 0 375 166" fill="none" xmlns="http://www.w3.org/2000/svg">
<g clip-path="url(#clip0_248_7036)">
<path d="M0 0H375V166H0V0Z" fill="#E8380D"/>
<path opacity="0.8" d="M311.169 97.2152C405.421 52.4653 475.844 95.9349 501.647 102.135L493.76 280.471L147.782 480.222L-142.744 208.016C-42.2505 102.076 27.5478 95.0834 105.275 126.598C190.456 161.135 244.877 128.69 311.169 97.2152Z" fill="url(#paint0_radial_248_7036)"/>
<path opacity="0.6" d="M171.654 102.837C74.4508 64.923 7.30691 113.304 -17.9887 121.329L2.5972 298.648L361.94 473.216L632.313 180.985C524.52 82.4811 454.401 80.4841 379.119 117.462C296.618 157.986 240.022 129.504 171.654 102.837Z" fill="url(#paint1_linear_248_7036)"/>
<g style="mix-blend-mode:screen">
<path d="M283.95 85.38H278.57V80H273.37V85.38H268V90.58H273.37V95.96H278.57V90.58H283.95V85.38Z" fill="url(#paint2_radial_248_7036)"/>
</g>
<g style="mix-blend-mode:screen">
<path d="M324.55 25.2V38.1V39.3H325.75H338.65V50.54H325.75H324.55V51.74V64.64H313.31V51.74V50.54H312.11H299.21V39.3H312.11H313.31V38.1V25.2H324.55ZM325.75 24H312.1V38.1H298V51.75H312.1V65.85H325.75V51.75H339.85V38.1H325.75V24Z" fill="url(#paint3_radial_248_7036)"/>
</g>
</g>
<defs>
<radialGradient id="paint0_radial_248_7036" cx="0" cy="0" r="1" gradientUnits="userSpaceOnUse" gradientTransform="translate(9.16659 131.794) rotate(25.4652) scale(257.527 393.064)">
<stop stop-color="#EA5504"/>
<stop offset="1" stop-color="white" stop-opacity="0.04"/>
</radialGradient>
<linearGradient id="paint1_linear_248_7036" x1="699.372" y1="-11.2359" x2="93.0013" y2="193.799" gradientUnits="userSpaceOnUse">
<stop stop-color="#EA5504"/>
<stop offset="1" stop-color="white" stop-opacity="0"/>
</linearGradient>
<radialGradient id="paint2_radial_248_7036" cx="0" cy="0" r="1" gradientUnits="userSpaceOnUse" gradientTransform="translate(272.603 76.7828) scale(74.7611 74.7611)">
<stop stop-color="#09454D"/>
<stop offset="0.0636" stop-color="#083D44"/>
<stop offset="0.307" stop-color="#042226"/>
<stop offset="0.5471" stop-color="#020F11"/>
<stop offset="0.7807" stop-color="#010404"/>
<stop offset="1"/>
</radialGradient>
<radialGradient id="paint3_radial_248_7036" cx="0" cy="0" r="1" gradientUnits="userSpaceOnUse" gradientTransform="translate(348.879 70.9952) scale(202.119 202.118)">
<stop stop-color="#09454D"/>
<stop offset="0.0636" stop-color="#083D44"/>
<stop offset="0.307" stop-color="#042226"/>
<stop offset="0.5471" stop-color="#020F11"/>
<stop offset="0.7807" stop-color="#010404"/>
<stop offset="1"/>
</radialGradient>
<clipPath id="clip0_248_7036">
<rect width="375" height="166" fill="white"/>
</clipPath>
</defs>
</svg>
