<svg xmlns="http://www.w3.org/2000/svg" width="78.441" height="74.522" viewBox="0 0 78.441 74.522">
  <g id="组_608" data-name="组 608" transform="translate(1 1)">
    <path id="路径_1147" data-name="路径 1147" d="M718.726,1860.174H663.708a4.178,4.178,0,0,1-3.946-2.556l-6.36-16.524c-.958-2.488,1.061-5.095,3.946-5.095h67.969c2.905,0,4.926,2.64,3.931,5.136l-6.592,16.524A4.184,4.184,0,0,1,718.726,1860.174Z" transform="translate(-653.113 -1787.652)" fill="none" stroke="#fff" stroke-miterlimit="10" stroke-width="2"/>
    <g id="组_604" data-name="组 604" transform="translate(13.454 0.755)">
      <path id="路径_1148" data-name="路径 1148" d="M702.9,1821.8l-2.285,5.756a.868.868,0,0,0,.195.93l1.518,1.518a.861.861,0,0,0,1.218.005l1.5-1.5a.857.857,0,0,0,.187-.928Z" transform="translate(-678.157 -1784.935)" fill="#fff" stroke="#fff" stroke-width="1"/>
      <path id="路径_1149" data-name="路径 1149" d="M704.228,1822.967h-2.671a.758.758,0,0,1-.734-.575l-.362-1.449a.759.759,0,0,1,.736-.943h3.4a.759.759,0,0,1,.736.943l-.361,1.449a.759.759,0,0,1-.74.575Z" transform="translate(-678.129 -1784.494)" fill="#fff" stroke="#fff" stroke-width="1"/>
      <g id="组_603" data-name="组 603">
        <ellipse id="椭圆_37" data-name="椭圆 37" cx="12.842" cy="12.842" rx="12.842" ry="12.842" transform="translate(11.924)" fill="none" stroke="#fff" stroke-miterlimit="10" stroke-width="2"/>
        <path id="路径_1150" data-name="路径 1150" d="M670.907,1830.731h0c0-8.136,5.843-14.731,13.052-14.731h23.427c7.209,0,13.053,6.595,13.053,14.731h0" transform="translate(-670.907 -1783.516)" fill="none" stroke="#fff" stroke-miterlimit="10" stroke-width="2"/>
      </g>
    </g>
    <g id="组_607" data-name="组 607" transform="translate(0 0)">
      <g id="组_605" data-name="组 605">
        <path id="路径_1151" data-name="路径 1151" d="M680.35,1796.452a12.226,12.226,0,1,1,4.24-23.7" transform="translate(-656.772 -1772)" fill="none" stroke="#fff" stroke-miterlimit="10" stroke-width="2"/>
        <path id="路径_1152" data-name="路径 1152" d="M653.1,1826.96h0c0-7.746,5.564-14.024,12.426-14.024H671.3" transform="translate(-653.097 -1782.011)" fill="none" stroke="#fff" stroke-miterlimit="10" stroke-width="2"/>
      </g>
      <g id="组_606" data-name="组 606" transform="translate(48.623 0.048)">
        <path id="路径_1153" data-name="路径 1153" d="M721.7,1796.516a12.226,12.226,0,1,0-4.24-23.7" transform="translate(-717.461 -1772.064)" fill="none" stroke="#fff" stroke-miterlimit="10" stroke-width="2"/>
        <path id="路径_1154" data-name="路径 1154" d="M748.392,1827.024h0c0-7.745-5.563-14.024-12.426-14.024h-5.775" transform="translate(-720.574 -1782.075)" fill="none" stroke="#fff" stroke-miterlimit="10" stroke-width="2"/>
      </g>
    </g>
  </g>
</svg>
