<svg xmlns="http://www.w3.org/2000/svg" width="134.876" height="135.518" viewBox="0 0 134.876 135.518">
  <g id="组_597" data-name="组 597" transform="translate(1 1)">
    <path id="路径_1122" data-name="路径 1122" d="M501.853,1537.676a31.346,31.346,0,0,1,58.8,15.127,31.75,31.75,0,0,1-.267,4.113" transform="translate(-438.943 -1510.654)" fill="none" stroke="#fff" stroke-linecap="round" stroke-linejoin="round" stroke-width="2"/>
    <line id="直线_102" data-name="直线 102" y2="5.044" transform="translate(90.366 0)" fill="none" stroke="#fff" stroke-linecap="round" stroke-linejoin="round" stroke-width="2"/>
    <line id="直线_103" data-name="直线 103" x2="2.522" y2="4.368" transform="translate(69.34 5.827)" fill="none" stroke="#fff" stroke-linecap="round" stroke-linejoin="round" stroke-width="2"/>
    <line id="直线_104" data-name="直线 104" x2="4.368" y2="2.522" transform="translate(54.044 21.387)" fill="none" stroke="#fff" stroke-linecap="round" stroke-linejoin="round" stroke-width="2"/>
    <line id="直线_105" data-name="直线 105" x1="5.044" transform="translate(127.833 41.789)" fill="none" stroke="#fff" stroke-linecap="round" stroke-linejoin="round" stroke-width="2"/>
    <line id="直线_106" data-name="直线 106" x1="4.368" y2="2.522" transform="translate(122.681 20.763)" fill="none" stroke="#fff" stroke-linecap="round" stroke-linejoin="round" stroke-width="2"/>
    <line id="直线_107" data-name="直线 107" x1="2.522" y2="4.368" transform="translate(108.968 5.467)" fill="none" stroke="#fff" stroke-linecap="round" stroke-linejoin="round" stroke-width="2"/>
    <g id="组_573" data-name="组 573" transform="translate(86.417 52.966)">
      <path id="路径_1123" data-name="路径 1123" d="M554.761,1619.367l4.034-9.38a.412.412,0,0,0-.3-.6h-9.126a2.056,2.056,0,0,1-1.841-1.452,3.04,3.04,0,0,1-.193-.925,3.144,3.144,0,0,1,.8-2.181l8.937-10.433c.275-.322.714.066.541.478l-3.708,8.834a.412.412,0,0,0,.3.593h9.079a2.054,2.054,0,0,1,1.837,1.441,3.055,3.055,0,0,1,.2.922,3.145,3.145,0,0,1-.782,2.173l-9.238,11C555.027,1620.173,554.583,1619.781,554.761,1619.367Z" transform="translate(-534.326 -1577.976)" fill="#fff" stroke="#fff" stroke-width="1"/>
      <rect id="矩形_14412" data-name="矩形 14412" width="44.005" height="75.331" rx="5.748" transform="translate(0 5.221)" fill="none" stroke="#fff" stroke-linecap="round" stroke-linejoin="round" stroke-width="2"/>
      <rect id="矩形_14413" data-name="矩形 14413" width="37.292" height="67.872" rx="2.702" transform="translate(3.356 8.577)" fill="none" stroke="#fff" stroke-linecap="round" stroke-linejoin="round" stroke-width="1"/>
      <g id="组_572" data-name="组 572" transform="translate(8.577 58.922)">
        <line id="直线_108" data-name="直线 108" x2="26.851" transform="translate(0 11.934)" fill="none" stroke="#fff" stroke-linecap="round" stroke-linejoin="round" stroke-width="4"/>
        <line id="直线_109" data-name="直线 109" x2="26.851" transform="translate(0 5.967)" fill="none" stroke="#fff" stroke-linecap="round" stroke-linejoin="round" stroke-width="4"/>
        <line id="直线_110" data-name="直线 110" x2="26.851" fill="none" stroke="#fff" stroke-linecap="round" stroke-linejoin="round" stroke-width="4"/>
      </g>
      <rect id="矩形_14414" data-name="矩形 14414" width="20.138" height="5.221" transform="translate(11.934)" fill="none" stroke="#fff" stroke-linecap="round" stroke-linejoin="round" stroke-width="2"/>
    </g>
    <path id="路径_1124" data-name="路径 1124" d="M503.65,1622.631H427.927a4.435,4.435,0,0,1-4.368-5.192l11.739-66.545a4.385,4.385,0,0,1,4.372-3.681h72.41a4.387,4.387,0,0,1,4.368,3.681l2.219,12.577" transform="translate(-423.494 -1515.731)" fill="none" stroke="#fff" stroke-linecap="round" stroke-miterlimit="10" stroke-width="2"/>
    <path id="路径_1125" data-name="路径 1125" d="M515.012,1570.876l-1.448-8.93a4.64,4.64,0,0,0-4.607-3.682H446.9a4.351,4.351,0,0,0-4.33,3.682l-7.985,48.8a4.436,4.436,0,0,0,3.617,5.127,4.492,4.492,0,0,0,.755.064H505.02" transform="translate(-425.667 -1517.91)" fill="none" stroke="#fff" stroke-linecap="round" stroke-miterlimit="10" stroke-width="1"/>
    <path id="路径_1126" data-name="路径 1126" d="M514.927,1619.126H498.7a4.436,4.436,0,0,1-4.437-4.436h0v-13.31a4.436,4.436,0,0,1,4.437-4.436h18.539a4.387,4.387,0,0,1,1.211.158" transform="translate(-437.447 -1525.536)" fill="none" stroke="#fff" stroke-linecap="round" stroke-miterlimit="10" stroke-width="1"/>
    <path id="路径_1127" data-name="路径 1127" d="M515.468,1585.972H498.7a4.437,4.437,0,0,1-4.437-4.437h0v-13.309a4.436,4.436,0,0,1,4.437-4.437h14.1a4.393,4.393,0,0,1,4.351,3.549l2.666,13.309a4.461,4.461,0,0,1-3.516,5.239,4.409,4.409,0,0,1-.835.084Z" transform="translate(-437.447 -1518.999)" fill="none" stroke="#fff" stroke-miterlimit="10" stroke-width="1"/>
    <path id="路径_1128" data-name="路径 1128" d="M471.388,1619.126H450.174a4.458,4.458,0,0,1-4.351-5.324l2.661-13.309a4.394,4.394,0,0,1,4.351-3.549h18.543a4.435,4.435,0,0,1,4.437,4.436v13.31a4.436,4.436,0,0,1-4.437,4.436h.009Z" transform="translate(-427.877 -1525.536)" fill="none" stroke="#fff" stroke-miterlimit="10" stroke-width="1"/>
    <path id="路径_1129" data-name="路径 1129" d="M472.477,1585.972H455.7a4.318,4.318,0,0,1-3.434-1.643,4.273,4.273,0,0,1-.917-3.681l2.661-13.309a4.393,4.393,0,0,1,4.351-3.549h14.106a4.435,4.435,0,0,1,4.437,4.437v13.309a4.437,4.437,0,0,1-4.437,4.437Z" transform="translate(-428.966 -1518.999)" fill="none" stroke="#fff" stroke-miterlimit="10" stroke-width="1"/>
    <path id="路径_1130" data-name="路径 1130" d="M509.137,1668.858H448.973a4.436,4.436,0,0,1,0-8.872h13.31v-8.873a4.435,4.435,0,0,1,4.436-4.437h26.618a4.438,4.438,0,0,1,4.437,4.437v8.873h7.35" transform="translate(-427.643 -1535.34)" fill="none" stroke="#fff" stroke-linecap="round" stroke-miterlimit="10" stroke-width="2"/>
  </g>
</svg>
