<svg xmlns="http://www.w3.org/2000/svg" width="91.367" height="67.625" viewBox="0 0 91.367 67.625">
  <g id="组_609" data-name="组 609" transform="translate(1.002 0.999)">
    <path id="路径_1155" data-name="路径 1155" d="M994.7,1807.464c.851.421,1.553.671,2.164.942l.02.01a4.744,4.744,0,0,1,2.8,2.956c1.163,2.655.561,8.277,1.734,14.44a3.717,3.717,0,0,1,2.445,3.4c-.091,1.032-.181.9-.4,1.283l6.784,16.373-9.078,2.034-1.463-16.955a3.438,3.438,0,0,1-2.164-3.317,2.786,2.786,0,0,1,1.283-2.275c-1.143-6.022-.511-11.493-1.564-13.908-.922-2.1-4.218-3.106-6.683-4.089-8.567-3.427-17.115-6.683-25.753-9.509-2.686-.872-.391-4.84,4.2-2.8l25.683,11.414Z" transform="translate(-920.918 -1782.273)" fill="#fff"/>
    <path id="路径_1156" data-name="路径 1156" d="M951.921,1778.049l43.5,14.335a1.483,1.483,0,0,1,1.016,1.318l0,.064a1.484,1.484,0,0,1-.752,1.382l-11.633,6.547a1.484,1.484,0,0,1-1.29.081c-9.046-3.7-18.066-7.492-27.153-11.092-8.7-3.437-9.46,3.177-6.854,4.319l22.416,9.777a1.483,1.483,0,0,1,.009,2.714l-19.138,8.5a1,1,0,0,1-.862,0l-43.266-20.872a1.482,1.482,0,0,1-.836-1.424h0a1.484,1.484,0,0,1,1.013-1.318l43.2-14.334A1.042,1.042,0,0,1,951.921,1778.049Z" transform="translate(-907.075 -1778)" fill="none" stroke="#fff" stroke-miterlimit="10" stroke-width="2"/>
    <path id="路径_1157" data-name="路径 1157" d="M931.23,1818.2a1.934,1.934,0,0,0-2.72,1.637l-1.189,17.941a.531.531,0,0,0,.2.45.585.585,0,0,0,.511.1c9.77-2.445,20.442,2.455,28.178,13.207a.462.462,0,0,0,.681,0c7.736-10.752,18.408-15.652,28.178-13.207a.619.619,0,0,0,.511-.1.5.5,0,0,0,.21-.45l-1.18-17.878a1.934,1.934,0,0,0-2.715-1.64l-23.4,10.4a4.781,4.781,0,0,1-3.888,0Z" transform="translate(-912.026 -1787.791)" fill="none" stroke="#fff" stroke-miterlimit="10" stroke-width="2"/>
  </g>
</svg>
