<svg xmlns="http://www.w3.org/2000/svg" width="63.157" height="67.212" viewBox="0 0 63.157 67.212">
  <g id="组_602" data-name="组 602" transform="translate(1 1)">
    <path id="路径_1146" data-name="路径 1146" d="M1106.783,1814.273l3.795-8.827a.387.387,0,0,0-.285-.561h-8.587a1.937,1.937,0,0,1-1.732-1.367,2.9,2.9,0,0,1-.181-.87,2.961,2.961,0,0,1,.756-2.052l8.41-9.817c.259-.3.672.061.509.45l-3.488,8.312a.387.387,0,0,0,.285.558h8.544a1.933,1.933,0,0,1,1.728,1.357,2.872,2.872,0,0,1,.184.868,2.963,2.963,0,0,1-.736,2.045l-8.693,10.354C1107.034,1815.031,1106.615,1814.662,1106.783,1814.273Z" transform="translate(-1086.35 -1781.098)" fill="#fff" stroke="#fff" stroke-width="1"/>
    <g id="组_545" data-name="组 545" transform="translate(0 0)">
      <g id="组_541" data-name="组 541">
        <ellipse id="椭圆_1" data-name="椭圆 1" cx="11.638" cy="11.638" rx="11.638" ry="11.638" transform="translate(32.091 36.323)" fill="none" stroke="#fff" stroke-miterlimit="10" stroke-width="2"/>
        <path id="路径_1101" data-name="路径 1101" d="M1112.68,1839.361H1088.9a6.9,6.9,0,0,1-6.9-6.895V1784.9a6.9,6.9,0,0,1,6.893-6.9h31.347a6.9,6.9,0,0,1,6.9,6.895v23.079" transform="translate(-1082 -1778)" fill="none" stroke="#fff" stroke-linecap="round" stroke-miterlimit="10" stroke-width="2"/>
        <line id="直线_75" data-name="直线 75" x2="8.289" y2="8.289" transform="translate(52.455 56.509)" fill="none" stroke="#fff" stroke-linecap="round" stroke-miterlimit="10" stroke-width="2"/>
        <line id="直线_76" data-name="直线 76" x2="19.044" transform="translate(5.995 53.601)" fill="none" stroke="#fff" stroke-linecap="round" stroke-miterlimit="10" stroke-width="2"/>
        <path id="路径_1102" data-name="路径 1102" d="M1082,1847.188V1845.2a7,7,0,0,1,6.995-6.994h16.987" transform="translate(-1082 -1792.724)" fill="none" stroke="#fff" stroke-linecap="round" stroke-miterlimit="10" stroke-width="2"/>
      </g>
    </g>
  </g>
</svg>
