<svg xmlns="http://www.w3.org/2000/svg" xmlns:xlink="http://www.w3.org/1999/xlink" width="123.964" height="92.156" viewBox="0 0 123.964 92.156">
  <defs>
    <clipPath id="clip-path">
      <rect id="SVGID" width="102.096" height="90.562" transform="translate(113.19 145.418)" fill="none"/>
    </clipPath>
    <clipPath id="clip-path-2">
      <rect id="SVGID-2" data-name="SVGID" width="61.056" height="61.056" transform="translate(168.377 176.518)" fill="none"/>
    </clipPath>
    <clipPath id="clip-path-3">
      <rect id="SVGID-3" data-name="SVGID" width="33.229" height="33.229" transform="translate(182.283 190.395)" fill="none"/>
    </clipPath>
  </defs>
  <g id="组_68" data-name="组 68" transform="translate(-653 -917.521)">
    <circle id="椭圆_24" data-name="椭圆 24" cx="13.294" cy="13.294" r="13.294" transform="translate(727.185 968.576)" fill="#f94100"/>
    <g id="组_58" data-name="组 58" transform="translate(539.81 772.103)">
      <g id="组_57" data-name="组 57" clip-path="url(#clip-path)">
        <path id="路径_23" data-name="路径 23" d="M166.977,229.018H140.393a20.416,20.416,0,1,1,0-40.831c.108,0,.324,0,.324,0l3.238.051a3.045,3.045,0,0,0,2.5-1.17c1.169-1.275.744-2.4.744-3.837a30.831,30.831,0,0,1,51.612-22.818,12.124,12.124,0,0,1,1.074,1.167,3.758,3.758,0,0,0,3.035,1.637,3.4,3.4,0,0,0,3.4-3.407,4.224,4.224,0,0,0-1.435-2.941,13.3,13.3,0,0,0-1.086-1.05,37.224,37.224,0,0,0-25.764-10.275,37.662,37.662,0,0,0-37.6,35.836,27.222,27.222,0,1,0-.045,54.444h26.584a3.4,3.4,0,0,0,0-6.806Zm0,0" fill="#d3d3d3"/>
      </g>
    </g>
    <g id="组_60" data-name="组 60" transform="translate(539.81 772.103)">
      <g id="组_59" data-name="组 59" clip-path="url(#clip-path-2)">
        <path id="路径_24" data-name="路径 24" d="M224.035,209.857l-5.839.762a1.71,1.71,0,0,0-1.423,1.237,18.212,18.212,0,0,1-1.813,4.372,1.7,1.7,0,0,0,.13,1.883l3.6,4.674-4.055,4.056-4.674-3.6a1.7,1.7,0,0,0-1.884-.13,18.448,18.448,0,0,1-4.372,1.812,1.677,1.677,0,0,0-1.236,1.424l-.762,5.838h-5.739l-.762-5.838a1.712,1.712,0,0,0-1.236-1.424,18.209,18.209,0,0,1-4.372-1.812,1.7,1.7,0,0,0-1.884.13l-4.674,3.6-4.055-4.056,3.6-4.674a1.7,1.7,0,0,0,.13-1.883,18.468,18.468,0,0,1-1.813-4.372,1.676,1.676,0,0,0-1.423-1.237l-5.839-.762v-5.738l5.839-.762a1.709,1.709,0,0,0,1.423-1.237,18.213,18.213,0,0,1,1.813-4.372,1.7,1.7,0,0,0-.13-1.883l-3.6-4.674,4.055-4.056,4.674,3.6a1.7,1.7,0,0,0,1.884.129,18.448,18.448,0,0,1,4.372-1.812,1.678,1.678,0,0,0,1.236-1.424l.762-5.838H201.7l.762,5.838a1.712,1.712,0,0,0,1.236,1.424,18.21,18.21,0,0,1,4.372,1.812,1.7,1.7,0,0,0,1.884-.129l4.674-3.6,4.055,4.056-3.6,4.674a1.7,1.7,0,0,0-.13,1.883,18.468,18.468,0,0,1,1.813,4.372,1.675,1.675,0,0,0,1.423,1.237l5.839.762Zm2-8.858-6.242-.806a21.252,21.252,0,0,0-1.28-3.077l3.84-4.976a1.689,1.689,0,0,0-.144-2.229l-6.169-6.169a1.69,1.69,0,0,0-2.229-.144l-4.976,3.839a22.043,22.043,0,0,0-3.077-1.279l-.806-6.242a1.7,1.7,0,0,0-1.682-1.481H194.54a1.7,1.7,0,0,0-1.683,1.481l-.8,6.242a21.422,21.422,0,0,0-3.078,1.279L184,183.6a1.69,1.69,0,0,0-2.229.144l-6.17,6.169a1.691,1.691,0,0,0-.144,2.229l3.84,4.976a22.045,22.045,0,0,0-1.28,3.077l-6.241.806a1.7,1.7,0,0,0-1.481,1.682v8.729a1.7,1.7,0,0,0,1.481,1.683l6.241.8a21.422,21.422,0,0,0,1.28,3.078l-3.84,4.975a1.691,1.691,0,0,0,.144,2.229l6.17,6.169a1.689,1.689,0,0,0,2.229.144l4.975-3.839a22.105,22.105,0,0,0,3.078,1.279l.8,6.242a1.7,1.7,0,0,0,1.683,1.481h8.729a1.7,1.7,0,0,0,1.682-1.481l.806-6.242a21.363,21.363,0,0,0,3.077-1.279l4.976,3.839a1.689,1.689,0,0,0,2.229-.144l6.169-6.169a1.689,1.689,0,0,0,.144-2.229l-3.84-4.975a21.987,21.987,0,0,0,1.28-3.078l6.242-.8a1.7,1.7,0,0,0,1.481-1.683v-8.729A1.729,1.729,0,0,0,226.034,201Z" fill="#d3d3d3"/>
      </g>
    </g>
    <g id="组_62" data-name="组 62" transform="translate(539.81 772.103)">
      <g id="组_61" data-name="组 61" clip-path="url(#clip-path-3)">
        <path id="路径_25" data-name="路径 25" d="M198.9,218.327a11.3,11.3,0,1,1,11.3-11.3A11.314,11.314,0,0,1,198.9,218.327Zm0-26.014a14.7,14.7,0,1,0,14.7,14.7A14.7,14.7,0,0,0,198.9,192.313Z" fill="#d3d3d3"/>
      </g>
    </g>
    <circle id="椭圆_25" data-name="椭圆 25" cx="2.57" cy="2.57" r="2.57" transform="translate(664.153 933.614)" fill="#f94100"/>
    <circle id="椭圆_26" data-name="椭圆 26" cx="4.476" cy="4.476" r="4.476" transform="translate(768.012 997.738)" fill="#f94100"/>
    <circle id="椭圆_27" data-name="椭圆 27" cx="4.787" cy="4.787" r="4.787" transform="translate(670.629 924.849)" fill="#dc8000"/>
    <circle id="椭圆_28" data-name="椭圆 28" cx="4.693" cy="4.693" r="4.693" transform="translate(767.297 996.835)" fill="none" stroke="#d3d3d3" stroke-miterlimit="10" stroke-width="0.5"/>
  </g>
</svg>
