<svg xmlns="http://www.w3.org/2000/svg" width="76.736" height="74.738" viewBox="0 0 76.736 74.738">
  <g id="组_601" data-name="组 601" transform="translate(1 1.216)">
    <path id="路径_1143" data-name="路径 1143" d="M843.515,1792.339a20.623,20.623,0,0,0-7.206-15.178.353.353,0,0,0-.57.195l-2.452,11.179a.349.349,0,0,1-.411.267l-2.391-.491a.35.35,0,0,1-.271-.415l2.708-12.771a.355.355,0,0,0-.17-.381,20.988,20.988,0,0,0-20.751,0,.354.354,0,0,0-.17.381l2.68,12.535a.349.349,0,0,1-.27.415l-2.386.49a.349.349,0,0,1-.412-.273l-2.2-10.912a.353.353,0,0,0-.575-.2,20.54,20.54,0,0,0-6.961,15.026.344.344,0,0,1-.344.341h-3.126a.349.349,0,0,0-.349.349v4.553a.349.349,0,0,0,.349.349h4.2a.346.346,0,0,1,.344.325,19.914,19.914,0,0,0,39.709,0,.346.346,0,0,1,.344-.325h4.15a.349.349,0,0,0,.349-.349v-4.422a.349.349,0,0,0-.349-.349h-3.128A.345.345,0,0,1,843.515,1792.339Zm-20.9,20.824a15.489,15.489,0,0,1-15.548-15,.355.355,0,0,1,.354-.36h30.391a.355.355,0,0,1,.354.36,15.49,15.49,0,0,1-15.55,15Zm1.192,12.727h.777l1.08-6.034a.349.349,0,0,0-.343-.411H817.87a.349.349,0,0,0-.343.411l1.08,6.034h.78l-.383,7.962a.349.349,0,0,1-.681.086,105.18,105.18,0,0,0-7.229-17.213.36.36,0,0,0-.369-.185c-18.951,2.84-22.661,14.035-22.724,27.629a.353.353,0,0,0,.351.354H841.4a.349.349,0,0,0,.2-.635c-3.523-2.444-7.293-5.027-7.293-10.257,0-7.158,3.012-10.3,9.059-13.1a.353.353,0,0,0,.016-.635,33.936,33.936,0,0,0-10.93-3.281.357.357,0,0,0-.358.187,105.194,105.194,0,0,0-7.232,17.146.348.348,0,0,1-.681-.087l-.384-7.973Z" transform="translate(-788.001 -1772)" fill="none" stroke="#fff" stroke-miterlimit="10" stroke-width="2"/>
    <path id="路径_1144" data-name="路径 1144" d="M866.628,1837.979a10.713,10.713,0,1,1,.01,21.427h-.01a10.713,10.713,0,0,1,0-21.427Z" transform="translate(-802.61 -1788.136)" fill="none" stroke="#fff" stroke-miterlimit="10" stroke-width="2"/>
    <path id="路径_1145" data-name="路径 1145" d="M870.869,1842.375a4.841,4.841,0,0,0-3.845,2.187,4.429,4.429,0,0,0,.187,4.694l-3.473,5.764c-.359.6.023,1.455.856,1.908a1.625,1.625,0,0,0,2.159-.25l3.471-5.762a4.858,4.858,0,0,0,4.337-2.194,4.43,4.43,0,0,0,.066-4.264l-2.06,3.417-3.773-2.084,2.077-3.417Z" transform="translate(-804.49 -1789.211)" fill="#fff" stroke="#fff" stroke-width="1"/>
  </g>
</svg>
