<svg xmlns="http://www.w3.org/2000/svg" width="182.204" height="116.004" viewBox="0 0 182.204 116.004">
  <g id="组_599" data-name="组 599" transform="translate(1 1)">
    <g id="组_584" data-name="组 584" transform="translate(0 0)">
      <g id="组_576" data-name="组 576" transform="translate(46.172)">
        <g id="组_575" data-name="组 575">
          <path id="路径_1131" data-name="路径 1131" d="M1056.51,1539.75v-7.132a6.617,6.617,0,0,1,6.617-6.617h120.8a6.617,6.617,0,0,1,6.617,6.617v71.5a6.618,6.618,0,0,1-6.617,6.617h-81.393" transform="translate(-1056.51 -1526)" fill="none" stroke="#fff" stroke-linecap="round" stroke-linejoin="round" stroke-width="2"/>
          <path id="路径_1132" data-name="路径 1132" d="M1062.747,1540.868v-6.394a3.448,3.448,0,0,1,3.448-3.448h117.121a3.449,3.449,0,0,1,3.449,3.448v61.293a3.449,3.449,0,0,1-3.449,3.449H1105.1" transform="translate(-1057.74 -1526.991)" fill="none" stroke="#fff" stroke-linecap="round" stroke-linejoin="round" stroke-width="1"/>
          <g id="组_574" data-name="组 574" transform="translate(107.072 78.571)">
            <line id="直线_111" data-name="直线 111" x1="5.392" transform="translate(9.244)" fill="none" stroke="#fff" stroke-linecap="round" stroke-linejoin="round" stroke-width="2"/>
            <line id="直线_112" data-name="直线 112" x1="3.081" fill="none" stroke="#fff" stroke-linecap="round" stroke-linejoin="round" stroke-width="2"/>
          </g>
        </g>
        <path id="路径_1133" data-name="路径 1133" d="M1122.713,1653.879v-22.339h27.731v22.339" transform="translate(-1069.562 -1546.808)" fill="none" stroke="#fff" stroke-linecap="round" stroke-linejoin="round" stroke-width="2"/>
        <path id="路径_1134" data-name="路径 1134" d="M1146.6,1659.365h8.73a6.933,6.933,0,0,1,6.933,6.933H1103.2a6.933,6.933,0,0,1,6.933-6.933h26.535" transform="translate(-1065.716 -1552.293)" fill="none" stroke="#fff" stroke-linecap="round" stroke-linejoin="round" stroke-width="2"/>
        <rect id="矩形_14415" data-name="矩形 14415" width="10.014" height="8.088" rx="2.83" transform="translate(107.842 12.325)" fill="none" stroke="#fff" stroke-linecap="round" stroke-linejoin="round" stroke-width="1"/>
        <rect id="矩形_14416" data-name="矩形 14416" width="10.014" height="8.088" rx="2.83" transform="translate(107.842 26.575)" fill="none" stroke="#fff" stroke-linecap="round" stroke-linejoin="round" stroke-width="1"/>
        <path id="路径_1135" data-name="路径 1135" d="M1101.125,1561.149V1546.7a.551.551,0,0,1,.552-.551h48.966a.551.551,0,0,1,.552.551v5.251" transform="translate(-1065.306 -1529.973)" fill="none" stroke="#fff" stroke-linecap="round" stroke-linejoin="round" stroke-width="1"/>
        <path id="路径_1136" data-name="路径 1136" d="M1156.46,1602.29v.979a.551.551,0,0,1-.552.552h-28.076" transform="translate(-1070.572 -1541.041)" fill="none" stroke="#fff" stroke-linecap="round" stroke-linejoin="round" stroke-width="1"/>
        <rect id="矩形_14417" data-name="矩形 14417" width="50.069" height="35.132" rx="0.716" transform="translate(49.684 24.223)" fill="none" stroke="#fff" stroke-linecap="round" stroke-linejoin="round" stroke-width="1"/>
      </g>
      <g id="组_583" data-name="组 583" transform="translate(0 18.867)">
        <ellipse id="椭圆_34" data-name="椭圆 34" cx="10.036" cy="44.157" rx="10.036" ry="44.157" transform="translate(36.53)" fill="none" stroke="#fff" stroke-linecap="round" stroke-linejoin="round" stroke-width="2"/>
        <ellipse id="椭圆_35" data-name="椭圆 35" cx="10.036" cy="44.157" rx="10.036" ry="44.157" transform="translate(3.307 30.769) rotate(-60)" fill="none" stroke="#fff" stroke-linecap="round" stroke-linejoin="round" stroke-width="2"/>
        <ellipse id="椭圆_36" data-name="椭圆 36" cx="44.157" cy="10.036" rx="44.157" ry="10.036" transform="translate(3.307 57.544) rotate(-30)" fill="none" stroke="#fff" stroke-linecap="round" stroke-linejoin="round" stroke-width="2"/>
        <path id="路径_1137" data-name="路径 1137" d="M1054.853,1609.718l2.205-5.129a.225.225,0,0,0-.165-.326h-4.99a1.124,1.124,0,0,1-1.006-.794,1.7,1.7,0,0,1-.106-.506,1.722,1.722,0,0,1,.44-1.193l4.887-5.7c.15-.176.39.036.3.261l-2.027,4.831a.225.225,0,0,0,.166.324h4.966a1.125,1.125,0,0,1,1,.788,1.671,1.671,0,0,1,.107.5,1.723,1.723,0,0,1-.427,1.189l-5.052,6.017C1055,1610.159,1054.756,1609.945,1054.853,1609.718Z" transform="translate(-1009.21 -1558.668)" fill="#fff" stroke="#fff" stroke-width="1"/>
        <g id="组_577" data-name="组 577" transform="translate(0 44.558)">
          <line id="直线_113" data-name="直线 113" x1="4.014" transform="translate(17.663)" fill="none" stroke="#fff" stroke-linecap="round" stroke-linejoin="round" stroke-width="2"/>
          <line id="直线_114" data-name="直线 114" x1="4.014" transform="translate(8.831)" fill="none" stroke="#fff" stroke-linecap="round" stroke-linejoin="round" stroke-width="2"/>
          <line id="直线_115" data-name="直线 115" x1="4.014" fill="none" stroke="#fff" stroke-linecap="round" stroke-linejoin="round" stroke-width="2"/>
        </g>
        <g id="组_578" data-name="组 578" transform="translate(71.453 44.558)">
          <line id="直线_116" data-name="直线 116" x1="4.014" transform="translate(17.663)" fill="none" stroke="#fff" stroke-linecap="round" stroke-linejoin="round" stroke-width="2"/>
          <line id="直线_117" data-name="直线 117" x1="4.014" transform="translate(8.831)" fill="none" stroke="#fff" stroke-linecap="round" stroke-linejoin="round" stroke-width="2"/>
          <line id="直线_118" data-name="直线 118" x1="4.014" fill="none" stroke="#fff" stroke-linecap="round" stroke-linejoin="round" stroke-width="2"/>
        </g>
        <g id="组_579" data-name="组 579" transform="translate(23.841 4.482)">
          <line id="直线_119" data-name="直线 119" x1="1.977" y1="3.494" transform="translate(8.697 15.373)" fill="none" stroke="#fff" stroke-linecap="round" stroke-linejoin="round" stroke-width="2"/>
          <line id="直线_120" data-name="直线 120" x1="1.977" y1="3.494" transform="translate(4.348 7.687)" fill="none" stroke="#fff" stroke-linecap="round" stroke-linejoin="round" stroke-width="2"/>
          <line id="直线_121" data-name="直线 121" x1="1.977" y1="3.494" fill="none" stroke="#fff" stroke-linecap="round" stroke-linejoin="round" stroke-width="2"/>
        </g>
        <g id="组_580" data-name="组 580" transform="translate(58.616 65.767)">
          <line id="直线_122" data-name="直线 122" x1="1.977" y1="3.494" transform="translate(8.697 15.373)" fill="none" stroke="#fff" stroke-linecap="round" stroke-linejoin="round" stroke-width="2"/>
          <line id="直线_123" data-name="直线 123" x1="1.977" y1="3.494" transform="translate(4.348 7.687)" fill="none" stroke="#fff" stroke-linecap="round" stroke-linejoin="round" stroke-width="2"/>
          <line id="直线_124" data-name="直线 124" x1="1.977" y1="3.494" fill="none" stroke="#fff" stroke-linecap="round" stroke-linejoin="round" stroke-width="2"/>
        </g>
        <g id="组_581" data-name="组 581" transform="translate(23.847 65.488)">
          <line id="直线_125" data-name="直线 125" x1="1.942" y2="3.513" transform="translate(8.544)" fill="none" stroke="#fff" stroke-linecap="round" stroke-linejoin="round" stroke-width="2"/>
          <line id="直线_126" data-name="直线 126" x1="1.942" y2="3.513" transform="translate(4.272 7.729)" fill="none" stroke="#fff" stroke-linecap="round" stroke-linejoin="round" stroke-width="2"/>
          <line id="直线_127" data-name="直线 127" x1="1.942" y2="3.513" transform="translate(0 15.459)" fill="none" stroke="#fff" stroke-linecap="round" stroke-linejoin="round" stroke-width="2"/>
        </g>
        <g id="组_582" data-name="组 582" transform="translate(58.798 3.853)">
          <line id="直线_128" data-name="直线 128" x1="1.942" y2="3.513" transform="translate(8.544)" fill="none" stroke="#fff" stroke-linecap="round" stroke-linejoin="round" stroke-width="2"/>
          <line id="直线_129" data-name="直线 129" x1="1.942" y2="3.513" transform="translate(4.272 7.729)" fill="none" stroke="#fff" stroke-linecap="round" stroke-linejoin="round" stroke-width="2"/>
          <line id="直线_130" data-name="直线 130" x1="1.942" y2="3.513" transform="translate(0 15.459)" fill="none" stroke="#fff" stroke-linecap="round" stroke-linejoin="round" stroke-width="2"/>
        </g>
      </g>
    </g>
  </g>
</svg>
