<svg xmlns="http://www.w3.org/2000/svg" width="193.154" height="115.196" viewBox="0 0 193.154 115.196">
  <g id="组_598" data-name="组 598" transform="translate(1 1)">
    <g id="组_571" data-name="组 571" transform="translate(0 0)">
      <g id="组_569" data-name="组 569" transform="translate(10.318)">
        <path id="路径_1106" data-name="路径 1106" d="M742.619,1553.571l6.314-13.432a19.369,19.369,0,0,1,17.529-11.13h60.312a19.371,19.371,0,0,1,17.53,11.13l6.314,13.433" transform="translate(-713.024 -1529.009)" fill="none" stroke="#fff" stroke-linecap="round" stroke-linejoin="round" stroke-width="2"/>
        <path id="路径_1107" data-name="路径 1107" d="M748.007,1554.448l5.674-12a15.762,15.762,0,0,1,14.258-9h59.483a15.761,15.761,0,0,1,14.258,9l5.674,12" transform="translate(-714.087 -1529.885)" fill="none" stroke="#fff" stroke-linecap="round" stroke-linejoin="round" stroke-width="1"/>
        <path id="路径_1108" data-name="路径 1108" d="M816.9,1633.931c-10.874.547-20.948.947-27.112.947-15.012,0-53.218-2.376-69.687-3.448a9.111,9.111,0,0,1-8.48-8.236l-3.556-37.548a23.964,23.964,0,0,1,23.874-26.042h115.7a23.921,23.921,0,0,1,19.982,10.732" transform="translate(-706.194 -1535.041)" fill="none" stroke="#fff" stroke-miterlimit="10" stroke-width="2"/>
        <g id="组_563" data-name="组 563" transform="translate(0 65.112)">
          <path id="路径_1109" data-name="路径 1109" d="M733.466,1642.261a12.475,12.475,0,0,1-9.313,4.159h-5.89a12.506,12.506,0,0,1-12.506-12.506v-15.4a12.46,12.46,0,0,1,3.245-8.405" transform="translate(-705.757 -1610.111)" fill="none" stroke="#fff" stroke-miterlimit="10" stroke-width="2"/>
        </g>
        <path id="路径_1110" data-name="路径 1110" d="M748.287,1649.036a15.2,15.2,0,0,1,12.487-6.53h36.961" transform="translate(-714.142 -1551.385)" fill="none" stroke="#fff" stroke-miterlimit="10" stroke-width="1"/>
        <path id="路径_1111" data-name="路径 1111" d="M797.777,1628.788c-9.078,0-30.06-2.434-43.19-4.078a6.944,6.944,0,0,1-4.844-10.846h0a26.548,26.548,0,0,1,19.993-11.363c9.644-.666,22.186-1.447,28.041-1.447" transform="translate(-714.184 -1543.213)" fill="none" stroke="#fff" stroke-miterlimit="10" stroke-width="2"/>
        <path id="路径_1112" data-name="路径 1112" d="M760.878,1607.1s16.331,4.112,39.339,4.18" transform="translate(-716.624 -1544.405)" fill="none" stroke="#fff" stroke-miterlimit="10" stroke-width="1"/>
        <path id="路径_1113" data-name="路径 1113" d="M749.849,1616.972s19.986,5.329,48.195,5.5" transform="translate(-714.45 -1546.351)" fill="none" stroke="#fff" stroke-miterlimit="10" stroke-width="1"/>
        <g id="组_565" data-name="组 565" transform="translate(7.199 40.083)">
          <g id="组_564" data-name="组 564">
            <path id="路径_1114" data-name="路径 1114" d="M715.954,1579.371a.61.61,0,0,1,.778-.4c3.073,1,17.3,5.736,21.536,8.965,1.262.962,3.528,4.178,4.658,5.845a1.076,1.076,0,0,1-.414,1.569L741.2,1596a9.982,9.982,0,0,1-7.62.541l-8.127-2.709a2.784,2.784,0,0,0-2.707.562,4.338,4.338,0,0,1-2.791,1.166,5.62,5.62,0,0,1-4.577-3.814C713.854,1587.166,715.39,1581.243,715.954,1579.371Z" transform="translate(-714.723 -1578.935)" fill="none" stroke="#fff" stroke-miterlimit="10" stroke-width="2"/>
            <ellipse id="椭圆_33" data-name="椭圆 33" cx="1.981" cy="3.566" rx="1.981" ry="3.566" transform="translate(3.17 5.081)" fill="none" stroke="#fff" stroke-miterlimit="10" stroke-width="2"/>
          </g>
        </g>
        <g id="组_566" data-name="组 566" transform="translate(6.398 68.936)">
          <path id="路径_1115" data-name="路径 1115" d="M714.532,1614.906l18.726,6.242a3.924,3.924,0,0,1,2.124,1.7l1.146,1.91a.385.385,0,0,1-.426.571l-18.619-4.828a3.926,3.926,0,0,1-2.623-2.253l-1.083-2.527A.611.611,0,0,1,714.532,1614.906Z" transform="translate(-713.727 -1614.874)" fill="none" stroke="#fff" stroke-linecap="round" stroke-linejoin="round" stroke-width="1"/>
        </g>
        <g id="组_567" data-name="组 567" transform="translate(12.068 18.89)">
          <path id="路径_1116" data-name="路径 1116" d="M724.22,1560.356l-3.432-.232h0a7.555,7.555,0,0,1,6.729-7l5.333-.574a1.657,1.657,0,0,1,1.831,1.759l-.263,3.9" transform="translate(-720.788 -1552.538)" fill="none" stroke="#fff" stroke-linecap="round" stroke-linejoin="round" stroke-width="2"/>
          <path id="路径_1117" data-name="路径 1117" d="M892.124,1560.356l3.432-.232h0a7.555,7.555,0,0,0-6.73-7l-5.333-.574a1.657,1.657,0,0,0-1.83,1.759l.264,3.9" transform="translate(-752.504 -1552.538)" fill="none" stroke="#fff" stroke-linecap="round" stroke-linejoin="round" stroke-width="2"/>
        </g>
        <g id="组_568" data-name="组 568" transform="translate(50.513 9.112)">
          <path id="路径_1118" data-name="路径 1118" d="M824.356,1557.115a11.488,11.488,0,0,1,21.458,0" transform="translate(-779.652 -1542.207)" fill="none" stroke="#fff" stroke-linecap="round" stroke-linejoin="round" stroke-width="2"/>
          <line id="直线_100" data-name="直线 100" y1="6.339" x2="7.131" transform="translate(0 0.792)" fill="none" stroke="#fff" stroke-linecap="round" stroke-linejoin="round" stroke-width="1"/>
          <line id="直线_101" data-name="直线 101" y1="11.093" x2="12.678" transform="translate(7.131)" fill="none" stroke="#fff" stroke-linecap="round" stroke-linejoin="round" stroke-width="1"/>
        </g>
      </g>
      <path id="路径_1119" data-name="路径 1119" d="M884.059,1668.423H692.9l6.423-6.423" transform="translate(-692.905 -1555.229)" fill="none" stroke="#fff" stroke-linecap="round" stroke-linejoin="round" stroke-width="2"/>
      <g id="组_570" data-name="组 570" transform="translate(101.898 39.564)">
        <path id="矩形_14409" data-name="矩形 14409" d="M15.686,0H40.107A15.686,15.686,0,0,1,55.793,15.686V73.631a0,0,0,0,1,0,0H0a0,0,0,0,1,0,0V15.686A15.686,15.686,0,0,1,15.686,0Z" transform="translate(26.142)" fill="none" stroke="#fff" stroke-miterlimit="10" stroke-width="2"/>
        <path id="矩形_14410" data-name="矩形 14410" d="M10.786,0H35.519A10.786,10.786,0,0,1,46.3,10.786V64.143a0,0,0,0,1,0,0H0a0,0,0,0,1,0,0V10.786A10.786,10.786,0,0,1,10.786,0Z" transform="translate(30.886 4.744)" fill="none" stroke="#fff" stroke-miterlimit="10" stroke-width="1"/>
        <rect id="矩形_14411" data-name="矩形 14411" width="3.036" height="12.145" transform="translate(25.809 29.652) rotate(-180)" fill="#fff" stroke="#fff" stroke-width="1"/>
        <path id="路径_1120" data-name="路径 1120" d="M843.357,1603.026l-5.841.166a6.488,6.488,0,0,0-6.3,6.486v11.311a5.693,5.693,0,0,1-5.693,5.693h0a5.693,5.693,0,0,1-5.694-5.693v-25.617a5.84,5.84,0,0,1,2.942-5.07l7.685-4.392" transform="translate(-819.825 -1579.792)" fill="none" stroke="#fff" stroke-linecap="round" stroke-linejoin="round" stroke-width="4"/>
        <path id="路径_1121" data-name="路径 1121" d="M881.173,1636.56l5.1-11.867a.521.521,0,0,0-.382-.755H874.347a2.6,2.6,0,0,1-2.329-1.838,3.868,3.868,0,0,1-.243-1.17,3.981,3.981,0,0,1,1.016-2.759l11.307-13.2c.348-.407.9.083.684.6l-4.689,11.177a.52.52,0,0,0,.385.751h11.486a2.6,2.6,0,0,1,2.324,1.823,3.854,3.854,0,0,1,.248,1.167,3.982,3.982,0,0,1-.989,2.749l-11.688,13.922C881.51,1637.581,880.947,1637.084,881.173,1636.56Z" transform="translate(-830.066 -1583.52)" fill="#fff" stroke="#fff" stroke-width="1"/>
      </g>
    </g>
  </g>
</svg>
