<svg xmlns="http://www.w3.org/2000/svg" width="215.557" height="150.692" viewBox="0 0 215.557 150.692">
  <g id="组_600" data-name="组 600" transform="translate(1 1)">
    <g id="组_585" data-name="组 585" transform="translate(104.425 76.806)">
      <line id="直线_131" data-name="直线 131" x2="9.613" transform="translate(0 38.452)" fill="none" stroke="#fff" stroke-linecap="round" stroke-linejoin="round" stroke-width="2"/>
      <line id="直线_132" data-name="直线 132" x2="9.613" transform="translate(0 19.226)" fill="none" stroke="#fff" stroke-linecap="round" stroke-linejoin="round" stroke-width="2"/>
      <line id="直线_133" data-name="直线 133" x2="9.613" fill="none" stroke="#fff" stroke-linecap="round" stroke-linejoin="round" stroke-width="2"/>
    </g>
    <g id="组_586" data-name="组 586" transform="translate(80.735 76.806)">
      <line id="直线_134" data-name="直线 134" x2="7.006" transform="translate(2.607 38.452)" fill="none" stroke="#fff" stroke-linecap="round" stroke-linejoin="round" stroke-width="2"/>
      <line id="直线_135" data-name="直线 135" x2="9.613" transform="translate(0 19.226)" fill="none" stroke="#fff" stroke-linecap="round" stroke-linejoin="round" stroke-width="2"/>
      <line id="直线_136" data-name="直线 136" x2="9.613" fill="none" stroke="#fff" stroke-linecap="round" stroke-linejoin="round" stroke-width="2"/>
    </g>
    <g id="组_589" data-name="组 589" transform="translate(80.735 57.189)">
      <g id="组_587" data-name="组 587" transform="translate(23.69)">
        <line id="直线_137" data-name="直线 137" x2="9.613" fill="none" stroke="#fff" stroke-linecap="round" stroke-linejoin="round" stroke-width="2"/>
      </g>
      <g id="组_588" data-name="组 588">
        <line id="直线_138" data-name="直线 138" x2="9.613" fill="none" stroke="#fff" stroke-linecap="round" stroke-linejoin="round" stroke-width="2"/>
      </g>
    </g>
    <g id="组_592" data-name="组 592" transform="translate(152.946 76.806)">
      <g id="组_590" data-name="组 590" transform="translate(23.69)">
        <line id="直线_139" data-name="直线 139" x2="9.613" transform="translate(0 38.452)" fill="none" stroke="#fff" stroke-linecap="round" stroke-linejoin="round" stroke-width="2"/>
        <line id="直线_140" data-name="直线 140" x2="9.613" transform="translate(0 19.226)" fill="none" stroke="#fff" stroke-linecap="round" stroke-linejoin="round" stroke-width="2"/>
        <line id="直线_141" data-name="直线 141" x2="9.613" fill="none" stroke="#fff" stroke-linecap="round" stroke-linejoin="round" stroke-width="2"/>
      </g>
      <g id="组_591" data-name="组 591">
        <line id="直线_142" data-name="直线 142" x2="9.613" transform="translate(0 38.452)" fill="none" stroke="#fff" stroke-linecap="round" stroke-linejoin="round" stroke-width="2"/>
        <line id="直线_143" data-name="直线 143" x2="9.613" transform="translate(0 19.226)" fill="none" stroke="#fff" stroke-linecap="round" stroke-linejoin="round" stroke-width="2"/>
        <line id="直线_144" data-name="直线 144" x2="9.613" fill="none" stroke="#fff" stroke-linecap="round" stroke-linejoin="round" stroke-width="2"/>
      </g>
    </g>
    <line id="直线_145" data-name="直线 145" x2="119.657" transform="translate(93.899 148.692)" fill="none" stroke="#fff" stroke-linecap="round" stroke-linejoin="round" stroke-width="2"/>
    <path id="路径_1138" data-name="路径 1138" d="M1315,1537.145l.088-24.4,90.623-27.946v138.134h-31.3" transform="translate(-1274.858 -1484.794)" fill="none" stroke="#fff" stroke-linecap="round" stroke-linejoin="round" stroke-width="2"/>
    <path id="路径_1139" data-name="路径 1139" d="M1435.658,1632.479h65.108v-79.164l-65.108-20.078Z" transform="translate(-1298.646 -1494.345)" fill="none" stroke="#fff" stroke-linecap="round" stroke-linejoin="round" stroke-width="2"/>
    <line id="直线_146" data-name="直线 146" x2="65.987" y2="21.996" transform="translate(136.571 30.354)" fill="none" stroke="#fff" stroke-linecap="round" stroke-linejoin="round" stroke-width="2"/>
    <path id="路径_1140" data-name="路径 1140" d="M1334.438,1582.453a25.8,25.8,0,0,0-9.014-18.986.441.441,0,0,0-.713.244l-3.067,13.983a.437.437,0,0,1-.515.334l-2.991-.615a.436.436,0,0,1-.339-.518l3.387-15.974a.444.444,0,0,0-.213-.477,26.254,26.254,0,0,0-25.955,0,.446.446,0,0,0-.214.479l3.354,15.678a.436.436,0,0,1-.339.519l-2.985.613a.436.436,0,0,1-.515-.342l-2.749-13.649a.44.44,0,0,0-.718-.247,25.691,25.691,0,0,0-8.707,18.794.431.431,0,0,1-.43.427h-3.91a.437.437,0,0,0-.437.436v5.7a.437.437,0,0,0,.437.437h5.256a.431.431,0,0,1,.429.405,24.908,24.908,0,0,0,49.668,0,.432.432,0,0,1,.43-.405h5.191a.436.436,0,0,0,.436-.437v-5.532a.436.436,0,0,0-.436-.437h-3.912A.431.431,0,0,1,1334.438,1582.453Zm-26.145,26.046a19.374,19.374,0,0,1-19.449-18.766.444.444,0,0,1,.443-.45H1327.3a.443.443,0,0,1,.442.45,19.376,19.376,0,0,1-19.45,18.763Zm1.49,15.92h.973l1.351-7.548a.437.437,0,0,0-.43-.514h-9.316a.437.437,0,0,0-.429.514l1.351,7.548h.974l-.479,9.959a.436.436,0,0,1-.852.107,131.518,131.518,0,0,0-9.042-21.531.452.452,0,0,0-.462-.231c-23.7,3.552-28.345,17.555-28.423,34.559a.442.442,0,0,0,.44.442H1331.8a.437.437,0,0,0,.25-.795c-4.407-3.056-9.123-6.288-9.123-12.83,0-8.953,3.767-12.886,11.331-16.382a.442.442,0,0,0,.02-.794,42.453,42.453,0,0,0-13.671-4.1.448.448,0,0,0-.449.234,131.542,131.542,0,0,0-9.045,21.446.436.436,0,0,1-.852-.108l-.479-9.972Z" transform="translate(-1265.001 -1499.032)" fill="none" stroke="#fff" stroke-miterlimit="10" stroke-width="2"/>
    <path id="路径_1141" data-name="路径 1141" d="M1358.333,1634.666a13.4,13.4,0,1,1,.011,26.8h-.011a13.4,13.4,0,1,1,0-26.8Z" transform="translate(-1280.76 -1514.342)" fill="none" stroke="#fff" stroke-miterlimit="10" stroke-width="2"/>
    <path id="路径_1142" data-name="路径 1142" d="M1363.069,1639.841a6.055,6.055,0,0,0-4.81,2.735,5.539,5.539,0,0,0,.235,5.871l-4.344,7.21c-.45.747.029,1.821,1.07,2.388a2.033,2.033,0,0,0,2.7-.314l4.342-7.207a6.076,6.076,0,0,0,5.424-2.744,5.538,5.538,0,0,0,.082-5.333l-2.576,4.274-4.719-2.606,2.6-4.274Z" transform="translate(-1282.544 -1515.362)" fill="none" stroke="#fff" stroke-miterlimit="10" stroke-width="1"/>
  </g>
</svg>
