<svg id="组_103" data-name="组 103" xmlns="http://www.w3.org/2000/svg" width="154.001" height="154" viewBox="0 0 154.001 154">
  <rect id="矩形_233" data-name="矩形 233" width="12.767" height="63.037" rx="1" transform="translate(106.125 44.08)" fill="none"/>
  <rect id="矩形_234" data-name="矩形 234" width="12.767" height="47.876" rx="1" transform="translate(59.047 76.208)" fill="none"/>
  <path id="路径_72" data-name="路径 72" d="M-381.462-199.01V-168.4h4.813a2.76,2.76,0,0,1,2.75,2.769v61.609a2.76,2.76,0,0,1-2.75,2.769h-4.813v34.068a75.588,75.588,0,0,0,38.5-65.914A75.592,75.592,0,0,0-381.462-199.01Z" transform="translate(494.899 210.546)" fill="none"/>
  <path id="路径_73" data-name="路径 73" d="M-469.459-213.715a74.645,74.645,0,0,1,11,.828v47.93a1.034,1.034,0,0,0,1.031,1.037,1.035,1.035,0,0,0,1.031-1.037v-47.61h0v-.923a1.382,1.382,0,0,0-1.156-1.371,76.674,76.674,0,0,0-11.906-.929,76.216,76.216,0,0,0-11.208.82,1.381,1.381,0,0,0-1.167,1.371v.215c0,.006,0,.011,0,.017v71.575h-4.812a2.758,2.758,0,0,0-2.75,2.766v46.334a2.758,2.758,0,0,0,2.75,2.766h4.813V-64a74.046,74.046,0,0,1-21.313-7.027V-116.55a1.034,1.034,0,0,0-1.031-1.037,1.034,1.034,0,0,0-1.031,1.037v44.441A75.485,75.485,0,0,1-544.4-138.337a75.5,75.5,0,0,1,39.186-66.228v45.139a1.034,1.034,0,0,0,1.031,1.037,1.035,1.035,0,0,0,1.031-1.037v-46.233h0v-.062a1.38,1.38,0,0,0-2.027-1.222,77.756,77.756,0,0,0-37.4,44.291c-.117.353-.227.705-.344,1.065-.22.712-.433,1.432-.639,2.151v.007q-.454,1.629-.846,3.278c-.172.74-.337,1.48-.488,2.227a77.623,77.623,0,0,0-1.568,15.587,77.623,77.623,0,0,0,1.568,15.587c.193.947.4,1.881.626,2.815.213.878.44,1.743.681,2.607a77.585,77.585,0,0,0,53.24,53.553c.859.242,1.719.47,2.592.685.928.228,1.856.436,2.8.629q1.789.37,3.614.654a1.375,1.375,0,0,0,1.57-1.371v-.5h0V-89.925h4.813a2.758,2.758,0,0,0,2.75-2.766v-46.334a2.758,2.758,0,0,0-2.75-2.766h-4.813v-71.193A73.879,73.879,0,0,1-469.459-213.715Zm-5.5,74a.689.689,0,0,1,.688.692v46.334a.69.69,0,0,1-.687.692h-11.688a.689.689,0,0,1-.688-.692v-46.334a.689.689,0,0,1,.688-.692Z" transform="translate(546.46 215.79)" fill="#c19a57"/>
  <path id="路径_74" data-name="路径 74" d="M-354.028-149.865c-.193-.948-.4-1.882-.626-2.816-.213-.879-.44-1.743-.681-2.608a77.821,77.821,0,0,0-37.716-47.236,1.38,1.38,0,0,0-2.036,1.218v.041l.024.013a1.057,1.057,0,0,0-.025.226v31.477H-399.9a2.758,2.758,0,0,0-2.75,2.767v61.57a2.758,2.758,0,0,0,2.75,2.767h4.813v35.163A74.025,74.025,0,0,1-416.4-60.021V-121.47a1.034,1.034,0,0,0-1.031-1.038,1.034,1.034,0,0,0-1.031,1.038v62.262c0,.006,0,.011,0,.017h0a1.38,1.38,0,0,0,1.609,1.362q1.452-.241,2.888-.538c.942-.194,1.87-.4,2.8-.63.873-.214,1.733-.443,2.592-.685a77.613,77.613,0,0,0,53.24-53.573c.241-.865.467-1.73.681-2.608.227-.934.433-1.868.626-2.816a78.183,78.183,0,0,0,1.568-15.593A78.183,78.183,0,0,0-354.028-149.865Zm-46.559,44.652v-61.57a.689.689,0,0,1,.688-.692h11.688a.689.689,0,0,1,.688.692v61.57a.69.69,0,0,1-.687.692H-399.9A.689.689,0,0,1-400.587-105.213Zm7.563,36.814v-34.047h4.813a2.759,2.759,0,0,0,2.75-2.767v-61.57a2.759,2.759,0,0,0-2.75-2.767h-4.813v-30.595a75.537,75.537,0,0,1,38.5,65.873A75.534,75.534,0,0,1-393.024-68.4Z" transform="translate(506.461 211.697)" fill="#c19a57"/>
  <g id="矩形_224" data-name="矩形 224" transform="translate(33.513 56.068)">
    <rect id="矩形_231" data-name="矩形 231" width="17.555" height="43.088" rx="4" transform="translate(0 0)" fill="#ddb673"/>
  </g>
  <g id="矩形_226" data-name="矩形 226" transform="translate(80.591 49.627)">
    <rect id="矩形_232" data-name="矩形 232" width="16.757" height="41.493" rx="4" transform="translate(0 0)" fill="#ddb673"/>
  </g>
</svg>
