<?xml version="1.0" encoding="UTF-8" standalone="no"?><!DOCTYPE svg PUBLIC "-//W3C//DTD SVG 1.1//EN" "http://www.w3.org/Graphics/SVG/1.1/DTD/svg11.dtd"><svg width="100%" height="100%" viewBox="0 0 109 110" version="1.1" xmlns="http://www.w3.org/2000/svg" xmlns:xlink="http://www.w3.org/1999/xlink" xml:space="preserve" xmlns:serif="http://www.serif.com/" style="fill-rule:evenodd;clip-rule:evenodd;stroke-linecap:round;stroke-linejoin:round;stroke-miterlimit:10;"><g><path d="M96.722,5.399c-3.215,0 -5.941,2.13 -6.843,5.054l-8.963,0c-0.772,-0.032 -1.5,0.362 -1.895,1.026c-0.396,0.664 -0.396,1.491 -0,2.155c0.395,0.663 1.123,1.058 1.895,1.026l8.963,0c0.927,3.002 3.701,5.051 6.843,5.054c3.952,-0.004 7.154,-3.208 7.156,-7.16c-0.005,-3.95 -3.206,-7.151 -7.156,-7.155Z" style="fill:none;fill-rule:nonzero;stroke:#24c6dc;stroke-width:1px;"/><path d="M96.722,15.504c-1.501,-0.001 -2.762,-1.13 -2.928,-2.622c0.034,-0.216 0.034,-0.437 -0,-0.653c0.199,-1.533 1.547,-2.651 3.089,-2.565c1.542,0.086 2.756,1.347 2.784,2.891c-0,1.628 -1.321,2.946 -2.945,2.946l-0,0.003Z" style="fill:none;fill-rule:nonzero;stroke:#24c6dc;stroke-width:1px;"/><path d="M74.425,11.068c0.814,0.825 0.814,2.151 -0,2.978c-0.396,0.393 -0.93,0.615 -1.487,0.618c-0.559,-0.002 -1.095,-0.225 -1.491,-0.618c-0.815,-0.827 -0.815,-2.153 -0,-2.978c0.397,-0.393 0.933,-0.613 1.491,-0.615c0.553,0 1.092,0.223 1.487,0.615Z" style="fill:none;fill-rule:nonzero;stroke:#24c6dc;stroke-width:1px;"/><path d="M107.85,74.269c0.826,0.822 0.826,2.155 0,2.978l-30.074,30.073c-1.217,1.225 -3.054,1.592 -4.648,0.928c-1.596,-0.659 -2.634,-2.216 -2.63,-3.941l0,-5.378l-34.435,0c-1.162,0 -2.105,-0.942 -2.105,-2.105c0,-1.162 0.943,-2.105 2.105,-2.105l36.541,0c1.16,0 2.104,0.942 2.104,2.105l0,7.518c0.011,0.007 0.047,0.026 0.069,0.022l0.021,-0.018l28.587,-28.591l-28.587,-28.586c-0.036,-0.036 -0.025,-0.021 -0.025,-0.021c-0.024,0.003 -0.046,0.013 -0.065,0.028l0,0.032l-0.004,19.74c3,0.927 5.047,3.699 5.051,6.84c-0.002,3.951 -3.203,7.155 -7.155,7.159c-3.952,-0.004 -7.154,-3.208 -7.156,-7.159c0,-3.212 2.127,-5.939 5.051,-6.84l0,-10.152l-31.824,0l0,5.377c0,1.732 -1.03,3.277 -2.629,3.938c-1.593,0.665 -3.43,0.3 -4.649,-0.923l-30.073,-30.074c-0.821,-0.823 -0.821,-2.154 0,-2.975l30.073,-30.081c1.222,-1.221 3.051,-1.584 4.649,-0.923c1.599,0.661 2.629,2.209 2.629,3.938l0,5.38l25.616,0c0.773,-0.032 1.5,0.362 1.896,1.026c0.396,0.664 0.396,1.491 0,2.155c-0.396,0.663 -1.123,1.058 -1.896,1.026l-27.721,0c-0.558,0 -1.093,-0.222 -1.488,-0.617c-0.395,-0.394 -0.616,-0.93 -0.616,-1.489l0,-7.517c-0.021,-0.013 -0.045,-0.021 -0.069,-0.022l-28.608,28.608l28.586,28.59c0.037,0.036 0.026,0.022 0.026,0.022c0.024,-0.005 0.047,-0.016 0.065,-0.032l0,-16.966c-3,-0.929 -5.047,-3.7 -5.051,-6.84c0,-3.944 3.211,-7.155 7.155,-7.155c3.948,0 7.156,3.211 7.156,7.155c0,3.215 -2.127,5.938 -5.051,6.84l0,7.349l31.827,0l0,-5.378c0,-1.731 1.031,-3.279 2.63,-3.94c1.593,-0.665 3.43,-0.301 4.648,0.923l30.074,30.078Z" style="fill:none;fill-rule:nonzero;stroke:#24c6dc;stroke-width:1px;"/><path d="M36.566,41.347c1.588,-0.056 2.846,-1.358 2.846,-2.947c0,-1.589 -1.258,-2.892 -2.846,-2.948c-1.57,0.078 -2.803,1.374 -2.803,2.946c0,1.572 1.233,2.868 2.803,2.945l0,0.004Z" style="fill:none;fill-rule:nonzero;stroke:#24c6dc;stroke-width:1px;"/><path d="M75.542,73.788c-0.078,-1.57 -1.374,-2.804 -2.945,-2.804c-1.573,-0 -2.869,1.234 -2.946,2.804c0.077,1.57 1.373,2.804 2.946,2.804c1.571,-0 2.867,-1.234 2.945,-2.804Z" style="fill:none;fill-rule:nonzero;stroke:#24c6dc;stroke-width:1px;"/><path d="M27.942,95.338c0.816,0.823 0.816,2.15 -0,2.974c-0.825,0.812 -2.149,0.812 -2.975,-0c-0.393,-0.396 -0.615,-0.929 -0.617,-1.488c0.008,-1.159 0.946,-2.096 2.105,-2.104c0.553,-0 1.095,0.222 1.487,0.618Z" style="fill:none;fill-rule:nonzero;stroke:#24c6dc;stroke-width:1px;"/><ellipse cx="12.454" cy="96.832" rx="7.157" ry="7.156" style="fill:none;stroke:#24c6dc;stroke-width:1px;"/><path d="M12.456,99.777c1.571,-0.077 2.804,-1.374 2.804,-2.945c-0,-1.573 -1.233,-2.868 -2.804,-2.947c-1.57,0.079 -2.804,1.374 -2.804,2.947c-0,1.571 1.234,2.868 2.804,2.945Z" style="fill:none;fill-rule:nonzero;stroke:#24c6dc;stroke-width:1px;"/><path d="M77.176,18.913c0.752,-0 1.447,0.401 1.823,1.053c0.376,0.651 0.376,1.454 0,2.105c-0.376,0.652 -1.071,1.052 -1.823,1.052l-23.73,-0c-0.752,-0 -1.447,-0.4 -1.823,-1.052c-0.376,-0.651 -0.376,-1.454 0,-2.105c0.376,-0.652 1.071,-1.053 1.823,-1.053l23.73,-0Z" style="fill:none;fill-rule:nonzero;stroke:#24c6dc;stroke-width:1px;"/><path d="M66.751,86.267c1.163,0 2.105,0.942 2.105,2.104c0,1.164 -0.942,2.105 -2.105,2.105l-23.729,0c-1.163,0 -2.105,-0.941 -2.105,-2.105c0,-1.162 0.942,-2.104 2.105,-2.104l23.729,0Z" style="fill:none;fill-rule:nonzero;stroke:#24c6dc;stroke-width:1px;"/></g></svg>