<svg xmlns="http://www.w3.org/2000/svg" width="123" height="116.829" viewBox="0 0 123 116.829">
  <path id="商业贸易" d="M338.248,263.07H316.86V261.5c0-13.214-10.421-23.928-23.275-23.928h-16.02c-12.853,0-23.268,10.707-23.268,23.928v1.573H232.944a8.972,8.972,0,0,0-8.848,9.093v28.22l10.319,8.133h38.818v-7.227h24.889v7.227h38.225l10.612-8.364.136.177V272.156A8.975,8.975,0,0,0,338.248,263.07Zm-32.313,0H265.189v-.511a15.378,15.378,0,0,1,15.162-15.584h10.428a15.378,15.378,0,0,1,15.162,15.584v.511Zm32.756,54.982H298.122v5.395H273.233v-5.395H232.065l-.286.388-7.683-6.049V345.3a8.969,8.969,0,0,0,8.848,9.1h105.3a8.974,8.974,0,0,0,8.848-9.1V312.05l-8.112,6.389Z" transform="translate(-224.096 -237.568)" fill="#f5f3ee"/>
</svg>
