<?xml version="1.0" encoding="UTF-8" standalone="no"?><!DOCTYPE svg PUBLIC "-//W3C//DTD SVG 1.1//EN" "http://www.w3.org/Graphics/SVG/1.1/DTD/svg11.dtd"><svg width="100%" height="100%" viewBox="0 0 116 111" version="1.1" xmlns="http://www.w3.org/2000/svg" xmlns:xlink="http://www.w3.org/1999/xlink" xml:space="preserve" xmlns:serif="http://www.serif.com/" style="fill-rule:evenodd;clip-rule:evenodd;stroke-miterlimit:10;"><g><ellipse cx="46.809" cy="47.412" rx="3.063" ry="3.061" style="fill:none;stroke:#24c6dc;stroke-width:1px;"/><circle cx="69.929" cy="71.936" r="3.062" style="fill:none;stroke:#24c6dc;stroke-width:1px;"/><path d="M108.558,66.814c-0.268,0.408 -1.104,0.812 -1.521,0.908l-8.823,0c-1.69,0 -3.061,1.371 -3.061,3.062l-0,9.431c-0,5.347 -4.2,5.618 -5.042,5.618l-3.852,0c-1.69,0 -3.061,1.371 -3.061,3.061l-0.001,15.252l-15.362,0l-0,-24.178c0.67,0.175 1.369,0.278 2.094,0.278c4.582,0 8.311,-3.728 8.311,-8.31c-0,-4.583 -3.729,-8.31 -8.311,-8.31c-0.725,0 -1.424,0.102 -2.094,0.277l-0,-56.665l1.302,0c16.439,0 29.813,13.612 29.813,30.343l-0,9.193c-0,0.477 0.111,0.946 0.325,1.372l9.32,18.589c-0.007,0.031 -0.02,0.053 -0.037,0.079Zm-53.057,-16.341l6.211,0l-0,18.4l-6.211,0l-0,-18.4Zm-6.124,4.838l-0,48.835l-15.115,0l-0,-15.252c-0,-1.69 -1.371,-3.061 -3.061,-3.061l-4.949,0c-3.877,0 -3.921,-5.389 -3.921,-5.618l-0,-9.431c-0,-1.691 -1.371,-3.062 -3.061,-3.062l-8.935,0c-0.832,-0.213 -2.261,-1.019 -2.696,-1.57l10.411,-17.834c0.274,-0.468 0.418,-1.001 0.418,-1.544l-0,-9.193c-0,-16.731 13.346,-30.343 29.75,-30.343l1.159,0l-0,32.274c-0.809,-0.263 -1.671,-0.411 -2.568,-0.411c-4.582,0 -8.31,3.729 -8.31,8.311c-0,4.582 3.728,8.31 8.31,8.31c0.897,0 1.759,-0.147 2.568,-0.411Zm65.135,9.729c-0.055,-0.218 -0.133,-0.43 -0.233,-0.63l-9.205,-18.361l-0,-8.468c-0,-20.108 -16.121,-36.466 -35.937,-36.466l-4.363,0c-1.692,0 -3.062,1.371 -3.062,3.061l-0,40.174l-6.211,0l-0,-40.174c-0,-1.69 -1.371,-3.061 -3.061,-3.061l-4.222,0c-19.781,0 -35.874,16.358 -35.874,36.466l-0,8.365l-10.167,17.417c-0.034,0.057 -0.065,0.115 -0.095,0.175c-0.94,1.88 -0.845,3.908 0.268,5.709c1.764,2.853 6.033,4.599 7.77,4.599l6.088,0l-0,6.369c-0,5.834 3.451,11.742 10.044,11.742l1.887,0l-0,12.231c-0,3.354 2.711,6.081 6.044,6.081l18.257,0c1.69,0 3.061,-1.371 3.061,-3.061l-0,-32.21l6.211,0l-0,32.21c-0,1.69 1.37,3.061 3.062,3.061l18.423,0c3.377,0 6.124,-2.727 6.124,-6.081l-0,-12.231l0.79,0c7.33,0 11.166,-5.908 11.166,-11.742l-0,-6.369l5.905,0c1.519,0 4.436,-0.997 6.165,-3.213c1.252,-1.603 1.666,-3.59 1.165,-5.593Z" style="fill:none;fill-rule:nonzero;stroke:#24c6dc;stroke-width:1px;stroke-linecap:round;stroke-linejoin:round;"/></g></svg>