<svg width="24" height="24" viewBox="0 0 24 24" fill="none" xmlns="http://www.w3.org/2000/svg">
<path d="M6.22504 8.35548V7.66791H5.46423V7.08782C5.46423 6.92502 5.48267 6.78013 5.53694 6.63577C5.55485 6.59941 5.5733 6.58044 5.5733 6.56306C5.55485 6.54514 5.48267 6.54514 5.37414 6.54514C5.28352 6.5267 5.03009 6.50879 4.61386 6.50879V7.66791H3.61755V8.35548H4.61333V9.26064L3.47266 9.56886L3.83514 10.4018L4.57698 10.0942V11.199C4.61333 11.4155 4.342 11.4883 3.744 11.4155C3.90733 11.5973 4.03377 11.8687 4.08804 12.2122C5.048 12.267 5.5185 12.0494 5.46423 11.5615V9.76907C5.53694 9.75011 5.64495 9.71428 5.82619 9.66001C5.97108 9.6421 6.07962 9.60522 6.17024 9.56991L6.1518 8.79014C5.91682 8.89921 5.66286 8.9893 5.42735 9.06201V8.356H6.22504V8.35548Z" fill="#1A35EE"/>
<path d="M16.9614 3.43026V3.12257C16.9614 2.90497 16.9787 2.6879 17.0341 2.47083C17.0883 2.30749 17.1242 2.18105 17.1242 2.07251C17.2332 1.96345 16.7986 1.90918 15.8207 1.90918H14.6068V3.43026H11.2759V2.86914H2.42285V4.96978H3.63571V6.16472H5.75426V4.96978H7.69157V6.16472H9.81012V4.96978H10.9508V11.65H20.6911V3.43079H16.9614V3.43026ZM14.6068 9.71268H13.2132V8.42764H14.6068V9.71268ZM14.68 6.65314H13.2137V5.36809H14.68V6.65314ZM18.2648 9.71268H16.8707V8.42764H18.2648V9.71268ZM18.2648 6.65314H16.8707V5.36809H18.2648V6.65314Z" fill="#1A35EE"/>
<path d="M7.99847 8.73666C8.14336 8.98956 8.21554 9.24299 8.21554 9.51433C9.13915 9.56912 9.59174 9.38788 9.57329 8.98956C9.62809 8.68134 9.68236 8.12075 9.75454 7.32359C9.77245 7.16079 9.79037 6.97902 9.80881 6.79883H6.26032V7.45004H7.20184C7.16549 8.30147 6.82197 8.87997 6.20605 9.18819C6.47739 9.47745 6.65811 9.64078 6.73135 9.69557H6.45948V12.2662H7.27402V11.94H8.65022V12.2662H9.59174V9.69557H6.8578C7.67234 9.15184 8.07066 8.41 8.07066 7.45004H8.8852C8.77666 7.95689 8.7224 8.30147 8.70448 8.50062C8.7224 8.7177 8.48688 8.7904 7.99847 8.73666ZM7.27402 10.3658H8.68657V11.3252H7.27402V10.3658Z" fill="#1A35EE"/>
<path d="M9.8096 12.5918H7.54668V15.1808C6.94921 15.2894 6.36965 15.3616 5.84488 15.4158V12.5918H3.63571V15.742C3.11095 15.9053 2.69419 15.9949 2.42285 15.9949C2.47712 16.2483 2.58618 16.6287 2.74899 17.1176C2.85752 17.6424 2.96606 18.0233 3.07512 18.2409H3.1473C3.21948 18.2409 3.38281 18.2046 3.63571 18.1492C4.17892 17.8774 5.48292 17.5339 7.54668 17.1176V22.9843L9.8096 19.3263V16.7014C9.97293 16.7014 10.2264 16.684 10.552 16.6292C10.8781 16.5749 11.1315 16.5207 11.3486 16.4659C11.3486 15.8684 11.3849 15.2346 11.4392 14.5465L9.8096 14.8547V12.5918Z" fill="#1A35EE"/>
<path d="M21.5779 14.1303V12.2842H10.4609V14.1303H13.4662C13.2491 15.0539 13.0321 15.9602 12.8145 16.8643H17.8482C17.7391 17.9512 17.5584 18.5118 17.2871 18.5661C16.9615 18.6024 16.2191 18.6024 15.0964 18.5661C15.4768 19.0914 15.6759 19.8153 15.7481 20.721C17.7939 20.721 19.0068 20.5397 19.3867 20.1593C19.8761 19.7431 20.2555 18.0234 20.5274 15.0176H15.7481L16.0737 14.1298H21.5779V14.1303Z" fill="#1A35EE"/>
</svg>
