<svg xmlns="http://www.w3.org/2000/svg" width="81.05" height="84.348" viewBox="0 0 81.05 84.348">
  <g id="组_1641" data-name="组 1641" transform="translate(2 2)">
    <path id="路径_10425" data-name="路径 10425" d="M10,38V49.6H64.124V38" transform="translate(1.463 30.751)" fill="none" stroke="#fff" stroke-linecap="round" stroke-linejoin="round" stroke-width="4"/>
    <path id="路径_10426" data-name="路径 10426" d="M64.124,34.928V23.33L48.66,4H10V34.928" transform="translate(1.463 -4)" fill="none" stroke="#fff" stroke-linecap="round" stroke-linejoin="round" stroke-width="4"/>
    <path id="路径_10427" data-name="路径 10427" d="M28,4V23.33H47.33" transform="translate(18.257 -4)" fill="none" stroke="#fff" stroke-linecap="round" stroke-linejoin="round" stroke-width="4"/>
    <rect id="矩形_807" data-name="矩形 807" width="77.05" height="35.175" rx="2" transform="translate(0 32.461)" fill="none" stroke="#fff" stroke-linejoin="round" stroke-width="4"/>
    <path id="路径_10428" data-name="路径 10428" d="M21,25V40.464" transform="translate(11.726 17.58)" fill="none" stroke="#fff" stroke-linecap="round" stroke-width="4"/>
    <path id="路径_10429" data-name="路径 10429" d="M10,25V40.464" transform="translate(1.463 17.58)" fill="none" stroke="#fff" stroke-linecap="round" stroke-width="4"/>
    <path id="路径_10430" data-name="路径 10430" d="M32,40.464V25h9.665" transform="translate(21.989 17.58)" fill="none" stroke="#fff" stroke-linecap="round" stroke-linejoin="round" stroke-width="4"/>
    <path id="路径_10431" data-name="路径 10431" d="M32,30h9.665" transform="translate(21.989 22.227)" fill="none" stroke="#fff" stroke-linecap="round" stroke-linejoin="round" stroke-width="4"/>
    <path id="路径_10432" data-name="路径 10432" d="M10,25h6.766A4.833,4.833,0,0,1,21.6,29.833h0a4.833,4.833,0,0,1-4.833,4.833H10" transform="translate(1.463 17.41)" fill="none" stroke="#fff" stroke-linecap="round" stroke-linejoin="round" stroke-width="4"/>
    <path id="路径_10433" data-name="路径 10433" d="M21,25h3.866A7.732,7.732,0,0,1,32.6,32.732h0a7.732,7.732,0,0,1-7.732,7.732H21" transform="translate(11.726 17.58)" fill="none" stroke="#fff" stroke-linecap="round" stroke-linejoin="round" stroke-width="4"/>
    <path id="路径_10434" data-name="路径 10434" d="M16,12h7.732" transform="translate(7.061 4.07)" fill="none" stroke="#fff" stroke-linecap="round" stroke-width="4"/>
  </g>
</svg>
