<svg width="13" height="13" viewBox="0 0 13 13" fill="none" xmlns="http://www.w3.org/2000/svg">
<path fill-rule="evenodd" clip-rule="evenodd" d="M1.86223 0.166992C1.6349 0.166992 1.41688 0.257298 1.25614 0.418043L0.646455 1.02772C0.477923 1.19626 0.451776 1.46032 0.583983 1.65863L3.35715 5.81838V11.286C3.35715 11.5013 3.49487 11.6923 3.69904 11.7604L5.84189 12.4747C5.99437 12.5255 6.16198 12.4999 6.29236 12.4059C6.42275 12.312 6.50001 12.161 6.50001 12.0003V5.81838L9.27318 1.65863C9.40538 1.46032 9.37924 1.19626 9.2107 1.02772L8.60102 0.418043C8.44028 0.257298 8.22226 0.166992 7.99493 0.166992H1.86223ZM1.64341 1.44499L1.9214 1.16699H7.93576L8.21375 1.44499L5.58398 5.38964C5.52923 5.47178 5.50001 5.56828 5.50001 5.66699V11.3066L4.35715 10.9257V5.66699C4.35715 5.56828 4.32793 5.47178 4.27318 5.38964L1.64341 1.44499ZM8.1429 6.50033C7.86676 6.50033 7.6429 6.72418 7.6429 7.00033C7.6429 7.27647 7.86676 7.50033 8.1429 7.50033H12.4286C12.7048 7.50033 12.9286 7.27647 12.9286 7.00033C12.9286 6.72418 12.7048 6.50033 12.4286 6.50033H8.1429ZM7.6429 9.14319C7.6429 8.86705 7.86676 8.64319 8.1429 8.64319H12.4286C12.7048 8.64319 12.9286 8.86705 12.9286 9.14319C12.9286 9.41933 12.7048 9.64319 12.4286 9.64319H8.1429C7.86676 9.64319 7.6429 9.41933 7.6429 9.14319ZM8.1429 10.7861C7.86676 10.7861 7.6429 11.0099 7.6429 11.2861C7.6429 11.5622 7.86676 11.7861 8.1429 11.7861H12.4286C12.7048 11.7861 12.9286 11.5622 12.9286 11.2861C12.9286 11.0099 12.7048 10.7861 12.4286 10.7861H8.1429Z" fill="white"/>
</svg>
