<svg xmlns="http://www.w3.org/2000/svg" width="43.827" height="42.821" viewBox="0 0 43.827 42.821">
  <g id="组_129" data-name="组 129" transform="translate(0)">
    <g id="组_101" data-name="组 101" transform="translate(0 15.252)">
      <path id="路径_59" data-name="路径 59" d="M63.493,470.421a1.028,1.028,0,0,1-.73-.3l-5.278-5.278a1.032,1.032,0,0,1,0-1.46l5.278-5.278a1.032,1.032,0,1,1,1.46,1.46l-4.548,4.548,4.548,4.548a1.032,1.032,0,0,1-.73,1.762Z" transform="translate(-57.183 -457.8)" fill="#f94100"/>
    </g>
    <g id="组_102" data-name="组 102" transform="translate(0 20.53)">
      <path id="路径_60" data-name="路径 60" d="M72.772,470.091H58.215a1.032,1.032,0,0,1,0-2.065H72.772a1.032,1.032,0,0,1,0,2.065Z" transform="translate(-57.183 -468.026)" fill="#f94100"/>
    </g>
    <g id="组_103" data-name="组 103" transform="translate(36.484 15.252)">
      <path id="路径_61" data-name="路径 61" d="M128.9,470.421a1.032,1.032,0,0,1-.73-1.762l4.548-4.548-4.548-4.548a1.032,1.032,0,0,1,1.46-1.46l5.278,5.278a1.032,1.032,0,0,1,0,1.46l-5.278,5.278A1.027,1.027,0,0,1,128.9,470.421Z" transform="translate(-127.868 -457.8)" fill="#f94100"/>
    </g>
    <g id="组_104" data-name="组 104" transform="translate(27.206 20.53)">
      <path id="路径_62" data-name="路径 62" d="M125.481,470.091H110.924a1.032,1.032,0,0,1,0-2.065h14.556a1.032,1.032,0,0,1,0,2.065Z" transform="translate(-109.892 -468.026)" fill="#f94100"/>
    </g>
    <g id="组_105" data-name="组 105" transform="translate(8.311 27.253)">
      <path id="路径_63" data-name="路径 63" d="M96.08,496.62H77.693a4.414,4.414,0,0,1-4.409-4.409V481.826a.774.774,0,1,1,1.548,0v10.384a2.864,2.864,0,0,0,2.861,2.861H96.08a2.864,2.864,0,0,0,2.861-2.861V481.826a.774.774,0,1,1,1.548,0v10.384A4.415,4.415,0,0,1,96.08,496.62Z" transform="translate(-73.284 -481.052)" fill="#f94100"/>
    </g>
    <g id="组_106" data-name="组 106" transform="translate(8.311)">
      <path id="路径_64" data-name="路径 64" d="M99.715,444.336a.774.774,0,0,1-.774-.774v-10.9A2.864,2.864,0,0,0,96.08,429.8H77.693a2.864,2.864,0,0,0-2.861,2.861v10.9a.774.774,0,1,1-1.548,0v-10.9a4.414,4.414,0,0,1,4.409-4.409H96.08a4.415,4.415,0,0,1,4.409,4.409v10.9A.774.774,0,0,1,99.715,444.336Z" transform="translate(-73.284 -428.251)" fill="#f94100"/>
    </g>
  </g>
</svg>
