<?xml version="1.0" encoding="UTF-8" standalone="no"?><!DOCTYPE svg PUBLIC "-//W3C//DTD SVG 1.1//EN" "http://www.w3.org/Graphics/SVG/1.1/DTD/svg11.dtd"><svg width="100%" height="100%" viewBox="0 0 120 108" version="1.1" xmlns="http://www.w3.org/2000/svg" xmlns:xlink="http://www.w3.org/1999/xlink" xml:space="preserve" xmlns:serif="http://www.serif.com/" style="fill-rule:evenodd;clip-rule:evenodd;stroke-linecap:round;stroke-linejoin:round;stroke-miterlimit:10;"><g><path d="M119.414,33.971c-0.032,-13.551 -8.212,-25.752 -20.735,-30.929c-12.523,-5.176 -26.93,-2.313 -36.522,7.259l-1.849,1.848l-1.851,-1.848c-13.108,-13.072 -34.323,-13.072 -47.432,-0c-6.289,6.273 -9.823,14.788 -9.823,23.67c0,8.882 3.534,17.397 9.823,23.67l3.07,3.063c-2.724,7.151 -0.994,15.236 4.416,20.647l19.89,19.85c5.758,5.744 14.48,7.3 21.869,3.902c7.412,3.406 16.159,1.851 21.942,-3.902l19.89,-19.85c5.41,-5.409 7.135,-13.491 4.407,-20.638l3.08,-3.072c6.308,-6.259 9.847,-14.783 9.825,-23.67Z" style="fill:none;fill-rule:nonzero;stroke:#24c6dc;stroke-width:1px;"/><path d="M85.873,9.063c10.086,-0.023 19.188,6.039 23.055,15.354c3.866,9.314 1.73,20.041 -5.407,27.166l-1.858,1.852l-21.493,-20.795c-0.21,-0.203 -0.441,-0.384 -0.687,-0.541c-0.032,-0.027 -0.054,-0.06 -0.088,-0.087c-1.835,-1.5 -4.539,-1.229 -6.042,0.603c-6.194,7.557 -12.224,11.514 -17.924,11.76c-4.79,0.226 -8.608,-2.341 -10.879,-4.388l23.675,-23.63c4.674,-4.688 11.028,-7.314 17.648,-7.294Z" style="fill:none;fill-rule:nonzero;stroke:#24c6dc;stroke-width:1px;"/><path d="M96.034,75.294l-19.891,19.851c-2.075,2.061 -4.889,3.205 -7.815,3.173c4.684,-7.034 3.716,-16.401 -2.307,-22.329l-22.636,-22.227c-6.759,-6.588 -17.495,-6.725 -24.418,-0.311l-1.872,-1.868c-9.727,-9.746 -9.711,-25.532 0.035,-35.259c9.746,-9.726 25.531,-9.711 35.258,0.034l1.85,1.847l-16.733,16.701c-2.779,2.787 -2.815,7.286 -0.08,10.118c3.042,3.118 9.49,8.292 18.377,7.911c7.189,-0.31 14.297,-4.161 21.174,-11.453l19.058,18.438c2.042,2.036 3.19,4.802 3.19,7.687c0,2.884 -1.148,5.65 -3.19,7.687Z" style="fill:none;fill-rule:nonzero;stroke:#24c6dc;stroke-width:1px;"/><path d="M60.002,82.099l-3.444,-3.383c0.425,-0.947 0.669,-1.994 0.67,-3.099c-0,-4.182 -3.405,-7.586 -7.586,-7.586c-1.154,-0 -2.244,0.266 -3.224,0.728l-9.053,-8.889c-3.56,-3.477 -9.251,-3.454 -12.784,0.05c-2.039,2.039 -3.185,4.804 -3.185,7.687c-0,2.884 1.146,5.648 3.185,7.687l19.89,19.851c4.26,4.239 11.143,4.239 15.403,-0l0.24,-0.244c3.503,-3.568 3.452,-9.297 -0.112,-12.802Z" style="fill:none;fill-rule:nonzero;stroke:#24c6dc;stroke-width:1px;"/><path d="M49.642,78.738c1.665,-0.082 2.973,-1.456 2.973,-3.122c-0,-1.667 -1.308,-3.041 -2.973,-3.123c-1.664,0.082 -2.972,1.456 -2.972,3.123c-0,1.666 1.308,3.04 2.972,3.122Z" style="fill:none;fill-rule:nonzero;stroke:#24c6dc;stroke-width:1px;"/></g></svg>