<svg xmlns="http://www.w3.org/2000/svg" width="31.804" height="32.442" viewBox="0 0 31.804 32.442">
  <g id="组_93" data-name="组 93" transform="translate(-1576.135 -1324.451)">
    <g id="组_89" data-name="组 89" transform="translate(1576.135 1327.754)">
      <path id="路径_49" data-name="路径 49" d="M330.489,306.265a14.569,14.569,0,0,1,0-29.139.88.88,0,0,1,0,1.761A12.809,12.809,0,1,0,343.3,291.7a.88.88,0,0,1,1.761,0A14.586,14.586,0,0,1,330.489,306.265Z" transform="translate(-315.92 -277.126)" fill="#f94100"/>
    </g>
    <g id="组_90" data-name="组 90" transform="translate(1580.889 1332.508)">
      <path id="路径_50" data-name="路径 50" d="M333.835,304.857a9.815,9.815,0,1,1,0-19.63.88.88,0,0,1,0,1.761,8.054,8.054,0,1,0,8.054,8.054.88.88,0,1,1,1.761,0A9.826,9.826,0,0,1,333.835,304.857Z" transform="translate(-324.02 -285.227)" fill="#f94100"/>
    </g>
    <g id="组_91" data-name="组 91" transform="translate(1591.338 1324.451)">
      <path id="路径_51" data-name="路径 51" d="M347.524,283.937l-3.748,3.822a1.129,1.129,0,0,1-1.617,0,1.186,1.186,0,0,1,0-1.657l3.77-3.845-.254-3.117a3.128,3.128,0,0,1,.906-2.466L351.254,272a1.713,1.713,0,0,1,2.807.583l.037.094a5.635,5.635,0,0,0,3.275,3.218,1.617,1.617,0,0,1,.576,2.658l-4.741,4.74a3.126,3.126,0,0,1-2.465.906Zm.716-5.61a.785.785,0,0,0-.228.617l.218,2.7,2.7.218a.783.783,0,0,0,.617-.227l4.008-4.008a7.961,7.961,0,0,1-3.287-3.336l-4.033,4.032Zm0,0" transform="translate(-341.824 -271.499)" fill="#f94100"/>
    </g>
  </g>
</svg>
