<svg xmlns="http://www.w3.org/2000/svg" width="31.804" height="44.905" viewBox="0 0 31.804 44.905">
  <g id="组_78" data-name="组 78" transform="translate(0)">
    <g id="组_76" data-name="组 76" transform="translate(0 0)">
      <path id="路径_40" data-name="路径 40" d="M114.043,316.421a1.218,1.218,0,0,1-1.108-.711l-6.663-14.579a1.216,1.216,0,0,1,.574-1.6,13.466,13.466,0,1,0-9,.989,1.217,1.217,0,0,1-.564,2.367,15.9,15.9,0,1,1,11.681-1.727l6.189,13.539a1.218,1.218,0,0,1-1.105,1.722Z" transform="translate(-85.06 -271.516)" fill="#f94100"/>
    </g>
    <g id="组_77" data-name="组 77" transform="translate(15.282 5.13)">
      <path id="路径_41" data-name="路径 41" d="M103.906,278.73a.887.887,0,0,0,.886.887c3.913,0,6.058,3.116,6.8,4.454a.887.887,0,0,0,1.643-.62.9.9,0,0,0-.091-.239,11.359,11.359,0,0,0-3.172-3.656,8.646,8.646,0,0,0-5.178-1.713.888.888,0,0,0-.888.887Zm0,0" transform="translate(-103.906 -277.843)" fill="#f94100"/>
    </g>
  </g>
</svg>
