<svg xmlns="http://www.w3.org/2000/svg" width="40.73" height="27.416" viewBox="0 0 40.73 27.416">
  <g id="组_132" data-name="组 132" transform="translate(0 172)">
    <g id="组_120" data-name="组 120" transform="translate(0 -172)">
      <g id="组_117" data-name="组 117" transform="translate(0 0)">
        <path id="路径_73" data-name="路径 73" d="M357.8,470.751H321.994a2.463,2.463,0,0,1-2.46-2.46V445.8a2.463,2.463,0,0,1,2.46-2.46H357.8a2.463,2.463,0,0,1,2.46,2.46v22.5A2.463,2.463,0,0,1,357.8,470.751Zm-35.809-25.875a.92.92,0,0,0-.919.919v22.5a.92.92,0,0,0,.919.919H357.8a.92.92,0,0,0,.919-.919V445.8a.921.921,0,0,0-.919-.919Z" transform="translate(-319.534 -443.335)" fill="#f94100"/>
      </g>
      <g id="组_118" data-name="组 118" transform="translate(0.77 6.652)">
        <rect id="矩形_14350" data-name="矩形 14350" width="39.189" height="4.72" fill="#f94100"/>
      </g>
      <g id="组_119" data-name="组 119" transform="translate(24.09 20.398)">
        <path id="路径_74" data-name="路径 74" d="M377.982,485.106H367.467a1.027,1.027,0,0,1,0-2.054h10.515a1.027,1.027,0,0,1,0,2.054Z" transform="translate(-366.44 -483.052)" fill="#f94100"/>
      </g>
    </g>
  </g>
</svg>
