<svg width="24" height="24" viewBox="0 0 24 24" fill="none" xmlns="http://www.w3.org/2000/svg">
<path d="M2.92222 8.08097H6.83975V21.1073H2.92222V8.08097ZM4.89114 2.8623C4.3528 2.8623 3.83651 3.07624 3.45585 3.45706C3.07518 3.83787 2.86133 4.35436 2.86133 4.89292C2.8899 5.41188 3.11631 5.90012 3.49392 6.25711C3.87153 6.61409 4.37159 6.81263 4.89114 6.81184C5.41068 6.81263 5.91075 6.61409 6.28836 6.25711C6.66597 5.90012 6.89237 5.41188 6.92095 4.89292C6.92095 4.35436 6.70709 3.83787 6.32643 3.45706C5.94577 3.07624 5.42948 2.8623 4.89114 2.8623ZM19.861 9.80699C19.4639 9.34894 18.9653 8.99012 18.4049 8.75918C17.8445 8.52824 17.2379 8.43159 16.6336 8.47694C15.8525 8.45878 15.0811 8.65321 14.4018 9.03946C13.7226 9.42572 13.161 9.9893 12.7769 10.67H12.716V8.08097H9.42776C9.48865 9.41102 9.42776 21.1073 9.42776 21.1073H13.3453V13.0154C13.4351 12.5704 13.6831 12.173 14.0432 11.8968C14.4032 11.6205 14.8512 11.4841 15.3041 11.5127C16.5727 11.5127 17.2019 12.4366 17.2019 14.2236V21.1378H21.1296V13.7261C21.2083 12.3074 20.756 10.9102 19.861 9.80699Z" fill="#2A66BC"/>
</svg>
