<svg width="16" height="10" viewBox="0 0 16 10" fill="none" xmlns="http://www.w3.org/2000/svg">
<path d="M1.53033 0.969671C1.23744 0.676778 0.762563 0.676778 0.46967 0.969671C0.176777 1.26256 0.176777 1.73744 0.46967 2.03033L1.53033 0.969671ZM8 8.5L7.46967 9.03033C7.76256 9.32322 8.23744 9.32322 8.53033 9.03033L8 8.5ZM15.5303 2.03033C15.8232 1.73744 15.8232 1.26256 15.5303 0.969671C15.2374 0.676778 14.7626 0.676778 14.4697 0.969671L15.5303 2.03033ZM0.46967 2.03033L7.46967 9.03033L8.53033 7.96967L1.53033 0.969671L0.46967 2.03033ZM8.53033 9.03033L15.5303 2.03033L14.4697 0.969671L7.46967 7.96967L8.53033 9.03033Z" fill="white"/>
</svg>
