<svg id="组_102" data-name="组 102" xmlns="http://www.w3.org/2000/svg" width="154" height="154.001" viewBox="0 0 154 154.001">
  <circle id="椭圆_14" data-name="椭圆 14" cx="40.537" cy="40.537" r="40.537" transform="translate(41.502 18.758)" fill="#ebe0cd"/>
  <g id="矩形_226" data-name="矩形 226" transform="translate(55.326 17.018)">
    <rect id="矩形_232" data-name="矩形 232" width="43.346" height="127.85" rx="4" transform="translate(0 0)" fill="#fff"/>
  </g>
  <g id="矩形_226-2" data-name="矩形 226" transform="translate(26.008 75.189)">
    <rect id="矩形_232-2" data-name="矩形 232" width="27.292" height="50.571" rx="3" fill="#fff"/>
  </g>
  <g id="矩形_226-3" data-name="矩形 226" transform="translate(100.698 63.842)">
    <rect id="矩形_232-3" data-name="矩形 232" width="27.292" height="50.571" rx="4" fill="#fff"/>
  </g>
  <g id="组_53" data-name="组 53" transform="translate(0 0)">
    <g id="减去_8" data-name="减去 8" transform="translate(0 0)" fill="none" stroke-linecap="round" stroke-linejoin="round">
      <path d="M95.563,153.985h0V45.555a3,3,0,0,0-3-3H61.438a3,3,0,0,0-3,3V153.983a76.2,76.2,0,0,1-8.25-2.582V90.9a3,3,0,0,0-3-3H29.812a3,3,0,0,0-3,3v46.491c-1.471-1.284-2.9-2.633-4.26-4.009a78.319,78.319,0,0,1-20.988-39.5,80.04,80.04,0,0,1,0-31.493A78.169,78.169,0,0,1,33.948,13.344a76.67,76.67,0,0,1,13.08-7.2,76.094,76.094,0,0,1,59.944,0,76.672,76.672,0,0,1,13.08,7.2,78.011,78.011,0,0,1,20.8,21.1,78.3,78.3,0,0,1,11.587,27.94,80,80,0,0,1-.317,32.988,78.3,78.3,0,0,1-24.932,42.017V71.367a3,3,0,0,0-3-3H106.812a3,3,0,0,0-3,3V151.4a75.9,75.9,0,0,1-8.249,2.584Z" stroke="none"/>
      <path d="M 98.56201934814453 150.0300598144531 C 99.31573486328125 149.7970733642578 100.0663528442383 149.5516662597656 100.8123016357422 149.2943572998047 L 100.8123016357422 71.36730194091797 C 100.8123016357422 68.05906677246094 103.5037612915039 65.36760711669922 106.8120193481445 65.36760711669922 L 124.187385559082 65.36760711669922 C 127.4956512451172 65.36760711669922 130.1871032714844 68.05906677246094 130.1871032714844 71.36730194091797 L 130.1871032714844 130.3718109130859 C 132.2211761474609 128.2369995117188 134.1323699951172 125.9801483154297 135.9024505615234 123.620849609375 C 139.0764617919922 119.3905639648438 141.8097076416016 114.8139801025391 144.0264587402344 110.017936706543 C 146.2855377197266 105.1317825317383 148.0228424072266 99.98680114746094 149.1902160644531 94.72543334960938 C 150.3910369873047 89.31713104248047 150.9999084472656 83.73508453369141 150.9999084472656 78.13441467285156 C 150.9999084472656 73.03365325927734 150.4935455322266 67.93523406982422 149.494873046875 62.98088836669922 C 148.5227355957031 58.15906524658203 147.0709991455078 53.41299819946289 145.1803894042969 48.8754997253418 C 143.3229827880859 44.42206573486328 141.0255126953125 40.12739181518555 138.3518218994141 36.11078262329102 C 135.7046661376953 32.13404083251953 132.6625823974609 28.39282417297363 129.3097534179688 24.99069404602051 C 125.9603424072266 21.591064453125 122.2746505737305 18.50521659851074 118.354606628418 15.81860733032227 C 114.400520324707 13.10762882232666 110.172477722168 10.77871608734131 105.7878265380859 8.896498680114746 C 101.3281707763672 6.981890201568604 96.65819549560547 5.511107444763184 91.90730285644531 4.524933338165283 C 87.03482055664062 3.513085603713989 82.01910400390625 3.000020503997803 76.99949645996094 3.000020503997803 C 71.97988891601562 3.000020503997803 66.96417236328125 3.513085603713989 62.0914306640625 4.524998664855957 C 57.3425178527832 5.510759830474854 52.67247772216797 6.981564044952393 48.21108627319336 8.896542549133301 C 43.82651901245117 10.77873802185059 39.59847640991211 13.10765075683594 35.64434432983398 15.81867218017578 C 31.7247371673584 18.50580215454102 28.0388240814209 21.5918025970459 24.6889533996582 24.99097633361816 C 21.33884620666504 28.39041137695312 18.29669380187988 32.13175964355469 15.64721488952637 36.11078262329102 C 12.9744758605957 40.12591171264648 10.67732334136963 44.4205436706543 8.819802284240723 48.87484741210938 C 6.929758548736572 53.40956497192383 5.478041172027588 58.15556335449219 4.505041122436523 62.98078155517578 C 3.506367206573486 67.93523406982422 2.999997615814209 73.03365325927734 2.999997615814209 78.13441467285156 C 2.999997615814209 83.23517608642578 3.506367206573486 88.33358764648438 4.505019664764404 93.28788757324219 C 5.478041172027588 98.11410522460938 6.929715156555176 102.8600006103516 8.819584846496582 107.3934326171875 C 10.67730236053467 111.8482131958008 12.97443294525146 116.1428451538086 15.64715003967285 120.157958984375 C 18.06215476989746 123.7855911254883 20.80514907836914 127.2168502807617 23.8118896484375 130.3726959228516 L 23.8118896484375 90.90090942382812 C 23.8118896484375 87.59267425537109 26.50334548950195 84.90121459960938 29.81158447265625 84.90121459960938 L 47.18699645996094 84.90121459960938 C 50.49523544311523 84.90121459960938 53.18669509887695 87.59267425537109 53.18669509887695 90.90090942382812 L 53.18669509887695 149.29345703125 C 53.93244171142578 149.5504150390625 54.68320083618164 149.7956085205078 55.43699645996094 150.0284423828125 L 55.43699645996094 45.55530166625977 C 55.43699645996094 42.24706268310547 58.12886810302734 39.55560684204102 61.43760681152344 39.55560684204102 L 92.56230163574219 39.55560684204102 C 95.87055969238281 39.55560684204102 98.56201934814453 42.24706268310547 98.56201934814453 45.55530166625977 L 98.56201934814453 150.0300598144531 M 95.56280517578125 153.9846496582031 L 95.56284332275391 153.9846038818359 L 95.56201934814453 153.9846038818359 L 95.56201934814453 45.55530166625977 C 95.56201934814453 43.90126037597656 94.21634674072266 42.55560684204102 92.56230163574219 42.55560684204102 L 61.43760681152344 42.55560684204102 C 59.78306198120117 42.55560684204102 58.43699645996094 43.90126037597656 58.43699645996094 45.55530166625977 L 58.43699645996094 153.9828033447266 C 55.65234375 153.2829284667969 52.876953125 152.4138641357422 50.18669509887695 151.4007110595703 L 50.18669509887695 90.90090942382812 C 50.18669509887695 89.24687194824219 48.84104156494141 87.90121459960938 47.18699645996094 87.90121459960938 L 29.81158447265625 87.90121459960938 C 28.15756225585938 87.90121459960938 26.8118896484375 89.24687194824219 26.8118896484375 90.90090942382812 L 26.8118896484375 137.3923492431641 C 25.34056282043457 136.1083068847656 23.90793228149414 134.7593078613281 22.55219268798828 133.3836059570312 C 19.06662750244141 129.8467407226562 15.90325832366943 125.9563064575195 13.14991092681885 121.8204116821289 C 10.37086772918701 117.6455612182617 7.98232364654541 113.1801300048828 6.050693511962891 108.5481109619141 C 4.085389137268066 103.8336944580078 2.575910806655884 98.89891052246094 1.564193367958069 93.88080596923828 C 0.5262802839279175 88.73171234130859 -2.298106210218975e-06 83.43384552001953 -2.298106210218975e-06 78.13441467285156 C -2.298106210218975e-06 72.83497619628906 0.5262802839279175 67.537109375 1.564193367958069 62.38800048828125 C 2.575910806655884 57.37080383300781 4.085389137268066 52.43599700927734 6.050693511962891 47.72069549560547 C 7.98232364654541 43.08869552612305 10.37086772918701 38.62323760986328 13.14991092681885 34.44841003417969 C 15.90512847900391 30.31058502197266 19.06851959228516 26.4201717376709 22.55219268798828 22.88521575927734 C 26.03632354736328 19.34980392456055 29.87041091918945 16.1397590637207 33.94802093505859 13.34430313110352 C 38.06301879882812 10.52299880981445 42.46364974975586 8.099041938781738 47.02769470214844 6.139802932739258 C 51.67338943481445 4.145716190338135 56.53641128540039 2.614129066467285 61.48169326782227 1.587607383728027 C 66.55447387695312 0.5341508984565735 71.77542877197266 2.048127498710528e-05 76.99949645996094 2.048127498710528e-05 C 82.22356414794922 2.048127498710528e-05 87.44451904296875 0.5341508984565735 92.51730346679688 1.587607383728027 C 97.4642333984375 2.614476919174194 102.327278137207 4.146042346954346 106.971321105957 6.139802932739258 C 111.5352783203125 8.0989990234375 115.9359130859375 10.52293395996094 120.0510177612305 13.34430313110352 C 124.1286926269531 16.13895606994629 127.9627990722656 19.34897613525391 131.4468078613281 22.88521575927734 C 134.9331512451172 26.42282485961914 138.0965118408203 30.31325912475586 140.84912109375 34.44841003417969 C 143.6291961669922 38.62480163574219 146.0179901123047 43.09025955200195 147.94921875 47.72069549560547 C 149.9153900146484 52.43954086303711 151.4248962402344 57.37434768676758 152.4356994628906 62.38800048828125 C 153.4736328125 67.53713226318359 153.9999084472656 72.83497619628906 153.9999084472656 78.13441467285156 C 153.9999084472656 83.95334625244141 153.3670654296875 89.754150390625 152.118896484375 95.37569427490234 C 150.9051513671875 100.8460845947266 149.0986328125 106.1960220336914 146.7494964599609 111.2769088745117 C 144.444580078125 116.2637176513672 141.6024780273438 121.0225830078125 138.3021087646484 125.4213027954102 C 135.0265808105469 129.7871704101562 131.2869567871094 133.8150634765625 127.1871032714844 137.3931121826172 L 127.1871032714844 71.36730194091797 C 127.1871032714844 69.7132568359375 125.8414535522461 68.36760711669922 124.187385559082 68.36760711669922 L 106.8120193481445 68.36760711669922 C 105.1579513549805 68.36760711669922 103.8123016357422 69.7132568359375 103.8123016357422 71.36730194091797 L 103.8123016357422 151.4007415771484 C 101.115364074707 152.4176788330078 98.34006500244141 153.2867431640625 95.56291198730469 153.9846038818359 L 95.56280517578125 153.9846496582031 Z" stroke="none" fill="#c19a57"/>
    </g>
    <line id="直线_533" data-name="直线 533" y1="15.252" transform="translate(77.343 27.854)" fill="none" stroke="#c19a57" stroke-linecap="round" stroke-width="3"/>
    <g id="矩形_224" data-name="矩形 224" transform="translate(67.302 51.469)">
      <rect id="矩形_231" data-name="矩形 231" width="20.068" height="10.735" rx="4" fill="#ebe0cd"/>
    </g>
    <g id="矩形_224-2" data-name="矩形 224" transform="translate(67.302 122.096)">
      <rect id="矩形_231-2" data-name="矩形 231" width="20.068" height="31.905" rx="4" fill="#ebe0cd"/>
    </g>
    <g id="矩形_224-3" data-name="矩形 224" transform="translate(67.302 69.69)">
      <rect id="矩形_231-3" data-name="矩形 231" width="20.068" height="10.735" rx="4" fill="#ebe0cd"/>
    </g>
    <g id="矩形_224-4" data-name="矩形 224" transform="translate(67.302 87.91)">
      <rect id="矩形_231-4" data-name="矩形 231" width="20.068" height="10.735" rx="4" fill="#ebe0cd"/>
    </g>
    <g id="矩形_224-5" data-name="矩形 224" transform="translate(67.302 106.13)">
      <rect id="矩形_231-5" data-name="矩形 231" width="20.068" height="10.735" rx="4" fill="#ebe0cd"/>
    </g>
    <g id="矩形_224-6" data-name="矩形 224" transform="translate(33.985 94.911)">
      <rect id="矩形_231-6" data-name="矩形 231" width="9.769" height="10.735" rx="4" fill="#ebe0cd"/>
    </g>
    <g id="矩形_224-7" data-name="矩形 224" transform="translate(33.985 107.673)">
      <rect id="矩形_231-7" data-name="矩形 231" width="9.769" height="10.735" rx="4" fill="#ebe0cd"/>
    </g>
    <g id="矩形_224-8" data-name="矩形 224" transform="translate(33.985 119.636)">
      <rect id="矩形_231-8" data-name="矩形 231" width="9.769" height="10.735" rx="4" fill="#ebe0cd"/>
    </g>
    <g id="矩形_224-9" data-name="矩形 224" transform="translate(110.244 76.567)">
      <rect id="矩形_231-9" data-name="矩形 231" width="9.769" height="10.735" rx="4" fill="#ebe0cd"/>
    </g>
    <g id="矩形_224-10" data-name="矩形 224" transform="translate(110.244 90.126)">
      <rect id="矩形_231-10" data-name="矩形 231" width="9.769" height="10.735" rx="4" fill="#ebe0cd"/>
    </g>
    <g id="矩形_224-11" data-name="矩形 224" transform="translate(110.244 102.887)">
      <rect id="矩形_231-11" data-name="矩形 231" width="9.769" height="10.735" rx="4" fill="#ebe0cd"/>
    </g>
    <g id="矩形_224-12" data-name="矩形 224" transform="translate(110.244 116.446)">
      <rect id="矩形_231-12" data-name="矩形 231" width="9.769" height="10.735" rx="4" fill="#ebe0cd"/>
    </g>
  </g>
</svg>
