<svg xmlns="http://www.w3.org/2000/svg" width="27.206" height="42.821" viewBox="0 0 27.206 42.821">
  <g id="组_131" data-name="组 131" transform="translate(0)">
    <g id="组_100" data-name="组 100" transform="translate(0)">
      <path id="路径_58" data-name="路径 58" d="M269.034,471.365H250.647a4.414,4.414,0,0,1-4.409-4.409v-34a4.414,4.414,0,0,1,4.409-4.409h18.387a4.415,4.415,0,0,1,4.409,4.409v34A4.415,4.415,0,0,1,269.034,471.365Zm-21.248-14.794v10.385a2.864,2.864,0,0,0,2.861,2.861h18.387a2.864,2.864,0,0,0,2.861-2.861v-34a2.865,2.865,0,0,0-2.861-2.861H250.647a2.864,2.864,0,0,0-2.861,2.861Z" transform="translate(-246.238 -428.544)" fill="#f94100"/>
    </g>
    <g id="组_107" data-name="组 107" transform="translate(0 5.814)">
      <path id="路径_65" data-name="路径 65" d="M272.669,441.355H247.012a.774.774,0,0,1,0-1.548h25.657a.774.774,0,1,1,0,1.548Z" transform="translate(-246.238 -439.807)" fill="#f94100"/>
    </g>
    <g id="组_108" data-name="组 108" transform="translate(0.258 35.572)">
      <path id="路径_66" data-name="路径 66" d="M272.911,498.5H247.254a.516.516,0,0,1,0-1.032h25.657a.516.516,0,0,1,0,1.032Z" transform="translate(-246.738 -497.463)" fill="#f94100"/>
    </g>
    <g id="组_109" data-name="组 109" transform="translate(12.268 37.588)">
      <ellipse id="椭圆_36" data-name="椭圆 36" cx="1.335" cy="1.335" rx="1.335" ry="1.335" transform="translate(0 0)" fill="#f94100"/>
    </g>
    <g id="组_116" data-name="组 116" transform="translate(7.927 13.268)">
      <g id="组_110" data-name="组 110" transform="translate(0.037 5.732)">
        <path id="路径_67" data-name="路径 67" d="M271.88,467.559h-9.112a1.1,1.1,0,1,1,0-2.2h9.112a1.1,1.1,0,0,1,0,2.2Z" transform="translate(-261.666 -465.355)" fill="#f94100"/>
      </g>
      <g id="组_111" data-name="组 111" transform="translate(0 9.479)">
        <path id="路径_68" data-name="路径 68" d="M271.809,474.817H262.7a1.1,1.1,0,0,1,0-2.2h9.112a1.1,1.1,0,1,1,0,2.2Z" transform="translate(-261.595 -472.614)" fill="#f94100"/>
      </g>
      <g id="组_112" data-name="组 112" transform="translate(4.558 5.732)">
        <path id="路径_69" data-name="路径 69" d="M271.527,475.764a1.1,1.1,0,0,1-1.1-1.1v-8.205a1.1,1.1,0,1,1,2.2,0v8.209a1.1,1.1,0,0,1-1.1,1.1Z" transform="translate(-270.425 -465.355)" fill="#f94100"/>
      </g>
      <g id="组_113" data-name="组 113" transform="translate(0 0.033)">
        <path id="路径_70" data-name="路径 70" d="M267.3,461.335a1.1,1.1,0,0,1-.8-.342l-4.6-4.818a1.1,1.1,0,1,1,1.594-1.521l4.595,4.819a1.1,1.1,0,0,1-.793,1.862Z" transform="translate(-261.596 -454.313)" fill="#f94100"/>
      </g>
      <g id="组_114" data-name="组 114" transform="translate(4.54 0)">
        <path id="路径_71" data-name="路径 71" d="M271.492,461.271a1.1,1.1,0,0,1-.8-1.862l4.595-4.819a1.1,1.1,0,0,1,1.594,1.521l-4.595,4.819a1.094,1.094,0,0,1-.8.342Z" transform="translate(-270.391 -454.249)" fill="#f94100"/>
      </g>
      <g id="组_115" data-name="组 115" transform="translate(5.641 7.022)">
        <path id="路径_72" data-name="路径 72" d="M272.524,467.853" transform="translate(-272.524 -467.853)" fill="#f94100"/>
      </g>
    </g>
  </g>
</svg>
