<?xml version="1.0" encoding="UTF-8" standalone="no"?><!DOCTYPE svg PUBLIC "-//W3C//DTD SVG 1.1//EN" "http://www.w3.org/Graphics/SVG/1.1/DTD/svg11.dtd"><svg width="100%" height="100%" viewBox="0 0 110 109" version="1.1" xmlns="http://www.w3.org/2000/svg" xmlns:xlink="http://www.w3.org/1999/xlink" xml:space="preserve" xmlns:serif="http://www.serif.com/" style="fill-rule:evenodd;clip-rule:evenodd;stroke-linecap:round;stroke-linejoin:round;stroke-miterlimit:10;"><g><path d="M64.472,53.349c0,3.701 -3.013,6.714 -6.713,6.714c-1.161,-0 -2.253,-0.297 -3.207,-0.818c-0.382,-0.187 -0.7,-0.394 -0.983,-0.657c-1.536,-1.231 -2.523,-3.122 -2.523,-5.239c0.005,-3.706 3.008,-6.708 6.713,-6.712c3.7,-0.001 6.713,3.012 6.713,6.711Z" style="fill:none;fill-rule:nonzero;stroke:#24c6dc;stroke-width:1px;"/><path d="M96.359,6.358c3.703,0 6.713,3.013 6.713,6.713c-0,3.7 -3.01,6.713 -6.713,6.713c-3.464,0 -6.321,-2.636 -6.675,-6.006c-0,-0.071 -0,-0.144 -0.005,-0.216c-0.006,-0.072 -0.015,-0.143 -0.026,-0.214c-0.003,-0.093 -0.007,-0.184 -0.007,-0.277c0.005,-3.705 3.008,-6.709 6.713,-6.713Z" style="fill:none;fill-rule:nonzero;stroke:#24c6dc;stroke-width:1px;"/><path d="M96.359,0.988c-6.044,0 -11.066,4.463 -11.946,10.266l-49.262,3.596c-1.617,-2.477 -4.407,-4.123 -7.581,-4.123c-4.999,0.007 -9.051,4.058 -9.057,9.057c-0,4.992 4.065,9.057 9.057,9.057c0.587,0 1.162,-0.058 1.718,-0.166l18.247,18.247c-1.176,1.863 -1.859,4.066 -1.859,6.426c0.003,3.222 1.268,6.146 3.324,8.312l-11.509,17.31l0.007,0.005c-0.396,-0.073 -0.804,-0.117 -1.221,-0.117c-3.705,0.005 -6.708,3.008 -6.712,6.714c-0,3.702 3.01,6.713 6.712,6.713c3.703,0 6.713,-3.011 6.713,-6.713c-0,-1.344 -0.401,-2.595 -1.083,-3.646l0.005,0.003l11.552,-17.29c1.335,0.51 2.782,0.792 4.295,0.793c6.665,0 12.083,-5.418 12.083,-12.084c-0,-6.661 -5.418,-12.083 -12.083,-12.083c-2.36,0 -4.564,0.684 -6.427,1.86l-17.175,-17.175c0.06,-0.051 0.115,-0.107 0.178,-0.153c1.352,-1.52 2.193,-3.498 2.275,-5.667l48.197,-3.52c1.516,4.943 6.114,8.538 11.552,8.544c6.662,0 12.083,-5.421 12.083,-12.083c-0,-6.662 -5.421,-12.083 -12.083,-12.083Z" style="fill:none;fill-rule:nonzero;stroke:#24c6dc;stroke-width:1px;"/><path d="M85.676,50.033c-1.736,-3.958 -4.197,-7.563 -7.263,-10.623c-3.178,-3.187 -6.945,-5.725 -11.092,-7.473c-2.095,-0.894 -4.299,-1.579 -6.558,-2.041c-1.453,-0.296 -2.872,0.642 -3.168,2.095c-0.296,1.453 0.641,2.872 2.095,3.169c5.657,1.159 10.848,3.958 14.927,8.048c2.89,2.885 5.147,6.34 6.626,10.146c0.006,0.014 0.012,0.027 0.017,0.039c0.02,0.051 0.041,0.101 0.064,0.151c0.005,0.01 0.012,0.021 0.018,0.033c0.042,0.085 0.088,0.168 0.139,0.248c0.019,0.031 0.038,0.062 0.059,0.093c0.022,0.032 0.046,0.063 0.069,0.094c0.024,0.032 0.048,0.062 0.073,0.092c0.024,0.03 0.049,0.059 0.074,0.087c0.028,0.03 0.057,0.06 0.086,0.09c0.025,0.025 0.049,0.052 0.076,0.076c0.05,0.047 0.103,0.093 0.157,0.136c0.03,0.023 0.06,0.046 0.091,0.068c0.032,0.024 0.064,0.046 0.097,0.069c0.032,0.02 0.064,0.041 0.098,0.061c0.036,0.023 0.074,0.043 0.112,0.064c0.03,0.016 0.058,0.033 0.089,0.048c0.067,0.033 0.136,0.064 0.206,0.091c0.018,0.007 0.037,0.013 0.056,0.02c0.06,0.022 0.122,0.043 0.184,0.06c0.02,0.006 0.04,0.012 0.06,0.017c0.073,0.02 0.148,0.036 0.224,0.05c0.005,0 0.009,0.002 0.014,0.003c0.008,0.001 0.016,0.003 0.025,0.004c0.004,0.001 0.008,0.002 0.012,0.003c11.612,1.955 20.105,12.029 20.064,23.807c0,13.324 -10.843,24.167 -24.167,24.167l-53.704,0c-10.365,0 -18.796,-8.43 -18.796,-18.796c-0.007,-9.03 6.416,-16.787 15.289,-18.466c0.009,-0.001 0.018,-0.004 0.027,-0.006c0.014,-0.002 0.028,-0.006 0.042,-0.009c0.065,-0.014 0.129,-0.03 0.193,-0.049c0.017,-0.005 0.034,-0.01 0.051,-0.016c0.073,-0.022 0.146,-0.048 0.216,-0.078c0.011,-0.004 0.02,-0.009 0.031,-0.013c0.064,-0.028 0.126,-0.057 0.188,-0.089c0.012,-0.007 0.024,-0.013 0.037,-0.02c0.141,-0.076 0.275,-0.166 0.4,-0.265c0.005,-0.005 0.012,-0.01 0.018,-0.015c0.126,-0.104 0.242,-0.218 0.348,-0.343c0.004,-0.004 0.009,-0.009 0.013,-0.014c0.103,-0.124 0.196,-0.257 0.276,-0.399c0.006,-0.01 0.011,-0.019 0.016,-0.029c0.037,-0.066 0.07,-0.133 0.101,-0.201c0.002,-0.006 0.005,-0.011 0.007,-0.017c0.027,-0.061 0.052,-0.122 0.075,-0.186c0.004,-0.012 0.007,-0.025 0.011,-0.038c0.005,-0.012 0.008,-0.025 0.013,-0.038c0.022,-0.07 0.042,-0.141 0.058,-0.213c0.002,-0.007 0.004,-0.014 0.005,-0.022c0.019,-0.083 0.033,-0.167 0.043,-0.25c0.001,-0.005 0.001,-0.01 0.001,-0.014c0.012,-0.098 0.019,-0.198 0.02,-0.297c0.098,-3.633 0.879,-7.216 2.303,-10.56c0.741,-1.756 1.653,-3.436 2.719,-5.014c0.536,-0.797 0.605,-1.818 0.183,-2.681c-0.423,-0.86 -1.273,-1.431 -2.231,-1.496c-0.957,-0.064 -1.876,0.386 -2.411,1.183c-1.257,1.866 -2.331,3.848 -3.206,5.924c-0.9,2.11 -1.582,4.306 -2.041,6.557c-0.265,1.292 -0.454,2.599 -0.567,3.913c-10.314,2.891 -17.598,12.356 -17.598,23.261c0,13.325 10.84,24.167 24.166,24.167l53.704,0c16.289,0 29.538,-13.249 29.538,-29.538c0.045,-13.911 -9.645,-25.875 -23.102,-28.825Z" style="fill:none;fill-rule:nonzero;stroke:#24c6dc;stroke-width:1px;"/><path d="M39.314,85.449c-0.078,-1.571 -1.374,-2.804 -2.945,-2.804c-1.573,0 -2.869,1.233 -2.946,2.804c0.077,1.57 1.373,2.803 2.946,2.803c1.571,0 2.867,-1.233 2.945,-2.803Z" style="fill:none;fill-rule:nonzero;stroke:#24c6dc;stroke-width:1px;"/><path d="M30.833,19.784c-0.078,-1.57 -1.374,-2.804 -2.945,-2.804c-1.573,0 -2.869,1.234 -2.946,2.804c0.077,1.57 1.373,2.804 2.946,2.804c1.571,0 2.867,-1.234 2.945,-2.804Z" style="fill:none;fill-rule:nonzero;stroke:#24c6dc;stroke-width:1px;"/></g></svg>