<svg xmlns="http://www.w3.org/2000/svg" width="40.73" height="42.821" viewBox="0 0 40.73 42.821">
  <g id="组_130" data-name="组 130" transform="translate(0)">
    <g id="组_94" data-name="组 94" transform="translate(9.278 15.252)">
      <path id="路径_52" data-name="路径 52" d="M174.546,470.128a1.032,1.032,0,0,1-.73-1.762l4.548-4.548-4.548-4.548a1.032,1.032,0,1,1,1.46-1.46l5.278,5.278a1.032,1.032,0,0,1,0,1.46l-5.278,5.278A1.027,1.027,0,0,1,174.546,470.128Z" transform="translate(-173.514 -457.507)" fill="#f94100"/>
    </g>
    <g id="组_95" data-name="组 95" transform="translate(0 20.53)">
      <path id="路径_53" data-name="路径 53" d="M171.127,469.8H156.57a1.032,1.032,0,1,1,0-2.065h14.556a1.032,1.032,0,1,1,0,2.065Z" transform="translate(-155.538 -467.733)" fill="#f94100"/>
    </g>
    <g id="组_96" data-name="组 96" transform="translate(24.108 15.252)">
      <path id="路径_54" data-name="路径 54" d="M208.557,470.128a1.027,1.027,0,0,1-.73-.3l-5.278-5.278a1.032,1.032,0,0,1,0-1.46l5.278-5.278a1.032,1.032,0,1,1,1.46,1.46l-4.548,4.548,4.548,4.548a1.032,1.032,0,0,1-.73,1.762Z" transform="translate(-202.247 -457.507)" fill="#f94100"/>
    </g>
    <g id="组_97" data-name="组 97" transform="translate(24.108 20.53)">
      <path id="路径_55" data-name="路径 55" d="M217.836,469.8H203.279a1.032,1.032,0,0,1,0-2.065h14.556a1.032,1.032,0,0,1,0,2.065Z" transform="translate(-202.247 -467.733)" fill="#f94100"/>
    </g>
    <g id="组_98" data-name="组 98" transform="translate(6.762 27.253)">
      <path id="路径_56" data-name="路径 56" d="M191.435,496.327H173.048a4.414,4.414,0,0,1-4.409-4.409V481.533a.774.774,0,1,1,1.548,0v10.384a2.864,2.864,0,0,0,2.861,2.861h18.387a2.864,2.864,0,0,0,2.861-2.861V481.533a.774.774,0,1,1,1.548,0v10.384A4.415,4.415,0,0,1,191.435,496.327Z" transform="translate(-168.639 -480.759)" fill="#f94100"/>
    </g>
    <g id="组_99" data-name="组 99" transform="translate(6.762)">
      <path id="路径_57" data-name="路径 57" d="M195.071,444.043a.774.774,0,0,1-.774-.774v-10.9a2.864,2.864,0,0,0-2.861-2.861H173.048a2.864,2.864,0,0,0-2.861,2.861v10.9a.774.774,0,0,1-1.548,0v-10.9a4.414,4.414,0,0,1,4.409-4.409h18.387a4.415,4.415,0,0,1,4.409,4.409v10.9A.774.774,0,0,1,195.071,444.043Z" transform="translate(-168.639 -427.958)" fill="#f94100"/>
    </g>
  </g>
</svg>
