<svg xmlns="http://www.w3.org/2000/svg" width="123" height="107.551" viewBox="0 0 123 107.551">
  <path id="合作_2_" data-name="合作 (2)" d="M278.869,230.4h7.111a7.688,7.688,0,0,1,7.687,7.687v38.438a7.688,7.688,0,0,1-7.687,7.688h-14L239.816,237.74l-3.74-5.3-22.893,10.57a7.687,7.687,0,0,1-4.736.557q-10.482-2.1-7.034-7.338,3.338-5.068,28.417-20.395a8.8,8.8,0,0,1,1.357-.684q10.534-4.958,24.039,3.579A123.806,123.806,0,0,0,278.865,230.4ZM175.917,283.815a7.687,7.687,0,0,1-5.251-7.292V238.086a7.688,7.688,0,0,1,7.687-7.688h17.728l-.031.027a9.955,9.955,0,0,0,.411,15.144,20.652,20.652,0,0,0,20.045,3.333l17.293-6.3,12.127,17.528a7.726,7.726,0,0,1,1,1.176l21.256,30.719a7.688,7.688,0,0,1-2.91,11.262l-33.956,16.8a7.649,7.649,0,0,1-4.92.646l1.257-1.272a15.375,15.375,0,0,0,0-21.617l-24.6-24.892a11.531,11.531,0,0,0-16.405,0l-10.739,10.866Zm24.1-3.306,21.817,22.071a7.688,7.688,0,0,1,1.96,7.376l-1.1,4.163a5.927,5.927,0,0,1-9.241,3.256L185.4,296.742a7.688,7.688,0,0,1-.911-11.6l4.585-4.643a7.688,7.688,0,0,1,10.936,0Z" transform="translate(-170.667 -213.332)" fill="#f5f3ee"/>
</svg>
