<svg width="24" height="24" viewBox="0 0 24 24" fill="none" xmlns="http://www.w3.org/2000/svg">
<path d="M14.7734 3.34806C14.0735 3.20153 13.5606 3.22595 13.2348 3.42132C12.8768 3.64941 12.7059 4.09681 12.722 4.76448V12.4327C12.722 12.4488 12.657 12.6119 12.5266 12.9211C12.3801 12.7096 12.2985 12.5548 12.2824 12.4571L12.0871 4.76448C12.0709 4.25994 11.9244 3.8692 11.6475 3.59227C11.3544 3.31533 10.9637 3.18541 10.4753 3.20153C9.98684 3.20153 9.63664 3.31533 9.42516 3.54342C9.22979 3.78764 9.14041 4.17837 9.15652 4.71564C9.22148 6.2947 9.35189 8.64743 9.54726 11.7733V12.5548L9.40073 12.6036C9.18925 12.3106 9.07496 12.1396 9.05884 12.0908C8.83075 11.5535 8.62756 11.1789 8.44831 10.9674C8.0903 10.5606 7.65072 10.3486 7.12958 10.3325C6.59231 10.2998 6.07947 10.4546 5.59105 10.7965C5.29799 11.008 5.0782 11.3337 4.93168 11.7733C4.78515 12.229 4.76073 12.6525 4.85842 13.0432C4.9561 13.3363 5.10263 13.5399 5.29799 13.6537C5.49336 13.7676 5.82696 13.833 6.29926 13.8491C6.26653 13.898 6.13661 14.0772 5.90852 14.3864C5.74588 14.5979 5.64819 14.7771 5.61547 14.9236C5.48506 15.9005 5.50167 16.6492 5.66431 17.1704C6.07117 18.6029 7.08073 19.7507 8.69252 20.6138C10.3043 21.4768 12.2175 21.7044 14.4315 21.2975C16.1737 20.9395 17.2643 20.0032 17.7039 18.4891C17.7366 18.4076 17.8421 17.8869 18.0214 16.9262C18.0702 16.6004 18.1108 16.3484 18.1435 16.1691C18.1923 15.8761 18.2656 15.6402 18.3633 15.4609C18.6563 14.9075 18.8273 14.2726 18.8761 13.5561L19.2424 9.13585C19.3728 7.49134 19.4378 6.57164 19.4378 6.37627C19.4539 5.54595 18.9005 5.10637 17.7772 5.05753C17.0284 5.00869 16.6133 5.42385 16.5317 6.30301L16.0677 12.799C16.0677 12.8317 16.0027 12.9538 15.8723 13.1653C15.7585 12.9372 15.7014 12.799 15.7014 12.7502L15.8967 4.83774C15.8967 4.02354 15.5221 3.52731 14.7734 3.34806V3.34806ZM6.64115 13.6049L7.44705 13.3119C7.83779 13.1981 8.17968 13.2469 8.47273 13.4584C8.76579 13.6699 8.91231 13.9712 8.91231 14.362C8.91231 14.72 8.87177 14.9969 8.79021 15.1923C8.77409 15.2572 8.71694 15.3227 8.61926 15.3876L8.35063 15.5586L8.05758 15.119V15.0458C8.04146 14.4758 7.95159 14.1016 7.78894 13.9224C7.60969 13.7597 7.22726 13.6537 6.64115 13.6049V13.6049Z" fill="#F49C00"/>
</svg>
