<svg xmlns="http://www.w3.org/2000/svg" width="23.397" height="18.809" viewBox="0 0 23.397 18.809">
  <path id="icon-email" d="M48.078,145.92H29.591a2.461,2.461,0,0,0-2.455,2.455v13.9a2.461,2.461,0,0,0,2.455,2.455H48.078a2.461,2.461,0,0,0,2.455-2.455v-13.9A2.461,2.461,0,0,0,48.078,145.92Zm-.248,1.649-8.543,6.906a.149.149,0,0,0-.062.062.546.546,0,0,1-.769,0l-.062-.062-8.543-6.906Zm.248,15.511H29.591a.791.791,0,0,1-.794-.794v-13.44l8.518,6.894a2.187,2.187,0,0,0,3.025,0l8.518-6.894v13.428A.776.776,0,0,1,48.078,163.08Z" transform="translate(-27.136 -145.92)" fill="#fff" opacity="0.7"/>
</svg>
