<svg width="24" height="24" viewBox="0 0 24 24" fill="none" xmlns="http://www.w3.org/2000/svg">
<path d="M15.6867 8.65782C15.9164 8.65782 16.1461 8.65782 16.3758 8.69532C15.7266 5.74688 12.5836 3.5625 8.98125 3.5625C4.95938 3.5625 1.66406 6.3211 1.66406 9.76876C1.66406 11.7609 2.7375 13.4461 4.575 14.7117L3.84609 16.8961L6.4125 15.6328C7.33125 15.825 8.06016 16.0149 8.97891 16.0149C9.20859 16.0149 9.43828 16.0149 9.70781 15.9774C9.55547 15.4781 9.47812 14.9813 9.47812 14.4445C9.48047 11.2641 12.2016 8.65782 15.6867 8.65782ZM11.7398 6.66563C12.3141 6.66563 12.6586 7.04766 12.6586 7.58438C12.6586 8.1211 12.2766 8.50313 11.7398 8.50313C11.1656 8.50313 10.6289 8.11876 10.6289 7.58438C10.6289 7.01016 11.2055 6.66563 11.7398 6.66563V6.66563ZM6.67031 8.37891C6.09141 8.37891 5.55 7.99922 5.55 7.46954C5.55 6.9 6.12891 6.56016 6.67031 6.56016C7.21172 6.56016 7.59609 6.93985 7.59609 7.46954C7.59844 8.00157 7.21172 8.37891 6.67031 8.37891Z" fill="#24DB5A"/>
<path d="M22.3547 14.367C22.3547 11.4162 19.4438 9.04199 16.1484 9.04199C12.6609 9.04199 9.90234 11.4561 9.90234 14.367C9.90234 17.3178 12.6609 19.692 16.1484 19.692C16.8773 19.692 17.6039 19.4998 18.3328 19.31L20.325 20.4209L19.7883 18.5811C21.2437 17.4701 22.3547 16.0146 22.3547 14.367V14.367ZM14.1164 13.4482C13.7719 13.4482 13.3875 13.1037 13.3875 12.7193C13.3875 12.3748 13.7695 11.9904 14.1164 11.9904C14.6531 11.9904 15.0352 12.3725 15.0352 12.7193C15.0352 13.1037 14.6906 13.4482 14.1164 13.4482ZM18.2883 13.2701C17.9414 13.2701 17.5547 12.9279 17.5547 12.5506C17.5547 12.2084 17.9414 11.8311 18.2883 11.8311C18.8297 11.8311 19.2141 12.2107 19.2141 12.5506C19.2141 12.9303 18.8297 13.2701 18.2883 13.2701Z" fill="#24DB5A"/>
</svg>
