<svg xmlns="http://www.w3.org/2000/svg" xmlns:xlink="http://www.w3.org/1999/xlink" width="31.804" height="28.211" viewBox="0 0 31.804 28.211">
  <defs>
    <clipPath id="clip-path">
      <rect id="SVGID" width="31.804" height="28.211" fill="#f94100"/>
    </clipPath>
  </defs>
  <g id="组_92" data-name="组 92" transform="translate(-1481.139 -1325.684)">
    <g id="组_81" data-name="组 81" transform="translate(1481.139 1325.684)">
      <g id="组_80" data-name="组 80" transform="translate(0 0)" clip-path="url(#clip-path)">
        <g id="组_79" data-name="组 79" transform="translate(-0.006 0.04)">
          <path id="路径_42" data-name="路径 42" d="M215.524,299.1h-8.281a6.36,6.36,0,1,1,0-12.719h.1l1.009.016a.948.948,0,0,0,.778-.365c.364-.4.232-.749.232-1.195a9.6,9.6,0,0,1,16.078-7.108,3.684,3.684,0,0,1,.335.364,1.171,1.171,0,0,0,.945.51,1.061,1.061,0,0,0,1.06-1.061,1.316,1.316,0,0,0-.447-.916,4.213,4.213,0,0,0-.338-.327,11.6,11.6,0,0,0-8.026-3.2,11.732,11.732,0,0,0-11.712,11.163,8.48,8.48,0,1,0-.014,16.96h8.281a1.06,1.06,0,0,0,0-2.12Zm0,0" transform="translate(-198.763 -273.093)" fill="#f94100"/>
        </g>
      </g>
    </g>
    <g id="组_88" data-name="组 88" transform="translate(1499.292 1337.025)">
      <g id="组_82" data-name="组 82" transform="translate(0.038 5.992)">
        <path id="路径_43" data-name="路径 43" d="M243.125,307.407H233.6a1.152,1.152,0,0,1,0-2.3h9.524a1.152,1.152,0,0,1,0,2.3Z" transform="translate(-232.449 -305.104)" fill="#f94100"/>
      </g>
      <g id="组_83" data-name="组 83" transform="translate(0 9.907)">
        <path id="路径_44" data-name="路径 44" d="M243.054,314.655H233.53a1.152,1.152,0,1,1,0-2.3h9.524a1.152,1.152,0,0,1,0,2.3Z" transform="translate(-232.378 -312.352)" fill="#f94100"/>
      </g>
      <g id="组_84" data-name="组 84" transform="translate(4.764 5.992)">
        <path id="路径_45" data-name="路径 45" d="M242.348,315.983a1.15,1.15,0,0,1-1.151-1.151v-8.576a1.151,1.151,0,1,1,2.3,0v8.58a1.149,1.149,0,0,1-1.152,1.147Z" transform="translate(-241.197 -305.104)" fill="#f94100"/>
      </g>
      <g id="组_85" data-name="组 85" transform="translate(0.001 0.035)">
        <path id="路径_46" data-name="路径 46" d="M238.336,301.416a1.146,1.146,0,0,1-.833-.357l-4.806-5.036a1.151,1.151,0,1,1,1.666-1.589l4.8,5.036a1.151,1.151,0,0,1-.829,1.946Z" transform="translate(-232.379 -294.077)" fill="#f94100"/>
      </g>
      <g id="组_86" data-name="组 86" transform="translate(4.745 0)">
        <path id="路径_47" data-name="路径 47" d="M242.313,301.352a1.152,1.152,0,0,1-.833-1.947l4.8-5.036a1.151,1.151,0,1,1,1.666,1.589l-4.8,5.036a1.147,1.147,0,0,1-.833.358Z" transform="translate(-241.162 -294.013)" fill="#f94100"/>
      </g>
      <g id="组_87" data-name="组 87" transform="translate(5.896 7.339)">
        <path id="路径_48" data-name="路径 48" d="M243.293,307.6" transform="translate(-243.293 -307.599)" fill="#f94100"/>
      </g>
    </g>
  </g>
</svg>
