<svg width="24" height="24" viewBox="0 0 24 24" fill="none" xmlns="http://www.w3.org/2000/svg">
<circle cx="12" cy="12" r="12" fill="#E8380D"/>
<path fill-rule="evenodd" clip-rule="evenodd" d="M6.16699 7C6.16699 6.17157 6.83856 5.5 7.66699 5.5H16.3337C17.1621 5.5 17.8337 6.17157 17.8337 7V17C17.8337 17.8284 17.1621 18.5 16.3337 18.5H7.66699C6.83857 18.5 6.16699 17.8284 6.16699 17V7ZM8.16699 8.66663C8.16699 8.39048 8.39085 8.16663 8.66699 8.16663H12.0003C12.2765 8.16663 12.5003 8.39048 12.5003 8.66663C12.5003 8.94277 12.2765 9.16663 12.0003 9.16663H8.66699C8.39085 9.16663 8.16699 8.94277 8.16699 8.66663ZM8.16699 12C8.16699 11.7238 8.39085 11.5 8.66699 11.5H14.667C14.9431 11.5 15.167 11.7238 15.167 12C15.167 12.2761 14.9431 12.5 14.667 12.5H8.66699C8.39085 12.5 8.16699 12.2761 8.16699 12ZM8.16699 14C8.16699 13.7238 8.39085 13.5 8.66699 13.5H14.667C14.9431 13.5 15.167 13.7238 15.167 14C15.167 14.2761 14.9431 14.5 14.667 14.5H8.66699C8.39085 14.5 8.16699 14.2761 8.16699 14ZM8.16699 16C8.16699 15.7238 8.39085 15.5 8.66699 15.5H14.667C14.9431 15.5 15.167 15.7238 15.167 16C15.167 16.2761 14.9431 16.5 14.667 16.5H8.66699C8.39085 16.5 8.16699 16.2761 8.16699 16Z" fill="white"/>
</svg>
