<svg xmlns="http://www.w3.org/2000/svg" width="19.611" height="22.938" viewBox="0 0 19.611 22.938">
  <g id="icon-marker" transform="translate(-81.92 -9.216)" opacity="0.7">
    <path id="路径_65" data-name="路径 65" d="M328.88,253.024a4.146,4.146,0,1,1,4.272-4.144A4.211,4.211,0,0,1,328.88,253.024Zm0-6.829a2.686,2.686,0,1,0,2.767,2.685A2.741,2.741,0,0,0,328.88,246.2Z" transform="translate(-237.155 -230.15)" fill="#fff"/>
    <path id="路径_66" data-name="路径 66" d="M91.726,32.154a.79.79,0,0,1-.42-.117c-.385-.245-9.385-6.152-9.385-13.3a9.81,9.81,0,0,1,19.611,0c0,7.051-9,13.051-9.385,13.3a.978.978,0,0,1-.42.117Zm0-21.491a8.186,8.186,0,0,0-8.3,8.055c0,5.545,6.56,10.553,8.3,11.79,1.739-1.249,8.3-6.327,8.3-11.79A8.193,8.193,0,0,0,91.726,10.664Z" fill="#fff"/>
  </g>
</svg>
