<svg width="24" height="24" viewBox="0 0 24 24" fill="none" xmlns="http://www.w3.org/2000/svg">
<path d="M21.6069 6.4489C21.49 5.39492 21.3305 4.3492 21.0671 3.3202C20.8666 2.53715 20.1843 1.92571 19.384 1.81728C18.9801 1.76242 18.5985 1.84419 18.2167 1.95879C17.0161 2.31908 15.8605 2.79566 14.7279 3.32629C11.8475 4.67578 9.09307 6.24669 6.47003 8.04377C5.36292 8.80216 4.29881 9.61524 3.32547 10.5424C2.50191 11.327 2.48454 12.6716 3.31703 13.4419C3.79771 13.8868 4.29383 14.3178 4.80659 14.7256C6.1696 15.8099 7.63005 16.7549 9.12057 17.654C10.6732 18.5905 12.2581 19.4693 13.8887 20.2645C15.3797 20.9916 16.8983 21.6485 18.4955 22.1155C19.6113 22.4417 20.7907 21.7924 21.0679 20.6684C21.197 20.1448 21.3105 19.616 21.401 19.0844C21.6134 17.8375 21.7315 16.5788 21.7917 15.3162C21.8442 14.2118 21.8653 13.1059 21.9002 12.0008C21.8768 10.1452 21.8118 8.29378 21.6071 6.4489H21.6069ZM19.4693 16.5328C16.2941 16.5328 13.1355 16.5328 9.95812 16.5328C9.97967 16.448 9.99647 16.3712 10.0184 16.2956C10.6893 13.9979 11.3609 11.7004 12.0317 9.40254C12.3989 8.14475 12.7645 6.88656 13.1304 5.62869C13.1488 5.5655 13.1609 5.51265 13.2536 5.51329C14.2046 5.51769 15.1557 5.51689 16.1069 5.51785C16.1301 5.51785 16.1535 5.52306 16.1888 5.52714C16.1147 5.79646 16.0437 6.05793 15.9706 6.31901C15.672 7.38564 15.3723 8.45203 15.0743 9.51882C14.6857 10.9098 14.2983 12.3011 13.9103 13.6923C13.8388 13.9489 13.932 14.0715 14.2021 14.0715C16.141 14.0712 18.0799 14.0703 20.0187 14.07C20.0591 14.07 20.0996 14.0737 20.156 14.0765C19.9261 14.8991 19.6983 15.714 19.4695 16.5329L19.4693 16.5328Z" fill="#EA5504"/>
</svg>
