<svg width="13" height="13" viewBox="0 0 13 13" fill="none" xmlns="http://www.w3.org/2000/svg">
<path d="M8.51033 9.21863C7.69189 9.8814 6.64943 10.2784 5.51424 10.2784C2.88302 10.2784 0.75 8.14541 0.75 5.51421C0.75 2.88301 2.88302 0.75 5.51424 0.75C8.14545 0.75 10.2785 2.88301 10.2785 5.51421C10.2785 6.64942 9.88143 7.69189 9.21864 8.51034L12.75 12.0417L12.0417 12.75L8.51033 9.21863ZM9.27679 5.51421C9.27679 3.43623 7.59224 1.75168 5.51424 1.75168C3.43623 1.75168 1.75168 3.43623 1.75168 5.51421C1.75168 7.59219 3.43623 9.27674 5.51424 9.27674C7.59224 9.27674 9.27679 7.59219 9.27679 5.51421Z" fill="white"/>
</svg>
