<svg xmlns="http://www.w3.org/2000/svg" width="160" height="160" viewBox="0 0 160 160">
  <g id="组_856" data-name="组 856" transform="translate(-1561.653 -1606.653)">
    <text id="HK" transform="translate(1588.653 1689.653)" fill="#ebe0cd" font-size="69" font-family="Helvetica" letter-spacing="0.05em"><tspan x="0" y="0">HK</tspan></text>
    <rect id="矩形_220" data-name="矩形 220" width="16" height="68" rx="1" transform="translate(1679.653 1665.653)" fill="#fff"/>
    <rect id="矩形_219" data-name="矩形 219" width="18" height="75" rx="1" transform="translate(1617.653 1675.653)" fill="#fff"/>
    <g id="减去_4" data-name="减去 4" transform="translate(1564.653 1609.653)" fill="none" stroke-linejoin="round">
      <path d="M77,154c-1.585,0-3.2-.05-4.813-.148V69.313a4,4,0,0,0-4-4H54.875a4,4,0,0,0-4,4v80.141a76.762,76.762,0,0,1-9.625-4.239V97.5a4,4,0,0,0-4-4H23.937a4,4,0,0,0-4,4v31.2A77,77,0,0,1,120.052,13.151a77.221,77.221,0,0,1,27.9,33.878,76.9,76.9,0,0,1-7.1,73.023,77.9,77.9,0,0,1-6.787,8.648V57.625a4.005,4.005,0,0,0-4-4H116.75a4,4,0,0,0-4,4v87.59c-1.888.992-3.832,1.911-5.778,2.734-1.282.542-2.576,1.049-3.847,1.507V109.875a4,4,0,0,0-4-4H85.812a4,4,0,0,0-4,4v43.979C80.224,153.951,78.6,154,77,154Z" stroke="none"/>
      <path d="M 77.00041198730469 153.9999084472656 C 78.60497283935547 153.9999084472656 80.22373962402344 153.9509124755859 81.81269073486328 153.8532104492188 L 81.81269073486328 109.8746948242188 C 81.81269073486328 107.669303894043 83.60691070556641 105.8750839233398 85.81230163574219 105.8750839233398 L 99.12508392333984 105.8750839233398 C 101.3309783935547 105.8750839233398 103.125602722168 107.669303894043 103.125602722168 109.8746948242188 L 103.125602722168 149.4558258056641 C 104.3958892822266 148.9977874755859 105.6900634765625 148.4908599853516 106.9722137451172 147.94921875 C 108.9186706542969 147.1261291503906 110.8624954223633 146.2064971923828 112.7502136230469 145.2149353027344 L 112.7502136230469 57.62519454956055 C 112.7502136230469 55.4193229675293 114.5444107055664 53.62469482421875 116.7498016357422 53.62469482421875 L 130.0626068115234 53.62469482421875 C 132.2684936523438 53.62469482421875 134.0631103515625 55.4193229675293 134.0631103515625 57.62519454956055 L 134.0631103515625 128.6994934082031 C 136.5223083496094 125.9853668212891 138.8057403564453 123.0759124755859 140.8500213623047 120.0519104003906 C 143.6327972412109 115.9321517944336 146.0213165283203 111.5315170288086 147.94921875 106.9722137451172 C 151.9641723632812 97.47891235351562 153.9999084472656 87.39493560791016 153.9999084472656 77.00041198730469 C 153.9999084472656 66.60586547851562 151.9641723632812 56.52188873291016 147.94921875 47.02860641479492 C 146.0213012695312 42.46834564208984 143.6327819824219 38.06769180297852 140.8500213623047 33.94890975952148 C 138.0973815917969 29.87441062927246 134.9339904785156 26.04030227661133 131.4477081298828 22.5531063079834 C 127.9659957885742 19.07138824462891 124.1318893432617 15.90799808502197 120.0519104003906 13.15082359313965 C 115.9404296875 10.37260627746582 111.5398025512695 7.98380184173584 106.9722137451172 6.050693511962891 C 97.47891235351562 2.035736799240112 87.39493560791016 -2.298106210218975e-06 77.00041198730469 -2.298106210218975e-06 C 66.60586547851562 -2.298106210218975e-06 56.52188873291016 2.035736799240112 47.02860641479492 6.050693511962891 C 42.46282196044922 7.982889175415039 38.06219482421875 10.3717155456543 33.94890975952148 13.15082359313965 C 29.87445449829102 15.90249729156494 26.04034614562988 19.06586647033691 22.5531063079834 22.5531063079834 C 19.06586647033691 26.04034614562988 15.90249729156494 29.87445449829102 13.15082359313965 33.94890975952148 C 10.3717155456543 38.06219482421875 7.982889175415039 42.46282196044922 6.050693511962891 47.02860641479492 C 2.035736799240112 56.52188873291016 -2.298106210218975e-06 66.60586547851562 -2.298106210218975e-06 77.00041198730469 C -2.298106210218975e-06 86.72940826416016 1.79108464717865 96.21291351318359 5.323497772216797 105.1875 C 8.734063148498535 113.8533706665039 13.65038871765137 121.7646255493164 19.93769264221191 128.7009124755859 L 19.93769264221191 97.49969482421875 C 19.93769264221191 95.29430389404297 21.73191070556641 93.50008392333984 23.93730163574219 93.50008392333984 L 37.25010681152344 93.50008392333984 C 39.45547485351562 93.50008392333984 41.24969482421875 95.29430389404297 41.24969482421875 97.49969482421875 L 41.24969482421875 145.2149963378906 C 44.33982467651367 146.8383483886719 47.57784652709961 148.264892578125 50.87519454956055 149.4540252685547 L 50.87519454956055 69.31258392333984 C 50.87519454956055 67.10721588134766 52.66941070556641 65.31299591064453 54.87480163574219 65.31299591064453 L 68.18758392333984 65.31299591064453 C 70.39297485351562 65.31299591064453 72.18719482421875 67.10721588134766 72.18719482421875 69.31258392333984 L 72.18719482421875 153.8514099121094 C 73.79630279541016 153.949951171875 75.41569519042969 153.9999084472656 77.00041198730469 153.9999084472656 M 77.00041198730469 156.9999084472656 C 75.35471343994141 156.9999084472656 73.67360687255859 156.9480590820312 72.00382232666016 156.8457946777344 C 70.42112731933594 156.7488708496094 69.18719482421875 155.4370422363281 69.18719482421875 153.8514099121094 L 69.18719482421875 69.31258392333984 C 69.18719482421875 68.76141357421875 68.73877716064453 68.31299591064453 68.18758392333984 68.31299591064453 L 54.87480163574219 68.31299591064453 C 54.32360458374023 68.31299591064453 53.87519454956055 68.76141357421875 53.87519454956055 69.31258392333984 L 53.87519454956055 149.4540252685547 C 53.87519454956055 150.4312591552734 53.39921569824219 151.3472442626953 52.59954071044922 151.908935546875 C 51.79986190795898 152.4706115722656 50.77674102783203 152.6076354980469 49.85745239257812 152.2761077880859 C 46.43456268310547 151.0417175292969 43.06908416748047 149.5595703125 39.85449600219727 147.8708190917969 C 38.86771392822266 147.3524322509766 38.24969482421875 146.3296661376953 38.24969482421875 145.2149963378906 L 38.24969482421875 97.49969482421875 C 38.24969482421875 96.94849395751953 37.8012809753418 96.50008392333984 37.25010681152344 96.50008392333984 L 23.93730163574219 96.50008392333984 C 23.38610649108887 96.50008392333984 22.93769264221191 96.94849395751953 22.93769264221191 97.49969482421875 L 22.93769264221191 128.7009124755859 C 22.93769264221191 129.9411315917969 22.17454147338867 131.0534973144531 21.01745414733887 131.4998626708984 C 19.86034393310547 131.9462585449219 18.5478687286377 131.6345977783203 17.71493339538574 130.7156982421875 C 11.18458461761475 123.5112838745117 6.076280117034912 115.2919998168945 2.53191065788269 106.2861709594727 C -1.138784885406494 96.96023559570312 -3.000002384185791 87.10706329345703 -3.000002384185791 77.00041198730469 C -3.000002384185791 66.20219421386719 -0.8845240473747253 55.72506332397461 3.287649869918823 45.86004257202148 C 5.295519351959229 41.11540985107422 7.777541160583496 36.54306411743164 10.66501903533936 32.26939010620117 C 13.52334594726562 28.03701972961426 16.80947685241699 24.05408477783203 20.4317798614502 20.4317798614502 C 24.05408477783203 16.80947685241699 28.03701972961426 13.52334594726562 32.26988983154297 10.66467189788818 C 36.54306411743164 7.777541160583496 41.11540985107422 5.295519351959229 45.85940933227539 3.28791069984436 C 55.72506332397461 -0.8845240473747253 66.20219421386719 -3.000002384185791 77.00041198730469 -3.000002384185791 C 87.79860687255859 -3.000002384185791 98.27573394775391 -0.8845240473747253 108.1407775878906 3.287649869918823 C 112.8873901367188 5.29651927947998 117.4597549438477 7.778563022613525 121.731559753418 10.66510677337646 C 125.9697341918945 13.52919292449951 129.952392578125 16.81514930725098 133.5690460205078 20.4317798614502 C 137.1904754638672 24.0541934967041 140.4764251708984 28.03686714172363 143.3359069824219 32.2695198059082 C 146.2271728515625 36.54888916015625 148.7090148925781 41.12156295776367 150.7124328613281 45.86041259765625 C 154.8844299316406 55.72506332397461 156.9999084472656 66.20219421386719 156.9999084472656 77.00041198730469 C 156.9999084472656 87.79860687255859 154.8844299316406 98.27573394775391 150.7122650146484 108.1407775878906 C 148.7090454101562 112.8782577514648 146.2272796630859 117.4507827758789 143.3360137939453 121.7311248779297 C 141.2119750976562 124.8731307983398 138.8403015136719 127.89501953125 136.2862548828125 130.7138519287109 C 135.4534454345703 131.6329650878906 134.140869140625 131.9448089599609 132.9836273193359 131.4985656738281 C 131.8263854980469 131.0522613525391 131.0631103515625 129.9398193359375 131.0631103515625 128.6994934082031 L 131.0631103515625 57.62519454956055 C 131.0631103515625 57.07352066040039 130.6142730712891 56.62469482421875 130.0626068115234 56.62469482421875 L 116.7498016357422 56.62469482421875 C 116.1986312866211 56.62469482421875 115.7502136230469 57.07352066040039 115.7502136230469 57.62519454956055 L 115.7502136230469 145.2149353027344 C 115.7502136230469 146.3296508789062 115.1321487426758 147.3524475097656 114.1452789306641 147.8708190917969 C 112.1862182617188 148.8998718261719 110.1659545898438 149.8558959960938 108.140625 150.7123260498047 C 106.8079986572266 151.2752990722656 105.4633865356445 151.8019256591797 104.1432113647461 152.2779541015625 C 103.2239608764648 152.6094207763672 102.2008590698242 152.4724273681641 101.4011917114258 151.9106903076172 C 100.6015625 151.3489990234375 100.125602722168 150.4330444335938 100.125602722168 149.4558258056641 L 100.125602722168 109.8746948242188 C 100.125602722168 109.3234939575195 99.67678070068359 108.8750839233398 99.12508392333984 108.8750839233398 L 85.81230163574219 108.8750839233398 C 85.2611083984375 108.8750839233398 84.81269073486328 109.3234939575195 84.81269073486328 109.8746948242188 L 84.81269073486328 153.8532104492188 C 84.81269073486328 155.4385833740234 83.57917022705078 156.7502746582031 81.99680328369141 156.8475646972656 C 80.35260772705078 156.9486541748047 78.67156219482422 156.9999084472656 77.00041198730469 156.9999084472656 Z" stroke="none" fill="#c19a57"/>
    </g>
  </g>
</svg>
