<svg xmlns="http://www.w3.org/2000/svg" width="24" height="24" viewBox="0 0 24 24">
  <path id="icon-phone" d="M96.394,115.026c-1.548,0-3.547-1.032-4.952-1.9a34.232,34.232,0,0,1-5.705-4.514l-.007-.006-.571-.571a34.23,34.23,0,0,1-4.514-5.705c-.865-1.4-1.9-3.4-1.9-4.952a7.8,7.8,0,0,1,1.694-4.095c.4-.53,1.786-2.259,2.966-2.259.484,0,1.006.317,1.692,1.028a17.016,17.016,0,0,1,1.57,1.956,21.081,21.081,0,0,1,1.334,2.157,3.975,3.975,0,0,1,.629,1.777,1.577,1.577,0,0,1-.788,1.309,6.81,6.81,0,0,1-1.157.589,5.181,5.181,0,0,0-.864.434,6.735,6.735,0,0,0,.984,1.822,16.839,16.839,0,0,0,4.867,4.867,6.737,6.737,0,0,0,1.822.984,5.18,5.18,0,0,0,.434-.864,6.81,6.81,0,0,1,.589-1.157,1.577,1.577,0,0,1,1.309-.788,3.975,3.975,0,0,1,1.777.629,21.086,21.086,0,0,1,2.157,1.334,17.017,17.017,0,0,1,1.956,1.57c.711.686,1.028,1.208,1.028,1.692,0,1.18-1.729,2.569-2.259,2.966A7.8,7.8,0,0,1,96.394,115.026ZM86.729,107.6a32.773,32.773,0,0,0,5.456,4.32,9.633,9.633,0,0,0,4.208,1.686,6.084,6.084,0,0,0,3.178-1.361,8.219,8.219,0,0,0,1.3-1.172,2.239,2.239,0,0,0,.453-.687,8.863,8.863,0,0,0-2.5-2.211,19.363,19.363,0,0,0-1.9-1.165,4.1,4.1,0,0,0-1.087-.454.911.911,0,0,0-.224.283,7.464,7.464,0,0,0-.385.806,6.8,6.8,0,0,1-.5,1.011,1.37,1.37,0,0,1-1.148.721h-.025c-.218,0-.88-.019-2.678-1.243A22.618,22.618,0,0,1,88,105.792l-.013-.013a22.631,22.631,0,0,1-2.345-2.883c-1.225-1.8-1.239-2.46-1.243-2.678a1.357,1.357,0,0,1,.714-1.168,6.733,6.733,0,0,1,1.018-.508,7.466,7.466,0,0,0,.806-.385.912.912,0,0,0,.283-.224,4.1,4.1,0,0,0-.454-1.087,19.359,19.359,0,0,0-1.165-1.9,8.865,8.865,0,0,0-2.211-2.5,2.239,2.239,0,0,0-.687.453,8.218,8.218,0,0,0-1.172,1.3,6.084,6.084,0,0,0-1.361,3.178,9.633,9.633,0,0,0,1.686,4.208,32.772,32.772,0,0,0,4.32,5.456Z" transform="translate(-78.748 -91.026)" fill="#fff" opacity="0.7"/>
</svg>
