<svg width="30" height="24" viewBox="0 0 30 24" fill="none" xmlns="http://www.w3.org/2000/svg">
<path d="M3.80374 16.3963C4.60901 16.4264 5.3998 16.1762 6.04125 15.6885C6.63445 15.2169 7.02234 14.5343 7.12375 13.7833C7.17719 13.5388 7.17941 13.2858 7.13027 13.0403C7.08113 12.7949 6.98168 12.5623 6.8382 12.3571C6.68839 12.1645 6.50057 12.0048 6.28641 11.8878C6.07225 11.7709 5.83632 11.6992 5.59329 11.6773V11.6546C6.06038 11.5179 6.48358 11.2614 6.82083 10.9105C7.16233 10.5705 7.38715 10.1309 7.46292 9.65504C7.52812 9.38457 7.51924 9.10153 7.43722 8.83567C7.3552 8.56981 7.20308 8.33096 6.99684 8.14423C6.4392 7.73612 5.75323 7.5425 5.06451 7.59883H2.21663L0.801758 16.3978H3.79996L3.80374 16.3963ZM4.42921 8.9933C5.32714 8.9933 5.72197 9.33021 5.61369 10.004C5.57145 10.3405 5.4013 10.6478 5.13854 10.8622C4.8602 11.0736 4.51715 11.182 4.16784 11.1689H3.35427L3.70478 8.9933H4.42921ZM4.12705 12.583C4.48193 12.5527 4.83454 12.6628 5.10908 12.8897C5.21607 13.0032 5.29287 13.1417 5.33247 13.2925C5.37206 13.4434 5.37317 13.6017 5.3357 13.7531C5.29001 14.1129 5.10638 14.4409 4.82354 14.6679C4.51641 14.8965 4.14018 15.0127 3.75766 14.9973H2.74315L3.13067 12.58H4.13083L4.12705 12.583ZM8.80528 15.307C9.09872 15.717 9.49135 16.046 9.94647 16.263C10.4016 16.4801 10.9043 16.5782 11.4077 16.5481C11.9784 16.5526 12.544 16.4411 13.0703 16.2203C13.5966 15.9996 14.0726 15.6742 14.4693 15.2639C15.36 14.3584 15.9315 13.1874 16.0972 11.9281C16.3459 10.8247 16.1563 9.66793 15.5684 8.70172C15.2862 8.28744 14.9009 7.95381 14.4506 7.73367C14.0002 7.51353 13.5003 7.41446 13 7.44623C12.4196 7.43963 11.8438 7.55136 11.308 7.77462C10.7721 7.99788 10.2873 8.32798 9.88324 8.74478C8.9859 9.65907 8.40983 10.8401 8.24175 12.1101C8.11871 12.6539 8.10518 13.2168 8.20193 13.766C8.29868 14.3151 8.50378 14.8395 8.80528 15.3085V15.307ZM10.9733 9.89073C11.1792 9.63458 11.4401 9.42805 11.7367 9.28643C12.0333 9.14481 12.3579 9.07174 12.6866 9.07262C12.9733 9.05215 13.2597 9.11696 13.5098 9.25891C13.7598 9.40085 13.9622 9.61359 14.0916 9.87033C14.3851 10.5559 14.4531 11.3169 14.2857 12.0436C14.1917 12.8139 13.8807 13.5417 13.3891 14.1421C13.1836 14.39 12.9252 14.5888 12.633 14.724C12.3407 14.8591 12.022 14.9272 11.7 14.9232C11.4098 14.941 11.1208 14.8732 10.8688 14.7283C10.6168 14.5834 10.4128 14.3678 10.2821 14.1082C9.97937 13.4522 9.89977 12.7151 10.0555 12.0096C10.1558 11.2314 10.4739 10.4974 10.9733 9.89224V9.89073ZM16.4213 16.0594C17.0898 16.4172 17.8433 16.5862 18.6006 16.5481C19.461 16.5888 20.3122 16.3561 21.0323 15.8834C21.3433 15.6561 21.6043 15.3674 21.7993 15.0351C21.9942 14.7029 22.1188 14.3342 22.1654 13.9518C22.268 13.4464 22.1942 12.9211 21.9561 12.4636C21.5953 11.9368 21.0909 11.5247 20.5027 11.2761C20.0737 11.0907 19.6825 10.828 19.3485 10.5011C19.2798 10.4133 19.2303 10.312 19.2031 10.2039C19.1759 10.0958 19.1717 9.98321 19.1906 9.87335C19.2145 9.73035 19.2709 9.59473 19.3553 9.47688C19.4398 9.35903 19.5501 9.26209 19.6778 9.19349C19.998 9.01452 20.3613 8.92698 20.7278 8.94043C21.3795 8.91706 22.0173 9.1319 22.5219 9.54475L22.8045 7.7839C22.1953 7.53926 21.5417 7.425 20.8857 7.4485C20.0457 7.42068 19.2183 7.65859 18.5213 8.12836C18.2065 8.34828 17.9409 8.63129 17.7414 8.95941C17.5419 9.28753 17.4129 9.65357 17.3625 10.0343C17.269 10.5636 17.3652 11.109 17.6343 11.5744C17.9033 12.0398 18.3279 12.3953 18.8333 12.5785C19.3306 12.7772 19.7846 13.0704 20.1704 13.4419C20.2438 13.5375 20.2968 13.6472 20.3263 13.7641C20.3558 13.881 20.3611 14.0027 20.3418 14.1218C20.318 14.2615 20.2645 14.3945 20.1848 14.5118C20.1052 14.6291 20.0014 14.7279 19.8803 14.8016C19.5495 14.995 19.169 15.0867 18.7865 15.0653C18.4003 15.0738 18.0168 14.9997 17.6617 14.8479C17.3065 14.6961 16.9879 14.4702 16.7272 14.1852L16.4213 16.0594ZM22.8014 16.0594C23.47 16.4173 24.2234 16.5863 24.9808 16.5481C25.8412 16.5888 26.6924 16.3561 27.4124 15.8834C27.7235 15.6561 27.9845 15.3674 28.1794 15.0351C28.3743 14.7029 28.4989 14.3342 28.5455 13.9518C28.6482 13.4464 28.5743 12.9211 28.3363 12.4636C27.9755 11.9368 27.471 11.5247 26.8829 11.2761C26.4539 11.0907 26.0626 10.828 25.7286 10.5011C25.66 10.4133 25.6105 10.312 25.5833 10.2039C25.5561 10.0958 25.5518 9.98321 25.5707 9.87335C25.5947 9.73035 25.651 9.59473 25.7355 9.47688C25.8199 9.35903 25.9303 9.26209 26.058 9.19349C26.3782 9.01452 26.7414 8.92698 27.108 8.94043C27.7594 8.91704 28.397 9.13189 28.9013 9.54475L29.1846 7.7839C28.5755 7.53926 27.9219 7.425 27.2659 7.4485C26.4258 7.42068 25.5984 7.65859 24.9015 8.12836C24.5867 8.34828 24.3211 8.63129 24.1216 8.95941C23.9221 9.28753 23.793 9.65357 23.7427 10.0343C23.6492 10.5636 23.7454 11.109 24.0144 11.5744C24.2835 12.0398 24.708 12.3953 25.2134 12.5785C25.7107 12.7772 26.1648 13.0704 26.5505 13.4419C26.6239 13.5375 26.677 13.6472 26.7065 13.7641C26.736 13.881 26.7412 14.0027 26.722 14.1218C26.6981 14.2615 26.6446 14.3945 26.565 14.5118C26.4854 14.6291 26.3815 14.7279 26.2604 14.8016C25.9296 14.995 25.5492 15.0867 25.1666 15.0653C24.7805 15.0738 24.397 14.9998 24.0418 14.848C23.6866 14.6962 23.368 14.4702 23.1074 14.1852L22.8014 16.0594Z" fill="#7DD2C8"/>
</svg>
