<svg xmlns="http://www.w3.org/2000/svg" width="23.355" height="23.355" viewBox="0 0 23.355 23.355">
  <g id="icon-company" transform="translate(-62 -62)" opacity="0.7">
    <path id="路径_67" data-name="路径 67" d="M73.677,85.355A11.677,11.677,0,1,0,62,73.677,11.678,11.678,0,0,0,73.677,85.355Zm0-1.7a9.979,9.979,0,1,1,9.979-9.979A9.979,9.979,0,0,1,73.677,83.656Z" fill="#fff"/>
    <path id="路径_68" data-name="路径 68" d="M292.55,302.061l2.466-5.918a1.38,1.38,0,0,1,.723-.735l6.194-2.7a1.38,1.38,0,0,1,1.837,1.768l-2.3,5.91a1.38,1.38,0,0,1-.745.769l-6.357,2.7a1.38,1.38,0,0,1-1.814-1.8Zm7.382-2.413,1.978-5.073-5.375,2.34-2.116,5.079,5.513-2.346Z" transform="translate(-224.464 -224.613)" fill="#fff"/>
  </g>
</svg>
