<svg id="组_101" data-name="组 101" xmlns="http://www.w3.org/2000/svg" width="154" height="154" viewBox="0 0 154 154">
  <g id="组_87" data-name="组 87" transform="translate(100.935 69.787)">
    <g id="组_83" data-name="组 83" transform="translate(0 4.303)">
      <path id="路径_157" data-name="路径 157" d="M136.893,121.366c-.615,0-1.093-.273-1.093-.615V106.615h0c0-.341.478-.615,1.093-.615h0c.615,0,1.093.273,1.093.615v14.137h0c0,.341-.478.615-1.093.615Z" transform="translate(-135.8 -106)" fill="#c19a57"/>
    </g>
    <g id="组_84" data-name="组 84">
      <path id="路径_158" data-name="路径 158" d="M141.4,109.33c-3.688-1.024-5.6-2.39-5.6-4.166s1.844-3.142,5.6-4.166a45.914,45.914,0,0,1,11.815-1.3A49.143,49.143,0,0,1,165.03,101c3.688,1.024,5.6,2.39,5.6,4.166s-1.912,3.142-5.6,4.166a45.914,45.914,0,0,1-11.815,1.3A49.144,49.144,0,0,1,141.4,109.33Zm11.815-7.512a48.554,48.554,0,0,0-11.269,1.229c-3.278.888-3.961,1.844-3.961,2.049s.683,1.161,3.961,2.049a44.728,44.728,0,0,0,11.269,1.229,48.119,48.119,0,0,0,11.269-1.229c3.278-.888,3.961-1.844,3.961-2.049s-.683-1.161-3.961-2.049a48.118,48.118,0,0,0-11.269-1.229Zm.068,18.1a49.437,49.437,0,0,1-11.269-1.366c-4.166-1.093-6.147-2.459-6.215-4.1l2.185-.068h0c.068.273,1.161,1.229,4.917,2.185a45.974,45.974,0,0,0,20.83.068c3.824-.956,4.712-1.912,4.781-2.185l2.185.068c-.068,1.776-2.049,3.073-6.215,4.166a47.1,47.1,0,0,1-11,1.3h-.2v-.068Z" transform="translate(-135.8 -99.7)" fill="#c19a57"/>
    </g>
    <g id="组_85" data-name="组 85" transform="translate(32.645 5.464)">
      <rect id="矩形_252" data-name="矩形 252" width="2.185" height="28.342" fill="#c19a57"/>
    </g>
    <g id="组_86" data-name="组 86" transform="translate(20.352 24.518)">
      <path id="路径_159" data-name="路径 159" d="M177.893,135.6c-.068.2-.956,1.229-4.781,2.185a39.366,39.366,0,0,1-5.327.888c-.751.068-1.434.137-2.185.2v2.185c.751-.068,1.434-.137,2.185-.2a40.263,40.263,0,0,0,6.078-1.024c4.1-1.024,6.147-2.39,6.215-4.166Zm0,9.152c-.068.2-.956,1.229-4.781,2.185a39.363,39.363,0,0,1-5.327.888c-.751.068-1.434.137-2.185.2v2.185c.751-.068,1.434-.137,2.185-.2a40.263,40.263,0,0,0,6.078-1.024c4.1-1.024,6.147-2.39,6.215-4.166Z" transform="translate(-165.6 -135.6)" fill="#c19a57"/>
    </g>
  </g>
  <g id="组_88" data-name="组 88" transform="translate(56.237 72.204)">
    <path id="路径_160" data-name="路径 160" d="M69.4,104.671l1.366-1.571,14.888,12.635-1.776,1.229Z" transform="translate(-69.4 -103.1)" fill="#c19a57"/>
  </g>
  <g id="组_89" data-name="组 89" transform="translate(28.333 51.408)">
    <path id="路径_161" data-name="路径 161" d="M29.771,79.3,28.2,78l4.712-5.6,4.3,3.62-1.3,1.571-2.732-2.322Z" transform="translate(-28.2 -72.4)" fill="#c19a57"/>
  </g>
  <g id="组_90" data-name="组 90" transform="translate(0)">
    <path id="路径_162" data-name="路径 162" d="M63.434,150.6A76.793,76.793,0,0,1-12.447,86.286l-.068-.475.271-.339L11.016,58l1.56,1.289-22.92,27.137a74.893,74.893,0,1,0-.746-20.352L16.644,33.3a2.353,2.353,0,0,1,1.56-.814,2.232,2.232,0,0,1,1.7.543l8.612,7.327h0l35.33,29.918L87.168,42.732l-8.341-7.056a2.012,2.012,0,0,1-.271-2.782,2.278,2.278,0,0,1,1.085-.678l27.328-5.7a1.953,1.953,0,0,1,2.306,1.493c0,.2.068.339.068.475L108.19,56.436a1.951,1.951,0,0,1-.61,1.357,2.188,2.188,0,0,1-1.424.543,1.949,1.949,0,0,1-1.221-.475l-7.391-6.309L74.148,79.231l-.61.746-6.713,7.87a2.342,2.342,0,0,1-3.255.271l1.288-1.56a.432.432,0,0,0,.407,0l6.1-7.191.61-.746L97.34,48.7l8.883,7.53,1.085-27.679L80.251,34.184l9.765,8.277L64.044,73.125,25.731,40.7h0l-7.188-6.106a.339.339,0,0,0-.407,0L-13.6,72.04l.2-3.053A76.968,76.968,0,1,1,63.434,150.6ZM80.183,34.116Z" transform="translate(13.6 3.4)" fill="#c19a57"/>
  </g>
  <g id="组_91" data-name="组 91" transform="translate(78.857 88.067)">
    <path id="路径_204" data-name="路径 204" d="M103.793,154.055a1.079,1.079,0,0,1-1.093-1.093V127.693a1.079,1.079,0,0,1,1.093-1.093h0a1.079,1.079,0,0,1,1.093,1.093h0v25.269a1.123,1.123,0,0,1-1.093,1.093Z" transform="translate(-102.7 -126.6)" fill="#c19a57"/>
  </g>
  <g id="组_92" data-name="组 92" transform="translate(46.423 107.901)">
    <path id="路径_205" data-name="路径 205" d="M72.21,161.7a47.106,47.106,0,0,1-11-1.3c-4.1-1.024-6.147-2.39-6.215-4.166l2.185-.068c.068.2.956,1.229,4.781,2.185a42.815,42.815,0,0,0,10.381,1.161,46.463,46.463,0,0,0,10.381-1.229c3.756-.956,4.849-1.912,4.917-2.185h0l2.049.068c0,1.707-1.912,3.073-6.078,4.1a46.3,46.3,0,0,1-11.269,1.366H72.21v.068Zm0,9.22a47.1,47.1,0,0,1-11-1.3c-4.1-1.024-6.147-2.39-6.215-4.166l2.185-.068c.068.2.956,1.229,4.781,2.185a42.812,42.812,0,0,0,10.381,1.161,46.45,46.45,0,0,0,7.512-.615l.341,2.117a50.1,50.1,0,0,1-7.854.683Zm0,9.63a47.1,47.1,0,0,1-11-1.3c-4.1-1.024-6.147-2.39-6.215-4.166l2.185-.068c.068.2.956,1.229,4.781,2.185a42.815,42.815,0,0,0,10.381,1.161,50.1,50.1,0,0,0,7.854-.683l.41,2.117a47.679,47.679,0,0,1-8.264.751Z" transform="translate(-55 -156.1)" fill="#c19a57"/>
  </g>
  <path id="路径_206" data-name="路径 206" d="M152.767,141.22h0l-.068-9.356h-.068c0-1.776-1.912-3.142-5.6-4.166a49.144,49.144,0,0,0-11.815-1.3,45.914,45.914,0,0,0-11.815,1.3c-3.756,1.024-5.6,2.39-5.6,4.166a1.5,1.5,0,0,0,.068.546v20.147a1.013,1.013,0,0,0,1.093.956,1.1,1.1,0,0,0,.615-.2c1.024.683,6.351,1.5,8.332,2.049,0,0,2.39,7.854-.068,7.444l-.341,2.117a50.827,50.827,0,0,0,7.854.683h.137a47.1,47.1,0,0,0,11-1.3c4.1-1.093,6.078-2.39,6.215-4.1h0V141.7A1.162,1.162,0,0,0,152.767,141.22Zm-17.415,5.464" transform="translate(-28.881 -38.541)" fill="#ddb673"/>
  <g id="组_93" data-name="组 93" transform="translate(55.396 77.923)">
    <path id="路径_207" data-name="路径 207" d="M69.193,119.149c-.615,0-1.093-.137-1.093-.341h0v-6.966c0-.2.478-.341,1.093-.341h0c.615,0,1.093.137,1.093.341h0v6.966c0,.2-.478.341-1.093.341Z" transform="translate(-68.1 -111.5)" fill="#c19a57"/>
  </g>
  <path id="路径_208" data-name="路径 208" d="M55.067,92.483V83.127c0-.137,0-.2-.068-.273-.273-1.571-2.185-2.8-5.532-3.756a49.144,49.144,0,0,0-11.815-1.3,45.914,45.914,0,0,0-11.815,1.3c-3.688,1.024-5.6,2.39-5.6,4.166V131l-.137,9.015h0c.068,1.776,2.049,3.142,6.215,4.166a47.1,47.1,0,0,0,11,1.3h.137A38.354,38.354,0,0,0,43.73,145c.683-.068,1.3-.2,1.912-.273l-.2-2.185c-.546.068-.683-7.376-.2-7.444l-.2-2.117c-.41.068-.888-6.83.82-7.1v-.068h.068v-2.185c-.273.068-3.073-6.9-.478-7.308L45.1,114.2c-2.527.41,1.639-4.166,1.639-4.166,0,.615,6.625-1.571,7.239-1.571a1.079,1.079,0,0,0,1.093-1.093V92.483Z" transform="translate(2.915 -22.998)" fill="#ddb673"/>
  <g id="组_94" data-name="组 94" transform="translate(71.015 116.643)">
    <path id="路径_209" data-name="路径 209" d="M92.393,187.066a1.079,1.079,0,0,1-1.093-1.093h0V169.993a1.093,1.093,0,1,1,2.185,0v15.981a1.173,1.173,0,0,1-1.093,1.093Zm27.455-8.264a1.079,1.079,0,0,1-1.093-1.093h0v-6.693a1.093,1.093,0,0,1,2.185,0v6.693a1.123,1.123,0,0,1-1.093,1.093Z" transform="translate(-91.3 -168.9)" fill="#c19a57"/>
  </g>
  <g id="组_95" data-name="组 95" transform="translate(71.015 113.471)">
    <path id="路径_210" data-name="路径 210" d="M106.12,173.561a41.944,41.944,0,0,1-9.971-1.093c-3.21-.888-4.781-2.117-4.781-3.688s1.639-2.8,4.781-3.688A38.681,38.681,0,0,1,106.12,164a41.944,41.944,0,0,1,9.971,1.093c3.21.888,4.781,2.117,4.781,3.688s-1.639,2.8-4.781,3.688a42.367,42.367,0,0,1-9.971,1.093Zm-12.635-4.781c.068.2.82.956,3.483,1.639a44.274,44.274,0,0,0,18.3,0c2.663-.683,3.415-1.434,3.483-1.639-.068-.2-.82-.956-3.483-1.639a39.639,39.639,0,0,0-9.152-.956,40.066,40.066,0,0,0-9.152.956c-2.664.683-3.415,1.434-3.483,1.639Zm12.43,12.5a39.9,39.9,0,0,1-9.288-1.024q-5.327-1.332-5.327-3.688l2.185-.068v-.068c.068.2,1.024,1.024,4.1,1.776a36.794,36.794,0,0,0,8.4.956h.068a35.205,35.205,0,0,0,8.537-1.024c3.073-.751,4.1-1.571,4.234-1.776v.068l2.049.2c0,1.5-1.639,2.6-5.19,3.483a39.014,39.014,0,0,1-9.561,1.161Z" transform="translate(-91.3 -164)" fill="#c19a57"/>
  </g>
  <g id="组_96" data-name="组 96" transform="translate(98.317 124.018)">
    <path id="路径_211" data-name="路径 211" d="M132.493,190.217a1.079,1.079,0,0,1-1.093-1.093h0v-8.332a1.093,1.093,0,1,1,2.185,0v8.332a1.123,1.123,0,0,1-1.093,1.093Z" transform="translate(-131.4 -179.7)" fill="#c19a57"/>
  </g>
  <g id="组_97" data-name="组 97" transform="translate(71.015 132.897)">
    <path id="路径_212" data-name="路径 212" d="M105.915,198.027A39.9,39.9,0,0,1,96.627,197q-5.327-1.332-5.327-3.688l2.117-.615s.068.546.068.478c.068.2,1.024,1.024,4.1,1.776a37.853,37.853,0,0,0,8.469.956,35.207,35.207,0,0,0,8.537-1.024c3.073-.751,4.1-1.571,4.234-1.776v.068l2.049.068c0,1.5-1.639,2.732-5.19,3.62a39.013,39.013,0,0,1-9.561,1.161Z" transform="translate(-91.3 -192.7)" fill="#c19a57"/>
  </g>
  <g id="组_98" data-name="组 98" transform="translate(2.117 89.483)">
    <path id="路径_213" data-name="路径 213" d="M-10.5,128.5" transform="translate(10.5 -128.5)" fill="none" stroke="#c19a57" stroke-miterlimit="10" stroke-width="3"/>
  </g>
  <g id="组_99" data-name="组 99" transform="translate(46.355 83.903)">
    <path id="路径_214" data-name="路径 214" d="M72.315,131.327a49.143,49.143,0,0,1-11.815-1.3c-3.688-1.024-5.6-2.39-5.6-4.166s1.912-3.142,5.6-4.166a45.915,45.915,0,0,1,11.815-1.3,49.144,49.144,0,0,1,11.815,1.3c3.688,1.024,5.6,2.39,5.6,4.166s-1.912,3.142-5.6,4.166A48.734,48.734,0,0,1,72.315,131.327Zm0-8.81a48.554,48.554,0,0,0-11.269,1.229c-3.278.888-3.961,1.844-3.961,2.049s.683,1.161,3.961,2.049a44.729,44.729,0,0,0,11.269,1.229,48.555,48.555,0,0,0,11.269-1.229c3.278-.888,3.961-1.844,3.961-2.049s-.683-1.161-3.961-2.049a44.728,44.728,0,0,0-11.269-1.229Zm-.137,18.1a47.1,47.1,0,0,1-11-1.3c-4.1-1.024-6.147-2.39-6.215-4.166l2.185-.068c.068.2.956,1.229,4.781,2.185a42.993,42.993,0,0,0,10.449,1.161A46.461,46.461,0,0,0,82.764,137.2c3.756-.956,4.849-1.912,4.917-2.185h0l1.776.137c0,1.707-1.639,3-5.805,4.029a46.3,46.3,0,0,1-11.269,1.366h-.2v.068Z" transform="translate(-54.9 -120.4)" fill="#c19a57"/>
  </g>
  <g id="组_100" data-name="组 100" transform="translate(46.446 89.221)">
    <rect id="矩形_258" data-name="矩形 258" width="2.185" height="37.972" fill="#c19a57"/>
  </g>
</svg>
