<svg width="15" height="15" viewBox="0 0 15 15" fill="none" xmlns="http://www.w3.org/2000/svg">
<path fill-rule="evenodd" clip-rule="evenodd" d="M8.40308 0.892171C8.56566 0.979181 8.66715 1.14861 8.66715 1.33301V3.70951L13.0819 6.23222C13.2377 6.32124 13.3338 6.48691 13.3338 6.66634V13.5001L13.6772 13.5001C13.9534 13.5002 14.1772 13.724 14.1772 14.0002C14.1772 14.2763 13.9533 14.5002 13.6772 14.5001L1.33397 14.4997C1.05782 14.4997 0.833974 14.2758 0.833984 13.9997C0.833995 13.7235 1.05786 13.4997 1.334 13.4997L1.66716 13.4997V5.33301C1.66716 5.16583 1.75071 5.00972 1.8898 4.91698L7.8898 0.916983C8.04323 0.814698 8.2405 0.805162 8.40308 0.892171ZM12.3338 6.9565V13.5001L8.66715 13.5V4.86126L12.3338 6.9565ZM7.66715 2.26727V13.4999L2.66716 13.4997V5.6006L7.66715 2.26727ZM4.16715 6.16634C3.89101 6.16634 3.66715 6.3902 3.66715 6.66634C3.66715 6.94248 3.89101 7.16634 4.16715 7.16634H6.16715C6.4433 7.16634 6.66715 6.94248 6.66715 6.66634C6.66715 6.3902 6.4433 6.16634 6.16715 6.16634H4.16715ZM3.66715 8.66634C3.66715 8.3902 3.89101 8.16634 4.16715 8.16634H6.16715C6.4433 8.16634 6.66715 8.3902 6.66715 8.66634C6.66715 8.94248 6.4433 9.16634 6.16715 9.16634H4.16715C3.89101 9.16634 3.66715 8.94248 3.66715 8.66634ZM4.16715 10.1663C3.89101 10.1663 3.66715 10.3902 3.66715 10.6663C3.66715 10.9425 3.89101 11.1663 4.16715 11.1663H6.16715C6.4433 11.1663 6.66715 10.9425 6.66715 10.6663C6.66715 10.3902 6.4433 10.1663 6.16715 10.1663H4.16715ZM9.33382 7.99967C9.33382 7.72353 9.55768 7.49967 9.83382 7.49967H11.1672C11.4433 7.49967 11.6672 7.72353 11.6672 7.99967C11.6672 8.27582 11.4433 8.49967 11.1672 8.49967H9.83382C9.55768 8.49967 9.33382 8.27582 9.33382 7.99967ZM9.83382 9.49967C9.55768 9.49967 9.33382 9.72353 9.33382 9.99967C9.33382 10.2758 9.55768 10.4997 9.83382 10.4997H11.1672C11.4433 10.4997 11.6672 10.2758 11.6672 9.99967C11.6672 9.72353 11.4433 9.49967 11.1672 9.49967H9.83382Z" fill="white"/>
</svg>
