<svg xmlns="http://www.w3.org/2000/svg" width="1021.6" height="371.491" viewBox="0 0 1021.6 371.491"><path d="M34.4,61.554h86.136V-296.463H34.4Zm168.422,0h86.136V-57.3h41.865C406.372-57.3,472.3-94.838,472.3-180.011c0-88.542-64.963-116.452-143.881-116.452H202.822Zm86.136-186.708V-228.613h35.128c41.384,0,64.482,12.511,64.482,48.6,0,35.128-20.211,54.857-62.076,54.857ZM533.41,61.554h86.136V-75.108H741.773v-71.7H619.546v-78.437H761.983v-71.218H533.41Zm385.927,6.737C1005.955,68.291,1056,15.839,1056-43.83c0-50.527-26.466-80.361-70.737-98.166l-44.752-17.8c-31.76-12.511-54.376-20.211-54.376-39.94,0-19.248,16.361-29.835,42.827-29.835,27.91,0,50.045,9.624,73.625,27.429l42.827-53.9C1014.135-287.32,970.345-303.2,928.962-303.2c-76.031,0-129.926,48.121-129.926,108.271,0,51.97,35.128,83.249,72.662,98.166l45.715,19.248c30.8,12.993,50.527,19.729,50.527,40.421,0,19.248-14.917,31.278-46.677,31.278-28.391,0-61.594-14.917-87.1-36.572L785.562,16.8C822.615,50.967,872.661,68.291,919.338,68.291Z" transform="translate(-34.4 303.2)"/></svg>