<svg xmlns="http://www.w3.org/2000/svg" width="1530.34" height="262.48" viewBox="0 0 1530.34 262.48"><path d="M29.24,0H188.36V-51H90.1V-252.96H29.24ZM302.26-105.06l5.44-21.42c6.46-25.16,13.26-54.74,19.38-81.26h1.36c6.8,25.84,13.26,56.1,20.06,81.26l5.44,21.42ZM380.12,0h63.92L365.5-252.96H292.74L214.2,0h61.88L290.7-58.14h74.8ZM566.1,4.76c61.2,0,96.56-37.06,96.56-79.22,0-35.7-18.7-56.78-49.98-69.36L581.06-156.4c-22.44-8.84-38.42-14.28-38.42-28.22,0-13.6,11.56-21.08,30.26-21.08,19.72,0,35.36,6.8,52.02,19.38l30.26-38.08c-22.1-22.1-53.04-33.32-82.28-33.32-53.72,0-91.8,34-91.8,76.5,0,36.72,24.82,58.82,51.34,69.36l32.3,13.6c21.76,9.18,35.7,13.94,35.7,28.56,0,13.6-10.54,22.1-32.98,22.1-20.06,0-43.52-10.54-61.54-25.84L471.58-31.62C497.76-7.48,533.12,4.76,566.1,4.76ZM762.96,0h60.86V-202.64H892.5v-50.32H694.62v50.32h68.34ZM948.6,0h60.86V-252.96H948.6Zm136,0h57.8V-83.98c0-30.6-5.1-65.28-7.82-93.5h1.7l24.82,55.42L1223.66,0h61.88V-252.96h-57.8v83.64c0,30.26,4.76,66.64,8.16,93.5h-1.7l-24.82-56.1-62.9-121.04H1084.6Zm390.66,4.76c35.36,0,66.64-13.94,84.32-30.94V-144.5H1465.4v49.64h40.12v40.8c-5.44,4.08-14.96,6.46-24.14,6.46-46.92,0-69.36-29.24-69.36-79.56,0-49.3,26.86-78.54,64.26-78.54,21.08,0,34.34,8.5,46.58,19.72l32.3-38.76c-17.34-17.34-43.86-32.98-80.92-32.98-67.66,0-124.44,48.28-124.44,132.6C1349.8-39.44,1404.88,4.76,1475.26,4.76Z" transform="translate(-29.24 257.72)"/></svg>