<svg xmlns="http://www.w3.org/2000/svg" xmlns:xlink="http://www.w3.org/1999/xlink" width="1920" height="560" viewBox="0 0 1920 560">
  <defs>
    <clipPath id="clip-path">
      <rect id="矩形_260" data-name="矩形 260" width="1920" height="560" fill="#ddd1b1" opacity="0.4"/>
    </clipPath>
    <radialGradient id="radial-gradient" cx="0.495" cy="0.524" r="3.746" gradientTransform="matrix(0.476, -0.883, 0.898, 0.468, -39.083, 25.747)" gradientUnits="objectBoundingBox">
      <stop offset="0" stop-color="#e6a53a"/>
      <stop offset="0.026" stop-color="#e7a944"/>
      <stop offset="0.157" stop-color="#edc075"/>
      <stop offset="0.291" stop-color="#f2d39f"/>
      <stop offset="0.427" stop-color="#f7e3c2"/>
      <stop offset="0.565" stop-color="#faefdc"/>
      <stop offset="0.704" stop-color="#fdf8ef"/>
      <stop offset="0.848" stop-color="#fefdfb"/>
      <stop offset="1" stop-color="#fff"/>
    </radialGradient>
    <radialGradient id="radial-gradient-2" cx="0.496" cy="0.523" r="3.631" gradientTransform="matrix(0.455, -0.883, 0.858, 0.468, -35.446, 23.821)" xlink:href="#radial-gradient"/>
    <radialGradient id="radial-gradient-3" cx="0.495" cy="0.522" r="3.446" gradientTransform="matrix(0.434, -0.883, 0.819, 0.468, -32.4, 22.211)" xlink:href="#radial-gradient"/>
    <radialGradient id="radial-gradient-4" cx="0.495" cy="0.522" r="3.304" gradientTransform="matrix(0.414, -0.883, 0.781, 0.468, -29.837, 20.869)" xlink:href="#radial-gradient"/>
    <radialGradient id="radial-gradient-5" cx="0.495" cy="0.521" r="3.114" gradientTransform="matrix(0.42, -0.883, 0.792, 0.468, -28.245, 19.68)" xlink:href="#radial-gradient"/>
    <radialGradient id="radial-gradient-6" cx="0.496" cy="0.519" r="2.862" gradientTransform="matrix(0.441, -0.883, 0.831, 0.468, -27.232, 18.664)" xlink:href="#radial-gradient"/>
    <radialGradient id="radial-gradient-7" cx="0.496" cy="0.518" r="2.653" gradientTransform="matrix(0.462, -0.883, 0.87, 0.468, -26.463, 17.834)" xlink:href="#radial-gradient"/>
    <radialGradient id="radial-gradient-8" cx="0.496" cy="0.516" r="2.451" gradientTransform="matrix(0.483, -0.883, 0.912, 0.468, -25.933, 17.176)" xlink:href="#radial-gradient"/>
    <radialGradient id="radial-gradient-9" cx="0.497" cy="0.514" r="2.209" gradientTransform="matrix(0.507, -0.883, 0.955, 0.468, -25.645, 16.68)" xlink:href="#radial-gradient"/>
    <radialGradient id="radial-gradient-10" cx="0.497" cy="0.513" r="2.012" gradientTransform="matrix(0.532, -0.883, 1.002, 0.468, -25.613, 16.338)" xlink:href="#radial-gradient"/>
    <radialGradient id="radial-gradient-11" cx="0.497" cy="0.512" r="1.925" gradientTransform="matrix(0.524, -0.883, 0.989, 0.468, -23.674, 15.23)" xlink:href="#radial-gradient"/>
    <radialGradient id="radial-gradient-12" cx="0.498" cy="0.512" r="1.855" gradientTransform="matrix(0.5, -0.883, 0.943, 0.468, -21.06, 13.875)" xlink:href="#radial-gradient"/>
    <radialGradient id="radial-gradient-13" cx="0.498" cy="0.511" r="1.802" gradientTransform="matrix(0.477, -0.883, 0.9, 0.468, -18.909, 12.751)" xlink:href="#radial-gradient"/>
    <radialGradient id="radial-gradient-14" cx="0.498" cy="0.511" r="1.745" gradientTransform="matrix(0.455, -0.883, 0.859, 0.468, -17.122, 11.814)" xlink:href="#radial-gradient"/>
    <radialGradient id="radial-gradient-15" cx="0.498" cy="0.511" r="1.653" gradientTransform="matrix(0.434, -0.883, 0.819, 0.468, -15.625, 11.032)" xlink:href="#radial-gradient"/>
    <radialGradient id="radial-gradient-16" cx="0.498" cy="0.511" r="1.583" gradientTransform="matrix(0.414, -0.883, 0.781, 0.468, -14.366, 10.381)" xlink:href="#radial-gradient"/>
    <radialGradient id="radial-gradient-17" cx="0.498" cy="0.51" r="1.494" gradientTransform="matrix(0.419, -0.883, 0.791, 0.468, -13.591, 9.807)" xlink:href="#radial-gradient"/>
    <radialGradient id="radial-gradient-18" cx="0.498" cy="0.509" r="1.373" gradientTransform="matrix(0.44, -0.883, 0.829, 0.468, -13.114, 9.314)" xlink:href="#radial-gradient"/>
    <radialGradient id="radial-gradient-19" cx="0.498" cy="0.509" r="1.272" gradientTransform="matrix(0.461, -0.883, 0.869, 0.468, -12.757, 8.913)" xlink:href="#radial-gradient"/>
    <radialGradient id="radial-gradient-20" cx="0.498" cy="0.508" r="1.175" gradientTransform="matrix(0.483, -0.883, 0.91, 0.468, -12.515, 8.595)" xlink:href="#radial-gradient"/>
    <radialGradient id="radial-gradient-21" cx="0.498" cy="0.507" r="1.06" gradientTransform="matrix(0.506, -0.883, 0.954, 0.468, -12.39, 8.354)" xlink:href="#radial-gradient"/>
    <radialGradient id="radial-gradient-22" cx="0.499" cy="0.506" r="0.965" gradientTransform="matrix(0.531, -0.883, 1.001, 0.468, -12.39, 8.188)" xlink:href="#radial-gradient"/>
    <radialGradient id="radial-gradient-23" cx="0.499" cy="0.506" r="0.923" gradientTransform="matrix(0.523, -0.883, 0.986, 0.468, -11.437, 7.649)" xlink:href="#radial-gradient"/>
    <radialGradient id="radial-gradient-24" cx="0.499" cy="0.506" r="0.889" gradientTransform="matrix(0.498, -0.883, 0.94, 0.468, -10.164, 6.998)" xlink:href="#radial-gradient"/>
    <radialGradient id="radial-gradient-25" cx="0.499" cy="0.505" r="0.864" gradientTransform="matrix(0.476, -0.883, 0.897, 0.468, -9.116, 6.459)" xlink:href="#radial-gradient"/>
    <radialGradient id="radial-gradient-26" cx="0.499" cy="0.505" r="0.836" gradientTransform="matrix(0.454, -0.883, 0.856, 0.468, -8.245, 6.01)" xlink:href="#radial-gradient"/>
    <radialGradient id="radial-gradient-27" cx="0.499" cy="0.505" r="0.791" gradientTransform="matrix(0.433, -0.883, 0.816, 0.468, -7.513, 5.636)" xlink:href="#radial-gradient"/>
    <radialGradient id="radial-gradient-28" cx="0.499" cy="0.505" r="0.758" gradientTransform="matrix(0.412, -0.883, 0.778, 0.468, -6.896, 5.324)" xlink:href="#radial-gradient"/>
    <radialGradient id="radial-gradient-29" cx="0.499" cy="0.505" r="0.714" gradientTransform="matrix(0.418, -0.883, 0.789, 0.468, -6.532, 5.049)" xlink:href="#radial-gradient"/>
    <radialGradient id="radial-gradient-30" cx="0.499" cy="0.504" r="0.656" gradientTransform="matrix(0.439, -0.883, 0.828, 0.468, -6.321, 4.813)" xlink:href="#radial-gradient"/>
    <radialGradient id="radial-gradient-31" cx="0.499" cy="0.504" r="0.607" gradientTransform="matrix(0.46, -0.883, 0.868, 0.468, -6.166, 4.621)" xlink:href="#radial-gradient"/>
    <radialGradient id="radial-gradient-32" cx="0.498" cy="0.503" r="0.561" gradientTransform="matrix(0.482, -0.883, 0.909, 0.468, -6.065, 4.47)" xlink:href="#radial-gradient"/>
    <radialGradient id="radial-gradient-33" cx="0.498" cy="0.503" r="0.506" gradientTransform="matrix(0.505, -0.883, 0.953, 0.468, -6.024, 4.355)" xlink:href="#radial-gradient"/>
  </defs>
  <g id="蒙版组_20" data-name="蒙版组 20" opacity="0.3" clip-path="url(#clip-path)" style="isolation: isolate">
    <g id="组_847" data-name="组 847" transform="translate(-385.356 -826.779)">
      <g id="组_845" data-name="组 845" transform="translate(1314.257)" opacity="0.75" style="mix-blend-mode: multiply;isolation: isolate">
        <g id="组_780" data-name="组 780" transform="translate(587.674 671.441)">
          <g id="组_779" data-name="组 779">
            <path id="路径_10156" data-name="路径 10156" d="M-1538.929,1831.473a2.125,2.125,0,0,1,.336,1.684l-23.479,105.14a2,2,0,0,1-1.332,1.487l-98.612,31.086a1.875,1.875,0,0,1-1.889-.466l-75.134-74.052a2.1,2.1,0,0,1-.561-1.948l23.479-105.141a2,2,0,0,1,1.332-1.488l98.612-31.084a1.872,1.872,0,0,1,1.889.466l75.133,74.05A2.059,2.059,0,0,1-1538.929,1831.473Zm-26.669,104.748,22.965-102.849-73.5-72.441-96.462,30.407-22.967,102.849,73.5,72.442Z" transform="translate(1739.651 -1756.603)" fill="url(#radial-gradient)"/>
          </g>
        </g>
        <g id="组_782" data-name="组 782" transform="translate(579.029 667.438)">
          <g id="组_781" data-name="组 781">
            <path id="路径_10157" data-name="路径 10157" d="M-1528.39,1840.225a2.121,2.121,0,0,1,.289,1.855l-34.177,109.144a1.974,1.974,0,0,1-1.451,1.359l-107.255,23.358a1.893,1.893,0,0,1-1.844-.639l-73.078-85.785a2.108,2.108,0,0,1-.4-1.992l34.178-109.141a1.981,1.981,0,0,1,1.451-1.36l107.255-23.357a1.891,1.891,0,0,1,1.843.638l73.078,85.784C-1528.459,1840.133-1528.425,1840.177-1528.39,1840.225Zm-37.228,108.609,33.477-106.908-71.583-84.032-105.06,22.878-33.478,106.906,71.584,84.033Z" transform="translate(1746.401 -1753.623)" fill="url(#radial-gradient-2)"/>
          </g>
        </g>
        <g id="组_784" data-name="组 784" transform="translate(570.554 664.237)">
          <g id="组_783" data-name="组 783">
            <path id="路径_10158" data-name="路径 10158" d="M-1587.92,1752.057l69.862,98.02a2.113,2.113,0,0,1,.229,2.021L-1563.7,1964.44a1.947,1.947,0,0,1-1.557,1.221l-115.731,14.326a1.9,1.9,0,0,1-1.784-.8l-69.862-98.018a2.12,2.12,0,0,1-.229-2.021l45.872-112.343a1.944,1.944,0,0,1,1.557-1.221l115.731-14.327A1.9,1.9,0,0,1-1587.92,1752.057Zm66.079,99.517-68.519-96.137-113.5,14.05-44.987,110.181,68.519,96.136,113.5-14.049Z" transform="translate(1753.02 -1751.239)" fill="url(#radial-gradient-3)"/>
          </g>
        </g>
        <g id="组_786" data-name="组 786" transform="translate(562.37 661.981)">
          <g id="组_785" data-name="组 785">
            <path id="路径_10159" data-name="路径 10159" d="M-1573.452,1750.375c.033.048.064.1.095.146l65.374,110.672a2.129,2.129,0,0,1,.06,2.035l-58.544,114.6a1.935,1.935,0,0,1-1.655,1.074l-123.918,3.928a1.957,1.957,0,0,1-1.708-.963l-65.372-110.672a2.129,2.129,0,0,1-.061-2.035l58.545-114.6a1.928,1.928,0,0,1,1.653-1.072l123.919-3.928A1.911,1.911,0,0,1-1573.452,1750.375Zm61.575,111.964-64.193-108.674-121.675,3.857-57.483,112.53,64.19,108.672,121.676-3.857Z" transform="translate(1759.411 -1749.559)" fill="url(#radial-gradient-4)"/>
          </g>
        </g>
        <g id="组_788" data-name="组 788" transform="translate(554.613 652.937)">
          <g id="组_787" data-name="组 787">
            <path id="路径_10160" data-name="路径 10160" d="M-1558.119,1751.527a2.123,2.123,0,0,1,.179.3l59.494,123.644a2.116,2.116,0,0,1-.109,2.032l-72.177,115.758a1.909,1.909,0,0,1-1.736.918l-131.673-7.885a1.918,1.918,0,0,1-1.624-1.116l-59.5-123.644a2.118,2.118,0,0,1,.11-2.032l72.177-115.758a1.913,1.913,0,0,1,1.737-.92l131.673,7.885A1.92,1.92,0,0,1-1558.119,1751.527Zm55.7,124.734-58.486-121.548-129.432-7.75-70.949,113.789L-1702.8,1982.3l129.433,7.75Z" transform="translate(1765.468 -1742.825)" fill="url(#radial-gradient-5)"/>
          </g>
        </g>
        <g id="组_790" data-name="组 790" transform="translate(547.439 639.759)">
          <g id="组_789" data-name="组 789">
            <path id="路径_10161" data-name="路径 10161" d="M-1542,1754.992a2,2,0,0,1,.247.463l52.119,136.82a2.115,2.115,0,0,1-.275,2.015l-86.728,115.66a1.9,1.9,0,0,1-1.807.757l-138.846-21.16a1.952,1.952,0,0,1-1.525-1.26l-52.12-136.819a2.122,2.122,0,0,1,.276-2.016l86.728-115.661a1.9,1.9,0,0,1,1.806-.757l138.848,21.16A1.934,1.934,0,0,1-1542,1754.992Zm48.344,137.7-51.287-134.636-136.629-20.822-85.34,113.812,51.286,134.636,136.628,20.822Z" transform="translate(1771.07 -1733.014)" fill="url(#radial-gradient-6)"/>
          </g>
        </g>
        <g id="组_792" data-name="组 792" transform="translate(541.009 626.512)">
          <g id="组_791" data-name="组 791">
            <path id="路径_10162" data-name="路径 10162" d="M-1525.178,1759.894a2.066,2.066,0,0,1,.3.631l43.139,150.067a2.105,2.105,0,0,1-.443,1.982l-102.138,114.143a1.894,1.894,0,0,1-1.862.59l-145.278-35.926a1.993,1.993,0,0,1-1.414-1.4l-43.138-150.067a2.1,2.1,0,0,1,.443-1.982l102.137-114.144a1.893,1.893,0,0,1,1.862-.59l145.277,35.928A1.928,1.928,0,0,1-1525.178,1759.894Zm39.4,150.749-42.494-147.816-143.092-35.387-100.6,112.427,42.492,147.816,143.092,35.386Z" transform="translate(1776.091 -1723.149)" fill="url(#radial-gradient-7)"/>
          </g>
        </g>
        <g id="组_794" data-name="组 794" transform="translate(535.5 613.347)">
          <g id="组_793" data-name="组 793">
            <path id="路径_10163" data-name="路径 10163" d="M-1507.773,1766.362a2.048,2.048,0,0,1,.346.8l32.45,163.234a2.1,2.1,0,0,1-.606,1.933l-118.336,111.034a1.879,1.879,0,0,1-1.9.418l-150.785-52.2a2.006,2.006,0,0,1-1.293-1.519l-32.45-163.235a2.1,2.1,0,0,1,.607-1.932l118.336-111.035a1.876,1.876,0,0,1,1.9-.417l150.785,52.2A1.952,1.952,0,0,1-1507.773,1766.362Zm28.764,163.72L-1511,1769.147l-148.655-51.46-116.664,109.465,31.991,160.933,148.655,51.462Z" transform="translate(1780.392 -1713.346)" fill="url(#radial-gradient-8)"/>
          </g>
        </g>
        <g id="组_796" data-name="组 796" transform="translate(531.101 600.433)">
          <g id="组_795" data-name="组 795">
            <path id="路径_10164" data-name="路径 10164" d="M-1489.917,1774.529a2.1,2.1,0,0,1,.374.979l19.956,176.146a2.082,2.082,0,0,1-.766,1.872l-135.226,106.166a1.863,1.863,0,0,1-1.931.239l-155.186-69.98a2.032,2.032,0,0,1-1.162-1.63l-19.956-176.146a2.079,2.079,0,0,1,.764-1.871l135.228-106.167a1.861,1.861,0,0,1,1.931-.24l155.186,69.981A1.956,1.956,0,0,1-1489.917,1774.529Zm16.338,176.439-19.69-173.811-153.125-69.053-133.43,104.758,19.692,173.812,153.124,69.052Z" transform="translate(1783.828 -1703.731)" fill="url(#radial-gradient-9)"/>
          </g>
        </g>
        <g id="组_798" data-name="组 798" transform="translate(528.011 587.962)">
          <g id="组_797" data-name="组 797">
            <path id="路径_10165" data-name="路径 10165" d="M-1471.769,1784.516a2.1,2.1,0,0,1,.385,1.155l5.577,188.62a2.066,2.066,0,0,1-.918,1.794l-152.7,99.363a1.866,1.866,0,0,1-1.944.064l-158.275-89.256a2.046,2.046,0,0,1-1.021-1.73l-5.577-188.617a2.061,2.061,0,0,1,.917-1.794l152.7-99.364a1.862,1.862,0,0,1,1.944-.063l158.275,89.253A1.974,1.974,0,0,1-1471.769,1784.516Zm2.045,188.727-5.508-186.27-156.3-88.14-150.792,98.124,5.507,186.267,156.3,88.141Z" transform="translate(1786.241 -1694.445)" fill="url(#radial-gradient-10)"/>
          </g>
        </g>
        <g id="组_800" data-name="组 800" transform="translate(515.674 576.145)">
          <g id="组_799" data-name="组 799">
            <path id="路径_10166" data-name="路径 10166" d="M-1451.151,1796.441a2.111,2.111,0,0,1,.383,1.334l-10.768,200.434a2.043,2.043,0,0,1-1.063,1.7l-170.611,90.459a1.866,1.866,0,0,1-1.943-.118L-1795,1980.276a2.07,2.07,0,0,1-.873-1.816l10.766-200.438a2.053,2.053,0,0,1,1.062-1.7l170.614-90.455a1.866,1.866,0,0,1,1.943.117l159.845,109.979A1.923,1.923,0,0,1-1451.151,1796.441Zm-14.2,200.365,10.642-198.088-157.969-108.689-168.61,89.4-10.641,198.091L-1633.96,2086.2Z" transform="translate(1795.874 -1685.645)" fill="url(#radial-gradient-11)"/>
          </g>
        </g>
        <g id="组_802" data-name="组 802" transform="translate(497.477 565.21)">
          <g id="组_801" data-name="组 801">
            <path id="路径_10167" data-name="路径 10167" d="M-1428.966,1810.414a2.113,2.113,0,0,1,.365,1.511l-29.13,211.372a2.018,2.018,0,0,1-1.2,1.6l-188.809,79.275a1.87,1.87,0,0,1-1.925-.292l-159.677-132.1a2.085,2.085,0,0,1-.718-1.891l29.132-211.371a2.017,2.017,0,0,1,1.2-1.6l188.809-79.275a1.867,1.867,0,0,1,1.925.291l159.677,132.094A2.049,2.049,0,0,1-1428.966,1810.414Zm-32.451,211.138,28.813-209.045-157.917-130.64-186.724,78.4-28.813,209.046,157.915,130.638Z" transform="translate(1810.083 -1677.502)" fill="url(#radial-gradient-12)"/>
          </g>
        </g>
        <g id="组_804" data-name="组 804" transform="translate(479.18 555.406)">
          <g id="组_803" data-name="组 803">
            <path id="路径_10168" data-name="路径 10168" d="M-1406.66,1826.537a2.106,2.106,0,0,1,.333,1.685l-49.56,221.175a2,2,0,0,1-1.328,1.485l-207.105,65.657a1.884,1.884,0,0,1-1.894-.467l-157.544-155.52a2.1,2.1,0,0,1-.56-1.948l49.563-221.175a2,2,0,0,1,1.327-1.484l207.107-65.657a1.881,1.881,0,0,1,1.894.468l157.542,155.518A1.965,1.965,0,0,1-1406.66,1826.537Zm-52.752,220.786,49.048-218.889-155.91-153.905-204.958,64.976-49.049,218.888L-1664.37,2112.3Z" transform="translate(1824.37 -1670.202)" fill="url(#radial-gradient-13)"/>
          </g>
        </g>
        <g id="组_806" data-name="组 806" transform="translate(460.997 547.001)">
          <g id="组_805" data-name="组 805">
            <path id="路径_10169" data-name="路径 10169" d="M-1384.493,1844.9a2.121,2.121,0,0,1,.29,1.857l-72.08,229.578a1.968,1.968,0,0,1-1.448,1.355l-225.289,49.446a1.883,1.883,0,0,1-1.848-.639l-153.213-180.134a2.132,2.132,0,0,1-.395-1.993l72.079-229.578a1.977,1.977,0,0,1,1.448-1.355l225.29-49.446a1.886,1.886,0,0,1,1.847.638l153.213,180.136C-1384.562,1844.8-1384.526,1844.851-1384.493,1844.9Zm-75.132,229.044,71.381-227.345-151.718-178.377-223.1,48.962-71.38,227.345,151.72,178.379Z" transform="translate(1838.572 -1663.944)" fill="url(#radial-gradient-14)"/>
          </g>
        </g>
        <g id="组_808" data-name="组 808" transform="translate(443.155 540.286)">
          <g id="组_807" data-name="组 807">
            <path id="路径_10170" data-name="路径 10170" d="M-1509.187,1659.761v0l146.447,205.8a2.126,2.126,0,0,1,.228,2.021l-96.686,236.295a1.957,1.957,0,0,1-1.556,1.219l-243.131,30.5a1.907,1.907,0,0,1-1.787-.8h0l-146.445-205.8a2.12,2.12,0,0,1-.229-2.021l96.687-236.294a1.955,1.955,0,0,1,1.555-1.219l243.131-30.494A1.906,1.906,0,0,1-1509.187,1659.761Zm142.663,207.3-145.1-203.917-240.9,30.217-95.8,234.133,145.1,203.917,240.9-30.216Z" transform="translate(1852.502 -1658.943)" fill="url(#radial-gradient-15)"/>
          </g>
        </g>
        <g id="组_810" data-name="组 810" transform="translate(425.923 535.561)">
          <g id="组_809" data-name="组 809">
            <path id="路径_10171" data-name="路径 10171" d="M-1478.737,1656.245c.033.048.065.1.1.148l137,232.343a2.122,2.122,0,0,1,.059,2.035l-123.359,241.019a1.93,1.93,0,0,1-1.649,1.073l-260.361,8.674a1.97,1.97,0,0,1-1.715-.963l-137-232.342a2.123,2.123,0,0,1-.06-2.035l123.359-241.02a1.929,1.929,0,0,1,1.651-1.072l260.361-8.677A1.913,1.913,0,0,1-1478.737,1656.245Zm133.207,233.635-135.824-230.342-258.119,8.6-122.3,238.948,135.824,230.341,258.119-8.6Z" transform="translate(1865.958 -1655.427)" fill="url(#radial-gradient-16)"/>
          </g>
        </g>
        <g id="组_812" data-name="组 812" transform="translate(409.592 517.026)">
          <g id="组_811" data-name="组 811">
            <path id="路径_10172" data-name="路径 10172" d="M-1446.476,1658.564a2.237,2.237,0,0,1,.18.3l124.651,259.552a2.122,2.122,0,0,1-.111,2.032L-1473.8,2163.886a1.911,1.911,0,0,1-1.731.917l-276.695-16.121a1.931,1.931,0,0,1-1.628-1.119L-1878.5,1888.01a2.117,2.117,0,0,1,.113-2.031l152.041-243.433a1.914,1.914,0,0,1,1.731-.919l276.695,16.121A1.922,1.922,0,0,1-1446.476,1658.564ZM-1325.62,1919.2l-123.64-257.453-274.456-15.989-150.813,241.466,123.642,257.451,274.455,15.992Z" transform="translate(1878.711 -1641.624)" fill="url(#radial-gradient-17)"/>
          </g>
        </g>
        <g id="组_814" data-name="组 814" transform="translate(394.476 489.388)">
          <g id="组_813" data-name="组 813">
            <path id="路径_10173" data-name="路径 10173" d="M-1412.552,1665.852a2.038,2.038,0,0,1,.25.466l109.156,287.192a2.11,2.11,0,0,1-.279,2.013l-182.654,243.2a1.9,1.9,0,0,1-1.8.756l-291.808-43.988a1.958,1.958,0,0,1-1.529-1.262l-109.157-287.192a2.123,2.123,0,0,1,.279-2.015l182.656-243.2a1.9,1.9,0,0,1,1.8-.757l291.81,43.988A1.933,1.933,0,0,1-1412.552,1665.852Zm105.382,288.074L-1415.5,1668.919l-289.588-43.652-181.269,241.355,108.326,285.007,289.588,43.652Z" transform="translate(1890.514 -1621.046)" fill="url(#radial-gradient-18)"/>
          </g>
        </g>
        <g id="组_816" data-name="组 816" transform="translate(380.92 461.607)">
          <g id="组_815" data-name="组 815">
            <path id="路径_10174" data-name="路径 10174" d="M-1377.159,1676.168a2.08,2.08,0,0,1,.3.634l90.291,314.973a2.109,2.109,0,0,1-.447,1.979l-215.076,239.981a1.886,1.886,0,0,1-1.858.591l-305.365-74.992a1.988,1.988,0,0,1-1.418-1.4l-90.291-314.972a2.107,2.107,0,0,1,.446-1.98L-1685.495,1601a1.885,1.885,0,0,1,1.858-.59l305.365,74.992A1.943,1.943,0,0,1-1377.159,1676.168Zm86.551,315.654-89.644-312.72-303.182-74.453-213.542,238.267,89.645,312.721,303.181,74.453Z" transform="translate(1901.099 -1600.358)" fill="url(#radial-gradient-19)"/>
          </g>
        </g>
        <g id="组_818" data-name="组 818" transform="translate(369.296 433.998)">
          <g id="组_817" data-name="组 817">
            <path id="路径_10175" data-name="路径 10175" d="M-1340.537,1689.787a2.085,2.085,0,0,1,.346.8l67.839,342.582a2.094,2.094,0,0,1-.607,1.934L-1522.11,2268.52a1.876,1.876,0,0,1-1.9.417L-1841,2159.773a2.01,2.01,0,0,1-1.295-1.521l-67.839-342.583a2.1,2.1,0,0,1,.607-1.934l249.15-233.415a1.875,1.875,0,0,1,1.9-.417l316.992,109.167A1.957,1.957,0,0,1-1340.537,1689.787Zm64.154,343.064-67.384-340.277-314.858-108.432-247.48,231.851,67.384,340.277,314.856,108.431Z" transform="translate(1910.176 -1579.801)" fill="url(#radial-gradient-20)"/>
          </g>
        </g>
        <g id="组_820" data-name="组 820" transform="translate(359.996 406.923)">
          <g id="组_819" data-name="组 819">
            <path id="路径_10176" data-name="路径 10176" d="M-1302.967,1706.971a2.111,2.111,0,0,1,.374.982l41.606,369.657a2.084,2.084,0,0,1-.767,1.871l-284.683,223.143a1.866,1.866,0,0,1-1.927.242l-326.289-146.515a2.036,2.036,0,0,1-1.166-1.634l-41.6-369.657a2.084,2.084,0,0,1,.767-1.869l284.683-223.144a1.871,1.871,0,0,1,1.927-.242l326.288,146.515A1.957,1.957,0,0,1-1302.967,1706.971Zm37.991,369.95L-1306.32,1709.6l-324.225-145.587-282.889,221.736,41.343,367.319,324.226,145.59Z" transform="translate(1917.437 -1559.639)" fill="url(#radial-gradient-21)"/>
          </g>
        </g>
        <g id="组_822" data-name="组 822" transform="translate(353.444 380.778)">
          <g id="组_821" data-name="组 821">
            <path id="路径_10177" data-name="路径 10177" d="M-1264.781,1727.99a2.1,2.1,0,0,1,.386,1.157l11.409,395.8a2.061,2.061,0,0,1-.917,1.792l-321.433,208.8a1.861,1.861,0,0,1-1.94.063l-332.841-187a2.044,2.044,0,0,1-1.025-1.732l-11.41-395.8a2.063,2.063,0,0,1,.919-1.793l321.432-208.8a1.862,1.862,0,0,1,1.94-.063l332.841,187A1.961,1.961,0,0,1-1264.781,1727.99Zm7.878,395.909-11.343-393.451-330.862-185.887-319.528,207.564,11.343,393.451,330.862,185.887Z" transform="translate(1922.554 -1540.172)" fill="url(#radial-gradient-22)"/>
          </g>
        </g>
        <g id="组_824" data-name="组 824" transform="translate(327.178 356.007)">
          <g id="组_823" data-name="组 823">
            <path id="路径_10178" data-name="路径 10178" d="M-1221.35,1753.086a2.1,2.1,0,0,1,.383,1.335l-22.9,420.575a2.038,2.038,0,0,1-1.065,1.7l-359.108,190.031a1.864,1.864,0,0,1-1.937-.113l-336.205-230.543a2.075,2.075,0,0,1-.877-1.821l22.9-420.574a2.04,2.04,0,0,1,1.065-1.7l359.108-190.031a1.865,1.865,0,0,1,1.938.114l336.205,230.542A2,2,0,0,1-1221.35,1753.086Zm-26.333,420.505,22.773-418.225-334.327-229.254-357.107,188.972-22.775,418.225,334.328,229.255Z" transform="translate(1943.065 -1521.727)" fill="url(#radial-gradient-23)"/>
          </g>
        </g>
        <g id="组_826" data-name="组 826" transform="translate(288.909 333.091)">
          <g id="组_825" data-name="组 825">
            <path id="路径_10179" data-name="路径 10179" d="M-1174.7,1782.5a2.119,2.119,0,0,1,.367,1.513l-61.457,443.488a2.019,2.019,0,0,1-1.2,1.6l-397.377,166.476a1.871,1.871,0,0,1-1.921-.29l-335.921-277.015a2.1,2.1,0,0,1-.722-1.895l61.457-443.489a2.023,2.023,0,0,1,1.2-1.6l397.377-166.474a1.868,1.868,0,0,1,1.921.288l335.921,277.016A2.044,2.044,0,0,1-1174.7,1782.5Zm-64.773,443.253,61.135-441.161-334.159-275.562-395.295,165.6-61.136,441.161,334.159,275.56Z" transform="translate(1972.948 -1504.664)" fill="url(#radial-gradient-24)"/>
          </g>
        </g>
        <g id="组_828" data-name="组 828" transform="translate(250.433 312.555)">
          <g id="组_827" data-name="组 827">
            <path id="路径_10180" data-name="路径 10180" d="M-1127.789,1816.426a2.113,2.113,0,0,1,.335,1.688l-104.34,464.027a2,2,0,0,1-1.332,1.481l-435.851,137.788a1.877,1.877,0,0,1-1.889-.463l-331.512-326.239a2.1,2.1,0,0,1-.562-1.954L-1898.6,1628.73a2,2,0,0,1,1.331-1.481l435.853-137.79a1.876,1.876,0,0,1,1.889.465l331.51,326.237A2.033,2.033,0,0,1-1127.789,1816.426Zm-107.529,463.636,103.825-461.737L-1461.368,1493.7l-433.706,137.109L-1998.9,2092.544l329.876,324.627Z" transform="translate(2002.991 -1489.372)" fill="url(#radial-gradient-25)"/>
          </g>
        </g>
        <g id="组_830" data-name="组 830" transform="translate(212.196 294.96)">
          <g id="组_829" data-name="组 829">
            <path id="路径_10181" data-name="路径 10181" d="M-1081.172,1855.062a2.118,2.118,0,0,1,.288,1.858l-151.6,481.622a1.975,1.975,0,0,1-1.448,1.356l-474.09,103.646a1.89,1.89,0,0,1-1.844-.636l-322.485-377.975a2.117,2.117,0,0,1-.4-2l151.6-481.623a1.968,1.968,0,0,1,1.448-1.355l474.09-103.646a1.886,1.886,0,0,1,1.843.635l322.486,377.976C-1081.242,1854.969-1081.207,1855.014-1081.172,1855.062Zm-154.653,481.086,150.9-479.387-320.99-376.221-471.9,103.166-150.9,479.388,320.99,376.221Z" transform="translate(2032.85 -1476.27)" fill="url(#radial-gradient-26)"/>
          </g>
        </g>
        <g id="组_832" data-name="组 832" transform="translate(174.69 280.908)">
          <g id="组_831" data-name="组 831">
            <path id="路径_10182" data-name="路径 10182" d="M-1035.447,1898.552a2.121,2.121,0,0,1,.228,2.024l-203.25,495.672a1.957,1.957,0,0,1-1.556,1.219l-511.6,63.746a1.915,1.915,0,0,1-1.784-.8l-308.345-431.929h0a2.122,2.122,0,0,1-.229-2.024l203.251-495.671a1.948,1.948,0,0,1,1.555-1.218l511.6-63.746a1.9,1.9,0,0,1,1.784.8l308.348,431.927ZM-1241.6,2393.559l202.365-493.508-307-430.046-509.37,63.468-202.365,493.51,307,430.046Z" transform="translate(2062.138 -1465.807)" fill="url(#radial-gradient-27)"/>
          </g>
        </g>
        <g id="组_834" data-name="组 834" transform="translate(138.47 271.04)">
          <g id="组_833" data-name="组 833">
            <path id="路径_10183" data-name="路径 10183" d="M-1279.881,1459.277c.033.046.065.1.094.144L-991.2,1947.15a2.118,2.118,0,0,1,.06,2.04l-259.224,505.54a1.934,1.934,0,0,1-1.651,1.073l-547.816,17.812a1.928,1.928,0,0,1-1.711-.963l-288.589-487.728a2.123,2.123,0,0,1-.061-2.04l259.225-505.541a1.932,1.932,0,0,1,1.649-1.071l547.817-17.812A1.913,1.913,0,0,1-1279.881,1459.277ZM-995.09,1948.3l-287.406-485.73-545.577,17.739-258.163,503.468,287.407,485.731,545.576-17.74Z" transform="translate(2090.421 -1458.458)" fill="url(#radial-gradient-28)"/>
          </g>
        </g>
        <g id="组_836" data-name="组 836" transform="translate(104.146 231.635)">
          <g id="组_835" data-name="组 835">
            <path id="路径_10184" data-name="路径 10184" d="M-1212.166,1464.322a2.037,2.037,0,0,1,.177.3l262.722,544.947a2.128,2.128,0,0,1-.109,2.038L-1268.8,2522.166a1.918,1.918,0,0,1-1.735.915l-582.139-34.39a1.932,1.932,0,0,1-1.624-1.115l-262.72-544.946a2.123,2.123,0,0,1,.109-2.037l319.42-510.556a1.91,1.91,0,0,1,1.733-.916l582.139,34.387A1.917,1.917,0,0,1-1212.166,1464.322Zm258.926,546.035-261.71-542.848-579.9-34.255-318.189,508.59,261.708,542.846,579.9,34.258Z" transform="translate(2117.223 -1429.118)" fill="url(#radial-gradient-29)"/>
          </g>
        </g>
        <g id="组_838" data-name="组 838" transform="translate(72.384 173.51)">
          <g id="组_837" data-name="组 837">
            <path id="路径_10185" data-name="路径 10185" d="M-1140.97,1479.7a2.039,2.039,0,0,1,.247.461l230.246,603.072a2.112,2.112,0,0,1-.278,2.018l-383.655,510.021a1.9,1.9,0,0,1-1.8.755l-613.9-93.05a1.967,1.967,0,0,1-1.525-1.257l-230.246-603.071a2.112,2.112,0,0,1,.278-2.019l383.656-510.023a1.89,1.89,0,0,1,1.8-.753l613.9,93.048A1.925,1.925,0,0,1-1140.97,1479.7ZM-914.5,2083.658l-229.412-600.889-611.683-92.711-382.268,508.172,229.414,600.889,611.683,92.711Z" transform="translate(2142.025 -1385.837)" fill="url(#radial-gradient-30)"/>
          </g>
        </g>
        <g id="组_840" data-name="组 840" transform="translate(43.911 115.069)">
          <g id="组_839" data-name="组 839">
            <path id="路径_10186" data-name="路径 10186" d="M-1066.7,1501.444a2.054,2.054,0,0,1,.3.63l190.689,661.51a2.112,2.112,0,0,1-.443,1.987l-451.684,503.208a1.893,1.893,0,0,1-1.86.585l-642.375-158.3a1.984,1.984,0,0,1-1.414-1.393l-190.692-661.513a2.116,2.116,0,0,1,.445-1.986l451.684-503.206a1.881,1.881,0,0,1,1.859-.586l642.373,158.3A1.939,1.939,0,0,1-1066.7,1501.444Zm186.951,662.191-190.041-659.258-640.193-157.765-450.146,501.494,190.041,659.259,640.193,157.765Z" transform="translate(2164.259 -1342.322)" fill="url(#radial-gradient-31)"/>
          </g>
        </g>
        <g id="组_842" data-name="组 842" transform="translate(19.506 56.982)">
          <g id="组_841" data-name="组 841">
            <path id="路径_10187" data-name="路径 10187" d="M-989.861,1530.113a2.038,2.038,0,0,1,.344.8l143.6,719.6a2.1,2.1,0,0,1-.608,1.937L-1369.7,2741.823a1.871,1.871,0,0,1-1.9.415l-666.781-230.227a2.013,2.013,0,0,1-1.293-1.518l-143.6-719.6a2.092,2.092,0,0,1,.608-1.936l523.177-489.372a1.871,1.871,0,0,1,1.9-.414L-990.809,1529.4A1.942,1.942,0,0,1-989.861,1530.113ZM-849.945,2250.2-993.09,1532.9l-664.651-229.491-521.5,487.8,143.143,717.3L-1371.447,2738Z" transform="translate(2183.316 -1299.069)" fill="url(#radial-gradient-32)"/>
          </g>
        </g>
        <g id="组_844" data-name="组 844">
          <g id="组_843" data-name="组 843">
            <path id="路径_10188" data-name="路径 10188" d="M-911.042,1566.28a2.084,2.084,0,0,1,.373.978l88.564,776.581a2.077,2.077,0,0,1-.766,1.875l-597.72,467.757a1.866,1.866,0,0,1-1.927.239L-2108.8,2504.886a2.021,2.021,0,0,1-1.162-1.629l-88.567-776.581a2.081,2.081,0,0,1,.767-1.875l597.72-467.757a1.867,1.867,0,0,1,1.928-.239l686.285,308.822A1.958,1.958,0,0,1-911.042,1566.28Zm84.948,776.874-88.3-774.245-684.224-307.9-595.924,466.348,88.3,774.245,684.226,307.9Z" transform="translate(2198.547 -1256.64)" fill="url(#radial-gradient-33)"/>
          </g>
        </g>
      </g>
      <g id="组_846" data-name="组 846" transform="translate(0 278.859)" opacity="0.75" style="mix-blend-mode: multiply;isolation: isolate">
        <g id="组_780-2" data-name="组 780" transform="translate(766.626 875.901)">
          <g id="组_779-2" data-name="组 779">
            <path id="路径_10156-2" data-name="路径 10156" d="M-1477.807,1854.271a2.772,2.772,0,0,1,.438,2.2L-1508,1993.625a2.6,2.6,0,0,1-1.737,1.939l-128.64,40.552a2.447,2.447,0,0,1-2.464-.608l-98.013-96.6a2.739,2.739,0,0,1-.732-2.542l30.628-137.157a2.6,2.6,0,0,1,1.738-1.941l128.64-40.55a2.443,2.443,0,0,1,2.464.608l98.012,96.6A2.7,2.7,0,0,1-1477.807,1854.271Zm-34.79,136.645,29.958-134.167-95.882-94.5-125.836,39.667-29.96,134.168,95.88,94.5Z" transform="translate(1739.651 -1756.603)" fill="url(#radial-gradient)"/>
          </g>
        </g>
        <g id="组_782-2" data-name="组 782" transform="translate(755.349 870.678)">
          <g id="组_781-2" data-name="组 781">
            <path id="路径_10157-2" data-name="路径 10157" d="M-1462,1866.6a2.767,2.767,0,0,1,.377,2.419l-44.585,142.379a2.575,2.575,0,0,1-1.892,1.772l-139.915,30.471a2.47,2.47,0,0,1-2.406-.834l-95.33-111.908a2.749,2.749,0,0,1-.518-2.6l44.586-142.376a2.584,2.584,0,0,1,1.893-1.775l139.915-30.47a2.466,2.466,0,0,1,2.4.832l95.33,111.906C-1462.094,1866.476-1462.049,1866.534-1462,1866.6Zm-48.564,141.681,43.671-139.462-93.381-109.62-137.052,29.844L-1741,1928.5l93.383,109.622Z" transform="translate(1746.4 -1753.623)" fill="url(#radial-gradient-2)"/>
          </g>
        </g>
        <g id="组_784-2" data-name="组 784" transform="translate(744.292 866.502)">
          <g id="组_783-2" data-name="组 783">
            <path id="路径_10158-2" data-name="路径 10158" d="M-1537.645,1752.305l91.135,127.868a2.758,2.758,0,0,1,.3,2.637l-59.839,146.552a2.54,2.54,0,0,1-2.032,1.592l-150.973,18.688a2.478,2.478,0,0,1-2.327-1.048l-91.135-127.866a2.765,2.765,0,0,1-.3-2.637l59.841-146.552a2.536,2.536,0,0,1,2.031-1.592l150.973-18.69A2.481,2.481,0,0,1-1537.645,1752.305Zm86.2,129.821-89.383-125.412-148.068,18.329-58.686,143.732,89.383,125.41,148.068-18.327Z" transform="translate(1753.02 -1751.239)" fill="url(#radial-gradient-3)"/>
          </g>
        </g>
        <g id="组_786-2" data-name="组 786" transform="translate(733.617 863.56)">
          <g id="组_785-2" data-name="组 785">
            <path id="路径_10159-2" data-name="路径 10159" d="M-1516.825,1750.624c.043.063.084.126.124.191l85.28,144.373a2.778,2.778,0,0,1,.078,2.654l-76.371,149.5a2.525,2.525,0,0,1-2.159,1.4l-161.652,5.124a2.555,2.555,0,0,1-2.229-1.256l-85.278-144.373a2.777,2.777,0,0,1-.08-2.654l76.373-149.5a2.516,2.516,0,0,1,2.156-1.4l161.653-5.125A2.493,2.493,0,0,1-1516.825,1750.624Zm80.325,146.058-83.74-141.766-158.726,5.031-74.988,146.8,83.737,141.764,158.727-5.031Z" transform="translate(1759.411 -1749.559)" fill="url(#radial-gradient-4)"/>
          </g>
        </g>
        <g id="组_788-2" data-name="组 788" transform="translate(723.498 851.762)">
          <g id="组_787-2" data-name="组 787">
            <path id="路径_10160-2" data-name="路径 10160" d="M-1494.979,1754.177a2.8,2.8,0,0,1,.234.4l77.611,161.294a2.761,2.761,0,0,1-.142,2.651l-94.156,151.008a2.491,2.491,0,0,1-2.265,1.2l-171.768-10.285a2.5,2.5,0,0,1-2.118-1.456l-77.612-161.295a2.764,2.764,0,0,1,.143-2.651l94.156-151.008a2.5,2.5,0,0,1,2.265-1.2l171.768,10.286A2.505,2.505,0,0,1-1494.979,1754.177Zm72.662,162.717-76.3-158.56-168.845-10.11-92.554,148.439,76.292,158.556,168.846,10.11Z" transform="translate(1765.468 -1742.825)" fill="url(#radial-gradient-5)"/>
          </g>
        </g>
        <g id="组_790-2" data-name="组 790" transform="translate(714.139 834.572)">
          <g id="组_789-2" data-name="组 789">
            <path id="路径_10161-2" data-name="路径 10161" d="M-1472.242,1761.685a2.6,2.6,0,0,1,.322.6l67.99,178.483a2.758,2.758,0,0,1-.359,2.628l-113.137,150.88a2.475,2.475,0,0,1-2.357.988l-181.125-27.6a2.546,2.546,0,0,1-1.99-1.643l-67.991-178.481a2.769,2.769,0,0,1,.361-2.63l113.137-150.881a2.48,2.48,0,0,1,2.356-.988l181.128,27.6A2.523,2.523,0,0,1-1472.242,1761.685Zm63.065,179.634-66.9-175.634-178.233-27.162-111.326,148.469,66.9,175.634,178.232,27.162Z" transform="translate(1771.07 -1733.014)" fill="url(#radial-gradient-6)"/>
          </g>
        </g>
        <g id="组_792-2" data-name="组 792" transform="translate(705.752 817.29)">
          <g id="组_791-2" data-name="组 791">
            <path id="路径_10162-2" data-name="路径 10162" d="M-1448.773,1771.083a2.7,2.7,0,0,1,.4.823l56.275,195.764a2.747,2.747,0,0,1-.578,2.586l-133.24,148.9a2.47,2.47,0,0,1-2.429.769l-189.516-46.866a2.6,2.6,0,0,1-1.844-1.82l-56.273-195.764a2.745,2.745,0,0,1,.578-2.586l133.239-148.9a2.469,2.469,0,0,1,2.429-.77l189.515,46.868A2.515,2.515,0,0,1-1448.773,1771.083Zm51.4,196.653-55.433-192.827-186.664-46.163-131.238,146.663,55.432,192.827,186.665,46.161Z" transform="translate(1776.091 -1723.149)" fill="url(#radial-gradient-7)"/>
          </g>
        </g>
        <g id="组_794-2" data-name="组 794" transform="translate(698.565 800.116)">
          <g id="组_793-2" data-name="组 793">
            <path id="路径_10163-2" data-name="路径 10163" d="M-1424.758,1782.506a2.678,2.678,0,0,1,.451,1.049l42.331,212.94a2.734,2.734,0,0,1-.791,2.521l-154.37,144.845a2.452,2.452,0,0,1-2.484.545l-196.7-68.094a2.616,2.616,0,0,1-1.687-1.981l-42.331-212.941a2.734,2.734,0,0,1,.792-2.521l154.371-144.846a2.446,2.446,0,0,1,2.484-.543l196.7,68.092A2.547,2.547,0,0,1-1424.758,1782.506Zm37.523,213.574-41.733-209.94-193.921-67.13-152.189,142.8,41.733,209.938,193.922,67.132Z" transform="translate(1780.392 -1713.346)" fill="url(#radial-gradient-8)"/>
          </g>
        </g>
        <g id="组_796-2" data-name="组 796" transform="translate(692.827 783.27)">
          <g id="组_795-2" data-name="组 795">
            <path id="路径_10164-2" data-name="路径 10164" d="M-1400.418,1796.088a2.74,2.74,0,0,1,.488,1.277l26.033,229.785a2.717,2.717,0,0,1-1,2.442l-176.4,138.495a2.432,2.432,0,0,1-2.52.312l-202.441-91.289a2.65,2.65,0,0,1-1.516-2.127L-1783.81,1845.2a2.712,2.712,0,0,1,1-2.441l176.406-138.495a2.428,2.428,0,0,1,2.519-.314l202.442,91.291A2.552,2.552,0,0,1-1400.418,1796.088Zm21.313,230.167-25.685-226.738-199.754-90.08-174.06,136.657,25.689,226.74,199.752,90.079Z" transform="translate(1783.827 -1703.731)" fill="url(#radial-gradient-9)"/>
          </g>
        </g>
        <g id="组_798-2" data-name="组 798" transform="translate(688.796 767.002)">
          <g id="组_797-2" data-name="组 797">
            <path id="路径_10165-2" data-name="路径 10165" d="M-1376.01,1811.944a2.738,2.738,0,0,1,.5,1.506l7.275,246.056a2.694,2.694,0,0,1-1.2,2.341l-199.2,129.62a2.433,2.433,0,0,1-2.536.084l-206.471-116.435a2.669,2.669,0,0,1-1.332-2.256l-7.275-246.053a2.69,2.69,0,0,1,1.2-2.341l199.2-129.622a2.43,2.43,0,0,1,2.536-.082l206.471,116.432A2.576,2.576,0,0,1-1376.01,1811.944Zm2.668,246.2-7.185-242.991-203.892-114.979-196.71,128,7.184,242.987,203.893,114.98Z" transform="translate(1786.24 -1694.445)" fill="url(#radial-gradient-10)"/>
          </g>
        </g>
        <g id="组_800-2" data-name="组 800" transform="translate(672.701 751.586)">
          <g id="组_799-2" data-name="组 799">
            <path id="路径_10166-2" data-name="路径 10166" d="M-1346.18,1830.18a2.753,2.753,0,0,1,.5,1.739l-14.046,261.468a2.665,2.665,0,0,1-1.386,2.223l-222.564,118a2.434,2.434,0,0,1-2.535-.155l-208.519-143.467a2.7,2.7,0,0,1-1.14-2.368l14.045-261.474a2.68,2.68,0,0,1,1.385-2.224l222.567-118a2.434,2.434,0,0,1,2.534.152l208.519,143.469A2.507,2.507,0,0,1-1346.18,1830.18Zm-18.525,261.378,13.882-258.407-206.072-141.785-219.953,116.617-13.881,258.411,206.072,141.784Z" transform="translate(1795.874 -1685.645)" fill="url(#radial-gradient-11)"/>
          </g>
        </g>
        <g id="组_802-2" data-name="组 802" transform="translate(648.963 737.321)">
          <g id="组_801-2" data-name="组 801">
            <path id="路径_10167-2" data-name="路径 10167" d="M-1312.913,1850.887a2.756,2.756,0,0,1,.476,1.971l-38,275.737a2.633,2.633,0,0,1-1.567,2.087l-246.3,103.415a2.438,2.438,0,0,1-2.511-.38l-208.3-172.32a2.72,2.72,0,0,1-.937-2.467l38-275.736a2.629,2.629,0,0,1,1.567-2.086l246.3-103.415a2.434,2.434,0,0,1,2.511.38l208.3,172.318A2.665,2.665,0,0,1-1312.913,1850.887Zm-42.333,275.431,37.586-272.7-206-170.421-243.583,102.275-37.587,272.7,206,170.418Z" transform="translate(1810.083 -1677.502)" fill="url(#radial-gradient-12)"/>
          </g>
        </g>
        <g id="组_804-2" data-name="组 804" transform="translate(625.095 724.532)">
          <g id="组_803-2" data-name="组 803">
            <path id="路径_10168-2" data-name="路径 10168" d="M-1279.464,1874.142a2.748,2.748,0,0,1,.434,2.2l-64.651,288.525a2.612,2.612,0,0,1-1.732,1.938l-270.171,85.65a2.458,2.458,0,0,1-2.471-.61l-205.517-202.877a2.74,2.74,0,0,1-.73-2.542l64.655-288.525a2.612,2.612,0,0,1,1.731-1.936l270.172-85.65a2.456,2.456,0,0,1,2.471.61l205.516,202.875A2.568,2.568,0,0,1-1279.464,1874.142Zm-68.815,288.016,63.984-285.543-203.385-200.771-267.369,84.762-63.985,285.541,203.387,200.774Z" transform="translate(1824.37 -1670.201)" fill="url(#radial-gradient-13)"/>
          </g>
        </g>
        <g id="组_806-2" data-name="组 806" transform="translate(601.375 713.568)">
          <g id="组_805-2" data-name="组 805">
            <path id="路径_10169-2" data-name="路径 10169" d="M-1246.222,1900a2.768,2.768,0,0,1,.378,2.423l-94.029,299.487a2.566,2.566,0,0,1-1.89,1.767l-293.891,64.5a2.457,2.457,0,0,1-2.411-.833l-199.867-234.986a2.782,2.782,0,0,1-.515-2.6l94.027-299.487a2.579,2.579,0,0,1,1.889-1.767l293.893-64.5a2.461,2.461,0,0,1,2.409.832l199.868,234.99C-1246.312,1899.877-1246.265,1899.939-1246.222,1900Zm-98.01,298.789,93.116-296.573-197.918-232.695-291.03,63.872-93.115,296.573,197.919,232.7Z" transform="translate(1838.572 -1663.944)" fill="url(#radial-gradient-14)"/>
          </g>
        </g>
        <g id="组_808-2" data-name="组 808" transform="translate(578.099 704.807)">
          <g id="组_807-2" data-name="组 807">
            <path id="路径_10170-2" data-name="路径 10170" d="M-1404.644,1660.009v0L-1213.6,1928.48a2.773,2.773,0,0,1,.3,2.637l-126.128,308.248a2.552,2.552,0,0,1-2.03,1.591l-317.166,39.781a2.489,2.489,0,0,1-2.331-1.047l0,0L-1852,2011.217a2.765,2.765,0,0,1-.3-2.636l126.129-308.248a2.55,2.55,0,0,1,2.028-1.59l317.166-39.78A2.488,2.488,0,0,1-1404.644,1660.009Zm186.1,270.421-189.291-266.011-314.258,39.418-124.976,305.43,189.289,266.011,314.261-39.417Z" transform="translate(1852.502 -1658.943)" fill="url(#radial-gradient-15)"/>
          </g>
        </g>
        <g id="组_810-2" data-name="组 810" transform="translate(555.62 698.644)">
          <g id="组_809-2" data-name="组 809">
            <path id="路径_10171-2" data-name="路径 10171" d="M-1360.825,1656.494c.043.063.085.126.126.193l178.722,303.094a2.768,2.768,0,0,1,.077,2.654l-160.923,314.411a2.515,2.515,0,0,1-2.152,1.4l-339.643,11.316a2.569,2.569,0,0,1-2.237-1.256l-178.723-303.092a2.769,2.769,0,0,1-.079-2.654l160.923-314.413a2.517,2.517,0,0,1,2.153-1.4l339.644-11.319A2.5,2.5,0,0,1-1360.825,1656.494Zm173.769,304.78L-1364.24,1660.79l-336.718,11.221-159.541,311.71,177.184,300.481,336.719-11.219Z" transform="translate(1865.957 -1655.427)" fill="url(#radial-gradient-16)"/>
          </g>
        </g>
        <g id="组_812-2" data-name="组 812" transform="translate(534.316 674.465)">
          <g id="组_811-2" data-name="组 811">
            <path id="路径_10172-2" data-name="路径 10172" d="M-1314.857,1663.722a2.939,2.939,0,0,1,.235.4l162.608,338.587a2.769,2.769,0,0,1-.145,2.651l-198.34,317.563a2.492,2.492,0,0,1-2.259,1.2l-360.95-21.03a2.519,2.519,0,0,1-2.123-1.459l-162.61-338.589a2.762,2.762,0,0,1,.147-2.65l198.339-317.56a2.5,2.5,0,0,1,2.259-1.2l360.95,21.03A2.508,2.508,0,0,1-1314.857,1663.722Zm157.658,340.006-161.29-335.849-358.03-20.858-196.737,314.995,161.292,335.848,358.029,20.862Z" transform="translate(1878.711 -1641.624)" fill="url(#radial-gradient-17)"/>
          </g>
        </g>
        <g id="组_814-2" data-name="组 814" transform="translate(514.598 638.411)">
          <g id="组_813-2" data-name="组 813">
            <path id="路径_10173-2" data-name="路径 10173" d="M-1267.009,1679.5a2.646,2.646,0,0,1,.326.608l142.394,374.644a2.754,2.754,0,0,1-.365,2.627l-238.274,317.26a2.477,2.477,0,0,1-2.351.986l-380.667-57.382a2.555,2.555,0,0,1-1.995-1.647l-142.4-374.644a2.768,2.768,0,0,1,.364-2.628L-1651.7,1622.06a2.475,2.475,0,0,1,2.349-.988l380.668,57.383A2.52,2.52,0,0,1-1267.009,1679.5Zm137.471,375.8L-1270.85,1683.5l-377.77-56.945-236.466,314.85,141.312,371.793L-1366,2370.14Z" transform="translate(1890.514 -1621.045)" fill="url(#radial-gradient-18)"/>
          </g>
        </g>
        <g id="组_816-2" data-name="组 816" transform="translate(496.913 602.171)">
          <g id="组_815-2" data-name="组 815">
            <path id="路径_10174-2" data-name="路径 10174" d="M-1217.614,1699.253a2.717,2.717,0,0,1,.4.827l117.785,410.885a2.753,2.753,0,0,1-.583,2.583L-1380.583,2426.6a2.462,2.462,0,0,1-2.424.771l-398.352-97.828a2.6,2.6,0,0,1-1.849-1.824l-117.785-410.885a2.747,2.747,0,0,1,.581-2.582l280.57-313.059a2.458,2.458,0,0,1,2.424-.769l398.352,97.827A2.533,2.533,0,0,1-1217.614,1699.253Zm112.907,411.773-116.941-407.947-395.5-97.125-278.567,310.822,116.943,407.947,395.5,97.125Z" transform="translate(1901.099 -1600.358)" fill="url(#radial-gradient-19)"/>
          </g>
        </g>
        <g id="组_818-2" data-name="组 818" transform="translate(481.751 566.154)">
          <g id="组_817-2" data-name="组 817">
            <path id="路径_10175-2" data-name="路径 10175" d="M-1167.077,1723.278a2.719,2.719,0,0,1,.451,1.049l88.5,446.9a2.733,2.733,0,0,1-.792,2.523l-325.02,304.49a2.446,2.446,0,0,1-2.479.545l-413.517-142.407a2.622,2.622,0,0,1-1.689-1.983l-88.5-446.9a2.734,2.734,0,0,1,.792-2.523l325.018-304.492a2.448,2.448,0,0,1,2.479-.544l413.519,142.409A2.554,2.554,0,0,1-1167.077,1723.278Zm83.69,447.529-87.9-443.894-410.735-141.45-322.839,302.452,87.9,443.894,410.732,141.449Z" transform="translate(1910.176 -1579.801)" fill="url(#radial-gradient-20)"/>
          </g>
        </g>
        <g id="组_820-2" data-name="组 820" transform="translate(469.619 530.835)">
          <g id="组_819-2" data-name="组 819">
            <path id="路径_10176-2" data-name="路径 10176" d="M-1115.856,1751.834a2.753,2.753,0,0,1,.488,1.281l54.276,482.221a2.719,2.719,0,0,1-1,2.441l-371.372,291.092a2.434,2.434,0,0,1-2.514.315l-425.647-191.13a2.657,2.657,0,0,1-1.521-2.132L-1917.42,1853.7a2.718,2.718,0,0,1,1-2.438l371.371-291.093a2.441,2.441,0,0,1,2.514-.315l425.646,191.13A2.553,2.553,0,0,1-1115.856,1751.834Zm49.56,482.6-53.933-479.175-422.954-189.919L-1912.215,1854.6l53.932,479.171,422.956,189.923Z" transform="translate(1917.437 -1559.64)" fill="url(#radial-gradient-21)"/>
          </g>
        </g>
        <g id="组_822-2" data-name="组 822" transform="translate(461.071 496.728)">
          <g id="组_821-2" data-name="组 821">
            <path id="路径_10177-2" data-name="路径 10177" d="M-1064.484,1785.182a2.735,2.735,0,0,1,.5,1.51l14.883,516.329a2.688,2.688,0,0,1-1.2,2.337l-419.312,272.384a2.428,2.428,0,0,1-2.531.082l-434.193-243.944a2.667,2.667,0,0,1-1.337-2.26l-14.885-516.328a2.692,2.692,0,0,1,1.2-2.339l419.311-272.384a2.43,2.43,0,0,1,2.531-.082l434.194,243.944A2.557,2.557,0,0,1-1064.484,1785.182Zm10.277,516.466-14.8-513.26L-1500.615,1545.9l-416.827,270.769,14.8,513.26,431.613,242.491Z" transform="translate(1922.553 -1540.172)" fill="url(#radial-gradient-22)"/>
          </g>
        </g>
        <g id="组_824-2" data-name="组 824" transform="translate(426.807 464.414)">
          <g id="组_823-2" data-name="组 823">
            <path id="路径_10178-2" data-name="路径 10178" d="M-1001.582,1823.537a2.74,2.74,0,0,1,.5,1.741l-29.875,548.644a2.658,2.658,0,0,1-1.39,2.22l-468.459,247.9a2.434,2.434,0,0,1-2.528-.147l-438.583-300.745a2.707,2.707,0,0,1-1.144-2.375l29.877-548.642a2.66,2.66,0,0,1,1.39-2.221l468.459-247.9a2.435,2.435,0,0,1,2.528.149l438.583,300.745A2.594,2.594,0,0,1-1001.582,1823.537Zm-34.352,548.553,29.708-545.578-436.132-299.064-465.85,246.515-29.71,545.578,436.133,299.064Z" transform="translate(1943.064 -1521.727)" fill="url(#radial-gradient-23)"/>
          </g>
        </g>
        <g id="组_826-2" data-name="组 826" transform="translate(376.884 434.52)">
          <g id="组_825-2" data-name="组 825">
            <path id="路径_10179-2" data-name="路径 10179" d="M-931.62,1867.1a2.765,2.765,0,0,1,.479,1.974l-80.171,578.533a2.632,2.632,0,0,1-1.569,2.085l-518.382,217.169a2.441,2.441,0,0,1-2.506-.379l-438.212-361.368a2.737,2.737,0,0,1-.942-2.472l80.171-578.536a2.64,2.64,0,0,1,1.569-2.085l518.381-217.167a2.438,2.438,0,0,1,2.506.376l438.212,361.37A2.687,2.687,0,0,1-931.62,1867.1Zm-84.5,578.227,79.751-575.5-435.913-359.473-515.665,216.032-79.752,575.5,435.913,359.471Z" transform="translate(1972.948 -1504.664)" fill="url(#radial-gradient-24)"/>
          </g>
        </g>
        <g id="组_828-2" data-name="组 828" transform="translate(326.693 407.73)">
          <g id="组_827-2" data-name="组 827">
            <path id="路径_10180-2" data-name="路径 10180" d="M-861.283,1916.017a2.757,2.757,0,0,1,.437,2.2l-136.113,605.327a2.608,2.608,0,0,1-1.737,1.932l-568.571,179.746a2.449,2.449,0,0,1-2.464-.6l-432.46-425.582a2.735,2.735,0,0,1-.733-2.549l136.114-605.324a2.6,2.6,0,0,1,1.736-1.933l568.574-179.748a2.446,2.446,0,0,1,2.464.607l432.458,425.577A2.76,2.76,0,0,1-861.283,1916.017Zm-140.273,604.818,135.441-602.341-430.325-423.477-565.773,178.859-135.443,602.339,430.327,423.479Z" transform="translate(2002.991 -1489.372)" fill="url(#radial-gradient-25)"/>
          </g>
        </g>
        <g id="组_830-2" data-name="组 830" transform="translate(276.812 384.777)">
          <g id="组_829-2" data-name="组 829">
            <path id="路径_10181-2" data-name="路径 10181" d="M-791.378,1970.408a2.762,2.762,0,0,1,.376,2.423l-197.769,628.28a2.577,2.577,0,0,1-1.89,1.77l-618.455,135.206a2.465,2.465,0,0,1-2.405-.83L-2032.2,2244.185a2.76,2.76,0,0,1-.518-2.6l197.769-628.281a2.566,2.566,0,0,1,1.889-1.768l618.455-135.206a2.461,2.461,0,0,1,2.4.828l420.686,493.073C-791.469,1970.286-791.423,1970.345-791.378,1970.408Zm-201.747,627.58,196.852-625.364-418.734-490.783L-1830.6,1616.423l-196.852,625.366,418.734,490.783Z" transform="translate(2032.85 -1476.27)" fill="url(#radial-gradient-26)"/>
          </g>
        </g>
        <g id="组_832-2" data-name="组 832" transform="translate(227.885 366.448)">
          <g id="组_831-2" data-name="组 831">
            <path id="路径_10182-2" data-name="路径 10182" d="M-722.81,2030.326a2.767,2.767,0,0,1,.3,2.64l-265.142,646.608a2.553,2.553,0,0,1-2.03,1.591l-667.381,83.157a2.5,2.5,0,0,1-2.327-1.048l-402.239-563.454,0,0a2.768,2.768,0,0,1-.3-2.64l265.142-646.607a2.54,2.54,0,0,1,2.028-1.589l667.381-83.157a2.482,2.482,0,0,1,2.327,1.046l402.243,563.453Zm-268.923,645.741,263.986-643.786-400.488-561-664.478,82.794L-2056.7,2197.865l400.487,561Z" transform="translate(2062.138 -1465.807)" fill="url(#radial-gradient-27)"/>
          </g>
        </g>
        <g id="组_834-2" data-name="组 834" transform="translate(180.636 353.573)">
          <g id="组_833-2" data-name="组 833">
            <path id="路径_10183-2" data-name="路径 10183" d="M-1033.065,1459.526c.043.06.085.125.122.187l376.469,636.247a2.765,2.765,0,0,1,.078,2.661L-994.556,2758.1a2.523,2.523,0,0,1-2.154,1.4l-714.63,23.236a2.515,2.515,0,0,1-2.232-1.256l-376.467-636.246a2.768,2.768,0,0,1-.08-2.661l338.162-659.483a2.521,2.521,0,0,1,2.152-1.4l714.632-23.236A2.494,2.494,0,0,1-1033.065,1459.526Zm371.512,637.93-374.923-633.638-711.71,23.141-336.775,656.778,374.925,633.641,711.709-23.141Z" transform="translate(2090.42 -1458.458)" fill="url(#radial-gradient-28)"/>
          </g>
        </g>
        <g id="组_836-2" data-name="组 836" transform="translate(135.86 302.169)">
          <g id="组_835-2" data-name="组 835">
            <path id="路径_10184-2" data-name="路径 10184" d="M-936.568,1475.041a2.7,2.7,0,0,1,.231.393l342.722,710.888a2.774,2.774,0,0,1-.142,2.657l-416.684,666.028a2.5,2.5,0,0,1-2.264,1.193l-759.406-44.862a2.522,2.522,0,0,1-2.118-1.454L-2116.95,2099a2.768,2.768,0,0,1,.142-2.657l416.686-666.024a2.491,2.491,0,0,1,2.26-1.2l759.405,44.859A2.5,2.5,0,0,1-936.568,1475.041ZM-598.8,2187.348-940.2,1479.2l-756.487-44.687-415.081,663.461,341.4,708.147,756.489,44.69Z" transform="translate(2117.223 -1429.117)" fill="url(#radial-gradient-29)"/>
          </g>
        </g>
        <g id="组_838-2" data-name="组 838" transform="translate(94.427 226.345)">
          <g id="组_837-2" data-name="组 837">
            <path id="路径_10185-2" data-name="路径 10185" d="M-836.14,1508.287a2.665,2.665,0,0,1,.322.6L-535.46,2295.6a2.756,2.756,0,0,1-.362,2.634L-1036.3,2963.562a2.473,2.473,0,0,1-2.352.984l-800.84-121.384a2.566,2.566,0,0,1-1.99-1.64l-300.358-786.711a2.756,2.756,0,0,1,.363-2.633L-1641,1386.848a2.467,2.467,0,0,1,2.35-.983l800.84,121.383A2.511,2.511,0,0,1-836.14,1508.287Zm295.433,787.864-299.271-783.864-797.946-120.942L-2136.6,2054.259l299.272,783.864,797.946,120.943Z" transform="translate(2142.025 -1385.837)" fill="url(#radial-gradient-30)"/>
          </g>
        </g>
        <g id="组_840-2" data-name="组 840" transform="translate(57.283 150.109)">
          <g id="组_839-2" data-name="组 839">
            <path id="路径_10186-2" data-name="路径 10186" d="M-732.487,1549.9a2.684,2.684,0,0,1,.4.821l248.755,862.946a2.753,2.753,0,0,1-.579,2.591l-589.225,656.44a2.471,2.471,0,0,1-2.426.764l-837.983-206.509a2.588,2.588,0,0,1-1.844-1.817l-248.759-862.949a2.76,2.76,0,0,1,.58-2.591l589.226-656.437a2.454,2.454,0,0,1,2.426-.764L-733.937,1548.9A2.531,2.531,0,0,1-732.487,1549.9Zm243.878,863.834-247.91-860.008-835.137-205.806-587.219,654.2,247.91,860.008,835.137,205.806Z" transform="translate(2164.258 -1342.322)" fill="url(#radial-gradient-31)"/>
          </g>
        </g>
        <g id="组_842-2" data-name="组 842" transform="translate(25.446 74.333)">
          <g id="组_841-2" data-name="组 841">
            <path id="路径_10187-2" data-name="路径 10187" d="M-626.444,1600.467a2.659,2.659,0,0,1,.449,1.046l187.333,938.725a2.733,2.733,0,0,1-.793,2.526l-682.488,638.39a2.441,2.441,0,0,1-2.479.541l-869.821-300.333a2.626,2.626,0,0,1-1.687-1.98l-187.331-938.725a2.73,2.73,0,0,1,.793-2.526l682.488-638.39a2.44,2.44,0,0,1,2.479-.54l869.821,300.334A2.53,2.53,0,0,1-626.444,1600.467Zm182.522,939.355L-630.655,1604.1-1497.7,1304.728-2178,1941.074l186.732,935.718,867.045,299.376Z" transform="translate(2183.316 -1299.068)" fill="url(#radial-gradient-32)"/>
          </g>
        </g>
        <g id="组_844-2" data-name="组 844">
          <g id="组_843-2" data-name="组 843">
            <path id="路径_10188-2" data-name="路径 10188" d="M-518.986,1660.568a2.725,2.725,0,0,1,.486,1.276L-402.967,2674.9a2.709,2.709,0,0,1-1,2.445L-1183.7,3287.538a2.433,2.433,0,0,1-2.514.312l-895.266-402.863a2.637,2.637,0,0,1-1.515-2.125l-115.536-1013.057a2.715,2.715,0,0,1,1-2.445l779.732-610.193a2.435,2.435,0,0,1,2.516-.312l895.264,402.86A2.559,2.559,0,0,1-518.986,1660.568Zm110.815,1013.439L-523.36,1664l-892.576-401.653L-2193.324,1870.7l115.188,1010.01,892.578,401.652Z" transform="translate(2198.547 -1256.64)" fill="url(#radial-gradient-33)"/>
          </g>
        </g>
      </g>
    </g>
  </g>
</svg>
