<svg xmlns="http://www.w3.org/2000/svg" width="164.142" height="64.093" viewBox="0 0 164.142 64.093">
  <g id="组_36" data-name="组 36" transform="translate(-306.142 -413.858)">
    <g id="组_1" data-name="组 1" transform="translate(417.915 413.858)">
      <circle id="椭圆_1" data-name="椭圆 1" cx="9.77" cy="9.77" r="9.77" fill="#e23423"/>
      <circle id="椭圆_2" data-name="椭圆 2" cx="9.77" cy="9.77" r="9.77" transform="translate(0 44.553)" fill="#f89600"/>
    </g>
    <path id="路径_1" data-name="路径 1" d="M865.245,536.327a7.8,7.8,0,0,0-6.058-2.439c-5.646,0-8.793,4.062-8.793,9.77s3.147,9.77,8.793,9.77a7.8,7.8,0,0,0,6.058-2.439v2.048h3.908V527.244h-3.908ZM859.773,550.3c-3.513,0-5.471-2.762-5.471-6.644s1.958-6.644,5.471-6.644,5.471,2.762,5.471,6.643h0C865.245,547.54,863.286,550.3,859.773,550.3Z" transform="translate(-469.216 -97.753)" fill="#1a1311"/>
    <rect id="矩形_1" data-name="矩形 1" width="3.908" height="25.794" transform="translate(332.717 429.491)" fill="#1a1311"/>
    <rect id="矩形_2" data-name="矩形 2" width="3.908" height="18.759" transform="translate(425.731 436.525)" fill="#1a1311"/>
    <path id="路径_2" data-name="路径 2" d="M721.167,589.21c0,2.844-1.609,5.081-4.494,5.081s-4.1-1.95-4.1-4.69V578.267h-3.908V589.6c0,4.567,2.392,7.816,7.035,7.816a7.011,7.011,0,0,0,5.471-2.323v1.932h3.908V578.267h-3.908Z" transform="translate(-347.024 -141.742)" fill="#1a1311"/>
    <path id="路径_3" data-name="路径 3" d="M559.3,575.433c-6.022,0-9.38,4.062-9.38,9.77s3.357,9.77,9.38,9.77,9.379-4.062,9.379-9.77S565.323,575.433,559.3,575.433Zm0,16.414c-3.513,0-5.471-2.762-5.471-6.644s1.958-6.644,5.471-6.644,5.471,2.762,5.471,6.644S562.814,591.847,559.3,591.847Z" transform="translate(-210.169 -139.298)" fill="#1a1311"/>
    <path id="路径_4" data-name="路径 4" d="M1024.769,575.433a7.8,7.8,0,0,0-6.058,2.439v-2.048H1014.8v25.794h3.908v-9.083a7.8,7.8,0,0,0,6.058,2.439c5.646,0,8.793-4.062,8.793-9.77S1030.415,575.433,1024.769,575.433Zm-.586,16.414c-3.513,0-5.471-2.762-5.471-6.644s1.958-6.644,5.471-6.644,5.471,2.762,5.471,6.644S1027.7,591.847,1024.183,591.847Z" transform="translate(-610.958 -139.298)" fill="#1a1311"/>
    <path id="路径_5" data-name="路径 5" d="M1233.947,578.559a4.568,4.568,0,0,1,4.69,3.713h3.908c-.816-4.217-3.9-6.839-8.6-6.839-5.806,0-9.38,3.723-9.38,9.77s3.574,9.77,9.38,9.77c4.814,0,7.885-2.634,8.6-6.839h-3.908a4.568,4.568,0,0,1-4.69,3.713c-3.387,0-5.471-2.532-5.471-6.644S1230.56,578.559,1233.947,578.559Z" transform="translate(-791.801 -139.298)" fill="#1a1311"/>
    <path id="路径_6" data-name="路径 6" d="M1394.052,553.038,1384.1,543.3l9.229-9.026H1388.3l-6.75,6.6V527.244h-3.908v25.794h3.908v-7.309l7.475,7.309Z" transform="translate(-923.768 -97.753)" fill="#1a1311"/>
    <path id="路径_7" data-name="路径 7" d="M318.257,547.467h0c-4.838,0-7.816-3.723-7.816-9.77s2.978-9.77,7.816-9.77h0a6.9,6.9,0,0,1,7.094,5.667h4.24c-1.035-5.751-5.077-9.184-11.334-9.184-7.5,0-12.115,5.063-12.115,13.288s4.616,13.288,12.115,13.288c6.256,0,10.3-3.433,11.334-9.184h-4.24A6.9,6.9,0,0,1,318.257,547.467Z" transform="translate(0 -95.309)" fill="#1a1311"/>
  </g>
</svg>
