<svg xmlns="http://www.w3.org/2000/svg" width="105.303" height="36.358" viewBox="0 0 105.303 36.358">
  <g id="组_729" data-name="组 729" transform="translate(-105.332 -125.023)">
    <g id="组_699" data-name="组 699" transform="translate(105.745 125.023)">
      <rect id="矩形_14465" data-name="矩形 14465" width="5.011" height="17.611" transform="translate(68.888 8.307)" fill="#004698"/>
      <rect id="矩形_14466" data-name="矩形 14466" width="5.011" height="7.418" transform="translate(68.888 0.237)" fill="#004698"/>
      <rect id="矩形_14467" data-name="矩形 14467" width="5.011" height="17.611" transform="translate(30.388 8.307)" fill="#004698"/>
      <rect id="矩形_14468" data-name="矩形 14468" width="5.01" height="17.611" transform="translate(59.786 8.307)" fill="#004698"/>
      <path id="路径_1160" data-name="路径 1160" d="M229.86,133.308l-5.529-7.418h-6.287v7.418h5.011V130.9l1.794,2.407Z" transform="translate(-187.656 -125.653)" fill="#004698"/>
      <path id="路径_1161" data-name="路径 1161" d="M254.639,162l-4.9-6.575h-5.011l9.913,13.3,9.912-13.3H259.54Z" transform="translate(-207.046 -147.114)" fill="#004698"/>
      <path id="路径_1162" data-name="路径 1162" d="M307.522,125.89h-1.277l-5.529,7.418h5.012l1.794-2.407v2.407h5.01V125.89h-5.01Z" transform="translate(-247.735 -125.653)" fill="#004698"/>
      <path id="路径_1163" data-name="路径 1163" d="M128.927,125.89H106.845v7.418h5.011v-5.153l-.116-.035,17.079,5.189h4.323v-3.2A4.228,4.228,0,0,0,128.927,125.89Z" transform="translate(-106.845 -125.653)" fill="#004698"/>
      <path id="路径_1164" data-name="路径 1164" d="M111.74,160.61l.116-.035v-5.154h-5.011v17.611h5.011V162.839h17.071a4.228,4.228,0,0,0,4.216-4.216v-3.2H128.82Z" transform="translate(-106.845 -147.114)" fill="#004698"/>
      <path id="路径_1165" data-name="路径 1165" d="M414.165,125.023H396.778a4.563,4.563,0,0,0-4.55,4.55v8.083h2.456l19.725-9.622v6.817l4.306-2.1v-3.178A4.564,4.564,0,0,0,414.165,125.023Z" transform="translate(-314.239 -125.023)" fill="#004698"/>
      <path id="路径_1166" data-name="路径 1166" d="M414.409,183.26l-19.725-9.622h-2.456v8.082a4.564,4.564,0,0,0,4.55,4.551h17.388a4.564,4.564,0,0,0,4.55-4.551v-3.177l-4.306-2.1Z" transform="translate(-314.239 -160.353)" fill="#004698"/>
    </g>
    <path id="路径_1167" data-name="路径 1167" d="M105.332,244.083h.418V242.5h.707c.5,0,1.155-.2,1.155-.975,0-.735-.588-.965-1.235-.965h-1.046v3.524Zm.418-3.137h.707c.419,0,.707.189.707.583s-.289.582-.707.582h-.707v-1.165Zm2.607,1.972a1.245,1.245,0,1,0,1.245-1.225,1.188,1.188,0,0,0-1.245,1.225Zm.418,0a.827.827,0,1,1,.826.866.812.812,0,0,1-.826-.866Zm6.2-1.165h-.418l-.527,1.792h-.01l-.612-1.792H113l-.6,1.792h-.01l-.533-1.792h-.428l.756,2.33h.4l.588-1.792h.01l.663,1.792h.383l.752-2.33Zm2.5,1.678a.867.867,0,0,1-.742.353.778.778,0,0,1-.761-.747h1.881v-.124a1.085,1.085,0,0,0-1.1-1.22,1.167,1.167,0,0,0-1.2,1.225,1.154,1.154,0,0,0,1.18,1.225,1.2,1.2,0,0,0,1.035-.483l-.294-.229Zm-1.5-.722a.719.719,0,0,1,.761-.657.647.647,0,0,1,.7.657Zm2.761,1.374h.388v-1.136c0-.532.209-.866.682-.866a.744.744,0,0,1,.21.03l.024-.392a.439.439,0,0,0-.159-.025.847.847,0,0,0-.776.443h-.01c0-.129-.01-.259-.01-.383h-.368c0,.155.02.338.02.552v1.778Zm3.207,0h.418v-2.958h.01l1.264,2.958h.254l1.264-2.958h.01v2.958h.418v-3.524h-.607l-1.2,2.763h-.01l-1.194-2.763h-.622v3.524Zm4.936-1.778a1.033,1.033,0,0,1,.692-.253c.363,0,.577.174.577.513v.069H128c-.573,0-1.469.045-1.469.816,0,.453.394.693.866.693a.882.882,0,0,0,.767-.409h.01a1.67,1.67,0,0,0,.025.349h.374a2.556,2.556,0,0,1-.035-.4v-1c0-.657-.289-.986-.976-.986a1.293,1.293,0,0,0-.926.359l.244.253Zm1.269.658v.15a.665.665,0,0,1-.688.7c-.293,0-.513-.11-.513-.4,0-.314.319-.448.812-.448Zm1.377,1.12h.387v-1.136c0-.532.22-.895.723-.895.363,0,.532.243.532.632v1.4h.388v-1.438a.833.833,0,0,0-.886-.952.849.849,0,0,0-.777.443h-.009c0-.129-.01-.259-.01-.383h-.369c0,.155.021.338.021.552v1.778Zm3.259-1.778a1.036,1.036,0,0,1,.692-.253c.363,0,.578.174.578.513v.069h-.15c-.572,0-1.468.045-1.468.816,0,.453.394.693.866.693a.88.88,0,0,0,.766-.409h.01a1.67,1.67,0,0,0,.025.349h.374a2.494,2.494,0,0,1-.035-.4v-1c0-.657-.289-.986-.976-.986a1.293,1.293,0,0,0-.926.359l.244.253Zm1.27.658v.15a.665.665,0,0,1-.687.7c-.294,0-.513-.11-.513-.4,0-.314.319-.448.812-.448Zm3.7-1.21h-.389v.4h-.009a.915.915,0,0,0-.822-.457,1.151,1.151,0,0,0-1.239,1.225,1.173,1.173,0,0,0,1.239,1.2.95.95,0,0,0,.822-.434h.009v.3c0,.492-.184.942-.881.942a1.116,1.116,0,0,1-.866-.4l-.279.319a1.516,1.516,0,0,0,1.145.442,1.158,1.158,0,0,0,1.27-1.3v-2.226Zm-2.042,1.165a.817.817,0,0,1,.821-.866.851.851,0,0,1,0,1.7.823.823,0,0,1-.821-.836Zm4.822.513a.866.866,0,0,1-.741.353.779.779,0,0,1-.762-.747h1.883v-.124a1.086,1.086,0,0,0-1.106-1.22,1.167,1.167,0,0,0-1.2,1.225,1.154,1.154,0,0,0,1.181,1.225,1.194,1.194,0,0,0,1.035-.483l-.294-.229Zm-1.5-.722a.721.721,0,0,1,.762-.657.647.647,0,0,1,.7.657Zm2.761,1.374h.389v-1.136c0-.532.219-.895.721-.895.319,0,.448.2.448.712v1.319h.389v-1.344a.627.627,0,0,1,.6-.687c.453,0,.568.313.568.636v1.395h.388v-1.414c0-.6-.219-.976-.886-.976a.811.811,0,0,0-.737.443.722.722,0,0,0-.736-.443.846.846,0,0,0-.776.443h-.01c0-.129-.01-.259-.01-.383h-.368c0,.155.02.338.02.552v1.778Zm6.306-.652a.868.868,0,0,1-.742.353.779.779,0,0,1-.762-.747h1.882v-.124a1.085,1.085,0,0,0-1.105-1.22,1.167,1.167,0,0,0-1.195,1.225,1.154,1.154,0,0,0,1.18,1.225,1.2,1.2,0,0,0,1.036-.483l-.294-.229Zm-1.5-.722a.721.721,0,0,1,.762-.657.647.647,0,0,1,.7.657Zm2.761,1.374h.389v-1.136c0-.532.219-.895.722-.895.363,0,.532.243.532.632v1.4h.388v-1.438a.833.833,0,0,0-.886-.952.846.846,0,0,0-.776.443h-.01c0-.129-.01-.259-.01-.383h-.368c0,.155.02.338.02.552v1.778Zm4.32-2.33h-.687v-.663H152.6v.663H152.1v.328h.507v1.279c0,.483.09.783.642.783a1.15,1.15,0,0,0,.453-.086l-.015-.353a.748.748,0,0,1-.344.08c-.343,0-.348-.239-.348-.538v-1.165h.687v-.328Zm1.932,2.33h.418v-3.524h-.418v3.524Zm1.5,0h.388v-1.136c0-.532.219-.895.722-.895.363,0,.532.243.532.632v1.4h.389v-1.438a.833.833,0,0,0-.886-.952.846.846,0,0,0-.776.443h-.01c0-.129-.01-.259-.01-.383h-.369c0,.155.021.338.021.552v1.778Zm3.044,0h.39v-1.136c0-.532.218-.895.721-.895.363,0,.533.243.533.632v1.4h.388v-1.438a.833.833,0,0,0-.887-.952.845.845,0,0,0-.776.443h-.01c0-.129-.01-.259-.01-.383h-.367c0,.155.018.338.018.552v1.778Zm2.911-1.165a1.245,1.245,0,1,0,1.245-1.225,1.187,1.187,0,0,0-1.245,1.225Zm.418,0a.828.828,0,1,1,.826.866.812.812,0,0,1-.826-.866Zm4.932-1.165H168l-.693,1.826H167.3l-.727-1.826h-.453l.951,2.33h.427l.921-2.33Zm.909.552a1.035,1.035,0,0,1,.692-.253c.363,0,.578.174.578.513v.069h-.15c-.573,0-1.469.045-1.469.816,0,.453.393.693.866.693a.882.882,0,0,0,.767-.409h.009a1.618,1.618,0,0,0,.026.349h.374a2.5,2.5,0,0,1-.035-.4v-1c0-.657-.289-.986-.976-.986a1.294,1.294,0,0,0-.926.359l.245.253Zm1.27.658v.15a.666.666,0,0,1-.688.7c-.293,0-.513-.11-.513-.4,0-.314.319-.448.81-.448Zm2.651-1.21h-.688v-.663h-.388v.663h-.508v.328h.508v1.279c0,.483.09.783.642.783a1.16,1.16,0,0,0,.455-.086l-.016-.353a.749.749,0,0,1-.344.08c-.343,0-.348-.239-.348-.538v-1.165h.688v-.328Zm.79,2.33h.388v-2.33h-.388v2.33Zm-.09-3.242a.284.284,0,1,0,.568,0,.284.284,0,0,0-.568,0Zm1.392,2.077a1.245,1.245,0,1,0,1.244-1.225,1.188,1.188,0,0,0-1.244,1.225Zm.418,0a.828.828,0,1,1,.826.866.812.812,0,0,1-.826-.866Zm2.951,1.165h.388v-1.136c0-.532.219-.895.723-.895.362,0,.532.243.532.632v1.4h.389v-1.438a.834.834,0,0,0-.887-.952.845.845,0,0,0-.776.443h-.012c0-.129-.009-.259-.009-.383h-.368c0,.155.02.338.02.552v1.778Zm7.055-3.062a1.524,1.524,0,0,0-1.244-.553,1.853,1.853,0,0,0,0,3.7,1.56,1.56,0,0,0,1.333-.619l-.313-.263a1.243,1.243,0,0,1-1.02.493,1.373,1.373,0,0,1-1.345-1.464,1.4,1.4,0,0,1,1.345-1.463,1.083,1.083,0,0,1,.88.427l.364-.263Zm.745,1.9a1.245,1.245,0,1,0,1.245-1.225,1.187,1.187,0,0,0-1.245,1.225Zm.418,0a.828.828,0,1,1,.827.866.813.813,0,0,1-.827-.866Zm2.951,1.165h.388v-1.136c0-.532.219-.895.723-.895.363,0,.532.243.532.632v1.4h.389v-1.438a.834.834,0,0,0-.887-.952.848.848,0,0,0-.777.443h-.01c0-.129-.009-.259-.009-.383h-.368c0,.155.019.338.019.552v1.778Zm2.787-.374a.983.983,0,0,0,.905.434c.463,0,.93-.2.93-.732,0-.469-.348-.618-.762-.7-.308-.06-.586-.145-.586-.338,0-.219.244-.323.457-.323a.559.559,0,0,1,.494.278l.323-.215a.849.849,0,0,0-.792-.422c-.433,0-.87.233-.87.687,0,.482.378.577.821.677.248.055.5.12.5.368s-.268.358-.512.358a.722.722,0,0,1-.6-.314l-.307.239Zm2.522-.791a1.245,1.245,0,1,0,1.244-1.225,1.188,1.188,0,0,0-1.244,1.225Zm.418,0a.828.828,0,1,1,.826.866.812.812,0,0,1-.826-.866Zm2.951,1.165h.388v-1.136c0-.532.21-.866.681-.866a.745.745,0,0,1,.21.03l.025-.392a.445.445,0,0,0-.159-.025.848.848,0,0,0-.777.443h-.01c0-.129-.01-.259-.01-.383h-.369c0,.155.021.338.021.552v1.778Zm3.3-2.33h-.688v-.663h-.388v.663h-.508v.328h.508v1.279c0,.483.09.783.642.783a1.142,1.142,0,0,0,.453-.086l-.014-.353a.75.75,0,0,1-.344.08c-.344,0-.349-.239-.349-.538v-1.165h.688v-.328Zm.789,2.33h.388v-2.33h-.388v2.33Zm-.09-3.242a.284.284,0,1,0,.568,0,.284.284,0,0,0-.568,0Zm3.558.912h-.389v1.135c0,.532-.218.9-.722.9-.363,0-.533-.244-.533-.632v-1.4h-.388v1.439a.834.834,0,0,0,.887.951.845.845,0,0,0,.776-.444h.01c0,.13.01.259.01.383h.368c0-.155-.019-.339-.019-.552v-1.778Zm1.014,2.33h.388v-1.136c0-.532.219-.895.723-.895.319,0,.448.2.448.712v1.319h.388v-1.344a.627.627,0,0,1,.6-.687c.453,0,.567.313.567.636v1.395h.389v-1.414c0-.6-.219-.976-.887-.976a.809.809,0,0,0-.737.443.722.722,0,0,0-.737-.443.849.849,0,0,0-.777.443h-.01c0-.129-.009-.259-.009-.383h-.369c0,.155.021.338.021.552v1.778Z" transform="translate(0 -83.897)" fill="#717171" fill-rule="evenodd"/>
  </g>
</svg>
