<svg xmlns="http://www.w3.org/2000/svg" viewBox="0 0 432.43 182.81">
  <defs>
    <style>
      .cls-1 {
        fill: #fff;
      }
    </style>
  </defs>
  <g id="图层_2" data-name="图层 2">
    <g id="图层_1-2" data-name="图层 1">
      <g>
        <path class="cls-1" d="M195.7,62.5a162.44,162.44,0,0,0-19.8-6.77c11-7,16.56-14.69,23.18-25.34,2-4.25,5-8.35-3-13.54-7.06-4.17-10.95-7.85-23-9.5a113.7,113.7,0,0,0-15-1C138,6.05,124,12.1,107.35,17.72c-1,.43-2,.79-2.95,1.22-13,5.11-18,5-27.5-2.3C66,8.64,56.3,3.46,43.56.36,32-2.08,36.65,8.57,37.08,9.65c3.67,5.55,6.55,11,10.22,16.49,10.23,15.12,2.38,23.76-4.6,30-6.63,7.06-13.61,17.5-14.84,30.89a77.11,77.11,0,0,0-.79,21.82c.22,6.19,7.35,32.69,3.75,36.86L11.81,158C5.18,162.8,1.73,170.5,0,178.28c10.66,2.37,21.38,2.88,28.37-1.95s9.43-4.82,13.89-6.48c9.36-2.81,13.83-1.73,20.74.51,7.7,2.52,10.22,5.47,14.76,8.85a21.25,21.25,0,0,0,2.59-9.86,14.7,14.7,0,0,0-2.52-8c-5.61-6.56-10.22-9.29-16.85-13.54-6.84-7.42-5.54-15,1.16-24.48,9-9.43,20.66-16.78,36.79-22.39l5.47-2.31L125.14,90c3.16,13.18,10.65,17.72,16,26.57,11.09-1.73,15.12-10.8,14.76-19l-1.65-24a79.74,79.74,0,0,1,18.21.64l.58.08c11.52,2,25,4.6,28.29.86C203,73.08,204.12,67.18,195.7,62.5ZM143.06,78.92,117.22,90.29l-12.82,4.9-18.65,7.13-20.88,7.92c-5.76.72-7.13-6.41,1.37-14.91,4-4.46,7.56-6.55,13.1-8.49,8.64-2,16.64-1.73,25.06-3.32.58-.14,1.15-.21,1.73-.36,7.34-1.8,11.73-3.31,17.64-7.92,5.25-3.67,5.83-6.62,11.88-7.77,4.46-.36,10.37,1.65,11.73,3.6C150.91,74.09,145.94,77.4,143.06,78.92Zm30-24.27c-8.5-.86-15.63-1.94-26.14-1.29,3.31-12.32,10.66-18.8,22.47-23.91,1.22-.43,2.44-.93,3.67-1.37a60.46,60.46,0,0,1,21.81-3.6c3,0,4.47,1.08,4.32,2.81a84.47,84.47,0,0,1-8.71,13.32C185.4,47.45,181,50.91,175,54.87Z"/>
        <path class="cls-1" d="M127.93,161.43c-1.19,3.3-2.72,5.61-4.67,7.06a11.4,11.4,0,0,1-7.05,2.18,12.33,12.33,0,0,1-9.28-3.93c-2.23-2.34-3.59-5.66-4.07-9.87H140.3v-1.71c0-.54,0-1,0-1.38s0-.65,0-.92c0-8.68-2.3-15.58-6.87-20.53a23.43,23.43,0,0,0-17.8-7.45,24,24,0,0,0-18.23,7.59c-4.65,5-7,12-7,21,0,8.59,2.34,15.41,6.94,20.24s10.92,7.38,18.81,7.38c6.17,0,11.36-1.55,15.43-4.6A23.8,23.8,0,0,0,140,163.54l.53-1.9-12.16-1.49ZM107.11,138.8a11.67,11.67,0,0,1,8.67-3.46,11.45,11.45,0,0,1,9.34,4.35,13.93,13.93,0,0,1,2.57,6.72H103.35A13.26,13.26,0,0,1,107.11,138.8Z"/>
        <rect class="cls-1" x="228.84" y="106.81" width="11.97" height="73.1"/>
        <rect class="cls-1" x="205.3" y="106.81" width="11.97" height="73.1"/>
        <path class="cls-1" d="M194.21,171.92l0-.11c-.48-2.31-.54-9.11-.54-14.77V145.66a47.31,47.31,0,0,0-.47-8.2,14.36,14.36,0,0,0-3-6.56,15.72,15.72,0,0,0-6.73-4.41,33.33,33.33,0,0,0-11-1.61,36.2,36.2,0,0,0-12,1.9,18,18,0,0,0-8.3,5.65,23,23,0,0,0-4.07,9.33l-.41,1.8,11.69,1.62.38-1.47c.84-3.22,2-5.37,3.61-6.55s4.18-1.75,7.92-1.75c3.89,0,6.78.82,8.57,2.44,1.24,1.12,1.89,3.23,1.89,6.08,0,.11,0,.26,0,.44s0,.35,0,.55a84,84,0,0,1-13.81,2.51,63.45,63.45,0,0,0-7.8,1.35,23.63,23.63,0,0,0-6.69,3,15.72,15.72,0,0,0-4.93,5.48,15.55,15.55,0,0,0-1.93,7.67,15.25,15.25,0,0,0,5,11.64c3.35,3,8,4.46,13.94,4.46a29.09,29.09,0,0,0,10-1.77,30.28,30.28,0,0,0,7.33-4.14,17.11,17.11,0,0,0,1.36,3.82l.47.94h12.82l-1.35-2.51A16.93,16.93,0,0,1,194.21,171.92ZM181.61,156c0,3.54-.4,6.17-1.2,7.82a11.5,11.5,0,0,1-5,5.17,15.75,15.75,0,0,1-7.94,1.94c-2.83,0-5-.62-6.41-1.79a5.76,5.76,0,0,1-2-4.5,5.56,5.56,0,0,1,1-3.17,5.4,5.4,0,0,1,2.52-2.11,30.8,30.8,0,0,1,7.05-1.6,76.74,76.74,0,0,0,12-2.5Z"/>
        <path class="cls-1" d="M408.89,132.27a20.62,20.62,0,0,0-9.72-2.16A19.25,19.25,0,0,0,384.05,137V112h-8.5v69.69h8.5V154.08a24.46,24.46,0,0,1,1.44-9.28,11,11,0,0,1,4.75-5.4,14,14,0,0,1,7.2-2,10.39,10.39,0,0,1,7.85,3c1.8,1.95,2.73,5,2.73,9.29v32h8.57v-32c0-4.89-.57-8.71-1.8-11.3A13.11,13.11,0,0,0,408.89,132.27Z"/>
        <path class="cls-1" d="M299.38,130.11h-.15c-6.91,0-12.53,2.37-16.85,7s-6.55,11.31-6.55,19.8c0,8.21,2.16,14.62,6.48,19.15s9.79,6.63,16.92,6.77h.58c5.9,0,10.73-1.37,14.47-4.25a21.52,21.52,0,0,0,7.7-12l-8.78-1.08c-1.3,3.6-3.1,6.26-5.26,7.85a13.14,13.14,0,0,1-8.06,2.52h-.65a14,14,0,0,1-9.86-4.47c-2.81-3-4.39-7.2-4.68-12.74h37.58c0-1,.07-1.73.07-2.23q0-12.52-6.48-19.44C311.62,132.41,306.14,130.11,299.38,130.11Zm-.15,21.53H285.12a15.92,15.92,0,0,1,4.46-10.59,13.52,13.52,0,0,1,9.65-4h.22a13,13,0,0,1,10.58,5c1.8,2.09,2.88,5.33,3.24,9.58Z"/>
        <path class="cls-1" d="M358.49,172.73a12.27,12.27,0,0,1-8.43,3.1,12.81,12.81,0,0,1-10.15-4.61c-2.59-3.1-3.89-8.06-3.89-14.83s1.3-11.52,4-14.62a13.22,13.22,0,0,1,10.44-4.68,10.94,10.94,0,0,1,7.34,2.59,13.82,13.82,0,0,1,4.18,7.64l8.35-1.23c-1-5.11-3.24-9.07-6.77-11.88s-7.92-4.1-13.39-4.1a24.75,24.75,0,0,0-12,3,18.85,18.85,0,0,0-8.28,9.22,35.31,35.31,0,0,0-2.66,14.33c0,8.42,2.09,14.9,6.26,19.36s9.72,6.77,16.64,6.77a20.41,20.41,0,0,0,14-4.89c3.75-3.24,6.12-7.85,7.06-13.61l-8.42-1.08C362.16,167.48,360.72,170.64,358.49,172.73Z"/>
        <path class="cls-1" d="M269.5,174.39a5.65,5.65,0,0,1-3-.65,3.31,3.31,0,0,1-1.44-1.66,15.7,15.7,0,0,1-.43-4.68V137.88h8.57v-6.62h-8.57V113.62l-8.49,5.11v12.53h-6.34v6.62h6.34v29c0,5.18.28,8.5,1,10.08a8.21,8.21,0,0,0,3.6,3.89,14.41,14.41,0,0,0,7.28,1.51,31.81,31.81,0,0,0,6.4-.79L273.24,174A31.53,31.53,0,0,1,269.5,174.39Z"/>
        <path class="cls-1" d="M423.55,96.91a3.82,3.82,0,0,0-.89-.56,3.9,3.9,0,0,0,2.37-1,2.8,2.8,0,0,0,.76-2,3.17,3.17,0,0,0-.46-1.68,2.5,2.5,0,0,0-1.24-1.06,6.53,6.53,0,0,0-2.26-.3h-4.94v11.13h1.48V96.47h1.71a5.18,5.18,0,0,1,.82,0,2.47,2.47,0,0,1,.67.3,3.27,3.27,0,0,1,.75.75c.27.35.63.86,1.06,1.53l1.47,2.31h1.85l-1.93-3A7.47,7.47,0,0,0,423.55,96.91Zm-2-1.71h-3.16V91.51h3.52a2.66,2.66,0,0,1,1.81.51,1.67,1.67,0,0,1,.58,1.3,1.8,1.8,0,0,1-.3,1,1.74,1.74,0,0,1-.87.67A4.7,4.7,0,0,1,421.53,95.2Z"/>
        <path class="cls-1" d="M421.53,84.59a10.91,10.91,0,1,0,10.9,10.91A10.92,10.92,0,0,0,421.53,84.59Zm0,20.43a9.52,9.52,0,1,1,9.52-9.52A9.53,9.53,0,0,1,421.53,105Z"/>
      </g>
    </g>
  </g>
</svg>
