<svg width="101" height="22" viewBox="0 0 101 22" fill="none" xmlns="http://www.w3.org/2000/svg">
<path d="M16.7559 21.6608H19.84L22.4853 6.3916H19.4042L16.7559 21.6608Z" fill="#E8380D"/>
<path d="M46.1222 6.12793C44.4658 6.12793 42.6827 6.80698 41.3106 8.19652C39.9447 9.5892 39.0331 11.5666 38.5943 14.0659C38.0689 17.0305 38.4058 22.0007 43.7983 22.0007C49.5834 22.0007 50.8875 16.5935 51.3479 14.0659C51.8393 11.3686 51.9258 6.12793 46.1222 6.12793ZM48.236 14.0659C47.927 15.839 47.0586 19.5612 44.0425 19.5612C41.0789 19.5612 41.4065 15.8013 41.7062 14.0659C42.0121 12.3274 43.1061 8.59578 45.9399 8.59578C49.0117 8.59578 48.5388 12.3086 48.236 14.0659Z" fill="#E8380D"/>
<path d="M87.6167 6.38281L85.6018 18.0493C85.6018 18.0493 83.7662 19.6086 81.5783 19.6086C79.2574 19.6086 79.7828 17.8324 80.0269 16.4397L81.7668 6.38281H78.6796L76.813 17.191C76.3711 19.6495 76.5473 22.001 80.0238 22.001C82.4683 22.001 84.8725 20.4071 85.4319 20.011L85.2866 21.7055H88.0246L90.6792 6.38281H87.6167Z" fill="#E8380D"/>
<path d="M33.638 6.08984C31.0977 6.08984 28.6224 7.69945 28.0662 8.08298L28.2114 6.38221H25.4734L22.8281 21.6514H25.8813L27.8962 10.0478C27.8962 10.0478 29.7442 8.46338 32.065 8.46338C34.2468 8.46338 33.7029 10.271 33.4711 11.6574L31.7374 21.6514H34.8216L36.6881 10.8998C37.13 8.44452 37.1115 6.08984 33.638 6.08984Z" fill="#E8380D"/>
<path d="M70.4742 6.09961C67.2171 6.09961 65.1435 7.96071 64.3987 8.81581L66.2065 10.2462C66.7103 9.72121 68.2801 8.23736 70.1374 8.23736C72.2141 8.23736 72.3593 9.57975 72.1924 10.5354L71.9205 12.1199C67.8506 12.2456 62.7052 14.0565 61.9419 18.0427C61.6731 19.4448 61.9697 22.0007 65.1651 22.0007C67.8135 22.0007 70.2085 20.3502 70.5453 20.0547C70.5051 20.6489 70.4928 21.2651 70.5762 21.8215H73.4131C73.4286 20.8155 73.5089 20.2276 73.5522 19.9699L75.1869 10.5354C75.4774 8.82524 75.0757 6.09961 70.4742 6.09961ZM65.0538 17.7315C65.5637 15.0687 69.6275 13.8301 71.6207 13.8301L70.9285 17.829C70.9285 17.829 69.1423 19.7687 66.6979 19.7687C65.0168 19.7624 64.9302 18.3634 65.0538 17.7315Z" fill="#E8380D"/>
<path d="M9.45011 2.77369C11.7647 2.77369 12.7691 4.62536 13.0627 5.53076L16.2086 4.42416C15.6647 2.89315 13.5417 0.145508 9.50265 0.145508C4.83631 0.145508 2.49696 3.24525 2.49696 6.02118C2.49696 7.95774 3.23863 10.2212 8.12438 12.2552C9.22143 12.7111 11.5422 13.3493 11.5422 15.5656C11.5422 17.0149 10.4112 19.0961 7.40743 19.0961C5.38638 19.0961 3.90304 17.5588 2.88633 15.8706L0 17.4865C0.84056 19.2564 3.37769 22.0009 7.3209 22.0009C12.9082 22.0009 15.1208 18.1309 15.1208 15.3361C15.1208 12.1043 13.1832 10.6236 10.7542 9.54848C10.5008 9.44473 9.4223 8.99832 9.17508 8.89457C6.39073 7.69052 5.8901 6.83227 5.8901 5.52133C5.8901 4.49332 6.92844 2.77369 9.45011 2.77369Z" fill="#E8380D"/>
<path d="M57.0185 17.7062L58.5389 8.89429H61.5829L62.0093 6.47045H58.9685L59.5835 2.8457L56.4345 3.21038L55.8782 6.47045L53.6656 6.47988L53.2422 8.89115H55.4548L53.7954 18.4387C53.511 20.1709 53.7645 21.9943 56.5395 21.9943C57.4913 21.9943 58.9963 21.8308 59.3424 21.7711L59.7689 19.3819C59.7689 19.3819 58.9623 19.4605 58.5328 19.4605C56.5488 19.4667 56.8486 18.8443 57.0185 17.7062Z" fill="#E8380D"/>
<path d="M99.1947 2.20119C97.9554 0.852517 96.0673 0.0602902 93.9072 0.00370261C93.8206 0.000558856 93.3107 -0.0120162 92.8163 0.0382839L92.328 2.83937C93.0944 2.83937 93.7866 2.90225 94.3831 2.9997C95.3287 3.15375 96.2681 3.6536 96.8955 4.43011C97.5259 5.21605 97.8535 6.22205 97.8195 7.26578C97.7391 9.52614 96.0333 11.3715 93.8546 11.5602C93.8546 11.5602 93.8515 11.5602 93.8454 11.5602C93.7125 11.5759 92.7854 11.6482 91.9912 11.5822L91.4844 14.509C92.3002 14.6033 92.8936 14.6033 93.3695 14.6033C97.6402 14.6033 100.845 11.5161 100.993 7.26264C101.064 5.33866 100.425 3.54043 99.1947 2.20119Z" fill="#F49C00"/>
</svg>
