<svg xmlns="http://www.w3.org/2000/svg" width="223.96" height="46.3" viewBox="0 0 223.96 46.3">
  <g id="组_7" data-name="组 7" transform="translate(-88.04 -32.43)">
    <path id="路径_1" data-name="路径 1" d="M-2344.29,32.43c27,0,49,10.39,49,23.12s-22,23.18-49,23.18-49-10.39-49-23.18S-2371.29,32.43-2344.29,32.43Z" transform="translate(2481.33)" fill="#f29600" fill-rule="evenodd"/>
    <path id="路径_2" data-name="路径 2" d="M-2362.91,47.31H-2379a12.09,12.09,0,0,1,8.23-2.77,10.88,10.88,0,0,1,7,2c.31.25.61.5.92.8Zm1.29,15.56h-19a.9.9,0,0,0-.18-.25,19.126,19.126,0,0,1-1.48-2.76h8.05a3.759,3.759,0,0,0,3.14,1.16,3.38,3.38,0,0,0,2.7-1.1.06.06,0,0,1,.06-.06h8a11.894,11.894,0,0,1-1.29,3Zm11.68,0h-7.25v-3h7.25Zm10.81,0h-7.43l-1.11-3h9.53Zm10.51,0H-2336v-3h7.37Zm22.31,0h-19.79a14.714,14.714,0,0,1-.92-3h7.13a4.762,4.762,0,0,0,.86,1.78c.8.92,1.72.92,3.14.92a3,3,0,0,0,2.27-.8,1.331,1.331,0,0,0,.55-1.35.819.819,0,0,0-.12-.55h7.62a6.807,6.807,0,0,1-.74,3Zm-19.3.74h18.87c-.06.06-.06.12-.12.18a8.49,8.49,0,0,1-3.69,2.52,16.39,16.39,0,0,1-5.47.8c-4.12.13-5.9-.67-8.17-2.15a4.282,4.282,0,0,1-1.42-1.35Zm-10.38,0h7.37v2.7H-2336Zm-10.33,0h7l-.74,2.33h-5.41Zm-10.87,0h7.25v2.83h-7.25Zm-22.74,0h17.57a9,9,0,0,1-3,2.33,11.179,11.179,0,0,1-5,1.11,15.619,15.619,0,0,1-6.2-1.17,8.9,8.9,0,0,1-3.38-2.27Zm5-4.55h-7.56a10.123,10.123,0,0,1-.5-3.14v-.24h7.13v.24a4,4,0,0,0,.93,3.14Zm14.81,0h-7.44a6.685,6.685,0,0,0,.92-1.54l6.95-.06c-.13.43-.25,1-.43,1.6Zm10.2,0h-7.25V55.68h7.25Zm12,0h-10l-1.23-3.38h5.9l.24.79.25-.79h6Zm9.28,0H-2336V55.68h7.37Zm8.48,0H-2327v-.31h6.88v.31Zm14.51,0h-8.3c-.55-.43-1.72-.37-3.69-.68-3.5-.43-4.91-1.17-6.39-2.27a2.645,2.645,0,0,0-.49-.43H-2308a12.78,12.78,0,0,1,1.17,1,4.75,4.75,0,0,1,1.17,2.4Zm-70.19-4.18h-7.12a10.846,10.846,0,0,1,.67-3.26h8.05c-.12.18-.24.3-.37.49a6.459,6.459,0,0,0-1.23,2.77Zm25.88,0h-7.25V51.62h12.59l1,3.26h-5.84l-.55-1.54Zm13.46,0h-6l1-3.26h12.9v3.26h-7.4v-1.6Zm27.28,0h-16a5.53,5.53,0,0,1-1-3.26h6.89a.68.68,0,0,0,.3.49,2.73,2.73,0,0,0,2.58,1.17c3.26.43,5,.55,6.39,1.17.25.12.56.3.8.43Zm-64.16-4h-8.54a10,10,0,0,1,2-2.77h17.64a10.469,10.469,0,0,1,1.53,2.77h-8a4.61,4.61,0,0,0-2.58-.8,4.26,4.26,0,0,0-2.09.8Zm28.52,0h-12.35V48.11h11.43Zm16.22,0h-12.66l.8-2.77h11.86Zm9.28,0h-6.76a8.743,8.743,0,0,1,1-2.77H-2308a6.183,6.183,0,0,1,1.17,2.77h-6.88a1.94,1.94,0,0,0-.86-1,5.068,5.068,0,0,0-2.4-.5c-1,.06-2.09.25-2.4,1.36v.12Zm5.9.74h6.83c0,.12.06.25.06.37h-6.89v-.37Zm-54.51,0h7.5c.18.61.37,1.16.49,1.72h-7.25a10.987,10.987,0,0,0-.74-1.72Zm21.94-4.31h-11.18v-2.4h10.38Zm17.39,0h-11.61l.74-2.4h10.87Zm19.92,0h-15.86a7.451,7.451,0,0,1,3-1.9,13.09,13.09,0,0,1,5.47-.87,11.381,11.381,0,0,1,6.76,2.28,5.093,5.093,0,0,1,.62.49Z" transform="translate(2481.33)" fill="#fff" fill-rule="evenodd"/>
    <path id="路径_3" data-name="路径 3" d="M-2280.86,67a2.81,2.81,0,0,0-2.17-1,3.2,3.2,0,0,0-2.442.907,3.2,3.2,0,0,0-.958,2.423,3.141,3.141,0,0,0,.964,2.4,3.14,3.14,0,0,0,2.436.863,2.8,2.8,0,0,0,2.3-1.08l-1.15-.82a1.539,1.539,0,0,1-1.29.68,1.86,1.86,0,0,1-1.3-.629,1.86,1.86,0,0,1-.458-1.371,1.861,1.861,0,0,1,.458-1.371,1.86,1.86,0,0,1,1.3-.629,1.49,1.49,0,0,1,1.22.54Zm1.42,5.5h1.36V69.77h2.71v2.72h1.36V66.17h-1.36v2.38h-2.71V66.17h-1.36Zm7.26,0h1.36V66.17h-1.36Zm3.12,0h1.43V68h0l2.78,4.49h1.76V66.17h-1.36v4.41h0l-2.71-4.41h-1.9Zm7.13,0h1.56l.54-1.3h2.44l.48,1.3h1.62l-2.78-6.32h-1.15Zm4.07-2.52h-1.56l.74-2Zm5.69,2.52h1.36V67.67h0l1.63,4.82h1l1.69-4.82h0v4.82h1.36V66.17h-2.1l-1.43,4.14h0l-1.49-4.14h-2Zm9,0h4.41V71.2h-3V69.91h2.71V68.62h-2.71V67.46h2.91V66.17h-4.27Zm6,0h2.24c1.9,0,3.59-1.09,3.59-3.13,0-2.31-1.69-3.19-3.73-3.19h-2.1Zm1.36-5h.88a1.86,1.86,0,0,1,1.462.442,1.86,1.86,0,0,1,.638,1.388c0,1.43-1,1.9-2.24,1.9h-.74Zm5.9,5h1.35V66.17h-1.35Zm8.34-5.5a2.751,2.751,0,0,0-2.1-1,3.19,3.19,0,0,0-2.439.908,3.19,3.19,0,0,0-.951,2.422,3.129,3.129,0,0,0,.957,2.4,3.13,3.13,0,0,0,2.433.863,2.78,2.78,0,0,0,2.24-1.08l-1.16-.82a1.52,1.52,0,0,1-1.28.68,1.87,1.87,0,0,1-1.305-.628,1.869,1.869,0,0,1-.465-1.372,1.882,1.882,0,0,1,.489-1.39,1.88,1.88,0,0,1,1.341-.61,1.45,1.45,0,0,1,1.16.54Zm.82,5.5h1.49l.54-1.3h2.45l.54,1.3h1.56l-2.78-6.32H-2218Zm4-2.52h-1.56l.75-2Zm3.8,2.52h3.93V71.2h-2.57v-5h-1.36Zm11.26-5.77a2.881,2.881,0,0,0-2-.69,2.13,2.13,0,0,0-1.617.488,2.13,2.13,0,0,0-.753,1.512c0,2.11,2.92,1.5,2.92,2.65,0,.47-.48.68-.95.68a1.74,1.74,0,0,1-1.22-.61l-.95,1.08a2.929,2.929,0,0,0,2.1.75c1.29,0,2.44-.61,2.44-2,0-2.17-2.92-1.49-2.92-2.58,0-.47.55-.67,1-.67a1.5,1.5,0,0,1,1,.4Zm3.05,5.77h1.43V69.84l2.37-3.67h-1.69l-1.36,2.38-1.36-2.38h-1.69l2.3,3.67Zm8.82-5.77a2.82,2.82,0,0,0-1.9-.69c-1.29,0-2.44.69-2.44,2,0,2.11,3,1.5,3,2.65,0,.47-.55.68-.95.68a1.629,1.629,0,0,1-1.22-.61l-1,1.08a3,3,0,0,0,2.1.75c1.36,0,2.44-.61,2.44-2,0-2.17-2.85-1.49-2.85-2.58,0-.47.55-.67.89-.67a1.369,1.369,0,0,1,1,.4Zm2.78,5.77h1.36v-5h1.83V66.17h-5v1.29h1.76Zm4.48,0h4.41V71.2h-3V69.91h2.71V68.62h-2.71V67.46h2.92V66.17h-4.28Zm6,0h1.43V67.67h0l1.56,4.82h1.08l1.63-4.82h.07v4.82h1.35V66.17h-2.1l-1.42,4.14h-.07l-1.43-4.14h-2.1Z" transform="translate(2481.33)" fill="#fff"/>
    <path id="路径_4" data-name="路径 4" d="M-2280.58,42h21.89V39.91h-10.84l-.15-1.36h-4.66l.15,1.36h-10.39V51.28c0,5-.7,7.81-1.63,9.47l2.92,2h0a.359.359,0,0,0,.28.083.36.36,0,0,0,.25-.153l.26-.44c1.85-3.57,1.88-7.84,1.91-11.89V48.28h8.06v1.34h-7.26v1.84h7.26v2.2h0l-2.88,2,1-1.11a29.255,29.255,0,0,0-3.35-2.68l-1.75,2.12a27.359,27.359,0,0,1,3,2.38c-1.55,1.06-3.13,2.11-4.63,3,.47.67,1,1.55,1.47,2.22.2.28.39.37.85.09,1.61-1,4.22-2.87,6.26-4.32v2.6a.38.38,0,0,1-.39.37h-2.07l.66,1.41c.11.33.14.36.55.36h2.9c2.16,0,2.87-.46,2.87-2.15V56.57h0v-.83a30.888,30.888,0,0,0,8,5.72l1.71-2.8a27.867,27.867,0,0,1-4.07-2.36l2.93-1.06-1.19-2.74-4.28,1.79c-1.17-1-2.14-2-3-2.87h4.23v.69h3.87v-.66h0V48.24h1.24V46.39h-1.24V44.22a.879.879,0,0,0-.254-.639.88.88,0,0,0-.636-.261H-2268v-1h-4.55v1h-7.16v1.81h7.16v1.26h-8.06V42Zm12.61,6.24h4.29v1.34H-2268V48.24Zm0-3.11h4.12a.15.15,0,0,1,.127.042.149.149,0,0,1,.042.128v1.09H-2268Z" transform="translate(2481.33)" fill="#fff" fill-rule="evenodd"/>
    <path id="路径_5" data-name="路径 5" d="M-2200,48a1.551,1.551,0,0,0-.443-1.105,1.55,1.55,0,0,0-1.1-.465H-2208l.48-.94-3.32-1.23a23.924,23.924,0,0,1-4.31,6.82c.68.53,1.54,1.24,2.22,1.77.17.13.24.13.43,0a23.689,23.689,0,0,0,3.07-4h4.15c.24,0,.41,0,.41.4l-.17,9.65c0,.48-.08.84-.85.78h-4.72l.49,2c.06.22.06.28.47.28h6.42c2.45.05,3.16-1.12,3.11-3.11Zm-6.22,7.66c-.8.56-1.58,1.15-2.38,1.71a43.066,43.066,0,0,0-3.6-4.13l1.62-1.06a1,1,0,0,1,1.23.12c1.16,1.14,2.11,2.23,3.13,3.36Zm.64-15.47h5.72V42.6h-5.72v1.73H-2210V42.64h-4.89v1.73h-4.32V42.64H-2225V40.23h5.82V38.69h4.32v1.54h4.89V38.69h4.43v1.54Zm-12.18,5.69a32.459,32.459,0,0,1-3.57,4.16,21.876,21.876,0,0,0,2.58-.08,26.429,26.429,0,0,0,2.36-2.9c.65.43,1.74,1.13,2.43,1.61l-.37.45c-1.75,2.13-3.82,4.33-5.82,6.32l6.25-.79v2.1l-9,1a1.38,1.38,0,0,1-1.46-1l-.33-1.43a30.664,30.664,0,0,0,3.71-3.19c-.63,0-1.53.08-2.69.08A1.26,1.26,0,0,1-2224.9,51V49.89a27.2,27.2,0,0,0,4.56-5.76c.45.35,2.06,1.44,2.61,1.79Zm-6.93,13.85,11.4-1.28v2.26l-11.1,1.4Z" transform="translate(2481.33)" fill="#fff" fill-rule="evenodd"/>
    <path id="路径_6" data-name="路径 6" d="M-2235.29,59.22h-12.93V55.59c0-.19.1-.22.22-.22h12.5c.11,0,.21,0,.21.22Zm-14.59-6.47c2.48,0,3.05-.64,3.05-2.8v-3l3-.34v-2l-3,.2v-2h3v-2h-3v-2h-4.29v2h-3.79v2h3.79v2.23l-3.79.2V47.7l3.79-.39v2.22c0,.53.06.76-.68.76h-1.68l.44,2.1c.06.3.08.33.44.33Zm11.22-8.63h10.72v2h-3.21v6.22h-4.29V46.13h-3.22c-.14,2.47-.77,4.65-3,6.22-.6.42-.58.36-1.1-.09l-2.09-1.7c1.05-1,2-1.4,2-5.38V40.62a1.149,1.149,0,0,1,.34-.817,1.15,1.15,0,0,1,.819-.333h5.41a35.171,35.171,0,0,0,7.15-.67l.58,2a27.718,27.718,0,0,1-7,.75h-3c-.09,0-.12,0-.12.13V44.1Zm3.4,17.11v.92h5V54.22a1,1,0,0,0-1-.95h-21a1,1,0,0,0-1,.95v7.93h5v-.92Z" transform="translate(2481.33)" fill="#fff" fill-rule="evenodd"/>
    <path id="路径_7" data-name="路径 7" d="M-2191.28,54.92l2.17-.34q-1.14-5.17-2.29-10.33c-.09-.4-.26-.51-.71-.44l-3.34.5,2.88,10.82,1.29-.21Zm17.25,0-2.17-.34,2.3-10.33.11-.53.59.09,3.34.5q-1.35,5.07-2.69,10.14c-.14.5-.35.65-.89.56l-.59-.09Zm-2.7,4.37h7.4V61.8h-26.62V59.29h7.25V38.83h4.74V59.29h2.64V38.83h4.59Z" transform="translate(2481.33)" fill="#fff" fill-rule="evenodd"/>
  </g>
</svg>
