<?xml version="1.0" encoding="UTF-8" standalone="no"?><!DOCTYPE svg PUBLIC "-//W3C//DTD SVG 1.1//EN" "http://www.w3.org/Graphics/SVG/1.1/DTD/svg11.dtd"><svg width="100%" height="100%" viewBox="0 0 356 51" version="1.1" xmlns="http://www.w3.org/2000/svg" xmlns:xlink="http://www.w3.org/1999/xlink" xml:space="preserve" xmlns:serif="http://www.serif.com/" style="fill-rule:evenodd;clip-rule:evenodd;stroke-linejoin:round;stroke-miterlimit:2;"><g><path d="M150.37,1.165l9.013,-0l0,0.849c0,13.805 0.002,27.611 -0.001,41.418c0,3.994 -3.071,7.096 -7.059,7.103c-2.567,0.004 -5.154,0.15 -7.693,-0.124c-3.308,-0.357 -5.629,-2.306 -6.55,-5.51c-2.146,-7.468 -4.148,-14.978 -6.211,-22.47c-1.123,-4.079 -2.258,-8.155 -3.358,-12.239c-0.14,-0.518 -0.331,-0.748 -0.892,-0.718c-0.837,0.045 -1.681,0.051 -2.518,-0.001c-0.677,-0.043 -0.892,0.229 -0.814,0.856c0.026,0.219 0.004,0.443 0.004,0.665l0,38.888l-8.905,-0l0,-0.907c0,-13.756 -0.001,-27.513 0.001,-41.27c0.001,-4.092 3.006,-7.105 7.085,-7.11c2.247,-0.003 4.493,-0.004 6.74,0.001c3.435,0.007 6.569,2.313 7.497,5.634c2,7.154 3.95,14.321 5.917,21.483c1.199,4.363 2.404,8.724 3.575,13.096c0.162,0.603 0.404,0.847 1.051,0.81c1.006,-0.058 2.016,-0.016 3.118,-0.016l0,-40.438Z" style="fill:#fff;fill-rule:nonzero;"/><path d="M9.967,41.012l0.887,-0c6.816,-0 13.632,-0.008 20.448,0.014c0.597,0.002 0.855,-0.159 1.012,-0.753c0.829,-3.14 1.708,-6.266 2.568,-9.397c0.064,-0.234 0.116,-0.472 0.202,-0.827l-16.115,-0l-0,-8.997l0.785,-0c6.173,-0 12.348,-0.003 18.522,0.002c4.586,0.003 7.544,3.849 6.343,8.27c-1.346,4.961 -2.716,9.917 -4.089,14.871c-0.922,3.332 -4.115,5.751 -7.585,5.753c-8.298,0.004 -16.596,0.005 -24.894,-0c-3.933,-0.003 -7.042,-3.022 -7.051,-6.949c-0.027,-11.638 -0.029,-23.277 0.001,-34.916c0.01,-3.973 3.103,-6.949 7.209,-6.96c10.199,-0.027 20.399,-0.009 30.598,-0.006c0.216,-0 0.432,0.033 0.683,0.053l-0,8.858c-0.339,0.016 -0.672,0.047 -1.005,0.047c-9.163,0.002 -18.325,0.002 -27.487,0.002c-1.031,-0 -1.032,0.002 -1.032,1.051l-0,29.884Z" style="fill:#fff;fill-rule:nonzero;"/><path d="M294.777,30.024c5.431,6.7 10.727,13.234 16.112,19.879c-0.393,0.02 -0.632,0.044 -0.87,0.044c-3.309,0.003 -6.618,-0.009 -9.928,0.013c-0.52,0.002 -0.857,-0.162 -1.185,-0.567c-5.131,-6.349 -10.282,-12.682 -15.417,-19.029c-2.376,-2.938 -1.814,-6.869 1.309,-8.499c0.963,-0.503 2.159,-0.75 3.257,-0.778c3.727,-0.093 7.457,-0.036 11.186,-0.036l0.939,0c0.025,-0.257 0.062,-0.467 0.062,-0.678c0.004,-3.181 -0.01,-6.362 0.014,-9.542c0.004,-0.574 -0.158,-0.766 -0.748,-0.765c-6.741,0.018 -13.482,0.022 -20.224,-0.005c-0.732,-0.003 -0.771,0.324 -0.771,0.894c0.011,12.648 0.008,25.297 0.008,37.945c0,0.315 0.001,0.63 0.001,0.997l-8.986,0l0,-41.38c0,-4.351 3.029,-7.394 7.404,-7.4c8.321,-0.012 16.644,-0.014 24.966,0.001c4.206,0.007 7.243,2.914 7.296,7.1c0.062,5.053 0.045,10.109 -0.02,15.162c-0.046,3.546 -3.118,6.558 -6.675,6.63c-2.246,0.046 -4.494,0.012 -6.741,0.014l-0.989,0Z" style="fill:#fff;fill-rule:nonzero;"/><path d="M324.706,40.963l21.623,-0l0,-0.84c0,-9.715 -0.007,-19.43 0.015,-29.144c0.002,-0.699 -0.175,-0.92 -0.899,-0.917c-6.618,0.026 -13.236,0.026 -19.854,-0c-0.725,-0.003 -0.901,0.218 -0.9,0.918c0.022,9.713 0.015,19.428 0.015,29.143l0,0.84Zm30.601,-15.436c0,5.695 -0.075,11.39 0.025,17.083c0.071,4.078 -3.15,7.396 -7.366,7.36c-8.344,-0.07 -16.69,-0.02 -25.034,-0.022c-3.626,-0 -6.433,-2.313 -7.104,-5.869c-0.072,-0.383 -0.07,-0.784 -0.07,-1.177c-0.003,-11.511 0.05,-23.024 -0.036,-34.536c-0.025,-3.289 2.42,-7.225 7.173,-7.243c8.419,-0.032 16.839,-0.042 25.258,0.005c4.218,0.023 7.15,3.088 7.153,7.315c0.004,5.696 0.001,11.39 0.001,17.084" style="fill:#fff;fill-rule:nonzero;"/><path d="M261.289,1.161l0,8.916l-25.481,-0c-0.998,-0 -0.999,0.002 -0.999,1.011c-0.001,3.008 0,6.016 0,9.024l0,0.911l26.471,-0l0,9.001l-25.521,-0c-0.949,-0 -0.95,0.002 -0.95,0.974c-0.001,3.058 0.021,6.115 -0.017,9.172c-0.009,0.696 0.212,0.857 0.877,0.855c8.224,-0.02 16.446,-0.013 24.67,-0.013l0.929,-0l0,8.89c-0.304,0.016 -0.619,0.045 -0.932,0.045c-9.112,0.002 -18.225,0.003 -27.337,0.001c-4.034,-0.001 -7.139,-3.086 -7.14,-7.107c-0.005,-11.465 -0.003,-22.931 -0.002,-34.396c0,-4.236 2.993,-7.308 7.24,-7.322c9.162,-0.029 18.323,-0.01 27.484,-0.008c0.219,-0 0.437,0.027 0.708,0.046" style="fill:#fff;fill-rule:nonzero;"/><path d="M75.969,27.841c-0,-0.134 0.021,-0.234 -0.003,-0.322c-1.474,-5.385 -2.946,-10.77 -4.434,-16.151c-0.222,-0.802 -0.854,-1.26 -1.705,-1.284c-0.814,-0.023 -1.629,-0.007 -2.444,-0.007c-1.556,0.001 -1.978,0.326 -2.395,1.84c-1.083,3.937 -2.167,7.873 -3.247,11.811c-0.369,1.345 -0.727,2.694 -1.11,4.113l15.338,-0Zm15.418,22.063c-0.312,0.02 -0.506,0.043 -0.701,0.043c-2.618,0.003 -5.236,-0.015 -7.853,0.016c-0.556,0.007 -0.766,-0.193 -0.904,-0.702c-1.052,-3.895 -2.142,-7.778 -3.185,-11.675c-0.149,-0.556 -0.378,-0.743 -0.953,-0.741c-6.297,0.018 -12.594,0.023 -18.892,-0.005c-0.643,-0.003 -0.843,0.258 -0.99,0.801c-1.032,3.823 -2.105,7.636 -3.117,11.464c-0.168,0.634 -0.4,0.872 -1.078,0.86c-2.518,-0.04 -5.037,-0.015 -7.557,-0.018c-0.261,-0 -0.522,-0.024 -0.894,-0.044c0.335,-1.224 0.641,-2.356 0.952,-3.486c3.785,-13.78 7.566,-27.561 11.361,-41.339c0.664,-2.412 2.613,-3.935 5.092,-3.956c3.778,-0.031 7.557,-0.029 11.335,-0.001c2.478,0.019 4.442,1.561 5.099,3.95c4.044,14.705 8.083,29.411 12.121,44.117c0.058,0.206 0.096,0.417 0.164,0.716" style="fill:#fff;fill-rule:nonzero;"/><path d="M208.617,1.166l8.968,-0l0,48.708l-8.968,-0l0,-19.801l-21.95,-0l0,19.811l-8.965,-0l0,-48.708l8.928,-0l0,19.835l21.987,-0l0,-19.845Z" style="fill:#fff;fill-rule:nonzero;"/><rect x="95.928" y="1.164" width="9.33" height="48.804" style="fill:#fff;"/></g></svg>