<svg id="logo" xmlns="http://www.w3.org/2000/svg" width="187.87" height="51.907" viewBox="0 0 187.87 51.907">
  <g id="图层_1" data-name="图层 1">
    <path id="路径_1" data-name="路径 1" d="M19.16,10.663H41.134L43.266,0H9.99L0,51.509H11.286L15.223,31.25H35.729l2.026-10.663h-20.5Z" fill="#fff"/>
    <path id="路径_2" data-name="路径 2" d="M72.4,51.545H83.112L92.848.2h-10.7Z" transform="translate(-13.016 -0.036)" fill="#fff"/>
    <path id="路径_3" data-name="路径 3" d="M217.048,0H203.629L191.588,15.248,185.108,0H173.4l10.54,24.5L162.29,51.509H175.7L188.652,35.2l6.972,16.314h11.795L196.3,25.87Z" transform="translate(-29.177)" fill="#fff"/>
    <path id="路径_4" data-name="路径 4" d="M56.347,18.2,49.4,54.782H60.112L67.051,18.2Z" transform="translate(-8.881 -3.272)" fill="#fff"/>
    <path id="路径_5" data-name="路径 5" d="M69.332,11.683,71.506.2H60.8L58.62,11.683Z" transform="translate(-10.539 -0.036)" fill="#fff"/>
    <path id="路径_6" data-name="路径 6" d="M131.6,22.514a18.43,18.43,0,0,0-3.511-4.331,10.573,10.573,0,0,0-6.439-2.083h-7.562a14.083,14.083,0,0,0-6.988,2,35.2,35.2,0,0,0-4.921,4.1,10.925,10.925,0,0,0-2.854,5.643L96.451,42.609a8.711,8.711,0,0,0,.705,5.889,20.505,20.505,0,0,0,3.494,4.3,10.433,10.433,0,0,0,6.447,2h7.71a14.674,14.674,0,0,0,6.873-2.067c1.64-.984,5.528-4.282,6.824-6.5l.763-1.321H107.942s-.689-1.009-.935-1.493l.525-2.772h22.22l2.411-12.3a8.571,8.571,0,0,0-.566-5.832Zm-10.663,8.35H109.451l.435-2.051v-.09a10.736,10.736,0,0,1,3.043-2.37h7.718a6.693,6.693,0,0,1,1.025,1.148Z" transform="translate(-17.3 -2.894)" fill="#fff"/>
  </g>
</svg>
