<svg xmlns="http://www.w3.org/2000/svg" width="83.773" height="39.578" viewBox="0 0 83.773 39.578">
  <g id="组_9" data-name="组 9" transform="translate(-848 -5266.654)">
    <path id="路径_58" data-name="路径 58" d="M-2351.4,32.43c23.08,0,41.886,8.882,41.886,19.763s-18.806,19.815-41.886,19.815-41.886-8.882-41.886-19.815S-2374.484,32.43-2351.4,32.43Z" transform="translate(3241.29 5234.224)" fill="#f29600" fill-rule="evenodd"/>
    <path id="路径_59" data-name="路径 59" d="M-2365.825,47.116h-13.754a9.809,9.809,0,0,1,7.035-2.577,8.761,8.761,0,0,1,5.984,1.861c.265.233.521.465.786.744Zm1.1,14.478h-16.242a.844.844,0,0,0-.154-.233,18.371,18.371,0,0,1-1.265-2.568h6.881a3.072,3.072,0,0,0,2.684,1.079,2.776,2.776,0,0,0,2.308-1.023.054.054,0,0,1,.051-.056h6.839a11.612,11.612,0,0,1-1.1,2.791Zm9.984,0h-6.2V58.8h6.2Zm9.241,0h-6.351l-.949-2.791h8.146Zm8.984,0h-6.309V58.8h6.3Zm19.071,0h-16.917a14.6,14.6,0,0,1-.786-2.791h6.095a4.605,4.605,0,0,0,.735,1.656c.684.856,1.47.856,2.684.856a2.442,2.442,0,0,0,1.94-.744,1.291,1.291,0,0,0,.47-1.256.819.819,0,0,0-.1-.512h6.514a6.791,6.791,0,0,1-.633,2.791Zm-16.5.689h16.131c-.051.056-.051.112-.1.167a7.271,7.271,0,0,1-3.154,2.345,12.964,12.964,0,0,1-4.676.744,9.617,9.617,0,0,1-6.984-2,3.814,3.814,0,0,1-1.214-1.256Zm-8.873,0h6.3v2.512h-6.309Zm-8.83,0h5.984l-.633,2.168h-4.625Zm-9.292,0h6.2v2.633h-6.2Zm-19.438,0h15.019a7.827,7.827,0,0,1-2.565,2.168,8.914,8.914,0,0,1-4.274,1.033,12.406,12.406,0,0,1-5.3-1.089,7.61,7.61,0,0,1-2.889-2.112Zm4.274-4.234h-6.462a10.186,10.186,0,0,1-.427-2.922V54.9h6.095v.223a3.952,3.952,0,0,0,.795,2.922Zm12.66,0h-6.36a6.362,6.362,0,0,0,.786-1.433l5.941-.056C-2363.184,56.96-2363.286,57.49-2363.44,58.049Zm8.719,0h-6.2V54.9h6.2Zm10.258,0h-8.548l-1.052-3.145h5.043l.205.735.214-.735h5.129Zm7.933,0h-6.292V54.9h6.3Zm7.249,0h-5.847V57.76h5.881v.288Zm12.4,0h-7.095c-.47-.4-1.47-.344-3.154-.633-2.992-.4-4.2-1.089-5.462-2.112a2.333,2.333,0,0,0-.419-.4h14.122a11.243,11.243,0,0,1,1,.93,4.586,4.586,0,0,1,1,2.233Zm-60-3.889h-6.086a10.876,10.876,0,0,1,.573-3.033h6.881c-.1.167-.205.279-.316.456a6.283,6.283,0,0,0-1.051,2.577Zm22.123,0h-6.2V51.126h10.762l.855,3.033h-4.992l-.47-1.433Zm11.506,0h-5.129l.855-3.033h11.027v3.033h-6.326V52.671Zm23.32,0h-13.677a5.47,5.47,0,0,1-.855-3.033h5.89a.643.643,0,0,0,.257.456,2.264,2.264,0,0,0,2.206,1.089c2.787.4,4.274.512,5.462,1.089.214.112.479.279.684.4Zm-54.845-3.722h-7.3a9.327,9.327,0,0,1,1.71-2.577h15.079a10.023,10.023,0,0,1,1.308,2.577h-6.838a3.722,3.722,0,0,0-2.206-.744,3.472,3.472,0,0,0-1.787.744Zm24.379,0h-10.557V47.86h9.771Zm13.865,0h-10.822l.684-2.577h10.138Zm7.933,0h-5.779a8.607,8.607,0,0,1,.855-2.577h14.635a6.031,6.031,0,0,1,1,2.577h-5.881a1.77,1.77,0,0,0-.735-.93,4.036,4.036,0,0,0-2.051-.465c-.855.056-1.787.233-2.052,1.265v.112Zm5.043.689h5.838c0,.112.051.233.051.344h-5.89Zm-46.6,0h6.411c.154.568.316,1.079.419,1.6h-6.2a10.742,10.742,0,0,0-.633-1.6Zm18.755-4.01h-9.557V44.883h8.873Zm14.865,0h-9.925l.633-2.233h9.292Zm17.028,0h-13.558a6.328,6.328,0,0,1,2.564-1.768,10.371,10.371,0,0,1,4.676-.809,9.224,9.224,0,0,1,5.779,2.121,4.45,4.45,0,0,1,.53.456Z" transform="translate(3239.795 5231.597)" fill="#fff" fill-rule="evenodd"/>
  </g>
</svg>
