<svg xmlns="http://www.w3.org/2000/svg" xmlns:xlink="http://www.w3.org/1999/xlink" width="475.318" height="767" viewBox="0 0 475.318 767">
  <defs>
    <linearGradient id="linear-gradient" x1="0.979" y1="1.074" x2="0.47" y2="0.249" gradientUnits="objectBoundingBox">
      <stop offset="0" stop-color="#9ed8f5"/>
      <stop offset="0.5" stop-color="#187fc3"/>
      <stop offset="1" stop-color="#003893"/>
    </linearGradient>
    <linearGradient id="linear-gradient-2" x1="1.345" y1="0.678" x2="0.022" y2="0.225" xlink:href="#linear-gradient"/>
    <linearGradient id="linear-gradient-3" x1="0.188" y1="0.888" x2="0.966" y2="-0.048" gradientUnits="objectBoundingBox">
      <stop offset="0" stop-color="#80cce3"/>
      <stop offset="0.5" stop-color="#00b7de"/>
      <stop offset="1" stop-color="#0080cb"/>
    </linearGradient>
    <linearGradient id="linear-gradient-4" x1="0.5" y1="0.882" x2="0.5" y2="-0.15" gradientUnits="objectBoundingBox">
      <stop offset="0" stop-color="#b2a795"/>
      <stop offset="0.5" stop-color="#846850"/>
      <stop offset="1" stop-color="#3d0e00"/>
    </linearGradient>
    <linearGradient id="linear-gradient-5" x1="0.658" y1="1.054" x2="0.374" y2="0.219" xlink:href="#linear-gradient-4"/>
  </defs>
  <g id="图层_2" data-name="图层 2" transform="translate(0.008 -0.011)">
    <g id="图层_1" data-name="图层 1" transform="translate(-0.008 0.011)">
      <path id="路径_1" data-name="路径 1" d="M279.608,202.353a15.6,15.6,0,0,1-.307,2.161A683.924,683.924,0,0,0,295.351,332.1c14.808,67.25,43.873,129.411,58.819,196.416,3.648,16.3,6.331,32.958,6.331,49.759,0,48.886-43.382,51.538-61.548,13C270.012,529.852,262.73,396.163,126.16,391.565a2.728,2.728,0,0,0,1.625,1.947,3.054,3.054,0,0,1,.337.138c52.4,16.142,70.776,77.6,135.237,236.426,30,74,73.581,91.762,116.366,86.474,4.767-.766,28.344-7.481,28.344-37.818V165.01C380.568,75.762,302.2,50.116,279.608,202.353Z" transform="translate(67.249 49.586)" fill="url(#linear-gradient)"/>
      <path id="路径_2" data-name="路径 2" d="M395.173,6.11C317.468,7.229,275.45,116.789,279.313,250.86c.107-.751.23-1.441.307-2.161,22.6-152.237,100.96-126.591,128.461-37.343V43.161C408.081,22.313,400.861,11.537,395.173,6.11ZM139.8,437.68H126.141a1.136,1.136,0,0,0,0,.184c136.57,4.6,143.913,138.333,172.794,199.7,18.2,38.584,61.532,35.932,61.532-12.953,0-16.862-2.683-33.464-6.331-49.759-14.946-67.005-44.011-129.166-58.819-196.416a683.927,683.927,0,0,1-16.05-127.572C253.544,420.19,186.739,436.469,139.8,437.68Z" transform="translate(67.237 3.24)" fill="url(#linear-gradient-2)"/>
      <path id="路径_3" data-name="路径 3" d="M279.31,254.111C275.447,120.039,317.542,10.48,395.171,9.361a31.716,31.716,0,0,0-14.778-8.094c-42.922-7.4-86.872,16.219-117.025,116.9C198.4,334.652,180.267,416.71,127.457,438.417a2.177,2.177,0,0,0-1.3,1.932,3.909,3.909,0,0,0,0,.583h13.659C186.736,439.72,253.542,423.44,279.31,254.111Z" transform="translate(67.24 -0.011)" fill="url(#linear-gradient-3)"/>
      <path id="路径_4" data-name="路径 4" d="M186.457,366.194C137.74,343.583,125.706,295.433,84.9,185.8c-18.61-49.913-43.842-56.5-67.45-46.832C11.394,141.694,0,149.205,0,167.095v403.64a30.965,30.965,0,0,0,5.411,18.4C86.861,588.486,34.005,424.8,34.005,346.2c0-45.85,33.449-58.252,58.114-27.348,29.509,37.021,56.136,49.453,95.748,50.051a2.391,2.391,0,0,0-1.41-2.713Z" transform="translate(0.008 72.028)" fill="url(#linear-gradient-4)"/>
      <path id="路径_5" data-name="路径 5" d="M90.233,260.919c-24.665-30.889-58.114-18.549-58.114,27.3,0,78.594,52.856,242.282-28.589,242.926a29.832,29.832,0,0,0,11.988,9.78c23.623,9.734,48.886,3.219,67.45-46.77,42.555-114.22,51.43-155.824,101.343-181.026a3.066,3.066,0,0,0,1.625-2.207C146.37,310.326,119.743,297.894,90.233,260.919Z" transform="translate(1.894 129.966)" fill="url(#linear-gradient-5)"/>
    </g>
  </g>
</svg>
