<svg xmlns="http://www.w3.org/2000/svg" width="1008.901" height="1031.453" viewBox="0 0 1008.901 1031.453">
  <g id="组_501" data-name="组 501" transform="translate(127.83 -2467)">
    <path id="路径_9971" data-name="路径 9971" d="M19.37,80.056c-4.289,3.056-5.7,2.441-5.725,2.42-.073-.064.1-.241.271-.387.009-.021,2.983-2.561,3.24-2.751a25.516,25.516,0,0,1,3.112-1.508,1.9,1.9,0,0,1,.739-.146C21.476,77.77,21.738,78.38,19.37,80.056Zm-5.286-5.149c-.12-.082-.219.017-.331.064a28.387,28.387,0,0,0-2.617,1.233c-.322.2-.614.554-.511.627a2.936,2.936,0,0,0,1.491-.507A10.793,10.793,0,0,0,14.084,74.908Zm12.571-5.763a9.876,9.876,0,0,0,2.48-.821c.12-.052,1.242-.524,3.038-1.491.017-.021,2.071-1.122,2.394-1.38-.142-.047-.142-.047-.464.056a124.8,124.8,0,0,0-14.612,6.606l3.868-1.551A21.336,21.336,0,0,1,26.655,69.144Zm-8.088,4.719a.823.823,0,0,0-.138-.039c.163-.159.249-.223,3.081-1.453.971-.421,2.3-.993,3.013-1.371a2.623,2.623,0,0,0,.4-.266,4.385,4.385,0,0,0-.6.12A56.386,56.386,0,0,0,8.454,78.99c.662.138,9.528-4.289,10.026-4.68A1.024,1.024,0,0,1,18.567,73.863Zm8.423-.812a3.315,3.315,0,0,0,.494-.374c.284-.249.516-.554.791-.812.49-.468,1.023-.89,1.521-1.354.292-.275.292-.34.3-.374-.039-.039-.064-.047-.275.009a19.079,19.079,0,0,0-4.783,3.026l.013.034c.275.142.275.142-.473,1.208A26.266,26.266,0,0,0,26.99,73.051ZM6.215,88.69a1.372,1.372,0,0,0-.524.086,9.613,9.613,0,0,0-1.414.554A23.632,23.632,0,0,0-.145,92.313l.026.056a25.391,25.391,0,0,0,5.639-2.677C6.086,89.27,6.619,88.75,6.215,88.69Zm3.743,8.75c-.2-.138-.4-.3-1.5-.129-.189.026-.434.069-.615.107-1.8.37-3.61.735-5.411,1.113-2.218.5-9.395,3.993-10.379,5.394.009.056.03.116.039.163.585.189,1.229-.12,1.792.275.872.619.615,1.014.43,1.311a49.028,49.028,0,0,1-6.373,4.839c-.533.3-.6.284-.894.266-.361-1.418,1.328-1.9,1.367-3.129-.894.138-5.321,2.557-5.836,3.808a.779.779,0,0,0-.077.477c.275,1.053.838,2,1.036,3.09a5.4,5.4,0,0,1,.339,1.246c0,.8-.494,1.521-.374,2.338a.827.827,0,0,0,.172.408c1.345,1.453,13.413-5.789,16.705-9.171.722-.752,2.824-5.037,1.444-4.99-1.521.056-2.849.808-4.285,1.152,2.824-1.938,5.991-3.275,8.81-5.222C6.37,100.767,9.928,97.677,9.959,97.44Zm-34.622-.529c5.243-2.4,9.678-6.2,14.814-8.78-5.192,3.348-5.192,3.348-5.445,3.636L2.3,81.5A4.35,4.35,0,0,0,3.7,80.31a1.245,1.245,0,0,0-.662.12c-3.76,1.719-28.674,15.416-33.986,19.881,2.652-.344,4.315-2.549,6.558-3.666A3.22,3.22,0,0,1-24.664,96.912Zm.047,37.979a1.045,1.045,0,0,0-.236.034,4.157,4.157,0,0,0-1.178.726c-2.286,1.814-3.993,4.263-6.485,5.823-4.139,2.587-5.381,3.374-5.57,4,.034.021.069.069.1.077a4.983,4.983,0,0,0,1.629-.232c1.569-.34,1.766-.331,2.059-.116.55.382.421,1.289,1.147,1.547a9.184,9.184,0,0,0,2.5-.254c7.143-1.358,10.108-4.358,10.125-4.388.8-.98-1.186-4.74-1.195-4.77A5.907,5.907,0,0,0-24.616,134.89ZM-14.6,104.067a4.1,4.1,0,0,0-1.225.189,14.65,14.65,0,0,0-6.713,3.834c.017.021.034.047.056.056.383.009.761-.193,1.143-.034.082.275.107.318-.266,1.109-.232.473-.821,1.749-.03,1.513,1.289-.4,5.1-3.821,5.523-4.207C-14.289,104.862-13.842,104.132-14.6,104.067ZM155.585,33.259c-2.553,3.21-9.231,5.058-12.82,6.051-.168.043-18.321,5.428-19.1,6.507-5.007,6.889,7.59,9.107,7.74,9.09,31.236-2.342,31.635-1.994,33.831-.047.163.142,14.685,16.658,9.962,25.636-1.908,3.649-1.9,3.786-1.8,4.289.339,1.925,2.6,2.067,3.258,3.7,1,2.5-.009,5.355,1.354,7.783,4.117-.988,7.426-5.376,12.33-3.133,8.381,3.812,4.513,10.714,4.448,10.774-3.438,4.164-9.7,3.98-12.79,8.673-1.706,2.579-3.374,9.67-2.084,13.826,8.136,26.813,52.449,69.523,68.415,51.168,3.1-3.546,8.376-30.887,8.419-31.158.765-4.023-1.306-8.282.933-12.18,1.19-2.02,1.328-2.063,8.638-4.336,23.031-7.134,23.031-7.134,23.637-11.6.61-4.607.963-7.143,5.11-9.3,10.048-5.213,21.609-5.952,31.644-11.234,4.109-2.175,8.587-3.563,12.39-6.313.082-.06,1.968-1.47-.374-4.573-3.421-4.517-8.63-7.13-11.93-11.78-2.1-2.974-2.024-6.73-3.485-9.936-1.685-3.748-.928-4.758,1.126-6.885,2.845-2.957.877-4.156-4.981-7.684-19.12-11.552-19.284-11.827-20.921-14.423.107-.249.228-.563.335-.817.292-.116.688-.258.98-.378-5.587-5.6-16.929-1.165-19.649-11.789-.572-.3-1.341-.692-1.913-.958a13.968,13.968,0,0,1,.408-1.633l.769-.2c-2.506-.348-9.743-.821-9.816-.825a58.164,58.164,0,0,0-12.137,1.01c-4.19.769-7.74-2.046-11.771-2.188-5.66-.2-18.106-.223-23.066.021-9.133.524-9.133.524-10.19,1.251l-.039.009c-9.936.554-9.936.554-14.685,1.487h-.026c-.09.021-.219-.06-.275.06.013.043.056.026.086.03.1.017.215.03.318.047,5.806.438,5.806.438,7.547.894-.486.052-.486.052-6.971-.056a49.49,49.49,0,0,0-6.807.258,144.926,144.926,0,0,0-40.213,10.43C152.242,33.263,152.242,33.263,155.585,33.259ZM67.393,134.087c1.19-3.245.662-4.706-1.56-4.354-.064.013-6.713,1.818-7.942,4.852-.688,1.745,2.084,6.287,3.189,6.992C63.791,143.348,67.358,134.185,67.393,134.087ZM114.744,37.72c-1.474.623-2.987,1.165-4.5,1.736,4.792-1.152,20.233-5.492,22.726-6.21-10.344,3.511-18.523,6.287-27.243,8.178a6.882,6.882,0,0,0-3.434,1.556,9.9,9.9,0,0,1-2.321,5.028c-4.611-1.427-16.58,5.673-17.049,6.081,1.057.477,2.3.275,3.314.915-.052.159-.129.374-.163.537,1.539-.206,2.127-.275,7.242-2.218C84.5,58.237,83.475,57.068,82.8,56.3c-6.674.163-7.065,2.759-7.237,4.01-3.791,2.557-8.729,2.828-12.089,6.219a5.594,5.594,0,0,0,.322.486c1.062.06,1.822.095,8.784-1.3,5.136-1.04,9.687-4.766,15.338-3.494-.417,1.014-.417,1.014-1.6,1.934,3.756.765,15.777-5.2,14.685-8.239-.4-.12-.941-.249-1.354-.344.894-1.289,8.845-6.447,10.641-6.881,10.731-2.647,14.5-6.773,14.595-7.7-.159-.056-.378-.129-.55-.193,9.945-2.656,14.483-3.872,17.573-5.961a7.155,7.155,0,0,0-2.531.254c.107-.034,22.515-7.173,23.667-7.521-5.8.851-6.15.894-8.337,1.049,5.561-1.517,11.273-2.372,16.855-3.829-5.4.013-14.384,1.152-14.449,1.169-.219.026-21.824,3.8-26.482,5.634a2.3,2.3,0,0,0,.872.722,7.655,7.655,0,0,1-3.945.236c-1.577-.2-20.147,4.418-22.056,6.773C106.454,39.783,106.695,39.89,114.744,37.72ZM27.871,75.995c-.426.623-.7,1.341-1.169,1.908A16.537,16.537,0,0,1,23.634,80.6c.232-.58.533-1.354.769-1.938a3.1,3.1,0,0,0,.275-.915c-.189-.1-2.076.107-4.023,2.17.211,0,.438-.021.649-.034a1.089,1.089,0,0,1-.013.211c-2.239,1.934-5.23,2.248-7.7,3.683.382.206.774-.249,1.169.009-.318.658-.318.658-.284.786.43.138.43.138,7.607-2.278-2.261,1.285-8.29,4.693-8.759,6.219a.426.426,0,0,1,.064.1c.034.013,8.135-3.064,9.158-3.636.7-.4.7-.4,5.269-4.482a.836.836,0,0,1-.017.722.411.411,0,0,1-.064.12c2.1-2.041,2.1-2.041,7.624-6.726,1.186-1,1.272-1.074,1.453-1.4a1.208,1.208,0,0,0-.816.009c-.056.013-7.2,2.179-7.921,2.613A.583.583,0,0,0,27.871,75.995Zm78.338,58.629c3.335-.284,10.684,9.188,10.766,9.292,1.749,2.334,3.571,4.749,5.226,4.431,4.6-.89,11.479-18.871,11.544-19.052a5.722,5.722,0,0,0,.288-1.9l-33.642-7.8c.941-.756,1.844-1.457,9.923-5.136,3.55-1.6,5.316-2.411,5.2-3.356-.279-2.463-12.094-13.916-17.831-14.866-2.549-.417-5.248.374-7.71-.864-2.617-1.315-2.291-5.66-5.875-5.948-3.292-.266-10.375,2.463-15.549,4.457-5.247,2.016-5.3,2.011-6.124,1.96-.34-.864-.722-1.758-1.027-9.58-2.127-.86-8.776.292-10.757.666-10.121,2.441-40.3,28.322-34.631,32.28,5.621,3.932,25-.116,27.6-1.405-.387-1.659-.636-2.755,7.8-3.7,7.164-.8,8.23-2.574,8.943-3.756a60.928,60.928,0,0,1,6.378,5.058c2.463,2.695,3.5,6.348,5.8,9.171,2.9,3.55,9.575,3.163,9.644,9.678,0,.138-1.448,14.75-21.351,20.852-5.952,1.822-12.416,1.474-18.063,4.556-2.505,1.349-2.579,5.66-1.865,6.3,1.092,1.006,4.611,1.448,15.072-2.175,7.994-2.772,7.994-2.772,22.21,3.623-1.152,1.242-1.152,1.242-6.881,3.438,3.137,2.832,27.441,8.011,32.4,5.2-.2-.769-.2-.769-1.461-1.4-.645-.318-.645-.318-11.453-10.624,8.432.933,11.1,2.041,15.893,5.359.933.653,1.6,1.126,2.063.984,2.707-.855,7.224-11.3,5.041-13.611-4.71-5.02-13.495-4.362-16.189-12.2C95.383,138.109,106.1,134.632,106.209,134.624ZM-3.717,85.6c.288.228,2.188-.7,3.709-1.676a5.78,5.78,0,0,0,.933-.683l-.034-.026a.888.888,0,0,0-.232.064C-.042,83.546-3.678,85.282-3.717,85.6Zm191.242,18.325a3.438,3.438,0,0,0,1.676-1.59,1.519,1.519,0,0,0-.236-1.4c-.46-.786-1.384-1.036-1.934-1.732a1.656,1.656,0,0,1-.361-1.083.3.3,0,0,0-.086-.215,3.9,3.9,0,0,0-2.471-.228c-2.3.507-8.875,4.414-5.286,6.661a5.11,5.11,0,0,0,3.563.636ZM81.657,86.817a.707.707,0,0,0,.107-.09c-.533-.838-7.688-3.008-12.975-2.179-4.633.791-3.185,3.984-2.1,4.9C70.208,92.386,81.541,86.877,81.657,86.817Zm-36.1-24.639a32.719,32.719,0,0,0-4.388,1.99A3.03,3.03,0,0,0,41.834,64a12.542,12.542,0,0,1,4.534-.559c-.206.829-1.324.8-1.513,1.646.3.4,4.169-1.2,4.444-1.349,1.4-.761,5.9-4.77,5.9-5.574-.6-.2-1.079.327-1.65.318.511-1.019,1.766-.958,2.4-1.788-.1-.03-.1-.03-.4.06a73.905,73.905,0,0,0-10.082,4.323c.9.262,1.7-.408,2.587-.331C48.174,61.086,47.7,61.357,45.556,62.178ZM26.071,84.135c-.976.7-1.307.945.2,1.891,1.285.821,4.521.077,7.3-2.342,1.586-1.4,4.852-4.818,3.357-4.96a2.362,2.362,0,0,0-.619.086C33.72,79.541,26.5,83.83,26.071,84.135ZM70.216,59.406c-.017-.03-.056-.069-.064-.09a2.059,2.059,0,0,0-.352.064c-.108.039-.228.064-.327.1-2.08.636-4.1,1.474-6.158,2.114-2.394.744-4.861,1.229-7.255,1.99a19.876,19.876,0,0,0-3.112,1.147c.649.159,7.615-1.019,11.363-2.093a14.082,14.082,0,0,0,5.282-2.712A3.427,3.427,0,0,0,70.216,59.406ZM52.9,63.141c.03.021.047.056.069.073.769-.095,7.929-3.154,9.984-4.147.911-.434,1.092-.606,1.113-1,0-.464-.679-.249-.7-.692,0-.2.133-.421,0-.64a.1.1,0,0,0-.039-.082.6.6,0,0,0-.3-.2,1.3,1.3,0,0,0-.967.077,5.443,5.443,0,0,0-1.092.623c-1.569,1.13-2.6,2.957-4.487,3.675C54.139,61.7,53.352,62,52.9,63.141ZM69.511,52.134c5.058-2.579,5.088-2.639,5.166-2.781a1.387,1.387,0,0,0-.524.095c-.052.017-5.106,1.672-6.58,2.4-1.693.86-1.109,1.448-1.109,1.448C66.812,53.479,67.99,52.9,69.511,52.134Zm10.916-2.4c2.175-.67,2.845-.851,3.567-.55a.82.82,0,0,1-.056.258,16.45,16.45,0,0,1-3.49,1.341c-5.849,1.9-7.34,2.587-7.71,2.828-1.315.838-1.435,2.428-.877,2.69.163.064.163.064,3.9-1.036,1.483-.443,3.081-.077,4.564-.632,3.614-1.328,6.7-3.743,10.19-5.338,2.183-.984,4.577-1.276,6.7-2.372a1.767,1.767,0,0,0,.46-.331c-.116-.116-.116-.116-1.693-.473-.026-.052-.034-.112-.065-.159a9.528,9.528,0,0,1,1.1-.572c2.987-1.431,3.008-1.556,3.064-1.869-.327-.077-.688.021-.967-.232.46-.658,1.59-.864,1.354-1.977.649-.769,1.663-1.044,2.256-1.874a3.955,3.955,0,0,0-.64.009c-3.623.92-16.778,5.974-18.067,6.825a6.07,6.07,0,0,0,2.011-.309c-.98.842-3.683,1.474-4.843,1.732a11.894,11.894,0,0,0-6.034,3.279C75.558,51.219,79.938,49.887,80.427,49.736Zm-41.7,34.579c.331,0,36.964-3.855,46.668-13.705,2.639-2.669-3.859-3.06-3.924-3.06-3.374-.09-19.825,5.716-23.242,7.13-3.043,1.259-5.428-1.642-4.783-2.394.288-.335.778-.5,1.9-.829,5.931-1.71,3-3.636,2.359-3.666-1.551-.086-2.871.855-4.354,1.036-1.745.215-3.421-.447-5.149-.258a29.14,29.14,0,0,0-3.344.58c-.911.382-3.786,3.451-3.76,4.2a5.447,5.447,0,0,0,2.256-.529c1.633-.58,3.9-1.375,4.371-1.062.915.606-2.007,4.422-2.153,4.581-1.792,1.706-4.3,2.347-5.948,4.263C36.424,84.358,37.717,84.337,38.731,84.315ZM770.316,596.443c.043-.842.052-1.723.082-2.652-1.182,17.664-1.968,24.166-2.6,29.362l-1.526,11.359-.271,1.8c-.254,1.629-.64,3.79-.945,5.406.133-.877.305-2.041.434-2.914-.671,3.962-.671,3.962-14.595,34.7-2.351-.533-2.351-.533-7.611,1.994-1.547-49.191,12.278-98.46-.765-147.6a10.664,10.664,0,0,1-2.88,5.222c-1.341-9.412-1.341-9.412-2.613-11.44l5.351,65.114c1.8,20.68-2.132,41.193-1.728,61.839.137,7.946,1.908,15.82,1.006,23.809-2.415,21.574-2.415,21.574-1.255,23.225,5.161-1.122,5.161-1.122,8.11-.133-17.926,62.617-55.982,78.974-70.383,114.967-1.8,4.538-19.219,40.97-37.961,59.321-7.848,7.671-18.454,11.3-26.4,18.824-6.941,6.571-10.809,15.613-17.3,22.546l-28.769,23.474-22.743,16.4c-5.677,3.954-22.95,15.992-37.63,11.337,3.236-7.551,4.955-9.369,8.075-12.644,4.6-4.843,5.428-5.716,34.089-57.92,7.37-13.413,8.282-29.4,16.249-42.564,8.561-14.157,20.977-25.618,27.471-41.228,14.1-33.9,10.658-49.354,8.148-60.627-4.061-18.1,16.224-29.792,9.536-50.493-4.556-1.461-9.837.322-13.89-3.288-4.134-3.67-1.113-10.216-5.342-13.843a4.869,4.869,0,0,0-2.235-1.233c-23.478-2.587-45.616,6.249-68.544,8.458-4.62.447-28.983-23.371-32.224-30.3-7.723-16.52-16.761-32.4-23.268-49.5-4.354-11.423,9.4-16.1,9.231-25.971-.193-11.745-7.976-21.871-6.932-33.887,0-.039,25.339-45.027,28.786-50.691,1.165-1.938,10.727-9.507,16.28-12.257,6.18-3.056,6.18-3.056,7.379-26.551.107-2.166-.46-5.376.739-7.164,4-6.055,12.115-5.952,16.451-11.518,3.473-4.478.778-10.783,4.336-15.231a21.523,21.523,0,0,1,2.359-2.2c.026,0,.064,0,1.109.748,5.815,7.117,7.628,6.743,12.983,5.634.37,0,.731.021,2.815.206,18.893,6.691,34.265-14.621,53.274-7.04a24.731,24.731,0,0,1,3.589-4.491c14.651,3.442,14.651,3.442,18.171.7a77.312,77.312,0,0,1,7.852,4.861c1.668,22.056,1.668,22.056-.511,25.605-.92,1.491-2.11,4.233-1.229,5.75,2.867,4.861,42.887,42.113,46.66,44.945l2.484-1.036c2.338-6.356-.339-13.533,3.051-19.731,18.218.305,16.623,26.254,34.072,27.565a7.291,7.291,0,0,1,4.457-1.925c1.685,5.26,2.544,6.421,7.787,6.863,4-10.082,3.692-15.82,1.728-53.171a13.908,13.908,0,0,1-4.293-2.97,24.206,24.206,0,0,1-1.186,5.329c-4.491-2.781-5.763-8.329-9.631-11.642.026.8.065,1.857.09,2.656-.55.572-1.281,1.337-1.835,1.908-11.883-10.241-14.242-28.592-15.506-38.451-.722-.215-1.693-.507-2.415-.726a35.683,35.683,0,0,1,.331-5.944c3.15-1.616,7.087-.069,10.009-2.613a9.786,9.786,0,0,1-2.437-4.379c1.539.361,3.58.954,5.093,1.474a8.85,8.85,0,0,0,1.925-4.745c12.712-3.408,12.3,14.358,20.139,19.735.683-.383,1.607-.911,2.269-1.289.6-19.692-14.208-32.555-20.766-49.067.456-.666,1.057-1.56,1.5-2.226-2.08-8.3-2.08-8.3-3.5-10.615.4-.752.933-1.745,1.337-2.5-1.169-3.189-1.865-4.556-5.909-3.674-2.69,7.843,10.869,17.341,1.779,22.713-2.127-3.047-3.27-6.73-5.733-9.575.881-5.269.881-5.269.082-8.66a19.662,19.662,0,0,1-6.111-5.273c.322-.713.761-1.676,1.083-2.381a7.258,7.258,0,0,0-4.856-.258c-2.338,19.249,11.114,35.924,8.6,55.212-.812.043-1.9.112-2.733.168a34.634,34.634,0,0,1-2.213,5.024c-1.62-6.159-9.395-10.89-13.1-11.707-2.033,1.582-2.033,1.582,2.123,22.752,1.285,6.528,3.816,12.8,3.833,19.572a46.7,46.7,0,0,1-.361,5.531L687.753,412.09c-11.419-33.629-11.419-33.629-11.565-33.857L637.8,332.08a9.079,9.079,0,0,0-3.872,3.3c16.929,35.413,21.953,37.7,28.3,40.6-.18.8-.426,1.865-.619,2.656,13.52,16.619,13.52,16.619,14.358,20.827-1.044-1.41-2.407-3.309-3.425-4.745-.769.206-1.784.486-2.544.683-.077,3.236-.077,3.236,2.437,12.184-1.96,3.292-2.811,7.134-4.929,10.353-.743-.1-1.741-.249-2.5-.339-.855,4.654,1.994,9.158.55,13.834-.073-.039-10.284-9.094-13.585-14.827,16.86-2.368,18.226-2.57,15.261-12.5C663.3,390.946,623.361,344.015,623,343.7c-7.276-6.417-11.135-.937-15.785,7.508-5.106-.022-9.36-7.452-14.814-2.8-1.272,1.07-1.272,1.07-1.444,16.61-11.784,4.745-12.012,4.839-16.563,24.093,4.268,6.893,2.282,17.135-5.621,18.149l-28.623,9.717c-.116-.176-.116-.176-2.127-8.63-5.243-1.212-7.787-1.01-20-.039.305-1.358.305-1.358,1.93-16.142-6.017-1.814-7.977-49.746-7.946-50.214a29.576,29.576,0,0,1-3.382-4.8c17.483,1.818,34.42,7.2,52,8.484.211-.348,6.137-39.139-31.6-49.862.649-.473,1.521-1.1,2.17-1.577-1.59-1.435-3.687-3.331-5.26-4.749.327-.752.782-1.758,1.117-2.51,6.3.163,6.3.163,10.2,2.729a39.965,39.965,0,0,0,5.535-1.96c.245-.8.589-1.891.834-2.7a54.881,54.881,0,0,1-3.2-5.058c3.511,2.622,4.8,3.606,12.854,4.018a16.532,16.532,0,0,0,1.225-5.742,24.9,24.9,0,0,0,5.892-2.957c-3-7.538-3-7.538-3.034-7.929,3.941-1.5,3.941-1.5,10.925-1.332.408-.731.941-1.693,1.349-2.432a87.8,87.8,0,0,1-4.031-14.655c2.286-2.295,2.286-2.295,10.65-2.046.468-.662,1.083-1.551,1.551-2.213,1.586-.258,3.709-.619,5.282-.894,2.248-.438,2.325-.529,2.7-.954-.077-.232-.215-.713-3.245-4.276-7.461-8.815-17.969-27.6-18.57-29.353-1.41-4.091,6.782-4.04,7.134-4.031,2.867.318,6.717,11.337,6.614,13.946-.262,6.318,4.822,13.68,9.141,18.738,5.879,6.893,6.361,6.868,8.453,6.76a15.475,15.475,0,0,1,10.869,3.313l-7.62-1.362a39.353,39.353,0,0,1,11.776,4.044c.666-.417,1.539-.958,2.188-1.367.107-1.56.107-1.56,15.9-.426l.112.017c-.168-.241-.413-.559-.58-.8.447-1.092.606-2.286,1.083-3.369.666-.176.666-.176,4.091.142.322-2.669-4.242-8.668-5.161-9.85-.7-.894-7.444-13.568-7.508-13.671.193-.288.43-.675.6-.963,6.03-.486,6.421,7.839,12,8.058-4.422-9.029-12.536-15-18.209-22.988,5.2.688,9.975,2.91,14.969,4.384-.619-.993-1.324-1.925-1.844-2.978.254-.159.584-.37.834-.529a19.043,19.043,0,0,0,4.1,1.586c-8.608-8.071-21.622-6.833-30.178-14.99-9.8-9.335-9.8-9.335-20.169-33.01.327-.039.761-.073,1.1-.112-.98-2.824-14.341-11.862-18.334-13.22-.163.254-.378.593-.542.851.193.425.421,1,.606,1.418.327.658.327.658,11.079,12.1,4.117,4.379-.494,10.177,2.291,14.78,7.315,12.072,7.315,12.072,12.7,15.717,7.774,5.265,8.093,6.287,7.985,9.012-3,2.845-4.388,4.13,1.59,15.467,2.591,4.947,2.183,15.725,1.345,17.255-4.117-.021-6.369-3.881-8.746-7.972-5.007-8.608-31.82-35.89-33.058-36.805,1.165,3.924,3.563,12.064-1.251,14.35-14.982,7.091-31.2-31.756-31.364-32.159-1.195-2.978-1.242-3.769.984-5.406,6.077-4.444,6.077-4.444,7.577-15.738.056-.451.361-4.693-7.371-16.847-.095-.163-10.46-18.841-10.882-22.142-.271-2.209-.271-2.209,1.345-5.832-.855-2.054-3.073-3.034-3.907-5.114,4.448,1.629,6.7,6.459,11.183,8.054-2.145-2.566-2.145-2.566-2.738-4.074.958.284,13.834,6.322,15.029,9.193-.636-.18-1.461-.486-2.093-.731,7.031,4.882,8.832,5.578,9.769,5.948.236-.185.537-.434.761-.619a31.815,31.815,0,0,1,4.736,3.288,14.878,14.878,0,0,0-1.96-.778c1.113,1.044,2.256,2.136,12.8,8.656,14.685,9.072,36.981,28.8,38.855,32.293-7.977-3.756-13.757-10.671-21.089-15.338,14.668,11.948,27.028,26.517,41.559,38.64.228-.163.554-.382.791-.55-3.421-3.533-7.809-6.077-10.237-10.615a52.487,52.487,0,0,0,4.366,3.228c-8.656-9.18-9-9.648-9.893-10.89.808.7,1.577,1.427,2.368,2.166l.056.069,20.818,21.557c19.49,21.463,20.092,22.3,51.533,66.219,7.34,11.221,16.176,26.817,23.07,38.344a66.73,66.73,0,0,0-19.095-18.1,71.586,71.586,0,0,1,19.095,18.1l17.9,35.86c8,17.719,10.727,23.792,16.623,41.584-.077-.086-.142-.159-.228-.254.275,2.751.275,2.751,17.019,59.6-.082-.15-.2-.378-.275-.533,6.846,41.773,7.151,43.673,10.641,55.479.559,3.838,1.152,7.929,1.8,12.4,1.5,14.866,2.2,34.8,3.017,49.715C771.979,562.019,770.99,581.148,770.316,596.443Zm.09-3c.348-17.049-.593-46.664-2.867-50.192-.8,5.076-1.384,8.737-.017,48.783.322-2.583.322-2.583.825-8.445-.739,18.493-.739,18.493.275,20.719C769.375,601.536,769.662,600.431,770.406,593.448ZM757.294,429.307c.159.662.378,1.547.52,2.218l2.617,11.935c-.051-.185-.1-.4-.155-.58.924,7.087,2.291,14.1,3.653,21.11-4-26.22-5.471-31.609-11.385-53.446-1.074-3.387-2.072-6.554-3.008-9.541,6.128,21.432,6.33,22.314,8.913,33.6C758.08,432.835,757.681,431.073,757.294,429.307Zm-9.352-33.84c.249.688.5,1.367.778,2.028-.778-2.57-1.8-5.063-2.346-7.71.292.834.585,1.685.847,2.54l-6.21-18.811.077.245a13.5,13.5,0,0,0-1.169-2.811c2.445,7.422,5.428,16.821,9.618,30.054C749.051,399.287,748.522,397.474,747.942,395.467Zm19.619,91.48c-.774-7.723-2.2-15.347-3.632-22.958.881,5.888,1.908,12.854,3.146,21.256C767.239,485.8,767.4,486.345,767.561,486.947ZM469.616,235.671a2.127,2.127,0,0,1-.189.46c-1.968,3.919-3.382,11.406-3.391,11.475-.494,3.008-.327,4.444.653,5.673,1.68,2.067,9.463,1.195,15.128-2.523a49.516,49.516,0,0,1,4.272-2.819c1.779-.911,4.156-.245,5.531-2.213.778-1.113.456-3.7-.933-7.658a18.3,18.3,0,0,0-2.454-4.581c-1.474-2.23-1.564-3.038-.576-5.359a7.064,7.064,0,0,0,.576-4.727,7.8,7.8,0,0,0-3.279-4.293,16.659,16.659,0,0,0-2.119-1.225c-1.8-.872-3.765-1.311-5.57-2.153a5.443,5.443,0,0,1-1.99-1.354c-.163-.168-.189-.193-.361-.185-.494.125-12.257,3.124-4.861,7.345a3.316,3.316,0,0,0,1.775.511,4.2,4.2,0,0,1-1.07.658c-4.878,2.441-6.03,3.644-7.147,4.813a5.008,5.008,0,0,0-1.315,4.435,4.671,4.671,0,0,0,2.626,2.854C466.406,235.559,468.078,235.258,469.616,235.671ZM-19.1,94.282c.009-.017.034-.03.043-.039l-.026.009c-1.143.615-10.508,6.171-10.981,6.808C-29.589,101.055-29.09,101.055-19.1,94.282Zm736.87,368.091a2.149,2.149,0,0,0,.245-.116c-.026-.065,0-.155-.034-.2s-4.491-5.918-4.491-5.927a4.087,4.087,0,0,0-1.943-1.264,36.542,36.542,0,0,1-4.392-.859c-2.527-.984-2.527-.984-2.746-.971-1.152.064-1.483,1.049-.786,2.282C705.116,457.946,715.1,463.288,717.772,462.373ZM623.03,390.55c.915,1.023,2.875.52,3.249,2.342.339,1.65-.3,3.331.15,4.972a2.145,2.145,0,0,0,1.689,1.68c1.079.275,6.528-1.517,6.648-5.991a13.59,13.59,0,0,0-.12-1.672c-.271-1.861-.95-3.632-1.225-5.5-.271-2-.146-4.027-.43-6.012-.447-3.154-1.552-3.524-2.643-3.64-1.749.047-6.012,1.7-7.521,4.568C621.93,382.995,621.706,389.093,623.03,390.55Zm-27.144-.885c.034-.017,2.218-2.544,2.222-2.665.2-.9-1.345-1.663-4.053-1.977-2.94-.292-7.65.348-5.815,2.518a12,12,0,0,0,6.459,2.789A1.665,1.665,0,0,0,595.886,389.665ZM623,364.416a1.76,1.76,0,0,0-.731,1.788,4.329,4.329,0,0,0,.778,1.521c.039.047,4.259,5.136,4.547,5.26.967-.468.086-8.153-.752-12.132-.009-.064-1.349-6.107-2.188-6.661a.859.859,0,0,1-.112.017,1.238,1.238,0,0,0-.254.615,3.011,3.011,0,0,0-.086.378c-.327,1.93.322,3.8.322,5.716A4.056,4.056,0,0,1,623,364.416ZM735.277,476.078s2.484.477,2.712.241c.378-.4.89-6.15.89-6.206a2.417,2.417,0,0,0,.017-.352c0-.623-.138-.666-.292-.713-.722,0-1.337.494-2.071.49a3.156,3.156,0,0,1-1.53-.512c-.645-.417-1.074-1.13-1.8-1.453a.683.683,0,0,0-.941.232c-.688.9.043,5.346,1.736,7.353A2.689,2.689,0,0,0,735.277,476.078ZM-71.873,134.551c.047.056.133.138.185.2a1.544,1.544,0,0,0,.623-.254c3-2.1,5.578-4.727,8.557-6.859,5.385-3.834,11.183-7.027,16.5-10.989,1.229-.928,1.229-.928,2.794-3.932l-.133-.331c-1.874.4-3.245,1.741-4.865,2.626,1.354-1.212,1.354-1.212,1.569-2.183a2.1,2.1,0,0,1-.215-.12c-.185.056-.443.125-.632.2-6.631,2.849-6.631,2.849-35.86,27.428a21.064,21.064,0,0,0-6.657,8.325c.077.039.193.086.258.116C-82.751,145.407-77.847,139.27-71.873,134.551Zm40.983-28.382c.722.077,3.06-1.255,5.325-2.557,9.034-5.192,13.658-7.22,13.675-7.233,2.91-1.143,5.952-1.951,8.737-3.438C-.94,91.767,7.423,85.8,7.5,85.742c1.62-1.152,1.728-1.349,1.908-1.663a5.29,5.29,0,0,0-2.531.692C4.311,86.254,2.1,88.3-.455,89.808c3.159-3.2,6.859-5.78,9.928-9.081-.1.017-.236.03-.34.039-.108.06-10.555,5.548-10.877,7.035-.236,1.087-1.65,3.838-9.635,5.742a2.239,2.239,0,0,0-.172-.181,6.93,6.93,0,0,1,.619-.7,1.573,1.573,0,0,0,.2-.215c1.092-1.216,4.792-1.943,3.262-3.679-.211.043-21.587,10.624-21.768,13.649.1.064.1.064,10.344-5.742-1.036,1.745-2.948,2.338-4.4,3.52.258,0,.322,0,2.832-1.388a28.489,28.489,0,0,1,4.525-2.016,134.1,134.1,0,0,1-14.251,7.676C-31.707,105.163-31.729,106.07-30.891,106.169Zm-59.5,54.219c1.556.387,2.742-1.01,4.216-.933.077.086.155.189.228.266-.675,1.887-2.424,2.978-3.339,4.689,1.771.026,16.142-6.515,24.286-13.224,2.617-2.153,3.7-3.056,5.166-3.619.086.06.211.138.305.2a8.049,8.049,0,0,0-.761,1.594c.692.688,6.141,1.9,6.18,1.891,5.127-1.766,5.127-1.766,10.125-7.487a2.409,2.409,0,0,0,.236-.3c-.533-.1-.533-.1-5.286,2.514.524-1.723,5.527-5.6,8.956-5.428,1.229.06,1.474-.017,1.921-.357.03-.017,2.626-2.437,2.2-4.624-2.69-1.56-3.808-4.616-2.372-6.408,1.255-1.586,12.321-15.485,12.068-16.61a9.33,9.33,0,0,0-1.62-.546c-.069-.172-.155-.387-.211-.546a1.025,1.025,0,0,1-.133.09c-5.114,4.435-8.613,10.62-14.6,14.118-.572-2.527,1.968-3.331,2.7-5.14-.129-.095-.322-.228-.456-.331-2.347.9-4.311,2.72-6.82,3.275.7-1.13,1.9-1.839,2.493-3.086-.073-.082-.176-.189-.245-.262-3.335,1.027-5.832,3.7-9.042,4.947,1.977-2.811,5.256-4.061,7.508-6.554-2.011.211-28.3,17.59-27.668,20.835a5.579,5.579,0,0,1,1.019.554c-.5.872-.524.9-3.644,2.832-5.226,3.236-5.458,3.872-5.437,4.642a1.567,1.567,0,0,0,.958.125c2.909-.584,5.286-2.583,8.187-3.236,2.05-.464,4.109.46,6.176,0-3.674,2.9-8.582,4.405-10.663,5.058C-91.509,153.555-92.842,159.774-90.392,160.388ZM29.822,185.882c.438-1.19-.735-1.135-1.655-.993-.047.013-4,.765-5.011,2.02-1.427,1.805-1.074,4.341-.456,4.861C24.184,193.055,29.216,187.537,29.822,185.882Zm-6.7-9.855a2.028,2.028,0,0,0,.924-.782,3.159,3.159,0,0,0-.756-2.952c-.864-.838-2.016-1.319-2.832-2.213-1.427-1.543-2.179-3.644-3.842-5a8.425,8.425,0,0,0-.885-.6c-1.655-1.049-3.7-.864-5.363-1.9-1.057-.662-1.07-2.17-2.14-2.819a.671.671,0,0,0-.477-.021c-1.508.735-6.623,8.1-6.833,8.4-.666.954-1.491,2.261-2.1,3.249l-5.591,9.261c3.322.275,3.322.275,3.584,1.99.322,2.175.322,2.175.636,2.127.447-.082,1.345-.825,3.159-2.394,2.613-2.252,7-6.034,12.132-6.614C16.194,175.357,19.62,177.287,23.122,176.028Zm-9.2,6.335c-.077.009-7.426,1.642-9.824,3.55-1.427,1.139-1.646,4.319-.847,4.912,1.539,1.152,10.8-4.465,12.476-7.1C16.263,182.878,16.388,181.958,13.925,182.362ZM-5.01,606.13c-2.794,1.165-1.2,5.664.529,6.3,1.165.434,8.449,1.831,8.307-1.276C3.723,609.306-1.34,605.309-5.01,606.13ZM503.469,233.685c-.511.06-.43.352-.288.894l3.533.284C504.81,233.964,504.053,233.689,503.469,233.685ZM161.907,271.84c3.357-4.487,4.839-7.478,4.4-8.888a1.543,1.543,0,0,0-.619-.12c-1.835.627-6.722,4.9-10.508,9.653-4.577,5.763-7.7,12.545-12.188,18.364-2.407,3.1-5.729,5.295-7.981,8.531-.859,1.246-.172,1.6.2,1.8.589.314.589.314,14.187,1.44,7.77.64,13.482,1.345,19.541,3.034a14.319,14.319,0,0,0,2.312.576c2.2.133,4.491-2.119,6.644.185,1.066,1.156,1.169,3.262,1.251,4.654.073,1.508.778,1.646,1.186,1.6,2.175-.262,4.869-4.551,5.144-8.187.425-5.849-3.915-14.926-8.273-19.722-2.265-2.5-2.265-2.5-10.254-.718-2.432.541-2.965.022-3.515-2.054-1.066-3.932-2.007-4.616-3.481-5.394-.782-.421-.782-.688-.4-1.47A25.451,25.451,0,0,1,161.907,271.84Zm317.637-72.459c.438,2.841-1.693,5.492-.589,8.376.847.331,2.643.12,6.425-2.793,1.38-1.079,2.57-2.007,3.507-1.474,3.876,2.192-.623,6.472.709,9.575,2.69,6.3,5.853,7.156,9.863,8.239,6.275,1.685,7.074,1.9,8.234,2.72.193,1.014-.382,2.071.168,3.064,1.685,3.073,4.663,5.162,6.154,8.389.8,3.318-3.163,1.388-6.068-.017-1.233-.593-1.233-.593-4.766-.881,1.423,4.194,6.034,6.227,6.954,10.753.5,2.437-1.728,3.73-4.921,5.3-.838.408-2.132,1.044-1.659,2.029.249.511,1.655,2.175,9.283,1.96,3.228-.09,9.962-.288,10.147,1.96.159,2.059-1.375,2.037-3.692,1.986a4.405,4.405,0,0,0-3.8,1.422c-1.637,1.526-1.891,3.9-3.326,5.544-1.771,2.054-4.194,3.3-6.017,5.29.026.193.065.451.086.645,1.014.245,1.014.245,15.57-1.625,7.371-.946,14.814-.361,22.176-1.444a1.293,1.293,0,0,0,.266-.047l12.644-4.375a1.409,1.409,0,0,0,.138-.438c-2.626-2.669-5.974-.305-8.836-1.349-1.358-3.9,2.175-7.465.731-11.354-2.587-6.954-5.269-6.82-7.422-6.7-4.9.262-8.247-6.756-8.247-6.829a1.942,1.942,0,0,1,.15-.318c.305-.095.305-.095,4.139.778,1.736.619,4.117,1.47,3.945.567-.009-.047-.039-.1-.047-.142a8.784,8.784,0,0,0-2.016-2.084c-5.957-4.723-13.417-7.061-18.845-12.553-2.609-2.634-4.482-5.987-7.658-8.054a26.423,26.423,0,0,0-13.065-4.44.084.084,0,0,0-.056-.013c3.21-2.935,7.448-17.44-1.208-17.788a27.1,27.1,0,0,0-4.517.331c-5.458.735-6.455.86-6.489-.6-.082-2.922,4.8-8.411.8-8.66-.116,0-10.766.206-12.334,4.091a2.742,2.742,0,0,0,.107,1.294C476.677,193.167,479.011,195.947,479.544,199.381ZM-225.627,342c1.375-3.279,2.132-6.773,3.4-10.091.761-1.981,1.655-3.911,2.368-5.909.086-.228.168-.533.245-.761.034-.077.58-1.874-.3-1.663a1.723,1.723,0,0,0-.425.215c-2.884,2.4-6.15,17.732-5.583,18.669A1.308,1.308,0,0,0-225.627,342ZM409.754,126.617a2.48,2.48,0,0,0-.009-.619,10.215,10.215,0,0,0-4.4-3.993c-.352-.133-.812-.309-1.16-.413-3.081-.86-6.378-.1-9.416-1.354-2.157-.89-3.743-3.073-6.339-2.935-2.965.739-5.763,2-8.729,2.708-2.875.7-5.9.516-8.741,1.5-1.814.623-.5,2.914-1.921,3.756-1.53.911-3.107-.8-4.633.112-.224.146-.541.344-.765.494-.572,2.6,1.711,5.6-1.066,7.9-.855-.352-7.353-5.819-8.428-7.9-2.432-4.723-12.751-7.654-15.626-5.3.812,2.394,3.657,1.878,4.929,3.623-.808,3.473-4.831,2.914-6.459,5.372.945.688,4.186.215,6.012-.129,3.206-.589,13.314,2.991,7.676,7.753,2.415,3.038,5.63.46,8.35,1.251,2.858.817,2.867,1.891,2.888,4.461.666.576,1.233.825,6.915.215a36.806,36.806,0,0,1,6.176-.417c2.716.185,5.243,1.418,7.951,1.59.335.017.774.039,1.126.03.958-.017,2.291-.039,9.812-1.917,6.808-1.7,17.191-9.4,16.666-11.655-.322-1.465-1.556-2.445-1.977-3.864C408.912,126.566,408.912,126.566,409.754,126.617ZM4.2,593.671c2.978,3.98,21.626,5.394,21.948,3.176.172-1.2-23.715-29.383-23.972-29.559-2.445-1.728-9.88-6.992-23.65-4.151a34.819,34.819,0,0,0-13.112,8.114c.989.963,6.876.073,11.707-2.755,6.906-4.048,11.518-1.779,11.96-.529-.374.713-1.311,1.706-3.528.425a1.573,1.573,0,0,0-.245.193c.284,3.4,5.819,4.831,9.489,5.785,6.743,1.745,7.2,3.215,8.6,7.572a14.577,14.577,0,0,0,2.561,5.342c.989,1.268,1.711,2.192,1.758,2.922C7.87,592.549,5.291,592.438,4.2,593.671Zm29.706,23.4c1.921,1.117.4,4.758,3.137,5.041,4.757.494,4.225-6.094,8.312-6.5a7.879,7.879,0,0,1,2.3.228c7.3,1.285,19.89,1.659,19.937,1.646.61-.1,1.019-.219,1.057-.8.12-2.166-1.646-3.98-1.087-6.227,1.723-6.966-33-10.035-35.189-9.666a1.594,1.594,0,0,0-.877.438c-.009.537-.009.537.5,1.023,5.106,4.822,3.455,10.473,3.2,10.714-.658.589-3.43.129-7.237-.5-7.018-1.16-7.706-.941-8.105-.817.073.12.129.331.245.408C24.377,614.652,29.586,614.571,33.9,617.068Zm69.927-330.031c-2.983,1.135,3.825,4.525,5.222,5.192,8.965,4.3,12.085-.348,12.115-.4C122.257,289.336,107.1,286.491,103.828,287.036ZM664.761,858.395c-9.833,12.983-10.082,13.069-16.516,15.42-5.269,1.917-6.924,4.379-14.866,16.2-3.937,5.875-5.406,7.057-9.326,10.2-11.913,9.562-28.012,30.578-28.481,32.306,4.319.052,4.319.052,20.732-16.022,13.387-13.1,25.141-27.759,37.931-41.425-.052.374-.052.374-1.169,2.286.511-.37.511-.37,1.728-1.951,3.013-3.889,12.244-16.658,13.727-21.217a3.287,3.287,0,0,0-.327-.15C667.176,855.206,667.176,855.206,664.761,858.395Zm-329.55-88.343a3.755,3.755,0,0,1,.013.851c-.03.206-7.25,22.73-27.57,30.3a6.812,6.812,0,0,0,1.019,2.149c2.231,3.142,1.066,4.921-2.114,9.678-2.738,4.126-.3,8.466-.5,12.691-.357,7.555.314,15.136-.675,22.67-.456,3.434-.743,3.4-4.293,2.931a8.152,8.152,0,0,0-7.259,2.325c-6.09,5.669-6.21,16.022-14.827,19.679-3.773,1.607-12.927,6.159-16.417,13.83-.082.606-10.413,60.718-34.691,61.392l3.137,4.517c2.763,4.126-.808,13.16-11.483,9.816-.46.288-1.061.679-1.517.958.451,4.384.451,4.384-5.583,9.876,7.83,11.118,7.83,11.118,7.886,11.806-6.485-.215-6.485-.215-7.886.254,9.029,25.416,9.029,25.416,13.8,30.634-3.24,14.9-3.24,14.9,31.15,33.024-.322.107-36.049,5.982-72.957-47.18-29.108-41.911-45.835-118.676-45.981-119.406-3.077-16.155-9.485-28.515-18.046-34.8-11.238-8.26-25.679-10.4-36.332-19.817-.352-.314-44-44.468-54.628-60.614-.627-.95-1.324-2.308-1.865-3.318-3.365-6.129,4.482-38.958,4.577-39.255,8.114-18.218,8.114-18.218,7.117-22.589C36.114,688.62,27.222,659.086,12.8,683.7c-32.417,1.19-44.674-36.311-74.268-40.54-.984-.146-2.316-.305-3.309-.412-6.618-.726-6.618-.726-25.455-11.707-8.221-4.8-17.143.146-25.537-1.938-8.2-2.033-16.568-3.361-24.725-5.51-2.338-.619-5.183-2.256-7.426-3.142a20.269,20.269,0,0,1-4.014-1.891c-7.938-5.707-6.09-15.794-9.953-23.328-4.775-9.356-14.5-14.122-20.2-22.632-4.4-6.562-9.472-12.626-13.606-19.382-1.938-3.154-3.021-8.2-3.984-12.665-1.35-6.262-2.428-11.213-12.562-18.794,8.092,33.582,12.867,40.531,17.1,46.668,9.292,13.508,7.392,16.361,5.544,19.107-.176-.219-20.388-26.946-23.16-32.877,1.633-.09,3.791-.159,5.428-.176-22.919-48.031-22.919-48.031-24.273-48.263-10.529-18.871-5.015-119.944,10.8-140.1,1.315.662,3.047,1.6,4.328,2.342.219-4.01-1.083-7.736-2.385-11.462a1.547,1.547,0,0,0-.021.193,17.364,17.364,0,0,1,.146,1.878,7.081,7.081,0,0,1-.43,2.368,3.178,3.178,0,0,1-1.758,1.942c-.039,0-2.69.537-3.786-3.288-1.328-4.646-.155-10.3-.142-10.336a.068.068,0,0,0,.039-.026c.486.112,1.074,2.1,1.225,2.69.322,1.178.391,1.242.563,1.423a1.437,1.437,0,0,0,1.019.348,8.794,8.794,0,0,1,2.359.438c-1.186-3.571-2.076-7.19-1.294-11.127,3.219-16.473,3.219-16.473,6.193-26.108-.43-.726-1-1.685-1.435-2.415.632-1.9,1.435-4.461,2.041-6.378,1.152-6.6,1.152-6.6,10.534-30.793-.2.327-.468.752-.683,1.074,13.886-23.594,14.591-24.548,46.2-66.657,7.345-8.436,17.122-19.675,24.467-28.107a17.933,17.933,0,0,0-1.551,2.338,223.179,223.179,0,0,1,21.385-19.417c-4.263,4.031-8.8,7.757-12.992,11.857l.039-.021c13.275-11.539,13.275-11.539,20.543-18.377-4.22,5.325-4.22,5.325-5.613,8.295a28.576,28.576,0,0,1,4.319-3.859,19.24,19.24,0,0,0-1.693,2.686c2.385-1.655,4.109-4.315,7.147-4.968a13.576,13.576,0,0,1,1.857,2.145c4.272.473,4.5.344,5.982-.481.344.189.8.443,1.139.636-1.036,4.525-5.467,5.544-8.217,8.312,6.575,1.006,11.5-4.04,17.517-5.024.37,3.21-2.488,5.965-1.263,9.3,6.618-13.2,9.936-19.825,21.084-22.76.95,1.319.786,3.081,1.68,4.414,13.787.67,17.513-1.762,18.132-2.256,11.174-9,11.174-9,14.6-8.1-5.987,6.545-5.987,6.545-2.781,9.949,3.412-8.11,12.536-10.611,16.722-17.96-.378-.095-.885-.206-1.255-.284h-.03l.052-1.074c1.994-1.951,2.682-2.351,7.035-4.564-.107-.4-.228-.915-.322-1.307-2.084.129-4.139.6-6.227.606-.2-.425-.468-.976-.666-1.405.2-.365,26.719-38.022,46.325-42.719,2.746-.5,2.746-.5,4.452-.3C9.275,104.562,9.275,104.562,4.028,112.865c.4.3.98.718,1.388,1.036-.013,1.844-.013,1.844-9.206,17,5.312.215,5.312.215,5.63.34-.069.077-6.12,8.153-5.067,11.208,4.392-3.962,6.777-10.091,12.717-12.382,5.239,5.617-5.965,9.27-6.786,14.939,9.33,8.527,14.844-9.867,22.516-14.384,4.195-18.454,16.658-5.432,16.8-5.3-.7,1.384-.86,2.991-1.822,4.246-1.745,1.882-4.865,1.637-6.184,4.177-1.435,2.759,1.186,5.707-.4,8.458a13.526,13.526,0,0,1-2.415,2.888c-3.889,3.494-3.889,3.494-18.695,8.969-4.444-2.884-8.664,2.342-8.7,2.4a5.383,5.383,0,0,1,2.5.9c-6.442,10.16-17.4,4.684-25.893,7.822,7.181,4.177,9.012,3.846,17.853,2.269C-14.736,181.6-14.736,181.6-37.557,185.758c2.243,1.814,6.167.193,7.521,3.859-11.733,8.913-39.2,29.779-37.235,41.309,8.707.7,8.707.7,9.339,4.478,1.766,10.839,1.766,10.839,3.167,12.012,4.014-1.173,7.328-4.672,11.965-3.872a19.885,19.885,0,0,1,2.97.782c5.076,1.827,7.783,7.328,13.082,8.793,5.2,1.44,11.058-2.892,15.9,1.891a19.107,19.107,0,0,1,2.974.189c.125.447,0,1.358.125,1.8-.778.632-2.11,1.784-2.9,2.411,1.517,3.829,2.7,6.855-.06,15.154,5.1,3.73,11.638,5.389,15.317,11.157,11.776-8.342,4.985-21.536,7.706-32.1a12.88,12.88,0,0,0,2.824-2.514c-1.092-3.851,4.01-5.51,6.253-6.043,10.263-2.428,9.94-20.642,9.919-20.831-.15-4.534-4.809-7.28-4.53-11.986.236-4.057,4.637-5.222,5.737-8.673-5.737-7.383,2.742-13.74,1.435-20.8,7.276-3.1,15.257-1.41,22.692-3.455a6.4,6.4,0,0,1,3.6.443c8.14,2.751,8.948,4.173,9.3,4.775,1.027,1.784,1.5,2.325,2.273,2.613,3.3,1.233,6.782-.4,10.082.726-3.425,2.819-5.651,14.655-4.663,16.456,5.634,1.276,10.147,6.653,16.623,4.633,1.044-.322,1.044-.322,4.753-5.518,1.633-2.261,4.727-.4,6.438-2.424,1.5-1.753-.808-3.593.107-5.363,5.828-11.389,5.828-11.389,17.732,10.375,4.736,8.634,4.736,8.634,2.579,11.715-1.474,2.08-2,3.034-1.229,4.109,1.844,2.549,5.505,1.908,7.371,4.431,1.375,1.874-.176,4.027.511,5.965,1.16.4,1.16.4,3.378-.189,38.5-10.34,1.917,14.393,1.478,15.033.3.688.7,1.607,1.006,2.286,8.849-5.914,13.843-6.421,15.489-6.588.013,0,.056-.009,2.364.017,2.725.563,5.424,1.169,8.131,1.766.46.713,1.044,1.668,1.5,2.381-2.432,6.167-2.432,6.167-.769,10.34-5.161,9.592-38.976,26.749-46.5,21.484C85.138,289.031,85.138,289.031,52.931,323.3c46.78-29.946,46.78-29.946,50.145-26.551-1.4,6.743-6.128,8.054-12.7,9.885,1.869,2.351,2.157,2.716,6.545,4.362,1.822,5.78,2.622,8.209,7.289,10.46-1.388-2.871.12-6.752.37-7.16l.133-.086c.086.064.2.129.146.924-.163,2.041.2,3.468,2.583,4.693.971.5,3.717,1.573,8.531.8.713-.116.8-.12,1.027-.064a.948.948,0,0,0,.056.086.867.867,0,0,1-.043.15c-.013.034-2.067,2.987-4.758,3.571,2.7.825,5.961,1.753,9.953,2.9,3.086-4.762,3.3-11.247,8.445-14.775,6.687,17.247-30.741,39.508-42.9,39.294.236-3.808.236-3.808,18.192-16.851v-2.751a16.211,16.211,0,0,1-5.583-1.152c.31-.675.722-1.564,1.036-2.23C70.38,347.2,70.38,347.2,68.583,347.105,57.89,357.329,57.89,357.329,55.875,376.832c-1.607-.12-23.341,11.956-23.465,12.089-5.106,5.084-4,12.717-7.315,18.544-.619-3.081-2.935-5.17-4.289-7.817-1.551,24.862-1.551,24.862-3.3,26.014,0-.03.013-17.04-.275-22.619l-3.726,37.772c.692.258,1.616.623,2.321.885-.086.89-.211,2.076-.3,2.974-.713.211-1.642.5-2.351.709-.086.739-.2,1.732-.3,2.484.5.572,1.165,1.337,1.655,1.908.017-.009.03-.009.279.021-11.238,13.16-31.36,17.947-34.738,38.55-3.245,19.928,26.169,37.476,7.856,57.254-15.528-9.206-5.66-32.465-21.841-41.3-.163-.09-37.923,3.262-42.676,6.077-.172.808-.391,1.874-.563,2.673,2.063,1.672,4.745,2.372,6.558,4.414-.632.542-1.478,1.264-2.119,1.8-.18-.09-23.955-5.578-30.079-.748-3.43,2.708-18.063,17.964-20.517,26.087-1.878,6.266,5.325,8.931,5.441,14.41.193,8.578-7.276,15.682-4.633,24.755,2.144,7.341,8.531,21.286,27.26,32.267,8,4.689,12.48-5.329,19.46-4.865,4.324-46.8,24.57-30.084,26.869-28.025-1.938,11.419-1.938,11.419-7.2,24,2.918,6.33,2.918,6.33-1.083,19.924,12.154.838,24.394-5.647,36.444.6a46.189,46.189,0,0,1,4.482,27.578c-3.662,26.211,35.993,8.453,51.413,19.675,4.646-42.173,45.719-35.847,97.716-27.84a21.054,21.054,0,0,1,5.514,1.741c10.744,5.295,17.474,15.85,27.5,22.077,12.665,7.856,28.4,5.316,41.185,12.768,9.769,5.707,16.761,15.824,26.117,22.06,5.48,6.06,6.279,16.58,15.179,19.932,15.317,3.911,30.93,6.657,46.05,11.423,10.147,3.2,17.088,12.618,27.69,14.977,3.258.726,6.5-1.775,9.794-.069,4.62,2.4-.266,7.521.43,11.256C332.787,765.741,334.772,767.559,335.211,770.052Zm-539.633-490.94.129-.219-.017.03ZM79.813,619.792c-2.785,1.93.812,5.613,4.22,6.2,2.428.408,10.194-.7,10.516-1.5.185-.413-.4-1.388-6.15-3.228C82.026,619.234,81.094,619.466,79.813,619.792Z" transform="translate(109.177 2448.776)" fill="#ddd1b1" opacity="0.15" style="mix-blend-mode: multiply;isolation: isolate"/>
    <g id="组_500" data-name="组 500" transform="translate(1964.17 -2514.693)" opacity="0.4">
      <circle id="椭圆_103" data-name="椭圆 103" cx="4.508" cy="4.508" r="4.508" transform="translate(-1709.155 4995.117)" fill="#ddd1b1"/>
      <circle id="椭圆_104" data-name="椭圆 104" cx="4.508" cy="4.508" r="4.508" transform="translate(-1792.996 5203.368)" fill="#ddd1b1"/>
      <circle id="椭圆_105" data-name="椭圆 105" cx="4.508" cy="4.508" r="4.508" transform="translate(-1948.959 5133.049)" fill="#ddd1b1"/>
      <circle id="椭圆_106" data-name="椭圆 106" cx="4.508" cy="4.508" r="4.508" transform="translate(-1627.117 5098.792)" fill="#ddd1b1"/>
      <ellipse id="椭圆_107" data-name="椭圆 107" cx="4.057" cy="4.508" rx="4.057" ry="4.508" transform="translate(-1379.198 5188.943)" fill="#ddd1b1"/>
      <circle id="椭圆_108" data-name="椭圆 108" cx="4.508" cy="4.508" r="4.508" transform="translate(-1275.524 5139.36)" fill="#ddd1b1"/>
      <circle id="椭圆_109" data-name="椭圆 109" cx="4.057" cy="4.057" r="4.057" transform="translate(-1214.22 5230.414)" fill="#ddd1b1"/>
      <ellipse id="椭圆_110" data-name="椭圆 110" cx="4.508" cy="4.057" rx="4.508" ry="4.057" transform="translate(-1772.261 5115.92)" fill="#ddd1b1"/>
      <ellipse id="椭圆_111" data-name="椭圆 111" cx="4.508" cy="4.057" rx="4.508" ry="4.057" transform="translate(-2041.816 5231.315)" fill="#ddd1b1"/>
      <ellipse id="椭圆_112" data-name="椭圆 112" cx="4.508" cy="4.057" rx="4.508" ry="4.057" transform="translate(-1689.322 5245.739)" fill="#ddd1b1"/>
      <circle id="椭圆_113" data-name="椭圆 113" cx="4.508" cy="4.508" r="4.508" transform="translate(-1341.335 5225.906)" fill="#ddd1b1"/>
      <circle id="椭圆_114" data-name="椭圆 114" cx="4.508" cy="4.508" r="4.508" transform="translate(-1263.804 5203.368)" fill="#ddd1b1"/>
      <circle id="椭圆_115" data-name="椭圆 115" cx="4.508" cy="4.508" r="4.508" transform="translate(-1911.095 5225.906)" fill="#ddd1b1"/>
      <circle id="椭圆_116" data-name="椭圆 116" cx="4.508" cy="4.508" r="4.508" transform="translate(-1825.451 5173.618)" fill="#ddd1b1"/>
      <circle id="椭圆_117" data-name="椭圆 117" cx="4.508" cy="4.508" r="4.508" transform="translate(-1709.155 5216.891)" fill="#ddd1b1"/>
      <ellipse id="椭圆_118" data-name="椭圆 118" cx="4.057" cy="4.508" rx="4.057" ry="4.508" transform="translate(-1335.926 5190.747)" fill="#ddd1b1"/>
      <circle id="椭圆_119" data-name="椭圆 119" cx="4.508" cy="4.508" r="4.508" transform="translate(-1287.243 5212.383)" fill="#ddd1b1"/>
      <circle id="椭圆_120" data-name="椭圆 120" cx="4.508" cy="4.508" r="4.508" transform="translate(-1556.798 5051.011)" fill="#ddd1b1"/>
      <circle id="椭圆_121" data-name="椭圆 121" cx="4.508" cy="4.508" r="4.508" transform="translate(-1735.299 5011.344)" fill="#ddd1b1"/>
      <ellipse id="椭圆_122" data-name="椭圆 122" cx="4.508" cy="4.057" rx="4.508" ry="4.057" transform="translate(-1327.812 5087.072)" fill="#ddd1b1"/>
      <path id="路径_9972" data-name="路径 9972" d="M-14464.5,2029.853l131.016-4.4c-2.67,0,140.2-111.393,140.2-111.393,0,1.069,143.438-16.541,143.438-16.541l-83.8-104.248,153.3,56.195,230.48,35.571-9.875,104.082h-42.336l38.016,36.334,53.084-13.326,26.584-9.933,47.576,26.049" transform="translate(12427.393 3205.468)" fill="none" stroke="#ddd1b1" stroke-width="1"/>
      <path id="路径_9973" data-name="路径 9973" d="M-14348.5,1936.007l37.654,92.532,86.739-52.906,29.713,30.34,85.346,13.032,20.493,29.871,308.651-56.566-178.275-138.043-69.8,46.935-109.108-88.2-35.6,104.792Z" transform="translate(12404.35 3201.549)" fill="none" stroke="#ddd1b1" stroke-width="1"/>
      <path id="路径_9974" data-name="路径 9974" d="M-13633.007,2006.6l-11.1-65.032-52.811-53.9,39.686,126.017-47.831-21.176-222.827-140.356-178.683-38.793-89.208,161.945,118.247,44.448,327.32-27.244,165.772,41.407" transform="translate(12374.012 3201.478)" fill="none" stroke="#ddd1b1" stroke-width="1"/>
      <path id="路径_9975" data-name="路径 9975" d="M-14017.978,1911.509l-81.156,118.575-203.147,8.57,354.217-175.519,281.246,88.575" transform="translate(12395.168 3191.59)" fill="none" stroke="#ddd1b1" stroke-width="1"/>
      <ellipse id="椭圆_123" data-name="椭圆 123" cx="4.508" cy="4.057" rx="4.508" ry="4.057" transform="translate(-1834.466 5315.156)" fill="#ddd1b1"/>
      <ellipse id="椭圆_124" data-name="椭圆 124" cx="4.508" cy="4.057" rx="4.508" ry="4.057" transform="translate(-1287.243 5307.042)" fill="#ddd1b1"/>
      <ellipse id="椭圆_125" data-name="椭圆 125" cx="4.508" cy="4.057" rx="4.508" ry="4.057" transform="translate(-1154.72 5282.702)" fill="#ddd1b1"/>
      <ellipse id="椭圆_126" data-name="椭圆 126" cx="4.508" cy="4.057" rx="4.508" ry="4.057" transform="translate(-1235.857 5261.967)" fill="#ddd1b1"/>
      <ellipse id="椭圆_127" data-name="椭圆 127" cx="4.508" cy="4.057" rx="4.508" ry="4.057" transform="translate(-1371.046 5515.45)" fill="#ddd1b1"/>
      <ellipse id="椭圆_128" data-name="椭圆 128" cx="4.508" cy="4.057" rx="4.508" ry="4.057" transform="translate(-1163.735 5467.669)" fill="#ddd1b1"/>
      <ellipse id="椭圆_129" data-name="椭圆 129" cx="4.508" cy="4.057" rx="4.508" ry="4.057" transform="translate(-1123.167 5535.284)" fill="#ddd1b1"/>
      <ellipse id="椭圆_130" data-name="椭圆 130" cx="4.508" cy="4.057" rx="4.508" ry="4.057" transform="translate(-1380.061 5543.397)" fill="#ddd1b1"/>
      <ellipse id="椭圆_131" data-name="椭圆 131" cx="4.508" cy="4.057" rx="4.508" ry="4.057" transform="translate(-1216.474 5415.303)" fill="#ddd1b1"/>
      <ellipse id="椭圆_132" data-name="椭圆 132" cx="4.508" cy="4.057" rx="4.508" ry="4.057" transform="translate(-1297.611 5394.568)" fill="#ddd1b1"/>
      <ellipse id="椭圆_133" data-name="椭圆 133" cx="4.508" cy="4.057" rx="4.508" ry="4.057" transform="translate(-1278.228 5628.219)" fill="#ddd1b1"/>
      <ellipse id="椭圆_134" data-name="椭圆 134" cx="4.508" cy="4.057" rx="4.508" ry="4.057" transform="translate(-1226.842 5765.25)" fill="#ddd1b1"/>
      <ellipse id="椭圆_135" data-name="椭圆 135" cx="4.508" cy="4.057" rx="4.508" ry="4.057" transform="translate(-1132.182 5566.915)" fill="#ddd1b1"/>
      <ellipse id="椭圆_136" data-name="椭圆 136" cx="4.508" cy="4.057" rx="4.508" ry="4.057" transform="translate(-1105.136 5554.294)" fill="#ddd1b1"/>
      <ellipse id="椭圆_137" data-name="椭圆 137" cx="4.508" cy="4.057" rx="4.508" ry="4.057" transform="translate(-1114.151 5407.189)" fill="#ddd1b1"/>
      <ellipse id="椭圆_138" data-name="椭圆 138" cx="4.508" cy="4.057" rx="4.508" ry="4.057" transform="translate(-1240.364 5711.158)" fill="#ddd1b1"/>
      <ellipse id="椭圆_139" data-name="椭圆 139" cx="4.508" cy="4.057" rx="4.508" ry="4.057" transform="translate(-1336.827 5901.379)" fill="#ddd1b1"/>
      <ellipse id="椭圆_140" data-name="椭圆 140" cx="4.508" cy="4.057" rx="4.508" ry="4.057" transform="translate(-1163.735 5668.787)" fill="#ddd1b1"/>
      <ellipse id="椭圆_141" data-name="椭圆 141" cx="4.508" cy="4.057" rx="4.508" ry="4.057" transform="translate(-1172.75 5703.045)" fill="#ddd1b1"/>
      <ellipse id="椭圆_142" data-name="椭圆 142" cx="4.508" cy="4.057" rx="4.508" ry="4.057" transform="translate(-1783.36 5646.7)" fill="#ddd1b1"/>
      <ellipse id="椭圆_143" data-name="椭圆 143" cx="4.508" cy="4.057" rx="4.508" ry="4.057" transform="translate(-1731.974 5783.731)" fill="#ddd1b1"/>
      <ellipse id="椭圆_144" data-name="椭圆 144" cx="4.508" cy="4.057" rx="4.508" ry="4.057" transform="translate(-1778.853 5729.64)" fill="#ddd1b1"/>
      <ellipse id="椭圆_145" data-name="椭圆 145" cx="4.508" cy="4.057" rx="4.508" ry="4.057" transform="translate(-1617.48 5692.677)" fill="#ddd1b1"/>
      <ellipse id="椭圆_146" data-name="椭圆 146" cx="4.508" cy="4.057" rx="4.508" ry="4.057" transform="translate(-1612.692 5787.788)" fill="#ddd1b1"/>
      <ellipse id="椭圆_147" data-name="椭圆 147" cx="4.508" cy="4.057" rx="4.508" ry="4.057" transform="translate(-2051.282 5319.213)" fill="#ddd1b1"/>
      <ellipse id="椭圆_148" data-name="椭圆 148" cx="4.508" cy="4.057" rx="4.508" ry="4.057" transform="translate(-1939.944 5453.54)" fill="#ddd1b1"/>
      <ellipse id="椭圆_149" data-name="椭圆 149" cx="4.508" cy="4.057" rx="4.508" ry="4.057" transform="translate(-2066.608 5489.306)" fill="#ddd1b1"/>
      <ellipse id="椭圆_150" data-name="椭圆 150" cx="4.508" cy="4.057" rx="4.508" ry="4.057" transform="translate(-1911.095 5347.16)" fill="#ddd1b1"/>
      <ellipse id="椭圆_151" data-name="椭圆 151" cx="4.508" cy="4.057" rx="4.508" ry="4.057" transform="translate(-1851.144 5376.009)" fill="#ddd1b1"/>
      <ellipse id="椭圆_152" data-name="椭圆 152" cx="4.508" cy="4.057" rx="4.508" ry="4.057" transform="translate(-2025.588 5290.815)" fill="#ddd1b1"/>
      <ellipse id="椭圆_153" data-name="椭圆 153" cx="4.508" cy="4.057" rx="4.508" ry="4.057" transform="translate(-2021.081 5481.192)" fill="#ddd1b1"/>
      <ellipse id="椭圆_154" data-name="椭圆 154" cx="4.508" cy="4.057" rx="4.508" ry="4.057" transform="translate(-2034.604 5427.101)" fill="#ddd1b1"/>
      <ellipse id="椭圆_155" data-name="椭圆 155" cx="4.508" cy="4.057" rx="4.508" ry="4.057" transform="translate(-1957.974 5384.729)" fill="#ddd1b1"/>
      <ellipse id="椭圆_156" data-name="椭圆 156" cx="4.508" cy="4.057" rx="4.508" ry="4.057" transform="translate(-1966.99 5418.987)" fill="#ddd1b1"/>
      <ellipse id="椭圆_157" data-name="椭圆 157" cx="4.508" cy="4.057" rx="4.508" ry="4.057" transform="translate(-1709.155 5700.791)" fill="#ddd1b1"/>
      <ellipse id="椭圆_158" data-name="椭圆 158" cx="4.508" cy="4.057" rx="4.508" ry="4.057" transform="translate(-1594.662 5840.526)" fill="#ddd1b1"/>
      <ellipse id="椭圆_159" data-name="椭圆 159" cx="4.508" cy="4.057" rx="4.508" ry="4.057" transform="translate(-1647.852 5936.088)" fill="#ddd1b1"/>
      <ellipse id="椭圆_160" data-name="椭圆 160" cx="4.508" cy="4.057" rx="4.508" ry="4.057" transform="translate(-1570.321 5743.163)" fill="#ddd1b1"/>
      <ellipse id="椭圆_161" data-name="椭圆 161" cx="4.508" cy="4.057" rx="4.508" ry="4.057" transform="translate(-1603.677 5775.617)" fill="#ddd1b1"/>
      <ellipse id="椭圆_162" data-name="椭圆 162" cx="4.508" cy="4.057" rx="4.508" ry="4.057" transform="translate(-1309.781 5467.669)" fill="#ddd1b1"/>
      <ellipse id="椭圆_163" data-name="椭圆 163" cx="4.508" cy="4.057" rx="4.508" ry="4.057" transform="translate(-1258.395 5604.701)" fill="#ddd1b1"/>
      <ellipse id="椭圆_164" data-name="椭圆 164" cx="4.508" cy="4.057" rx="4.508" ry="4.057" transform="translate(-1271.918 5550.609)" fill="#ddd1b1"/>
      <ellipse id="椭圆_165" data-name="椭圆 165" cx="4.508" cy="4.057" rx="4.508" ry="4.057" transform="translate(-1195.288 5508.238)" fill="#ddd1b1"/>
      <ellipse id="椭圆_166" data-name="椭圆 166" cx="4.508" cy="4.057" rx="4.508" ry="4.057" transform="translate(-1204.304 5542.496)" fill="#ddd1b1"/>
      <path id="路径_9976" data-name="路径 9976" d="M-2360,5927.868l199.659,57.2,565.8-71.042-55.879-80.9,106.315,37.535,21-33.09,60.58,52.827-144.2,111.287-71.958,123.1-9.5,24.387,102.51,88.267,36.779,84.921,14.994,51.329c0,3.606-112.293,135.121-112.293,135.121" transform="translate(313.226 -604.598)" fill="none" stroke="#ddd1b1" stroke-width="1"/>
      <path id="路径_9977" data-name="路径 9977" d="M-2336.14,5885.541l-15.733-62.681,129.948,118.125,77.089-31.035,144.757-69.494-161.17,130.827-88.339,76.531-82.57,26.7-46.462,8.914L-2093.5,6242.5l72.943,52.793,91.853-8.932,47.035,50.009,329.585-31.129,69.558-9.948,7.607-33.066-95.8-63.659-12.3-54.417-37.933-82.548,13.915-72.856,8.576-88.116-338.917-208.954" transform="translate(315.06 -590.669)" fill="none" stroke="#ddd1b1" stroke-width="1"/>
      <path id="路径_9978" data-name="路径 9978" d="M-2005.812,6443.546l113.78-90.921,16.908,81.029-10.09,15.877,15.68,50.013-51.058,95.951,408.033-225.469-98.345,191.705" transform="translate(278.346 -655.759)" fill="none" stroke="#ddd1b1" stroke-width="1"/>
      <path id="路径_9979" data-name="路径 9979" d="M-2378.62,6104.343l31.8-63.673,69.987-6.856,6.76-34.737-93.729-64.573,26.579-28.167,114.473,56.114,61.906,29.467,64.826,267.932,5.192,85.045,46.249,53.914,120.619,5.839,275.343,111.654,59.342-272.782,20.824-25.845,53.231-60.434,9.082-36.1,31.613-39.836,51.231-58.969-40.39-124.4" transform="translate(315.06 -610.981)" fill="none" stroke="#ddd1b1" stroke-width="1"/>
      <path id="路径_9980" data-name="路径 9980" d="M-1357.269,6166.167l28.13-13.9-17.8-19.4-73.735-27.2-21.738-93.246-18.691-151.752-49.68,46.417v-94.854l10.836-74.6" transform="translate(229.595 -595.195)" fill="none" stroke="#ddd1b1" stroke-width="1"/>
    </g>
  </g>
</svg>
