<svg xmlns="http://www.w3.org/2000/svg" xmlns:xlink="http://www.w3.org/1999/xlink" viewBox="0 0 1921.54 814.74"><defs><style>.cls-1{fill:#0c2ac3;}.cls-2{opacity:0.6;}.cls-3{opacity:0.05;}.cls-4{clip-path:url(#clip-path);}</style><clipPath id="clip-path"><line class="cls-1" x1="1631.35" y1="45.65" x2="1600.89" y2="137.76"/></clipPath></defs><g id="图层_2" data-name="图层 2"><g id="图层_1-2" data-name="图层 1"><g class="cls-2"><g class="cls-3"><circle class="cls-1" cx="1040.13" cy="760.54" r="9.59"/><path class="cls-1" d="M1909.65,696.87a11.89,11.89,0,0,0-11.89,11.89,12.26,12.26,0,0,0,.23,2.36l-176.53,68.15h0a8.1,8.1,0,0,0-13.57.53L1648.23,762a20.17,20.17,0,0,0-26.93-23.66L1496.78,479.1a12.84,12.84,0,0,0,4-4.06l201,75.47a13.91,13.91,0,0,0-.42,3.38,13.69,13.69,0,1,0,25.33-7.2l100.38-100.88a22,22,0,1,0,5.1-36l-151.33-276-1.76,1,151.34,276a22,22,0,0,0-4.76,33.63L1725.49,545.05a13.69,13.69,0,0,0-22.66,2.65l-200.71-75.38a13,13,0,0,0-5.74-15.38l105.46-318.87-1.9-.63L1494.56,456.06a12.74,12.74,0,0,0-4.72-.89A13,13,0,0,0,1479.55,476l-90.75,88.05a18,18,0,0,0-24.39.63L1235.85,452.46a40.35,40.35,0,0,0-57.6-56L1015.49,220.08a10.51,10.51,0,0,0,2.38-6.68c0-.16,0-.31,0-.46l316.78-75.53a9.76,9.76,0,1,0-.46-4L1016.93,209a9.81,9.81,0,0,0-.78-1.42l78.35-68.74-2-2.25-78.35,68.74a10.56,10.56,0,0,0-12-1.25l-53-70.69-2.4,1.8,53,70.69a10.49,10.49,0,0,0-3,6.25l-229.8,6A24.38,24.38,0,0,0,726.31,202L562.15,51.71a11.09,11.09,0,1,0-16.31-.64L377.32,257.66a10.28,10.28,0,0,0-11.88,1.58L101.71,70.17A39.84,39.84,0,1,0,49.87,70L3.26,127.29,0,137.74l53-65.3a39.67,39.67,0,0,0,22.89,7.23A40.16,40.16,0,0,0,86.5,78.25l52.25,172.4a12.81,12.81,0,1,0,1.91-.58L88.41,77.67a39.11,39.11,0,0,0,10-5L363.1,262.5a10.27,10.27,0,0,0,1.81,11.22L249.29,432.07a19,19,0,0,0-26.87,8.78L2.59,357.63l1.87,2.88,217.25,82.2a19,19,0,0,0,18.08,24.74c.45,0,.89,0,1.33-.05l14.74,82.93a12.19,12.19,0,0,0-8.12,11.5v.09L130.62,582.31a11.91,11.91,0,0,0-18-5.83L6.24,466.75l-2.87,2.79,106.4,109.71A11.92,11.92,0,0,0,126.37,596L341.45,778.41A19.64,19.64,0,1,0,377.64,789c0-.23,0-.46,0-.68l330.27-45.38A8.64,8.64,0,1,0,719,731.71l62.35-186A13.4,13.4,0,0,0,784,546a13,13,0,0,0,6.41-1.69l63.77,87.35a24.11,24.11,0,1,0,37.71,5.19l279.89-186.17a40.39,40.39,0,0,0,21.5,15.18l-40.71,162.72A20,20,0,1,0,1165.39,660l225,124.07a21.26,21.26,0,1,0,25.14-11l72.15-292.19a12.41,12.41,0,0,0,2.13.18,12.86,12.86,0,0,0,4.23-.71l124.52,259.21a20.18,20.18,0,1,0,28.29,26.14l59.87,17.87c0,.11,0,.23,0,.34a8.11,8.11,0,1,0,16.21,0,7.73,7.73,0,0,0-.06-1l176.54-68.15a11.89,11.89,0,1,0,10.22-18ZM239.44,449.42l-1.63-.61h0l-.14-.81.5-.69.28-.39,1.69.64ZM1003,223.06h0a9.87,9.87,0,0,0,1.28.48L979.61,467.48a9.59,9.59,0,0,0-8.12,6.75l-118.8-36.09Zm-260.3,21.43A24.38,24.38,0,0,0,767,221.15l229.82-6a10.51,10.51,0,0,0,2.84,5.6l-151,216.15L631,370.79l98.6-130.11A24.15,24.15,0,0,0,742.67,244.49ZM559.72,53.56l164.5,150.59a24.39,24.39,0,0,0,2.17,34.11L626.91,369.55l-36.39-11.06a6.82,6.82,0,0,0,.28-1.93,6.74,6.74,0,0,0-5.89-6.69L556.59,54.74A11.12,11.12,0,0,0,559.72,53.56ZM552.51,42.9l-.07.09,0-.18ZM245.06,466.7a19,19,0,0,0,7.47-32.28l115.6-158.33a10.19,10.19,0,0,0,4.35,1,10.31,10.31,0,0,0,7.94-16.87L548.94,53.61A11.07,11.07,0,0,0,553.59,55l28.33,295.19a6.76,6.76,0,1,0,7.74,10.17l36,10.92L468.68,578.35A25.2,25.2,0,0,0,430,597.15L272.08,563.08c0-.41.06-.83.06-1.25a12.2,12.2,0,0,0-12.2-12.2h-.14ZM358,769.34a19.59,19.59,0,0,0-15.38,7.44L127.91,594.64a11.88,11.88,0,0,0,3.4-8.34v0l117.11-20.39a12.21,12.21,0,0,0,23.29-.81l158.2,34.12c0,.14,0,.27,0,.41a25.21,25.21,0,0,0,14.29,22.72L366.38,771.22A19.42,19.42,0,0,0,358,769.34Zm359-38.12a7.88,7.88,0,0,0-1.09-.07,8.64,8.64,0,0,0-8.61,7.81L377.08,784.34a19.58,19.58,0,0,0-8.94-12.18L446,623.09a25.2,25.2,0,0,0,34.27-23.51,24.21,24.21,0,0,0-.16-2.84l291.7-59.13a12.93,12.93,0,0,0,7.57,7.53Zm72.63-209.88A12.81,12.81,0,0,0,784,520a13,13,0,0,0-12.69,15.66L479.85,594.76a25.11,25.11,0,0,0-8-14L629.71,372.48l217.75,66.16Zm374.47-94.27a40.12,40.12,0,0,0,5.95,21.09L890.19,634.32a24.14,24.14,0,0,0-34.55-4.05L792,543.15a13,13,0,0,0,.91-19.51l58.53-83.77,119.63,36.35c0,.26,0,.52,0,.79a9.59,9.59,0,1,0,12.52-9.13l24.64-243.94a10.56,10.56,0,0,0,5-1.83L1176,398.46A40.19,40.19,0,0,0,1164.14,427.07Zm249.48,345.56a21.48,21.48,0,0,0-4.12-.4,21.22,21.22,0,0,0-18.11,10.13l-224.91-124a19.82,19.82,0,0,0,2.71-10.06,20,20,0,0,0-13.74-19l40.71-162.72a40.89,40.89,0,0,0,8.34.86,40.25,40.25,0,0,0,29.39-12.7L1362.43,567a18,18,0,1,0,28.46-.73l90.75-88a13,13,0,0,0,4.13,2.27Zm215.43-15.73.18-.6.66.2Z"/></g><g class="cls-3"><rect class="cls-1" x="920.07" y="54.82" width="3" height="88.33" transform="matrix(0.8, -0.6, 0.6, 0.8, 124.68, 572.32)"/></g><g class="cls-3"><rect class="cls-1" x="1084.03" y="111.06" width="76.43" height="3" transform="translate(204.31 767.92) rotate(-41.25)"/></g><g class="cls-3"><line class="cls-1" x1="1631.35" y1="45.65" x2="1600.89" y2="137.76"/><g class="cls-4"><path class="cls-1" d="M1600.89,45.65v0Z"/><rect class="cls-1" x="1600.89" y="45.65" width="0.13" height="92.1"/><rect class="cls-1" x="1601.02" y="45.65" width="0.13" height="92.1"/><rect class="cls-1" x="1601.14" y="45.65" width="0.13" height="92.1"/><rect class="cls-1" x="1601.27" y="45.65" width="0.13" height="92.1"/><rect class="cls-1" x="1601.39" y="45.65" width="0.13" height="92.1"/><rect class="cls-1" x="1601.52" y="45.65" width="0.13" height="92.1"/><rect class="cls-1" x="1601.64" y="45.65" width="0.13" height="92.1"/><rect class="cls-1" x="1601.77" y="45.65" width="0.13" height="92.1"/><rect class="cls-1" x="1601.89" y="45.65" width="0.13" height="92.1"/><rect class="cls-1" x="1602.02" y="45.65" width="0.13" height="92.1"/><rect class="cls-1" x="1602.14" y="45.65" width="0.13" height="92.1"/><rect class="cls-1" x="1602.27" y="45.65" width="0.13" height="92.1"/><rect class="cls-1" x="1602.39" y="45.65" width="0.13" height="92.1"/><rect class="cls-1" x="1602.52" y="45.65" width="0.13" height="92.1"/><rect class="cls-1" x="1602.64" y="45.65" width="0.13" height="92.1"/><rect class="cls-1" x="1602.77" y="45.65" width="0.13" height="92.1"/><rect class="cls-1" x="1602.9" y="45.65" width="0.13" height="92.1"/><rect class="cls-1" x="1603.02" y="45.65" width="0.13" height="92.1"/><rect class="cls-1" x="1603.15" y="45.65" width="0.13" height="92.1"/><rect class="cls-1" x="1603.27" y="45.65" width="0.13" height="92.1"/><rect class="cls-1" x="1603.4" y="45.65" width="0.13" height="92.1"/><rect class="cls-1" x="1603.52" y="45.65" width="0.13" height="92.1"/><rect class="cls-1" x="1603.65" y="45.65" width="0.13" height="92.1"/><rect class="cls-1" x="1603.77" y="45.65" width="0.13" height="92.1"/><rect class="cls-1" x="1603.9" y="45.65" width="0.13" height="92.1"/><rect class="cls-1" x="1604.02" y="45.65" width="0.13" height="92.1"/><rect class="cls-1" x="1604.15" y="45.65" width="0.13" height="92.1"/><rect class="cls-1" x="1604.27" y="45.65" width="0.13" height="92.1"/><rect class="cls-1" x="1604.4" y="45.65" width="0.13" height="92.1"/><rect class="cls-1" x="1604.53" y="45.65" width="0.13" height="92.1"/><rect class="cls-1" x="1604.65" y="45.65" width="0.13" height="92.1"/><rect class="cls-1" x="1604.78" y="45.65" width="0.13" height="92.1"/><rect class="cls-1" x="1604.9" y="45.65" width="0.13" height="92.1"/><rect class="cls-1" x="1605.03" y="45.65" width="0.13" height="92.1"/><rect class="cls-1" x="1605.15" y="45.65" width="0.13" height="92.1"/><rect class="cls-1" x="1605.28" y="45.65" width="0.13" height="92.1"/><rect class="cls-1" x="1605.4" y="45.65" width="0.13" height="92.1"/><rect class="cls-1" x="1605.53" y="45.65" width="0.13" height="92.1"/><rect class="cls-1" x="1605.65" y="45.65" width="0.13" height="92.1"/><rect class="cls-1" x="1605.78" y="45.65" width="0.13" height="92.1"/><rect class="cls-1" x="1605.9" y="45.65" width="0.13" height="92.1"/><rect class="cls-1" x="1606.03" y="45.65" width="0.13" height="92.1"/><rect class="cls-1" x="1606.15" y="45.65" width="0.13" height="92.1"/><rect class="cls-1" x="1606.28" y="45.65" width="0.13" height="92.1"/><rect class="cls-1" x="1606.41" y="45.65" width="0.13" height="92.1"/><rect class="cls-1" x="1606.53" y="45.65" width="0.13" height="92.1"/><rect class="cls-1" x="1606.66" y="45.65" width="0.13" height="92.1"/><rect class="cls-1" x="1606.78" y="45.65" width="0.13" height="92.1"/><rect class="cls-1" x="1606.91" y="45.65" width="0.13" height="92.1"/><rect class="cls-1" x="1607.03" y="45.65" width="0.13" height="92.1"/><rect class="cls-1" x="1607.16" y="45.65" width="0.13" height="92.1"/><rect class="cls-1" x="1607.28" y="45.65" width="0.13" height="92.1"/><rect class="cls-1" x="1607.41" y="45.65" width="0.13" height="92.1"/><rect class="cls-1" x="1607.53" y="45.65" width="0.13" height="92.1"/><rect class="cls-1" x="1607.66" y="45.65" width="0.13" height="92.1"/><rect class="cls-1" x="1607.78" y="45.65" width="0.13" height="92.1"/><rect class="cls-1" x="1607.91" y="45.65" width="0.13" height="92.1"/><rect class="cls-1" x="1608.04" y="45.65" width="0.13" height="92.1"/><rect class="cls-1" x="1608.16" y="45.65" width="0.13" height="92.1"/><rect class="cls-1" x="1608.29" y="45.65" width="0.13" height="92.1"/><rect class="cls-1" x="1608.41" y="45.65" width="0.13" height="92.1"/><rect class="cls-1" x="1608.54" y="45.65" width="0.13" height="92.1"/><rect class="cls-1" x="1608.66" y="45.65" width="0.13" height="92.1"/><rect class="cls-1" x="1608.79" y="45.65" width="0.13" height="92.1"/><rect class="cls-1" x="1608.91" y="45.65" width="0.13" height="92.1"/><rect class="cls-1" x="1609.04" y="45.65" width="0.13" height="92.1"/><rect class="cls-1" x="1609.16" y="45.65" width="0.13" height="92.1"/><rect class="cls-1" x="1609.29" y="45.65" width="0.13" height="92.1"/><rect class="cls-1" x="1609.41" y="45.65" width="0.13" height="92.1"/><rect class="cls-1" x="1609.54" y="45.65" width="0.13" height="92.1"/><rect class="cls-1" x="1609.66" y="45.65" width="0.13" height="92.1"/><rect class="cls-1" x="1609.79" y="45.65" width="0.13" height="92.1"/><rect class="cls-1" x="1609.92" y="45.65" width="0.13" height="92.1"/><rect class="cls-1" x="1610.04" y="45.65" width="0.13" height="92.1"/><rect class="cls-1" x="1610.17" y="45.65" width="0.13" height="92.1"/><rect class="cls-1" x="1610.29" y="45.65" width="0.13" height="92.1"/><rect class="cls-1" x="1610.42" y="45.65" width="0.13" height="92.1"/><rect class="cls-1" x="1610.54" y="45.65" width="0.13" height="92.1"/><rect class="cls-1" x="1610.67" y="45.65" width="0.13" height="92.1"/><rect class="cls-1" x="1610.79" y="45.65" width="0.13" height="92.1"/><rect class="cls-1" x="1610.92" y="45.65" width="0.13" height="92.1"/><rect class="cls-1" x="1611.04" y="45.65" width="0.13" height="92.1"/><rect class="cls-1" x="1611.17" y="45.65" width="0.13" height="92.1"/><rect class="cls-1" x="1611.29" y="45.65" width="0.13" height="92.1"/><rect class="cls-1" x="1611.42" y="45.65" width="0.13" height="92.1"/><rect class="cls-1" x="1611.54" y="45.65" width="0.13" height="92.1"/><rect class="cls-1" x="1611.67" y="45.65" width="0.13" height="92.1"/><rect class="cls-1" x="1611.8" y="45.65" width="0.13" height="92.1"/><rect class="cls-1" x="1611.92" y="45.65" width="0.13" height="92.1"/><rect class="cls-1" x="1612.05" y="45.65" width="0.13" height="92.1"/><rect class="cls-1" x="1612.17" y="45.65" width="0.13" height="92.1"/><rect class="cls-1" x="1612.3" y="45.65" width="0.13" height="92.1"/><rect class="cls-1" x="1612.42" y="45.65" width="0.13" height="92.1"/><rect class="cls-1" x="1612.55" y="45.65" width="0.13" height="92.1"/><rect class="cls-1" x="1612.67" y="45.65" width="0.13" height="92.1"/><rect class="cls-1" x="1612.8" y="45.65" width="0.13" height="92.1"/><rect class="cls-1" x="1612.92" y="45.65" width="0.13" height="92.1"/><rect class="cls-1" x="1613.05" y="45.65" width="0.13" height="92.1"/><rect class="cls-1" x="1613.17" y="45.65" width="0.13" height="92.1"/><rect class="cls-1" x="1613.3" y="45.65" width="0.13" height="92.1"/><rect class="cls-1" x="1613.43" y="45.65" width="0.13" height="92.1"/><rect class="cls-1" x="1613.55" y="45.65" width="0.13" height="92.1"/><rect class="cls-1" x="1613.68" y="45.65" width="0.13" height="92.1"/><rect class="cls-1" x="1613.8" y="45.65" width="0.13" height="92.1"/><rect class="cls-1" x="1613.93" y="45.65" width="0.13" height="92.1"/><rect class="cls-1" x="1614.05" y="45.65" width="0.13" height="92.1"/><rect class="cls-1" x="1614.18" y="45.65" width="0.13" height="92.1"/><rect class="cls-1" x="1614.3" y="45.65" width="0.13" height="92.1"/><rect class="cls-1" x="1614.43" y="45.65" width="0.13" height="92.1"/><rect class="cls-1" x="1614.55" y="45.65" width="0.13" height="92.1"/><rect class="cls-1" x="1614.68" y="45.65" width="0.13" height="92.1"/><rect class="cls-1" x="1614.8" y="45.65" width="0.13" height="92.1"/><rect class="cls-1" x="1614.93" y="45.65" width="0.13" height="92.1"/><rect class="cls-1" x="1615.05" y="45.65" width="0.13" height="92.1"/><rect class="cls-1" x="1615.18" y="45.65" width="0.13" height="92.1"/><rect class="cls-1" x="1615.31" y="45.65" width="0.13" height="92.1"/><rect class="cls-1" x="1615.43" y="45.65" width="0.13" height="92.1"/><rect class="cls-1" x="1615.56" y="45.65" width="0.13" height="92.1"/><rect class="cls-1" x="1615.68" y="45.65" width="0.13" height="92.1"/><rect class="cls-1" x="1615.81" y="45.65" width="0.13" height="92.1"/><rect class="cls-1" x="1615.93" y="45.65" width="0.13" height="92.1"/><rect class="cls-1" x="1616.06" y="45.65" width="0.13" height="92.1"/><rect class="cls-1" x="1616.18" y="45.65" width="0.13" height="92.1"/><rect class="cls-1" x="1616.31" y="45.65" width="0.13" height="92.1"/><rect class="cls-1" x="1616.43" y="45.65" width="0.13" height="92.1"/><rect class="cls-1" x="1616.56" y="45.65" width="0.13" height="92.1"/><rect class="cls-1" x="1616.68" y="45.65" width="0.13" height="92.1"/><rect class="cls-1" x="1616.81" y="45.65" width="0.13" height="92.1"/><rect class="cls-1" x="1616.94" y="45.65" width="0.13" height="92.1"/><rect class="cls-1" x="1617.06" y="45.65" width="0.13" height="92.1"/><rect class="cls-1" x="1617.19" y="45.65" width="0.13" height="92.1"/><rect class="cls-1" x="1617.31" y="45.65" width="0.13" height="92.1"/><rect class="cls-1" x="1617.44" y="45.65" width="0.13" height="92.1"/><rect class="cls-1" x="1617.56" y="45.65" width="0.13" height="92.1"/><rect class="cls-1" x="1617.69" y="45.65" width="0.13" height="92.1"/><rect class="cls-1" x="1617.81" y="45.65" width="0.13" height="92.1"/><rect class="cls-1" x="1617.94" y="45.65" width="0.13" height="92.1"/><rect class="cls-1" x="1618.06" y="45.65" width="0.13" height="92.1"/><rect class="cls-1" x="1618.19" y="45.65" width="0.13" height="92.1"/><rect class="cls-1" x="1618.31" y="45.65" width="0.13" height="92.1"/><rect class="cls-1" x="1618.44" y="45.65" width="0.13" height="92.1"/><rect class="cls-1" x="1618.56" y="45.65" width="0.13" height="92.1"/><rect class="cls-1" x="1618.69" y="45.65" width="0.13" height="92.1"/><rect class="cls-1" x="1618.82" y="45.65" width="0.13" height="92.1"/><rect class="cls-1" x="1618.94" y="45.65" width="0.13" height="92.1"/><rect class="cls-1" x="1619.07" y="45.65" width="0.13" height="92.1"/><rect class="cls-1" x="1619.19" y="45.65" width="0.13" height="92.1"/><rect class="cls-1" x="1619.32" y="45.65" width="0.13" height="92.1"/><rect class="cls-1" x="1619.44" y="45.65" width="0.13" height="92.1"/><rect class="cls-1" x="1619.57" y="45.65" width="0.13" height="92.1"/><rect class="cls-1" x="1619.69" y="45.65" width="0.13" height="92.1"/><rect class="cls-1" x="1619.82" y="45.65" width="0.13" height="92.1"/><rect class="cls-1" x="1619.94" y="45.65" width="0.13" height="92.1"/><rect class="cls-1" x="1620.07" y="45.65" width="0.13" height="92.1"/><rect class="cls-1" x="1620.19" y="45.65" width="0.13" height="92.1"/><rect class="cls-1" x="1620.32" y="45.65" width="0.13" height="92.1"/><rect class="cls-1" x="1620.44" y="45.65" width="0.13" height="92.1"/><rect class="cls-1" x="1620.57" y="45.65" width="0.13" height="92.1"/><rect class="cls-1" x="1620.7" y="45.65" width="0.13" height="92.1"/><rect class="cls-1" x="1620.82" y="45.65" width="0.13" height="92.1"/><rect class="cls-1" x="1620.95" y="45.65" width="0.13" height="92.1"/><rect class="cls-1" x="1621.07" y="45.65" width="0.13" height="92.1"/><rect class="cls-1" x="1621.2" y="45.65" width="0.13" height="92.1"/><rect class="cls-1" x="1621.32" y="45.65" width="0.13" height="92.1"/><rect class="cls-1" x="1621.45" y="45.65" width="0.13" height="92.1"/><rect class="cls-1" x="1621.57" y="45.65" width="0.13" height="92.1"/><rect class="cls-1" x="1621.7" y="45.65" width="0.13" height="92.1"/><rect class="cls-1" x="1621.82" y="45.65" width="0.13" height="92.1"/><rect class="cls-1" x="1621.95" y="45.65" width="0.13" height="92.1"/><rect class="cls-1" x="1622.07" y="45.65" width="0.13" height="92.1"/><rect class="cls-1" x="1622.2" y="45.65" width="0.13" height="92.1"/><rect class="cls-1" x="1622.33" y="45.65" width="0.13" height="92.1"/><rect class="cls-1" x="1622.45" y="45.65" width="0.13" height="92.1"/><rect class="cls-1" x="1622.58" y="45.65" width="0.13" height="92.1"/><rect class="cls-1" x="1622.7" y="45.65" width="0.13" height="92.1"/><rect class="cls-1" x="1622.83" y="45.65" width="0.13" height="92.1"/><rect class="cls-1" x="1622.95" y="45.65" width="0.13" height="92.1"/><rect class="cls-1" x="1623.08" y="45.65" width="0.13" height="92.1"/><rect class="cls-1" x="1623.2" y="45.65" width="0.13" height="92.1"/><rect class="cls-1" x="1623.33" y="45.65" width="0.13" height="92.1"/><rect class="cls-1" x="1623.45" y="45.65" width="0.13" height="92.1"/><rect class="cls-1" x="1623.58" y="45.65" width="0.13" height="92.1"/><rect class="cls-1" x="1623.7" y="45.65" width="0.13" height="92.1"/><rect class="cls-1" x="1623.83" y="45.65" width="0.13" height="92.1"/><rect class="cls-1" x="1623.95" y="45.65" width="0.13" height="92.1"/><rect class="cls-1" x="1624.08" y="45.65" width="0.13" height="92.1"/><rect class="cls-1" x="1624.21" y="45.65" width="0.13" height="92.1"/><rect class="cls-1" x="1624.33" y="45.65" width="0.13" height="92.1"/><rect class="cls-1" x="1624.46" y="45.65" width="0.13" height="92.1"/><rect class="cls-1" x="1624.58" y="45.65" width="0.13" height="92.1"/><rect class="cls-1" x="1624.71" y="45.65" width="0.13" height="92.1"/><rect class="cls-1" x="1624.83" y="45.65" width="0.13" height="92.1"/><rect class="cls-1" x="1624.96" y="45.65" width="0.13" height="92.1"/><rect class="cls-1" x="1625.08" y="45.65" width="0.13" height="92.1"/><rect class="cls-1" x="1625.21" y="45.65" width="0.13" height="92.1"/><rect class="cls-1" x="1625.33" y="45.65" width="0.13" height="92.1"/><rect class="cls-1" x="1625.46" y="45.65" width="0.13" height="92.1"/><rect class="cls-1" x="1625.58" y="45.65" width="0.13" height="92.1"/><rect class="cls-1" x="1625.71" y="45.65" width="0.13" height="92.1"/><rect class="cls-1" x="1625.83" y="45.65" width="0.13" height="92.1"/><rect class="cls-1" x="1625.96" y="45.65" width="0.13" height="92.1"/><rect class="cls-1" x="1626.09" y="45.65" width="0.13" height="92.1"/><rect class="cls-1" x="1626.21" y="45.65" width="0.13" height="92.1"/><rect class="cls-1" x="1626.34" y="45.65" width="0.13" height="92.1"/><rect class="cls-1" x="1626.46" y="45.65" width="0.13" height="92.1"/><rect class="cls-1" x="1626.59" y="45.65" width="0.13" height="92.1"/><rect class="cls-1" x="1626.71" y="45.65" width="0.13" height="92.1"/><rect class="cls-1" x="1626.84" y="45.65" width="0.13" height="92.1"/><rect class="cls-1" x="1626.96" y="45.65" width="0.13" height="92.1"/><rect class="cls-1" x="1627.09" y="45.65" width="0.13" height="92.1"/><rect class="cls-1" x="1627.21" y="45.65" width="0.13" height="92.1"/><rect class="cls-1" x="1627.34" y="45.65" width="0.13" height="92.1"/><rect class="cls-1" x="1627.46" y="45.65" width="0.13" height="92.1"/><rect class="cls-1" x="1627.59" y="45.65" width="0.13" height="92.1"/><rect class="cls-1" x="1627.72" y="45.65" width="0.13" height="92.1"/><rect class="cls-1" x="1627.84" y="45.65" width="0.13" height="92.1"/><rect class="cls-1" x="1627.97" y="45.65" width="0.13" height="92.1"/><rect class="cls-1" x="1628.09" y="45.65" width="0.13" height="92.1"/><rect class="cls-1" x="1628.22" y="45.65" width="0.13" height="92.1"/><rect class="cls-1" x="1628.34" y="45.65" width="0.13" height="92.1"/><rect class="cls-1" x="1628.47" y="45.65" width="0.13" height="92.1"/><rect class="cls-1" x="1628.59" y="45.65" width="0.13" height="92.1"/><rect class="cls-1" x="1628.72" y="45.65" width="0.13" height="92.1"/><rect class="cls-1" x="1628.84" y="45.65" width="0.13" height="92.1"/><rect class="cls-1" x="1628.97" y="45.65" width="0.13" height="92.1"/><rect class="cls-1" x="1629.09" y="45.65" width="0.13" height="92.1"/><rect class="cls-1" x="1629.22" y="45.65" width="0.13" height="92.1"/><rect class="cls-1" x="1629.34" y="45.65" width="0.13" height="92.1"/><rect class="cls-1" x="1629.47" y="45.65" width="0.13" height="92.1"/><rect class="cls-1" x="1629.6" y="45.65" width="0.13" height="92.1"/><rect class="cls-1" x="1629.72" y="45.65" width="0.13" height="92.1"/><rect class="cls-1" x="1629.85" y="45.65" width="0.13" height="92.1"/><rect class="cls-1" x="1629.97" y="45.65" width="0.13" height="92.1"/><rect class="cls-1" x="1630.1" y="45.65" width="0.13" height="92.1"/><rect class="cls-1" x="1630.22" y="45.65" width="0.13" height="92.1"/><rect class="cls-1" x="1630.35" y="45.65" width="0.13" height="92.1"/><rect class="cls-1" x="1630.47" y="45.65" width="0.13" height="92.1"/><rect class="cls-1" x="1630.6" y="45.65" width="0.13" height="92.1"/><rect class="cls-1" x="1630.72" y="45.65" width="0.13" height="92.1"/><rect class="cls-1" x="1630.85" y="45.65" width="0.13" height="92.1"/><rect class="cls-1" x="1630.97" y="45.65" width="0.13" height="92.1"/><rect class="cls-1" x="1631.1" y="45.65" width="0.13" height="92.1"/><rect class="cls-1" x="1631.23" y="45.65" width="0.13" height="92.1"/><path class="cls-1" d="M1631.35,137.76v0Z"/></g><rect class="cls-1" x="1567.62" y="90.7" width="97.01" height="2" transform="translate(1020.85 1597) rotate(-71.67)"/></g><g class="cls-3"><rect class="cls-1" x="1666.53" y="85.84" width="2" height="51.67" transform="translate(151.72 815.55) rotate(-28.74)"/></g></g></g></g></svg>