<svg xmlns="http://www.w3.org/2000/svg" viewBox="0 0 622 622"><defs><style>.cls-1,.cls-2,.cls-3,.cls-4{fill:none;stroke:#0c2ac3;stroke-linecap:round;stroke-linejoin:round;}.cls-1{stroke-dasharray:2 6;}.cls-2{stroke-dasharray:2 5.99;}.cls-3{stroke-dasharray:2 6.01;}.cls-4{stroke-dasharray:2 5.99;}.cls-5{fill:#0c2ac3;}.cls-6{fill:#fff;}</style></defs><g id="图层_2" data-name="图层 2"><g id="图层_1-2" data-name="图层 1"><circle class="cls-1" cx="311" cy="311" r="310.5"/><circle class="cls-2" cx="311" cy="311" r="265.5"/><circle class="cls-3" cx="311" cy="311" r="220.5"/><circle class="cls-4" cx="311" cy="311" r="175.5"/><circle class="cls-5" cx="311" cy="311" r="121.5"/><path class="cls-6" d="M294.25,302.68c1.25-8.47-3.46-18-11.92-20.52-12.62-3.69-25.47,3.62-29.82,17.25a102.17,102.17,0,0,0-2.73,12.8c-1.64,8.92-3.17,17.85-4.78,27h17.76c.77-4.16,1.38-8,2.19-12.23.73-3.93,2.22-5.23,5.58-5.05C282.73,322.31,292.63,315.32,294.25,302.68Zm-26.91,5.67c.88-3.24,1.35-5.75,2.14-7.36a5.14,5.14,0,0,1,1.24-1.74,4,4,0,0,1,4.93-.83c1.74,1.15,2,3.81.62,5.92a5.63,5.63,0,0,1-1.26,1.35h0C273.47,306.89,271,307.5,267.34,308.35Z"/><path class="cls-6" d="M364.34,296.78a13.32,13.32,0,0,0-8.12,4.73c1.07-6,2.57-13.95,3.53-19.7H344c-3.15,17.59-.8,16.06-17.43,16.14a18.47,18.47,0,0,0-10.85,2.66c.21-1.25.43-2.53.65-3.84H300.69s-3.94,22.42-3.94,22.7v0c-.05.2-.07.32-.08.34-.54,2.78-2,4.28-4.46,4.28a4.34,4.34,0,0,1-4.18-3h0a22,22,0,0,1-13.93,5.05,32.6,32.6,0,0,1-3.33-.2,21,21,0,0,0,33.62,9.1,14.45,14.45,0,0,0,1.27-1.05c-.3,1.71-.7,3.43-.94,5.21,16.12,0,22.54,1.05,29.83-4.63a28.2,28.2,0,0,1-.83,4.63c4.75,0,11.36.1,15.75.11,0,0,2-11.76,2.84-15.92.63-3.18,1.4-12.93,6.59-11.88,2.78,1,2.48,2.86,2.33,4.26-.18,1.68-.67,4.22-1,5.94-1,5.76-2.09,11.42-3.1,17.49h16c1.62-9.37,3.52-20.17,5.21-29.65C379.37,301.38,372.2,295.46,364.34,296.78ZM320,323.57a1.46,1.46,0,0,1-1.32,1.22c-2.25.1-5.11.12-7.79.12a68.74,68.74,0,0,0,1.83-7.11c2.17,1.28,4.22,2.47,6.2,3.78A1.88,1.88,0,0,1,320,323.57Zm17.33-4-9.12-7.09c.1-.32.19-.63.28-.94h10.24C338.27,314.06,337.8,316.78,337.31,319.56Z"/><path class="cls-6" d="M294.25,302.68c1.25-8.47-3.46-18-11.92-20.52-12.62-3.69-25.47,3.62-29.82,17.25a102.17,102.17,0,0,0-2.73,12.8c-1.64,8.92-3.17,17.85-4.78,27h17.76c.77-4.16,1.38-8,2.19-12.23.73-3.93,2.22-5.23,5.58-5.05C282.73,322.31,292.63,315.32,294.25,302.68Zm-26.91,5.67c.88-3.24,1.35-5.75,2.14-7.36a5.14,5.14,0,0,1,1.24-1.74,4,4,0,0,1,4.93-.83c1.74,1.15,2,3.81.62,5.92a5.63,5.63,0,0,1-1.26,1.35h0C273.47,306.89,271,307.5,267.34,308.35Z"/><path class="cls-6" d="M364.34,296.78a13.32,13.32,0,0,0-8.12,4.73c1.07-6,2.57-13.95,3.53-19.7H344c-3.15,17.59-.8,16.06-17.43,16.14a18.47,18.47,0,0,0-10.85,2.66c.21-1.25.43-2.53.65-3.84H300.69s-3.94,22.42-3.94,22.7v0c-.05.2-.07.32-.08.34-.54,2.78-2,4.28-4.46,4.28a4.34,4.34,0,0,1-4.18-3h0a22,22,0,0,1-13.93,5.05,32.6,32.6,0,0,1-3.33-.2,21,21,0,0,0,33.62,9.1,14.45,14.45,0,0,0,1.27-1.05c-.3,1.71-.7,3.43-.94,5.21,16.12,0,22.54,1.05,29.83-4.63a28.2,28.2,0,0,1-.83,4.63c4.75,0,11.36.1,15.75.11,0,0,2-11.76,2.84-15.92.63-3.18,1.4-12.93,6.59-11.88,2.78,1,2.48,2.86,2.33,4.26-.18,1.68-.67,4.22-1,5.94-1,5.76-2.09,11.42-3.1,17.49h16c1.62-9.37,3.52-20.17,5.21-29.65C379.37,301.38,372.2,295.46,364.34,296.78ZM320,323.57a1.46,1.46,0,0,1-1.32,1.22c-2.25.1-5.11.12-7.79.12a68.74,68.74,0,0,0,1.83-7.11c2.17,1.28,4.22,2.47,6.2,3.78A1.88,1.88,0,0,1,320,323.57Zm17.33-4-9.12-7.09c.1-.32.19-.63.28-.94h10.24C338.27,314.06,337.8,316.78,337.31,319.56Z"/></g></g></svg>