<svg xmlns="http://www.w3.org/2000/svg" viewBox="0 0 790.14 713.48"><defs><style>.cls-1{fill:#0060e6;opacity:0.5;}</style></defs><g id="图层_2" data-name="图层 2"><g id="图层_1-2" data-name="图层 1"><circle class="cls-1" cx="354.74" cy="13.31" r="13.31"/><circle class="cls-1" cx="354.63" cy="700.17" r="13.31"/><circle class="cls-1" cx="310.16" cy="698.89" r="10.54"/><circle class="cls-1" cx="276.47" cy="694.08" r="7.67"/><circle class="cls-1" cx="250.97" cy="687.56" r="5.42"/><circle class="cls-1" cx="231.05" cy="681.72" r="3.83"/><circle class="cls-1" cx="13.31" cy="309.84" r="13.31"/><circle class="cls-1" cx="14.98" cy="265.38" r="10.54"/><circle class="cls-1" cx="21.38" cy="231.69" r="7.67"/><circle class="cls-1" cx="28.47" cy="206.19" r="5.42"/><circle class="cls-1" cx="35.45" cy="186.26" r="3.83"/><circle class="cls-1" cx="399.21" cy="14.98" r="10.54"/><circle class="cls-1" cx="432.9" cy="23.93" r="7.67"/><circle class="cls-1" cx="458.4" cy="32.44" r="5.42"/><circle class="cls-1" cx="478.32" cy="41.12" r="3.83"/><circle class="cls-1" cx="776.82" cy="309.84" r="13.31"/><circle class="cls-1" cx="774.59" cy="354.31" r="10.54"/><circle class="cls-1" cx="769.89" cy="388" r="7.67"/><circle class="cls-1" cx="764.22" cy="413.5" r="5.42"/><circle class="cls-1" cx="758.79" cy="433.42" r="3.83"/></g></g></svg>