<svg xmlns="http://www.w3.org/2000/svg" viewBox="0 0 40.44 40.44"><defs><style>.cls-1{fill:#0c2ac3;}.cls-2{fill:none;stroke:#dcdddd;stroke-linecap:round;stroke-linejoin:round;}</style></defs><g id="图层_2" data-name="图层 2"><g id="图层_1-2" data-name="图层 1"><circle class="cls-1" cx="20.22" cy="20.22" r="20.22"/><path class="cls-2" d="M21.53,14.44a2.14,2.14,0,0,1,3,0h0a2.12,2.12,0,0,1,0,3L15,27"/><path class="cls-2" d="M12.47,19.77l8.13-8.13a4.91,4.91,0,0,1,7,0h0a4.93,4.93,0,0,1,0,7l-9.91,9.9"/><path class="cls-2" d="M25.51,20.62l-8.64,8.64a3.6,3.6,0,0,1-5.08,0h0a3.59,3.59,0,0,1,0-5.07l9.75-9.75"/></g></g></svg>