<svg xmlns="http://www.w3.org/2000/svg" viewBox="0 0 1519.66 407.4"><defs><style>.cls-1,.cls-10,.cls-2,.cls-9{fill:none;}.cls-1{stroke:#00f0b4;stroke-dasharray:1 5;}.cls-1,.cls-11,.cls-2,.cls-9{stroke-linecap:round;stroke-linejoin:round;}.cls-1,.cls-10,.cls-11,.cls-2{stroke-width:2px;}.cls-10,.cls-11,.cls-2,.cls-9{stroke:#0c2ac3;}.cls-3{fill:#00f0b4;}.cls-4{font-size:24px;}.cls-4,.cls-8{fill:#0c2ac3;font-family:AlibabaPuHuiTi-Medium, Alibaba PuHuiTi;font-weight:500;}.cls-5{font-size:16px;font-family:AlibabaPuHuiTi-Regular, Alibaba PuHuiTi;}.cls-6{letter-spacing:0.08em;}.cls-7{letter-spacing:0.26em;}.cls-8{font-size:20px;}.cls-9{stroke-width:3px;}.cls-10{stroke-miterlimit:10;}.cls-11{fill:#fff;}</style></defs><g id="图层_2" data-name="图层 2"><g id="图层_1-2" data-name="图层 1"><path class="cls-1" d="M1518.66,172.47a146.12,146.12,0,1,1-292.23,0"/><path class="cls-2" d="M1212.31,172.47a146.12,146.12,0,1,1-292.24,0"/><path class="cls-2" d="M1517.48,172.81a146.12,146.12,0,1,0-292.23,0"/><path class="cls-1" d="M920.07,172.47a146.13,146.13,0,0,1,290.55-22.25"/><path class="cls-1" d="M906,172.47a146.12,146.12,0,0,1-292.24,0"/><path class="cls-2" d="M613.71,172.47a146.13,146.13,0,0,1,290.55-22.25"/><path class="cls-2" d="M599.59,172.47a146.12,146.12,0,1,1-292.23,0"/><polyline class="cls-3" points="550.05 150.44 597.94 150.44 587.65 150.44 550.05 194.5 613.72 194.5 613.72 214.98 656.23 172.47 636.98 153.22 613.72 129.96 613.72 150.44 597.94 150.44"/><text class="cls-4" transform="translate(404.61 177.37)">信息整合</text><path class="cls-1" d="M307.36,172.47a146.13,146.13,0,0,1,290.55-22.25"/><polyline class="cls-2" points="339.02 194.5 550.05 194.5 613.72 194.5 613.72 214.98 656.23 172.47 636.98 153.22 613.72 129.96 613.72 150.44 597.94 150.44 550.05 150.44"/><circle class="cls-3" cx="453.47" cy="26.35" r="26.35"/><text class="cls-5" transform="translate(385.25 220.81)"><tspan class="cls-6">研究项目；调研</tspan><tspan x="119.03" y="0">样</tspan><tspan class="cls-7" x="0" y="19.2">本选择；实地</tspan><tspan x="119.03" y="19.2">调</tspan><tspan x="4.41" y="38.4">研、访谈、问卷等</tspan></text><text class="cls-8" transform="translate(440.06 33.5)">02</text><polyline class="cls-3" points="856.4 150.44 904.3 150.44 894 150.44 856.4 194.5 920.07 194.5 920.07 214.98 962.58 172.47 943.34 153.22 920.07 129.96 920.07 150.44 904.3 150.44"/><text class="cls-4" transform="translate(710.97 177.37)">信息分析</text><polyline class="cls-9" points="645.38 194.5 856.4 194.5 920.07 194.5 920.07 214.98 962.58 172.47 943.34 153.22 920.07 129.96 920.07 150.44 904.3 150.44 856.4 150.44"/><circle class="cls-3" cx="759.83" cy="318.59" r="26.35"/><text class="cls-5" transform="translate(691.61 220.81)"><tspan class="cls-6">研究项目；调研</tspan><tspan x="119.03" y="0">样</tspan><tspan class="cls-7" x="0" y="19.2">本选择；实地</tspan><tspan x="119.03" y="19.2">调</tspan><tspan x="4.41" y="38.4">研、访谈、问卷等</tspan></text><text class="cls-8" transform="translate(746.42 325.73)">03</text><polyline class="cls-3" points="1162.76 150.44 1210.65 150.44 1200.36 150.44 1162.76 194.5 1226.43 194.5 1226.43 214.98 1268.94 172.47 1249.69 153.22 1226.43 129.96 1226.43 150.44 1210.65 150.44"/><text class="cls-4" transform="translate(1017.33 177.37)">创意策划</text><polyline class="cls-2" points="951.74 194.5 1162.76 194.5 1226.43 194.5 1226.43 214.98 1268.94 172.47 1249.69 153.22 1226.43 129.96 1226.43 150.44 1210.65 150.44 1162.76 150.44"/><circle class="cls-3" cx="1066.19" cy="26.35" r="26.35"/><text class="cls-5" transform="translate(997.96 220.81)"><tspan class="cls-6">研究项目；调研</tspan><tspan x="119.03" y="0">样</tspan><tspan class="cls-7" x="0" y="19.2">本选择；实地</tspan><tspan x="119.03" y="19.2">调</tspan><tspan x="4.41" y="38.4">研、访谈、问卷等</tspan></text><text class="cls-8" transform="translate(1054.41 33.5)">04</text><text class="cls-4" transform="translate(1300.07 177.37)">运营迭代服务</text><line class="cls-9" x1="1258.09" y1="194.5" x2="1501.52" y2="194.5"/><circle class="cls-3" cx="1372.55" cy="318.59" r="26.35"/><text class="cls-5" transform="translate(1304.32 220.81)"><tspan class="cls-6">研究项目；调研</tspan><tspan x="119.03" y="0">样</tspan><tspan class="cls-7" x="0" y="19.2">本选择；实地</tspan><tspan x="119.03" y="19.2">调</tspan><tspan x="4.41" y="38.4">研、访谈、问卷等</tspan></text><text class="cls-8" transform="translate(1359.13 325.73)">05</text><path class="cls-10" d="M160.79,113.08a15.17,15.17,0,1,1-15.17-15.17A15.08,15.08,0,0,1,160.79,113.08Z"/><path class="cls-10" d="M140.09,105.69a9.25,9.25,0,0,1,5.53-1.84,9.14,9.14,0,0,1,3.59.73"/><line class="cls-10" x1="171.58" y1="138.12" x2="156.34" y2="123.8"/><path class="cls-1" d="M293.23,172.47A146.12,146.12,0,1,1,1,172.47"/><polyline class="cls-3" points="243.69 150.44 291.58 150.44 281.29 150.44 243.69 194.5 307.36 194.5 307.36 214.98 349.87 172.47 330.62 153.22 307.36 129.96 307.36 150.44 291.58 150.44"/><text class="cls-4" transform="translate(98.25 177.37)">前期调研</text><path class="cls-2" d="M1,172.47a146.13,146.13,0,0,1,290.55-22.25"/><polyline class="cls-2" points="32.66 194.5 243.69 194.5 307.36 194.5 307.36 214.98 349.87 172.47 330.62 153.22 307.36 129.96 307.36 150.44 291.58 150.44 243.69 150.44"/><circle class="cls-3" cx="147.12" cy="318.59" r="26.35"/><text class="cls-5" transform="translate(78.89 220.81)"><tspan class="cls-6">研究项目；调研</tspan><tspan x="119.03" y="0">样</tspan><tspan class="cls-7" x="0" y="19.2">本选择；实地</tspan><tspan x="119.03" y="19.2">调</tspan><tspan x="4.41" y="38.4">研、访谈、问卷等</tspan></text><text class="cls-8" transform="translate(133.7 325.73)">01</text><rect class="cls-2" x="456.43" y="116.58" width="17.31" height="22.31"/><rect class="cls-11" x="431.78" y="98.69" width="32.14" height="40.2"/><line class="cls-10" x1="439.13" y1="111.73" x2="456.43" y2="111.73"/><line class="cls-10" x1="439.13" y1="120.56" x2="448.78" y2="120.56"/><rect class="cls-2" x="738.76" y="98.69" width="40.95" height="40.95"/><path class="cls-11" d="M764.05,129.9h0a2.78,2.78,0,0,1-2-.81l-11.66-11.66a2.77,2.77,0,1,1,3.92-3.92l9.7,9.71L787.91,99.5a2.76,2.76,0,0,1,3.91,3.91L766,129.09A2.78,2.78,0,0,1,764.05,129.9Z"/><circle class="cls-10" cx="1063.83" cy="105.16" r="7.73"/><path class="cls-10" d="M1087,110.14a21.92,21.92,0,1,1-42.22,11.78Z"/><circle class="cls-10" cx="1063.83" cy="105.16" r="4.02"/><path class="cls-2" d="M1361.43,124.74s-.82,6.44,2.64,10.73c0,0,19.48,8.75,28.56-14.19C1392.63,121.28,1379.42,137.45,1361.43,124.74Z"/><path class="cls-2" d="M1385.44,122s6-2.5,8-7.65c0,0-2.17-21.24-26.58-17.63C1366.84,96.69,1387.46,100,1385.44,122Z"/><path class="cls-2" d="M1371,102.56s-5.17-3.93-10.62-3.08c0,0-17.31,12.5-2,31.83C1358.44,131.31,1351,111.79,1371,102.56Z"/></g></g></svg>