<svg xmlns="http://www.w3.org/2000/svg" viewBox="0 0 52.62 46.91"><defs><style>.cls-1{fill:none;stroke:#0c2ac3;stroke-miterlimit:10;stroke-width:0.1px;}.cls-2,.cls-3{fill:#fff;}.cls-3{opacity:0.2;}</style></defs><g id="图层_2" data-name="图层 2"><g id="图层_1-2" data-name="图层 1"><path class="cls-1" d="M28.23,20.19a8.05,8.05,0,1,1-8-8A8,8,0,0,1,28.23,20.19Z"/><path class="cls-2" d="M20.18,0A20.18,20.18,0,0,0,6.51,35l.88.77L20.18,46.91,33,35.81l.06-.05.83-.73A20.18,20.18,0,0,0,20.18,0Zm0,28.23a8,8,0,1,1,8.05-8A8,8,0,0,1,20.18,28.23Z"/><path class="cls-3" d="M52.62,30.68a12.19,12.19,0,0,1-3.95,9l-.51.45,0,0-7.76,6.74L32.6,40.16l-.54-.47a12.26,12.26,0,1,1,20.56-9Z"/></g></g></svg>