<svg xmlns="http://www.w3.org/2000/svg" viewBox="0 0 50.19 46.92"><defs><style>.cls-1{opacity:0.8;}.cls-2,.cls-3{fill:#fff;}.cls-2{opacity:0.2;}</style></defs><g id="图层_2" data-name="图层 2"><g id="图层_1-2" data-name="图层 1"><g class="cls-1"><path class="cls-2" d="M20.75,0C9.29,0,0,7.92,0,17.7a15.88,15.88,0,0,0,3.65,10L2.55,37l8.35-3.7a23.17,23.17,0,0,0,6.37,1.87,13.43,13.43,0,0,1-.3-2.77c0-8.31,7.9-15.05,17.64-15.05a20.26,20.26,0,0,1,6.87,1.18q0-.41,0-.81C41.51,7.92,32.21,0,20.75,0Zm-7,13a3,3,0,1,1,3-3A3,3,0,0,1,13.76,13Zm13.88,0a3,3,0,1,1,3-3A3,3,0,0,1,27.64,13Z"/><path class="cls-3" d="M19,32.45c0,7.34,7,13.28,15.57,13.28A17.74,17.74,0,0,0,42,44.15l6.26,2.77-.82-7a11.88,11.88,0,0,0,2.74-7.52c0-7.33-7-13.28-15.58-13.28S19,25.12,19,32.45ZM37.6,26.64a2.27,2.27,0,1,1,2.27,2.26A2.27,2.27,0,0,1,37.6,26.64Zm-10.42,0a2.26,2.26,0,1,1,2.26,2.26A2.27,2.27,0,0,1,27.18,26.64Z"/></g></g></g></svg>