<svg xmlns="http://www.w3.org/2000/svg" viewBox="0 0 51.48 50.54"><defs><style>.cls-1{opacity:0.8;}.cls-2,.cls-3{fill:#fff;}.cls-2{opacity:0.2;}</style></defs><g id="图层_2" data-name="图层 2"><g id="图层_1-2" data-name="图层 1"><g class="cls-1"><path class="cls-2" d="M16.82,44a13.11,13.11,0,0,1-1.93.52l-.73,6L5.72,42.73A12.58,12.58,0,0,1,8.34,20.35l6,1.9c3.27-1.17,3.81-1.39,6.71,0s4.14,3.35,5.31,6.61c2.35,6.54,5.54,9.76-1,12.09Z"/><path class="cls-3" d="M41.62,7,30.41,1.66a17.2,17.2,0,1,0-14.7,31.1l11.22,5.29a17.5,17.5,0,0,0,2.54,1l.2,8.25L42.2,37.77A17.2,17.2,0,0,0,41.62,7ZM19.15,17.27a1.75,1.75,0,1,1,2.33-.83A1.75,1.75,0,0,1,19.15,17.27Zm8.78,4.14a1.74,1.74,0,1,1,2.32-.82A1.74,1.74,0,0,1,27.93,21.41Zm8.77,4.15A1.75,1.75,0,1,1,39,24.73,1.75,1.75,0,0,1,36.7,25.56Z"/></g></g></g></svg>