<svg xmlns="http://www.w3.org/2000/svg" viewBox="0 0 49.67 46.92"><defs><style>.cls-1{opacity:0.9;}.cls-2,.cls-3{fill:#fff;}.cls-3{opacity:0.2;}</style></defs><g id="图层_2" data-name="图层 2"><g id="图层_1-2" data-name="图层 1"><g class="cls-1"><path class="cls-2" d="M10.68,9l9.71,9.71a1.53,1.53,0,0,1,0,2.17l-4.94,4.94,6.77,6.77,4.94-4.95a1.54,1.54,0,0,1,2.16,0L38,36.25A4.77,4.77,0,0,1,38,43h0a13.43,13.43,0,0,1-19,0l-15-15A13.43,13.43,0,0,1,3.79,9.1L3.88,9A4.77,4.77,0,0,1,10.68,9Z"/><path class="cls-3" d="M48.57,21.78a10.3,10.3,0,0,1-4.39,4.54l-7.24,7.44-.69-5.65a22.81,22.81,0,0,1-9.39-2.3C18,21.55,13.33,12.83,16.44,6.33s12.85-8.28,21.72-4C47.65,6.87,51.83,15,48.57,21.78Z"/><path class="cls-2" d="M42.77,15a.94.94,0,0,1-.43-.1L25.87,7a1,1,0,1,1,.86-1.8L43.2,13.09a1,1,0,0,1-.43,1.9Z"/><path class="cls-2" d="M40.79,19.87a1,1,0,0,1-.43-.1l-16.47-7.9a1,1,0,0,1,.86-1.8L41.22,18a1,1,0,0,1-.43,1.9Z"/><path class="cls-2" d="M28.71,19.54a1,1,0,0,1-.43-.1l-6.44-3.08A1,1,0,0,1,21.38,15a1,1,0,0,1,1.33-.47l6.43,3.09a1,1,0,0,1-.43,1.9Z"/></g></g></g></svg>