<svg xmlns="http://www.w3.org/2000/svg" xmlns:xlink="http://www.w3.org/1999/xlink" viewBox="0 0 100.5 44.39"><defs><style>.cls-1{fill:#c69c6d;}.cls-2{fill:url(#linear-gradient);}.cls-3{fill:url(#linear-gradient-2);}.cls-4{fill:#fff;}</style><linearGradient id="linear-gradient" x1="-17.45" y1="36.97" x2="92.51" y2="-12.13" gradientUnits="userSpaceOnUse"><stop offset="0" stop-color="#0080d4"/><stop offset="1" stop-color="#00e4ba"/></linearGradient><linearGradient id="linear-gradient-2" x1="-6.51" y1="61.49" x2="103.46" y2="12.39" xlink:href="#linear-gradient"/></defs><g id="图层_2" data-name="图层 2"><g id="图层_1-2" data-name="图层 1"><path class="cls-1" d="M37.08,16.16C38,9.78,34.47,2.58,28.1.72,18.6-2.06,8.93,3.44,5.66,13.7A76.49,76.49,0,0,0,3.6,23.34C2.37,30.05,1.22,36.77,0,43.67H13.38c.57-3.14,1-6,1.64-9.21.55-2.95,1.67-3.94,4.2-3.8C28.41,30.94,35.86,25.68,37.08,16.16ZM16.82,20.43a39.68,39.68,0,0,1,1.61-5.54,3.91,3.91,0,0,1,.93-1.31A3,3,0,0,1,23.07,13c1.31.86,1.52,2.86.47,4.45a3.84,3.84,0,0,1-.95,1h0C21.43,19.33,19.55,19.79,16.82,20.43Z"/><path class="cls-1" d="M89.84,11.72a10,10,0,0,0-6.11,3.56c.8-4.5,1.93-10.5,2.65-14.83H74.51c-2.36,13.24-.6,12.09-13.11,12.15a13.91,13.91,0,0,0-8.17,2c.16-.93.32-1.9.49-2.89H41.92S39,28.59,39,28.8v0c0,.16-.06.25-.06.26-.41,2.09-1.52,3.22-3.36,3.22A3.26,3.26,0,0,1,32.4,30h0a16.58,16.58,0,0,1-10.48,3.8,24.61,24.61,0,0,1-2.51-.15,15.79,15.79,0,0,0,25.31,6.85,9,9,0,0,0,.95-.79c-.22,1.29-.52,2.58-.7,3.92,12.13,0,17,.79,22.45-3.48a22,22,0,0,1-.62,3.48c3.58,0,8.55.08,11.85.08,0,0,1.53-8.85,2.14-12,.47-2.39,1-9.73,5-8.94,2.09.72,1.87,2.15,1.76,3.2-.14,1.27-.51,3.18-.72,4.48-.73,4.33-1.57,8.6-2.33,13.16h12c1.22-7,2.65-15.18,3.93-22.32C101.15,15.18,95.75,10.73,89.84,11.72ZM56.45,31.89a1.12,1.12,0,0,1-1,.92c-1.69.07-3.85.09-5.86.09A51.89,51.89,0,0,0,51,27.54c1.63,1,3.18,1.86,4.67,2.85A1.42,1.42,0,0,1,56.45,31.89Zm13-3-6.86-5.34.21-.71h7.71C70.21,24.73,69.85,26.78,69.49,28.87Z"/><path class="cls-2" d="M37.08,16.16C38,9.78,34.47,2.58,28.1.72,18.6-2.06,8.93,3.44,5.66,13.7A76.49,76.49,0,0,0,3.6,23.34C2.37,30.05,1.22,36.77,0,43.67H13.38c.57-3.14,1-6,1.64-9.21.55-2.95,1.67-3.94,4.2-3.8C28.41,30.94,35.86,25.68,37.08,16.16ZM16.82,20.43a39.68,39.68,0,0,1,1.61-5.54,3.91,3.91,0,0,1,.93-1.31A3,3,0,0,1,23.07,13c1.31.86,1.52,2.86.47,4.45a3.84,3.84,0,0,1-.95,1h0C21.43,19.33,19.55,19.79,16.82,20.43Z"/><path class="cls-3" d="M89.84,11.72a10,10,0,0,0-6.11,3.56c.8-4.5,1.93-10.5,2.65-14.83H74.51c-2.36,13.24-.6,12.09-13.11,12.15a13.91,13.91,0,0,0-8.17,2c.16-.93.32-1.9.49-2.89H41.92S39,28.59,39,28.8v0c0,.16-.06.25-.06.26-.41,2.09-1.52,3.22-3.36,3.22A3.26,3.26,0,0,1,32.4,30h0a16.58,16.58,0,0,1-10.48,3.8,24.61,24.61,0,0,1-2.51-.15,15.79,15.79,0,0,0,25.31,6.85,9,9,0,0,0,.95-.79c-.22,1.29-.52,2.58-.7,3.92,12.13,0,17,.79,22.45-3.48a22,22,0,0,1-.62,3.48c3.58,0,8.55.08,11.85.08,0,0,1.53-8.85,2.14-12,.47-2.39,1-9.73,5-8.94,2.09.72,1.87,2.15,1.76,3.2-.14,1.27-.51,3.18-.72,4.48-.73,4.33-1.57,8.6-2.33,13.16h12c1.22-7,2.65-15.18,3.93-22.32C101.15,15.18,95.75,10.73,89.84,11.72ZM56.45,31.89a1.12,1.12,0,0,1-1,.92c-1.69.07-3.85.09-5.86.09A51.89,51.89,0,0,0,51,27.54c1.63,1,3.18,1.86,4.67,2.85A1.42,1.42,0,0,1,56.45,31.89Zm13-3-6.86-5.34.21-.71h7.71C70.21,24.73,69.85,26.78,69.49,28.87Z"/><path class="cls-4" d="M44.7,3.74l-1.35.41,0-.6.47-.11.2-.95h-.35l.12-.57h.35l.14-.66h-.38L44,.67h1.24l-.12.59h-.33l-.13.66H45l-.12.57h-.32l-.17.79.35-.1Zm1.83-.05a1.14,1.14,0,0,0,.78.4,2.87,2.87,0,0,0-.45.47A1.19,1.19,0,0,1,46,3.9a2.8,2.8,0,0,1-1.24.66,1.91,1.91,0,0,0-.29-.43,2.22,2.22,0,0,0,1-.44h-.74l.1-.47h.94l0-.1h-.75l.09-.45h.75l0-.1h-.89l.1-.46h.4a2.89,2.89,0,0,0,0-.29l.34-.08h-.7l.11-.49h.18A1.35,1.35,0,0,0,45.3.71l.48-.18A1.65,1.65,0,0,1,46,1l.12-.59h.54l-.17.8h.14l.17-.8h.54l-.13.61a3.92,3.92,0,0,0,.33-.54l.5.18-.45.54-.38-.16,0,.17h.69l-.1.49h-.66l.31.08-.23.29h.46l-.09.46h-1l0,.1h.81l-.1.45h-.8v0a.29.29,0,0,1,0,.09h1l-.1.47Zm-1-2.45h.38l0-.16Zm.54.49a2.58,2.58,0,0,1,.06.37h.46a2.64,2.64,0,0,0,.2-.37Z"/><path class="cls-4" d="M51.49,3.92h.45l-.12.55H48l.12-.55h.49l.19-.9-.07.08a1.73,1.73,0,0,0-.44-.37,2.82,2.82,0,0,0,.66-1.41L49,.87H50.6c0-.14,0-.28,0-.42h.61c0,.14,0,.28,0,.42h.37a1,1,0,0,0-.21-.21l.47-.25a1.85,1.85,0,0,1,.37.37l-.16.09h.49l-.12.54H51.21a2.49,2.49,0,0,0,.06.42,2.25,2.25,0,0,0,.36-.4l.52.17a4.42,4.42,0,0,1-.67.7.28.28,0,0,0,.2.09c.1,0,.16-.11.25-.42a1.07,1.07,0,0,0,.42.28c-.23.61-.43.74-.83.73a.72.72,0,0,1-.59-.29,5,5,0,0,1-.61.31h1.37ZM49.3,2.13a3.25,3.25,0,0,1-.49.87h1.5a2.86,2.86,0,0,0-.2-.38s0,.06,0,.07a.5.5,0,0,1-.32.15,2.76,2.76,0,0,1-.44,0,1.17,1.17,0,0,0,0-.46h.26s.08,0,.11,0a.63.63,0,0,0,.1-.24Zm.22-.72a1.2,1.2,0,0,1-.06.24h1l0,.17c-.08.31-.14.51-.19.66a4.74,4.74,0,0,0,.51-.24,3.38,3.38,0,0,1-.12-.83Zm-.37,2.51h.21l.1-.44h-.21Zm1.07-.44H50l-.09.44h.2Zm.55,0-.09.44h.21l.1-.44Z"/><path class="cls-4" d="M54.21,3.32a2.22,2.22,0,0,0-.1-.36l-.35,1.6h-.59l.3-1.34a6.18,6.18,0,0,1-.52.69,2.87,2.87,0,0,0-.15-.61,4.84,4.84,0,0,0,.8-1h-.51l.13-.58h.59l.09-.41a3.27,3.27,0,0,1-.42.06,2,2,0,0,0,0-.49A7.22,7.22,0,0,0,54.87.47l.22.52-.57.16-.12.52h.52l-.13.58h-.52v0c.09.1.34.47.4.56Zm2.12.16-.24,1.07h-.6l.22-.95-1.26.22,0-.6L55.85,3,56.42.44H57l-.55,2.44.39-.07,0,.59Zm-1-1.65a2.92,2.92,0,0,1,.51.64l-.51.4a3,3,0,0,0-.47-.68Zm.38-.11A2.58,2.58,0,0,0,55.21,1l.48-.35a2.49,2.49,0,0,1,.48.64Z"/><path class="cls-4" d="M59.14,2.85,58.7,3l-.21.92c-.07.29-.15.44-.33.53a1.42,1.42,0,0,1-.7.12,2.19,2.19,0,0,0,0-.57h.37c.06,0,.09,0,.1-.08l.18-.77-.38.09V2.6l.53-.11.15-.66h-.45L58,1.25h.46l.18-.8h.6l-.18.8h.38l-.13.58H59l-.12.53.37-.09Zm2.54-.65a4.32,4.32,0,0,1-1.09,1.45,2.38,2.38,0,0,0,.82.37,3.71,3.71,0,0,0-.51.54,2.4,2.4,0,0,1-.89-.5,4.43,4.43,0,0,1-1.16.48A1.77,1.77,0,0,0,58.66,4a4,4,0,0,0,1-.36,3.15,3.15,0,0,1-.32-.94l.21-.06h-.27l.13-.56h.79l.1-.45h-.85L59.58,1h.86l.13-.58h.61L61,1H62l-.14.58h-.9l-.11.45h.42l.1,0ZM60,2.62a1.74,1.74,0,0,0,.27.64,3.28,3.28,0,0,0,.59-.64Z"/><path class="cls-4" d="M45,6.27h-.87L43.58,9h-.39l.59-2.7h-.86L43,5.92h2.12Z"/><path class="cls-4" d="M43.66,9.07h-.6l.59-2.7h-.86l.12-.56h2.33l-.12.56h-.87Zm-.35-.2h.18l.6-2.71H45L45,6H43.08l0,.14h.87Z"/><path class="cls-4" d="M46.56,9H44.94l.67-3.05h1.55l-.08.35H45.92l-.21,1h1.07l-.07.35H45.63l-.22,1h1.22Z"/><path class="cls-4" d="M46.64,9.07H44.82l.71-3.26h1.76l-.13.56H46l-.17.77h1.07l-.12.56H45.71l-.18.82h1.23Zm-1.57-.2h1.4l0-.15H45.28l.27-1.23h1.07l0-.14H45.58l.26-1.19H47L47,6H45.69Z"/><path class="cls-4" d="M49.25,8.84a2,2,0,0,1-.88.18,1,1,0,0,1-.93-.42,1.32,1.32,0,0,1-.15-1.1A2.1,2.1,0,0,1,48,6.31a1.79,1.79,0,0,1,1.2-.45,1.58,1.58,0,0,1,.68.13l-.09.41a1.22,1.22,0,0,0-.67-.18,1.31,1.31,0,0,0-.89.34,1.68,1.68,0,0,0-.52.92,1.08,1.08,0,0,0,.11.87.8.8,0,0,0,.7.32,1.64,1.64,0,0,0,.82-.21Z"/><path class="cls-4" d="M48.37,9.12a1.16,1.16,0,0,1-1-.46,1.48,1.48,0,0,1-.16-1.18,2.24,2.24,0,0,1,.73-1.24,1.9,1.9,0,0,1,1.27-.48,1.69,1.69,0,0,1,.73.14l.07,0-.14.64-.12-.08a1.13,1.13,0,0,0-.62-.17,1.16,1.16,0,0,0-.82.32,1.57,1.57,0,0,0-.49.86,1,1,0,0,0,.09.79.69.69,0,0,0,.62.28,1.66,1.66,0,0,0,.77-.19l.2-.11-.15.64,0,0A2.19,2.19,0,0,1,48.37,9.12ZM49.19,6a1.75,1.75,0,0,0-1.14.42,2.06,2.06,0,0,0-.66,1.13,1.29,1.29,0,0,0,.13,1,1,1,0,0,0,.85.37,2,2,0,0,0,.79-.15l0-.12a1.85,1.85,0,0,1-.67.12.91.91,0,0,1-.79-.36,1.19,1.19,0,0,1-.11-1,1.72,1.72,0,0,1,.54-1,1.45,1.45,0,0,1,1-.36,1.26,1.26,0,0,1,.6.13l0-.2A1.48,1.48,0,0,0,49.19,6Z"/><path class="cls-4" d="M52.15,9h-.39l.31-1.38H50.55L50.25,9h-.39l.67-3.05h.39l-.3,1.32h1.52l.29-1.32h.39Z"/><path class="cls-4" d="M52.23,9.07h-.59l.3-1.37H50.63l-.3,1.37h-.6l.72-3.26H51l-.29,1.33h1.31l.29-1.33H53Zm-.34-.2h.18L52.7,6h-.18l-.29,1.32H50.5L50.79,6h-.18L50,8.87h.18l.31-1.38h1.72Z"/><path class="cls-4" d="M55.42,9H55L54,6.59a.66.66,0,0,1-.06-.2h0a2.54,2.54,0,0,1-.08.43L53.35,9H53l.67-3.05h.48l1,2.33.08.21h0c0-.09,0-.23.08-.44l.46-2.1h.39Z"/><path class="cls-4" d="M55.5,9.07h-.61l-1-2.29,0,.06-.49,2.23h-.59l.72-3.26h.63l.93,2.28a.3.3,0,0,0,0-.1l.48-2.18h.59ZM55,8.87h.31L56,6h-.17l-.45,2a3,3,0,0,0-.07.43v.09h-.18l0-.08A.87.87,0,0,0,55,8.29L54.06,6h-.34l-.63,2.85h.18l.45-2.07c.05-.21.07-.35.08-.41v-.1H54l0,.09a1.67,1.67,0,0,0,.05.18Z"/><path class="cls-4" d="M56.37,7.48A2.08,2.08,0,0,1,57,6.3a1.68,1.68,0,0,1,1.16-.44,1,1,0,0,1,.91.43,1.42,1.42,0,0,1,.14,1.12,2.24,2.24,0,0,1-.65,1.18A1.67,1.67,0,0,1,57.44,9a1,1,0,0,1-.93-.43A1.35,1.35,0,0,1,56.37,7.48Zm.41,0a1.23,1.23,0,0,0,.08.89.72.72,0,0,0,.65.33,1.2,1.2,0,0,0,.83-.32,1.62,1.62,0,0,0,.47-.9,1.22,1.22,0,0,0-.07-.91.72.72,0,0,0-.66-.32,1.14,1.14,0,0,0-.82.34A1.64,1.64,0,0,0,56.78,7.45Z"/><path class="cls-4" d="M57.44,9.12a1.17,1.17,0,0,1-1-.47,1.47,1.47,0,0,1-.15-1.19h0A2.23,2.23,0,0,1,57,6.23a1.78,1.78,0,0,1,1.23-.47,1.12,1.12,0,0,1,1,.48,1.5,1.5,0,0,1,.15,1.19,2.23,2.23,0,0,1-.68,1.23A1.76,1.76,0,0,1,57.44,9.12Zm-1-1.62a1.31,1.31,0,0,0,.13,1,1,1,0,0,0,.85.38,1.56,1.56,0,0,0,1.07-.41,2,2,0,0,0,.62-1.13,1.34,1.34,0,0,0-.12-1A.92.92,0,0,0,58.18,6a1.59,1.59,0,0,0-1.09.41,2.07,2.07,0,0,0-.63,1.12Zm1,1.27a.8.8,0,0,1-.73-.38,1.26,1.26,0,0,1-.1-1,1.79,1.79,0,0,1,.51-.95,1.28,1.28,0,0,1,.89-.36.8.8,0,0,1,.75.37,1.37,1.37,0,0,1,.08,1,1.78,1.78,0,0,1-.5.94A1.29,1.29,0,0,1,57.51,8.77Zm.57-2.45a1.05,1.05,0,0,0-.75.31,1.56,1.56,0,0,0-.45.84h0a1.07,1.07,0,0,0,.07.81.61.61,0,0,0,.56.29,1.09,1.09,0,0,0,.76-.29,1.64,1.64,0,0,0,.44-.85,1.2,1.2,0,0,0-.05-.84A.64.64,0,0,0,58.08,6.32Z"/><path class="cls-4" d="M61.09,9H59.51l.67-3.05h.38L60,8.62h1.19Z"/><path class="cls-4" d="M61.17,9.07H59.38l.71-3.26h.6L60.1,8.52h1.19Zm-1.54-.2H61l0-.15h-1.2l.6-2.7h-.18Z"/><path class="cls-4" d="M61.57,7.48a2.14,2.14,0,0,1,.65-1.18,1.69,1.69,0,0,1,1.16-.44,1,1,0,0,1,.91.43,1.38,1.38,0,0,1,.14,1.12,2.18,2.18,0,0,1-.65,1.18A1.64,1.64,0,0,1,62.64,9a1,1,0,0,1-.93-.43A1.35,1.35,0,0,1,61.57,7.48Zm.41,0a1.23,1.23,0,0,0,.08.89.73.73,0,0,0,.66.33,1.17,1.17,0,0,0,.82-.32,1.62,1.62,0,0,0,.47-.9,1.17,1.17,0,0,0-.07-.91.72.72,0,0,0-.66-.32,1.14,1.14,0,0,0-.82.34A1.64,1.64,0,0,0,62,7.45Z"/><path class="cls-4" d="M62.64,9.12a1.17,1.17,0,0,1-1-.47,1.47,1.47,0,0,1-.15-1.19h0a2.23,2.23,0,0,1,.68-1.23,1.8,1.8,0,0,1,1.23-.47,1.12,1.12,0,0,1,1,.48,1.46,1.46,0,0,1,.15,1.19,2.23,2.23,0,0,1-.68,1.23A1.74,1.74,0,0,1,62.64,9.12Zm-1-1.62a1.31,1.31,0,0,0,.12,1,1,1,0,0,0,.85.38,1.56,1.56,0,0,0,1.07-.41,2,2,0,0,0,.62-1.13,1.25,1.25,0,0,0-.12-1A.9.9,0,0,0,63.38,6a1.59,1.59,0,0,0-1.09.41,2,2,0,0,0-.62,1.12Zm1,1.27A.8.8,0,0,1,62,8.39a1.31,1.31,0,0,1-.1-1,1.87,1.87,0,0,1,.51-.95,1.28,1.28,0,0,1,.89-.36.8.8,0,0,1,.75.37,1.32,1.32,0,0,1,.08,1,1.71,1.71,0,0,1-.5.94A1.28,1.28,0,0,1,62.72,8.77Zm.56-2.45a1.05,1.05,0,0,0-.75.31,1.63,1.63,0,0,0-.45.84h0a1.12,1.12,0,0,0,.07.81.62.62,0,0,0,.57.29,1.08,1.08,0,0,0,.75-.29,1.57,1.57,0,0,0,.44-.85,1.2,1.2,0,0,0,0-.84A.63.63,0,0,0,63.28,6.32Z"/><path class="cls-4" d="M67,8.76A2.35,2.35,0,0,1,66,9a1.12,1.12,0,0,1-1-.42,1.37,1.37,0,0,1-.15-1.12,2,2,0,0,1,.7-1.16,1.85,1.85,0,0,1,1.22-.46,1.76,1.76,0,0,1,.79.16l-.09.43a1.3,1.3,0,0,0-.81-.23,1.28,1.28,0,0,0-.88.34,1.64,1.64,0,0,0-.52.9,1.11,1.11,0,0,0,.1.89.83.83,0,0,0,.72.32,1.33,1.33,0,0,0,.61-.13l.18-.83h-.65l.08-.35h1Z"/><path class="cls-4" d="M66,9.12a1.19,1.19,0,0,1-1-.46,1.44,1.44,0,0,1-.17-1.2,2.17,2.17,0,0,1,.73-1.22,2,2,0,0,1,1.29-.48,1.87,1.87,0,0,1,.84.17l.07,0-.15.65-.12-.09a1.23,1.23,0,0,0-.75-.21,1.2,1.2,0,0,0-.82.32,1.53,1.53,0,0,0-.48.84,1,1,0,0,0,.08.81.71.71,0,0,0,.64.28,1.42,1.42,0,0,0,.52-.1l.15-.66h-.65l.12-.55h1.25l-.35,1.57,0,0A2.43,2.43,0,0,1,66,9.12ZM66.76,6a1.74,1.74,0,0,0-1.16.43,2,2,0,0,0-.66,1.1,1.26,1.26,0,0,0,.13,1,1,1,0,0,0,.88.38,2.24,2.24,0,0,0,1-.23l.27-1.23h-.83l0,.15H67l-.22,1,0,0a1.59,1.59,0,0,1-.66.14.89.89,0,0,1-.8-.36,1.18,1.18,0,0,1-.12-1,1.71,1.71,0,0,1,.55-1,1.43,1.43,0,0,1,1-.36,1.53,1.53,0,0,1,.74.16l0-.2A1.7,1.7,0,0,0,66.76,6Z"/><path class="cls-4" d="M70.35,5.92,68.94,7.85,68.7,9h-.39l.24-1.11L68,5.92h.45l.35,1.35,0,.19h0A1.3,1.3,0,0,1,69,7.27l1-1.35Z"/><path class="cls-4" d="M68.78,9.07h-.6l.27-1.21-.57-2.05h.66l.36,1.38,1-1.38h.67L69,7.89Zm-.35-.2h.18l.24-1.07L70.15,6H70l-.94,1.31a1,1,0,0,0-.11.18l0,.06h-.15l0-.09a1.88,1.88,0,0,1,0-.19L68.38,6h-.23l.51,1.83Z"/></g></g></svg>