<svg xmlns="http://www.w3.org/2000/svg" xmlns:xlink="http://www.w3.org/1999/xlink" viewBox="0 0 155.87 68.85"><defs><style>.cls-1{fill:#c69c6d;}.cls-2{fill:url(#linear-gradient);}.cls-3{fill:url(#linear-gradient-2);}.cls-4{fill:#666;}</style><linearGradient id="linear-gradient" x1="-27.07" y1="57.34" x2="143.49" y2="-18.81" gradientUnits="userSpaceOnUse"><stop offset="0" stop-color="#0080d4"/><stop offset="1" stop-color="#00e4ba"/></linearGradient><linearGradient id="linear-gradient-2" x1="-10.09" y1="95.37" x2="160.47" y2="19.22" xlink:href="#linear-gradient"/></defs><g id="图层_2" data-name="图层 2"><g id="图层_1-2" data-name="图层 1"><path class="cls-1" d="M57.51,25.06C59,15.18,53.47,4,43.59,1.11,28.86-3.2,13.85,5.34,8.77,21.25c-1.54,4.83-2.27,9.94-3.19,15C3.67,46.6,1.89,57,0,67.73H20.75c.89-4.86,1.6-9.28,2.54-14.28.86-4.58,2.6-6.11,6.52-5.9C44.06,48,55.62,39.83,57.51,25.06ZM26.09,31.69c1-3.78,1.57-6.71,2.49-8.6a6.31,6.31,0,0,1,1.45-2c1.68-1.63,4-2.1,5.76-1,2,1.35,2.36,4.45.72,6.92A6.51,6.51,0,0,1,35,28.58h0C33.24,30,30.33,30.7,26.09,31.69Z"/><path class="cls-1" d="M139.34,18.18a15.55,15.55,0,0,0-9.48,5.52c1.25-7,3-16.29,4.12-23H115.57c-3.67,20.54-.93,18.75-20.34,18.84a21.61,21.61,0,0,0-12.66,3.11c.24-1.45.49-2.95.76-4.49H65s-4.61,26.18-4.61,26.51v0c-.05.24-.08.38-.08.4-.64,3.25-2.36,5-5.22,5a5,5,0,0,1-4.87-3.54h0A25.67,25.67,0,0,1,34,52.45a35.49,35.49,0,0,1-3.89-.23A24.5,24.5,0,0,0,69.35,62.85a15.82,15.82,0,0,0,1.48-1.23c-.35,2-.82,4-1.1,6.09,18.82,0,26.31,1.22,34.83-5.41a34.38,34.38,0,0,1-1,5.41c5.54,0,13.25.11,18.37.12,0,0,2.37-13.72,3.33-18.59.73-3.71,1.63-15.09,7.69-13.86,3.24,1.12,2.9,3.34,2.72,5-.21,2-.78,4.92-1.11,6.94C133.47,54,132.16,60.62,131,67.71h18.7c1.89-10.94,4.11-23.55,6.09-34.63C156.89,23.55,148.51,16.64,139.34,18.18ZM87.55,49.46A1.7,1.7,0,0,1,86,50.88c-2.62.12-6,.14-9.09.15A81.06,81.06,0,0,0,79,42.72c2.54,1.49,4.94,2.88,7.24,4.41A2.21,2.21,0,0,1,87.55,49.46Zm20.23-4.69L97.14,36.49l.33-1.09h12C108.9,38.36,108.35,41.53,107.78,44.77Z"/><path class="cls-2" d="M57.51,25.06C59,15.18,53.47,4,43.59,1.11,28.86-3.2,13.85,5.34,8.77,21.25c-1.54,4.83-2.27,9.94-3.19,15C3.67,46.6,1.89,57,0,67.73H20.75c.89-4.86,1.6-9.28,2.54-14.28.86-4.58,2.6-6.11,6.52-5.9C44.06,48,55.62,39.83,57.51,25.06ZM26.09,31.69c1-3.78,1.57-6.71,2.49-8.6a6.31,6.31,0,0,1,1.45-2c1.68-1.63,4-2.1,5.76-1,2,1.35,2.36,4.45.72,6.92A6.51,6.51,0,0,1,35,28.58h0C33.24,30,30.33,30.7,26.09,31.69Z"/><path class="cls-3" d="M139.34,18.18a15.55,15.55,0,0,0-9.48,5.52c1.25-7,3-16.29,4.12-23H115.57c-3.67,20.54-.93,18.75-20.34,18.84a21.61,21.61,0,0,0-12.66,3.11c.24-1.45.49-2.95.76-4.49H65s-4.61,26.18-4.61,26.51v0c-.05.24-.08.38-.08.4-.64,3.25-2.36,5-5.22,5a5,5,0,0,1-4.87-3.54h0A25.67,25.67,0,0,1,34,52.45a35.49,35.49,0,0,1-3.89-.23A24.5,24.5,0,0,0,69.35,62.85a15.82,15.82,0,0,0,1.48-1.23c-.35,2-.82,4-1.1,6.09,18.82,0,26.31,1.22,34.83-5.41a34.38,34.38,0,0,1-1,5.41c5.54,0,13.25.11,18.37.12,0,0,2.37-13.72,3.33-18.59.73-3.71,1.63-15.09,7.69-13.86,3.24,1.12,2.9,3.34,2.72,5-.21,2-.78,4.92-1.11,6.94C133.47,54,132.16,60.62,131,67.71h18.7c1.89-10.94,4.11-23.55,6.09-34.63C156.89,23.55,148.51,16.64,139.34,18.18ZM87.55,49.46A1.7,1.7,0,0,1,86,50.88c-2.62.12-6,.14-9.09.15A81.06,81.06,0,0,0,79,42.72c2.54,1.49,4.94,2.88,7.24,4.41A2.21,2.21,0,0,1,87.55,49.46Zm20.23-4.69L97.14,36.49l.33-1.09h12C108.9,38.36,108.35,41.53,107.78,44.77Z"/><path class="cls-4" d="M69.33,5.8l-2.1.63,0-.92L68,5.33l.31-1.46h-.55L68,3h.54l.21-1h-.58L68.31,1h1.92L70.05,2h-.51l-.22,1h.5l-.18.89h-.5l-.25,1.21.53-.15Zm2.83-.08a1.81,1.81,0,0,0,1.23.63,3.41,3.41,0,0,0-.7.72,1.83,1.83,0,0,1-1.33-1,4.23,4.23,0,0,1-1.93,1A2.54,2.54,0,0,0,69,6.41a3.39,3.39,0,0,0,1.58-.69H69.43L69.58,5H71a1,1,0,0,0,0-.17H69.92l.14-.7h1.17l0-.16H69.88L70,3.26h.63c0-.15,0-.32-.07-.45l.52-.12H70l.16-.77h.28a2.29,2.29,0,0,0-.2-.82L71,.82a2.09,2.09,0,0,1,.25.78l.2-.91h.84L72,1.92h.2L72.5.69h.85l-.2.94a5.71,5.71,0,0,0,.51-.84l.77.29c-.27.31-.5.62-.69.83l-.59-.25-.06.26h1.07L74,2.69H73l.48.11-.34.46h.71L73.67,4H72.19l0,.16h1.25l-.15.7H72v0S72,5,72,5h1.62l-.16.72ZM70.6,1.92h.6l0-.25Zm.84.77a2.93,2.93,0,0,1,.09.57h.71c.11-.18.23-.39.32-.57Z"/><path class="cls-4" d="M79.86,6.08h.7l-.19.86h-6l.18-.86h.77l.3-1.4-.12.13a2.91,2.91,0,0,0-.68-.58,4.28,4.28,0,0,0,1-2.18l.15-.7h2.44c0-.21,0-.43.09-.65h.94c0,.22-.06.44-.08.65H80A2.06,2.06,0,0,0,79.68,1L80.4.63a2.89,2.89,0,0,1,.58.58l-.24.14h.75l-.18.84H79.43a4,4,0,0,0,.1.65,4.08,4.08,0,0,0,.56-.62l.79.26a5.84,5.84,0,0,1-1,1.08.48.48,0,0,0,.31.15c.15,0,.25-.18.39-.65a1.72,1.72,0,0,0,.64.43c-.34,1-.67,1.14-1.28,1.14A1.11,1.11,0,0,1,79,4.16a8.45,8.45,0,0,1-.94.49h2.11ZM76.47,3.3a4.88,4.88,0,0,1-.77,1.35H78a5.69,5.69,0,0,0-.31-.58l-.09.11a.8.8,0,0,1-.49.23,4.58,4.58,0,0,1-.68,0,1.68,1.68,0,0,0,0-.71,3.44,3.44,0,0,0,.4,0A.21.21,0,0,0,77,3.68a1.06,1.06,0,0,0,.15-.38Zm.34-1.11a3.15,3.15,0,0,1-.09.36h1.49s0,.18-.07.28a8.46,8.46,0,0,1-.3,1,5.3,5.3,0,0,0,.8-.37,5.34,5.34,0,0,1-.18-1.28Zm-.57,3.89h.32l.15-.69h-.32Zm1.65-.69h-.32l-.15.69h.32Zm.86,0-.15.69h.34l.15-.69Z"/><path class="cls-4" d="M84.08,5.15a4.34,4.34,0,0,0-.15-.56l-.55,2.48h-.91L82.93,5a7.51,7.51,0,0,1-.81,1.06,4.16,4.16,0,0,0-.22-.94,8.12,8.12,0,0,0,1.24-1.63h-.8l.2-.9h.92L83.6,2,83,2.05a3.22,3.22,0,0,0-.08-.76A11,11,0,0,0,85.11.73l.33.81c-.28.09-.58.17-.88.24l-.18.81h.8l-.2.9h-.8v0c.14.16.53.73.62.88Zm3.29.25L87,7.06h-.92l.33-1.48-2,.35L84.51,5l2.11-.37L87.51.69h.93l-.85,3.77.6-.11-.06.92ZM85.74,2.84a4.4,4.4,0,0,1,.79,1l-.79.62A4.39,4.39,0,0,0,85,3.39Zm.59-.17a4,4,0,0,0-.7-1.06l.75-.55a4.66,4.66,0,0,1,.75,1Z"/><path class="cls-4" d="M91.73,4.42l-.68.17L90.72,6c-.11.45-.23.68-.51.83A2.42,2.42,0,0,1,89.12,7a3.26,3.26,0,0,0-.06-.88h.58c.09,0,.13,0,.15-.13l.27-1.19L89.48,5l0-.93c.24,0,.52-.09.82-.16l.24-1h-.7L90,1.93h.7L91,.69H92l-.29,1.24h.6l-.21.91h-.6l-.19.81.57-.12Zm3.94-1A6.93,6.93,0,0,1,94,5.66a3.81,3.81,0,0,0,1.27.58,6.2,6.2,0,0,0-.79.83,3.6,3.6,0,0,1-1.38-.77,7.59,7.59,0,0,1-1.8.75,2.86,2.86,0,0,0-.3-.88,6,6,0,0,0,1.56-.56A4.43,4.43,0,0,1,92,4.16l.32-.09H92l.2-.88h1.22l.16-.69H92.21l.2-.9h1.33L94,.69h.94l-.21.91h1.4l-.21.9h-1.4l-.16.69H95l.16,0ZM93,4.07a2.9,2.9,0,0,0,.42,1,5.1,5.1,0,0,0,.92-1Z"/><path class="cls-4" d="M69.85,9.72H68.51l-.92,4.19H67l.92-4.19H66.57l.12-.54H70Z"/><path class="cls-4" d="M67.71,14.07h-.92l.92-4.19H66.37L66.56,9h3.61L70,9.88H68.63Zm-.53-.32h.28l.92-4.19h1.34l0-.23h-3l0,.23H68.1Z"/><path class="cls-4" d="M72.21,13.91h-2.5l1-4.73h2.4L73,9.72h-1.8l-.33,1.52h1.66l-.12.54H70.78l-.35,1.59h1.9Z"/><path class="cls-4" d="M72.34,14.07H69.51L70.62,9h2.72l-.19.86H71.36l-.27,1.2h1.67l-.19.86H70.9l-.28,1.27h1.91Zm-2.44-.32h2.18l0-.22h-1.9l.42-1.91h1.66l0-.23H70.7l.4-1.83h1.8l0-.23H70.87Z"/><path class="cls-4" d="M76.38,13.72A3.13,3.13,0,0,1,75,14a1.65,1.65,0,0,1-1.46-.65,2.13,2.13,0,0,1-.22-1.71,3.29,3.29,0,0,1,1.08-1.84,2.82,2.82,0,0,1,1.86-.69,2.39,2.39,0,0,1,1.06.19l-.14.64a1.83,1.83,0,0,0-1-.28,2.07,2.07,0,0,0-1.39.52A2.6,2.6,0,0,0,74,11.6,1.71,1.71,0,0,0,74.15,13a1.25,1.25,0,0,0,1.09.5,2.63,2.63,0,0,0,1.27-.32Z"/><path class="cls-4" d="M75,14.15a1.8,1.8,0,0,1-1.58-.71,2.24,2.24,0,0,1-.25-1.84,3.39,3.39,0,0,1,1.13-1.93,3,3,0,0,1,2-.73,2.56,2.56,0,0,1,1.13.21l.11,0-.21,1-.19-.12a1.76,1.76,0,0,0-.95-.26,1.87,1.87,0,0,0-1.28.49,2.38,2.38,0,0,0-.75,1.34,1.54,1.54,0,0,0,.13,1.23,1.08,1.08,0,0,0,1,.43,2.42,2.42,0,0,0,1.19-.3l.31-.17-.22,1-.07,0A3.3,3.3,0,0,1,75,14.15Zm1.26-4.9a2.71,2.71,0,0,0-1.76.66,3.1,3.1,0,0,0-1,1.76,2,2,0,0,0,.19,1.58,1.51,1.51,0,0,0,1.33.58,3,3,0,0,0,1.21-.22l.05-.2a2.84,2.84,0,0,1-1.05.2A1.4,1.4,0,0,1,74,13a1.84,1.84,0,0,1-.18-1.48,2.71,2.71,0,0,1,.85-1.5,2.19,2.19,0,0,1,1.49-.57,2.11,2.11,0,0,1,.92.2l.07-.31A2.68,2.68,0,0,0,76.29,9.25Z"/><path class="cls-4" d="M80.89,13.91h-.6l.47-2.13H78.4l-.47,2.13h-.6l1-4.73H79l-.45,2.05h2.36l.45-2.05h.6Z"/><path class="cls-4" d="M81,14.07h-.93l.47-2.13h-2l-.47,2.13h-.93L78.24,9h.93l-.45,2.06h2L81.2,9h.93Zm-.54-.32h.28l1-4.42h-.27L81,11.39H78.32l.46-2.06H78.5l-1,4.42h.27l.47-2.13H81Z"/><path class="cls-4" d="M86,13.91h-.71l-1.53-3.68a2.12,2.12,0,0,1-.09-.31h0c0,.1,0,.33-.12.66l-.73,3.33h-.6l1-4.73H84l1.48,3.62a3.34,3.34,0,0,1,.12.32h0a6.26,6.26,0,0,1,.12-.69l.72-3.25H87Z"/><path class="cls-4" d="M86.08,14.07h-.94l-1.48-3.56,0,.11-.76,3.45H82L83.07,9h1l1.45,3.53,0-.15L86.27,9h.92Zm-.73-.32h.48l1-4.42h-.27l-.69,3.14a5.7,5.7,0,0,0-.12.66v.15h-.28l0-.12a2.78,2.78,0,0,0-.12-.3L83.84,9.33h-.52l-1,4.42h.27l.71-3.2a4.56,4.56,0,0,0,.11-.64V9.76h.28l0,.13a1.8,1.8,0,0,0,.09.28Z"/><path class="cls-4" d="M87.42,11.6a3.32,3.32,0,0,1,1-1.82,2.56,2.56,0,0,1,1.8-.68,1.56,1.56,0,0,1,1.41.66,2.18,2.18,0,0,1,.22,1.73,3.36,3.36,0,0,1-1,1.83,2.57,2.57,0,0,1-1.77.67,1.65,1.65,0,0,1-1.45-.66A2.18,2.18,0,0,1,87.42,11.6Zm.65,0a1.79,1.79,0,0,0,.13,1.38,1.1,1.1,0,0,0,1,.52,1.84,1.84,0,0,0,1.28-.5,2.61,2.61,0,0,0,.73-1.39,1.92,1.92,0,0,0-.11-1.42,1.11,1.11,0,0,0-1-.49,1.8,1.8,0,0,0-1.27.52A2.58,2.58,0,0,0,88.07,11.55Z"/><path class="cls-4" d="M89.09,14.15a1.79,1.79,0,0,1-1.58-.73,2.35,2.35,0,0,1-.24-1.85h0a3.49,3.49,0,0,1,1.06-1.91,2.77,2.77,0,0,1,1.91-.72,1.76,1.76,0,0,1,1.55.73A2.31,2.31,0,0,1,92,11.52,3.43,3.43,0,0,1,91,13.43,2.71,2.71,0,0,1,89.09,14.15Zm-1.51-2.52a2,2,0,0,0,.19,1.61,1.48,1.48,0,0,0,1.32.59,2.42,2.42,0,0,0,1.66-.63,3.17,3.17,0,0,0,1-1.75,2,2,0,0,0-.19-1.6,1.42,1.42,0,0,0-1.28-.6,2.51,2.51,0,0,0-1.7.64,3.21,3.21,0,0,0-1,1.74Zm1.63,2a1.25,1.25,0,0,1-1.15-.6,2,2,0,0,1-.15-1.49,2.78,2.78,0,0,1,.79-1.46,2,2,0,0,1,1.38-.57,1.28,1.28,0,0,1,1.17.57,2.1,2.1,0,0,1,.12,1.53,2.81,2.81,0,0,1-.78,1.48A2,2,0,0,1,89.21,13.61Zm.87-3.81a1.61,1.61,0,0,0-1.16.49,2.42,2.42,0,0,0-.7,1.3h0a1.67,1.67,0,0,0,.11,1.26,1,1,0,0,0,.88.44,1.63,1.63,0,0,0,1.17-.46,2.39,2.39,0,0,0,.68-1.3,1.76,1.76,0,0,0-.08-1.3A1,1,0,0,0,90.08,9.8Z"/><path class="cls-4" d="M94.75,13.91H92.3l1-4.73h.6L93,13.37h1.86Z"/><path class="cls-4" d="M94.88,14.07H92.1L93.21,9h.92l-.92,4.19h1.86Zm-2.39-.32h2.13l0-.22H92.82l.92-4.2h-.28Z"/><path class="cls-4" d="M95.49,11.6a3.37,3.37,0,0,1,1-1.82,2.6,2.6,0,0,1,1.81-.68,1.57,1.57,0,0,1,1.41.66,2.18,2.18,0,0,1,.22,1.73,3.36,3.36,0,0,1-1,1.83,2.59,2.59,0,0,1-1.77.67,1.64,1.64,0,0,1-1.45-.66A2.18,2.18,0,0,1,95.49,11.6Zm.65,0a1.84,1.84,0,0,0,.12,1.38,1.13,1.13,0,0,0,1,.52,1.84,1.84,0,0,0,1.28-.5,2.61,2.61,0,0,0,.73-1.39,1.92,1.92,0,0,0-.11-1.42,1.11,1.11,0,0,0-1-.49,1.79,1.79,0,0,0-1.27.52A2.58,2.58,0,0,0,96.14,11.55Z"/><path class="cls-4" d="M97.16,14.15a1.79,1.79,0,0,1-1.58-.73,2.31,2.31,0,0,1-.24-1.85h0A3.43,3.43,0,0,1,96.4,9.66a2.75,2.75,0,0,1,1.91-.72,1.73,1.73,0,0,1,1.54.73,2.31,2.31,0,0,1,.24,1.85A3.43,3.43,0,0,1,99,13.43,2.71,2.71,0,0,1,97.16,14.15Zm-1.51-2.52a2,2,0,0,0,.19,1.61,1.48,1.48,0,0,0,1.32.59,2.42,2.42,0,0,0,1.66-.63,3.17,3.17,0,0,0,1-1.75,2,2,0,0,0-.19-1.6,1.43,1.43,0,0,0-1.28-.6,2.48,2.48,0,0,0-1.7.64,3.21,3.21,0,0,0-1,1.74Zm1.63,2a1.25,1.25,0,0,1-1.15-.6A2,2,0,0,1,96,11.52a2.78,2.78,0,0,1,.79-1.46,2,2,0,0,1,1.38-.57,1.28,1.28,0,0,1,1.17.57,2.1,2.1,0,0,1,.12,1.53,2.81,2.81,0,0,1-.78,1.48A2,2,0,0,1,97.28,13.61Zm.87-3.81a1.61,1.61,0,0,0-1.16.49,2.42,2.42,0,0,0-.7,1.3h0a1.67,1.67,0,0,0,.11,1.26,1,1,0,0,0,.88.44,1.63,1.63,0,0,0,1.17-.46,2.39,2.39,0,0,0,.68-1.3,1.76,1.76,0,0,0-.08-1.3A1,1,0,0,0,98.15,9.8Z"/><path class="cls-4" d="M104,13.59a3.54,3.54,0,0,1-1.66.4,1.69,1.69,0,0,1-1.48-.65,2.05,2.05,0,0,1-.24-1.73,3.16,3.16,0,0,1,1.08-1.81,2.87,2.87,0,0,1,1.9-.7,2.75,2.75,0,0,1,1.23.24l-.15.66a2.17,2.17,0,0,0-2.62.17,2.52,2.52,0,0,0-.8,1.4,1.71,1.71,0,0,0,.15,1.38,1.27,1.27,0,0,0,1.12.5,2.11,2.11,0,0,0,1-.21l.28-1.28h-1l.12-.54h1.61Z"/><path class="cls-4" d="M102.29,14.15a1.88,1.88,0,0,1-1.61-.71,2.26,2.26,0,0,1-.26-1.87,3.28,3.28,0,0,1,1.13-1.89,3,3,0,0,1,2-.74,2.89,2.89,0,0,1,1.3.26l.11.06-.23,1-.19-.14a2,2,0,0,0-2.43.16,2.36,2.36,0,0,0-.75,1.31,1.59,1.59,0,0,0,.13,1.26,1.1,1.1,0,0,0,1,.43,1.92,1.92,0,0,0,.81-.16l.22-1h-1l.19-.86h1.94l-.54,2.43-.06,0A3.78,3.78,0,0,1,102.29,14.15Zm1.26-4.9a2.75,2.75,0,0,0-1.8.67,3.12,3.12,0,0,0-1,1.72,2,2,0,0,0,.21,1.61,1.58,1.58,0,0,0,1.36.58,3.4,3.4,0,0,0,1.53-.35l.41-1.91h-1.29l0,.23h1l-.34,1.55-.06,0a2.28,2.28,0,0,1-1,.23,1.41,1.41,0,0,1-1.25-.57,1.85,1.85,0,0,1-.17-1.51,2.6,2.6,0,0,1,.85-1.48,2.2,2.2,0,0,1,1.47-.56,2.24,2.24,0,0,1,1.14.26l.07-.32A2.59,2.59,0,0,0,103.55,9.25Z"/><path class="cls-4" d="M109.12,9.18l-2.19,3-.38,1.74H106l.38-1.73-.84-3h.69l.55,2.09s0,.11,0,.31h0a1.81,1.81,0,0,1,.19-.3l1.51-2.1Z"/><path class="cls-4" d="M106.68,14.07h-.93l.41-1.88L105.29,9h1l.56,2.14L108.4,9h1l-2.35,3.22Zm-.54-.32h.28l.37-1.65,2-2.77h-.25l-1.46,2a2.1,2.1,0,0,0-.18.28l0,.08h-.24l0-.13c0-.17,0-.26-.05-.29l-.51-2h-.36l.79,2.85Z"/></g></g></svg>