<?xml version="1.0" encoding="UTF-8" standalone="no"?>
<!DOCTYPE svg PUBLIC "-//W3C//DTD SVG 1.1//EN" "http://www.w3.org/Graphics/SVG/1.1/DTD/svg11.dtd">
<svg width="100%" height="100%" viewBox="0 0 196 180" version="1.1" xmlns="http://www.w3.org/2000/svg" xmlns:xlink="http://www.w3.org/1999/xlink" xml:space="preserve" xmlns:serif="http://www.serif.com/" style="fill-rule:evenodd;clip-rule:evenodd;stroke-linejoin:round;stroke-miterlimit:2;">
    <g transform="matrix(1,0,0,1,-1869,-2332)">
        <g transform="matrix(4.16667,0,0,4.16667,0,0)">
            <g transform="matrix(0.24,0,0,0.24,0,0)">
                <path d="M2059.67,2367.66L2029.98,2367.66L2029.98,2345.55L2043.42,2345.55C2046.78,2345.55 2049.03,2343.03 2049.03,2339.24C2049.03,2335.45 2046.78,2332.92 2043.42,2332.92L1891.57,2332.92C1888.2,2332.92 1885.96,2335.45 1885.96,2339.24C1885.96,2343.03 1888.2,2345.55 1891.57,2345.55L1905.02,2345.55L1905.02,2367.66L1875.32,2367.66C1871.95,2367.66 1869.15,2370.81 1869.15,2374.61C1871.4,2412.5 1882.04,2432.07 1911.74,2440.28C1921.27,2461.76 1940.88,2476.91 1963.29,2478.81L1963.29,2492.07L1959.37,2492.07C1956.01,2492.07 1953.77,2494.6 1953.77,2498.39L1953.77,2499.65L1934.15,2499.65L1927.99,2510.39L1927.99,2511.01C1927.99,2511.65 1927.99,2511.65 1928.55,2511.65L2006.44,2511.65C2006.44,2511.65 2007,2511.01 2006.44,2511.01L2000.28,2500.91L1982.9,2500.91L1982.9,2499.65C1982.9,2495.86 1980.66,2493.33 1977.3,2493.33L1973.38,2493.33L1973.38,2478.81C1994.67,2476.28 2013.16,2461.13 2022.13,2440.91C2051.82,2432.71 2062.47,2413.13 2064.71,2375.24C2065.83,2370.81 2063.03,2367.66 2059.67,2367.66ZM2018.77,2408.71C2018.77,2440.91 1995.79,2466.18 1967.78,2466.18C1939.76,2466.18 1916.22,2440.91 1916.22,2408.71L1916.22,2345.55L2018.77,2345.55L2018.77,2408.71ZM2027.73,2425.76C2028.85,2420.07 2029.41,2414.39 2029.41,2408.71L2029.41,2380.28L2054.07,2380.28C2051.82,2405.55 2045.1,2418.81 2027.73,2425.76ZM1880.36,2380.28L1905.02,2380.28L1905.02,2408.71C1905.02,2414.39 1905.58,2420.07 1906.7,2425.76C1889.33,2418.81 1882.6,2405.55 1880.36,2380.28Z"/>
            </g>
        </g>
    </g>
</svg>
