<?xml version="1.0" encoding="UTF-8" standalone="no"?>
<!DOCTYPE svg PUBLIC "-//W3C//DTD SVG 1.1//EN" "http://www.w3.org/Graphics/SVG/1.1/DTD/svg11.dtd">
<svg width="100%" height="100%" viewBox="0 0 196 180" version="1.1" xmlns="http://www.w3.org/2000/svg" xmlns:xlink="http://www.w3.org/1999/xlink" xml:space="preserve" xmlns:serif="http://www.serif.com/" style="fill-rule:evenodd;clip-rule:evenodd;stroke-linejoin:round;stroke-miterlimit:2;">
    <g transform="matrix(1,0,0,1,-302,-210)">
        <g transform="matrix(1,0,0,1,-1523.07,-2242.05)">
            <path d="M2015.67,2487.41L1985.98,2487.41L1985.98,2465.31L1999.42,2465.31C2002.78,2465.31 2005.03,2462.78 2005.03,2458.99C2005.03,2455.21 2002.78,2452.68 1999.42,2452.68L1847.57,2452.68C1844.2,2452.68 1841.96,2455.21 1841.96,2458.99C1841.96,2462.78 1844.2,2465.31 1847.57,2465.31L1861.02,2465.31L1861.02,2487.41L1831.32,2487.41C1827.95,2487.41 1825.15,2490.57 1825.15,2494.36C1827.4,2532.25 1838.04,2551.83 1867.74,2560.04C1877.27,2581.51 1896.88,2596.67 1919.29,2598.56L1919.29,2611.82L1915.37,2611.82C1912.01,2611.82 1909.77,2614.35 1909.77,2618.14L1909.77,2619.4L1890.15,2619.4L1883.99,2630.14L1883.99,2630.77C1883.99,2631.4 1883.99,2631.4 1884.55,2631.4L1962.44,2631.4C1962.44,2631.4 1963,2630.77 1962.44,2630.77L1956.28,2620.66L1938.9,2620.66L1938.9,2619.4C1938.9,2615.62 1936.66,2613.09 1933.3,2613.09L1929.38,2613.09L1929.38,2598.56C1950.67,2596.03 1969.16,2580.88 1978.13,2560.67C2007.83,2552.46 2018.47,2532.88 2020.71,2494.99C2021.83,2490.57 2019.03,2487.41 2015.67,2487.41ZM1974.77,2528.47C1974.77,2560.67 1951.79,2585.93 1923.78,2585.93C1895.76,2585.93 1872.22,2560.67 1872.22,2528.47L1872.22,2465.31L1974.77,2465.31L1974.77,2528.47ZM1983.73,2545.51C1984.85,2539.83 1985.41,2534.15 1985.41,2528.47L1985.41,2500.04L2010.07,2500.04C2007.83,2525.3 2001.1,2538.57 1983.73,2545.51ZM1836.36,2500.04L1861.02,2500.04L1861.02,2528.47C1861.02,2534.15 1861.58,2539.83 1862.7,2545.51C1845.33,2538.57 1838.6,2525.3 1836.36,2500.04Z"/>
        </g>
    </g>
</svg>
