<?xml version="1.0" encoding="UTF-8" standalone="no"?>
<!DOCTYPE svg PUBLIC "-//W3C//DTD SVG 1.1//EN" "http://www.w3.org/Graphics/SVG/1.1/DTD/svg11.dtd">
<svg width="100%" height="100%" viewBox="0 0 199 199" version="1.1" xmlns="http://www.w3.org/2000/svg" xmlns:xlink="http://www.w3.org/1999/xlink" xml:space="preserve" xmlns:serif="http://www.serif.com/" style="fill-rule:evenodd;clip-rule:evenodd;stroke-linejoin:round;stroke-miterlimit:2;">
    <g transform="matrix(1,0,0,1,-1496,-2325)">
        <g transform="matrix(4.16667,0,0,4.16667,0,0)">
            <g transform="matrix(0.24,0,0,0.24,0,0)">
                <path d="M1636.74,2499.13C1624.17,2506.07 1610.03,2509.77 1595.33,2509.77C1547.99,2509.77 1509.61,2471.38 1509.61,2424.04C1509.61,2376.69 1547.99,2338.31 1595.33,2338.31C1642.68,2338.31 1681.07,2376.69 1681.07,2424.04C1681.07,2439.84 1676.79,2454.99 1668.82,2468.22C1666.92,2471.37 1667.93,2475.46 1671.08,2477.35C1674.23,2479.25 1678.32,2478.24 1680.21,2475.09C1689.43,2459.8 1694.37,2442.28 1694.37,2424.04C1694.37,2369.34 1650.03,2325 1595.33,2325C1540.64,2325 1496.3,2369.34 1496.3,2424.04C1496.3,2478.73 1540.64,2523.08 1595.33,2523.08C1612.29,2523.08 1628.65,2518.8 1643.17,2510.78C1646.39,2509 1647.56,2504.95 1645.78,2501.73C1644,2498.52 1639.95,2497.35 1636.74,2499.13ZM1665.82,2488.69C1665.82,2491.91 1663.21,2494.52 1659.99,2494.52C1656.78,2494.52 1654.17,2491.91 1654.17,2488.69C1654.17,2485.47 1656.78,2482.87 1659.99,2482.87C1663.21,2482.87 1665.82,2485.47 1665.82,2488.69ZM1601.99,2423.62L1643.26,2462.56C1645.93,2465.08 1646.06,2469.29 1643.54,2471.96C1641.02,2474.63 1636.8,2474.76 1634.13,2472.24L1590.77,2431.33C1589.44,2430.07 1588.68,2428.32 1588.68,2426.49L1588.68,2377.46C1588.68,2373.78 1591.66,2370.8 1595.33,2370.8C1599.01,2370.8 1601.99,2373.78 1601.99,2377.46L1601.99,2423.62Z" style="fill:rgb(242,164,77);fill-rule:nonzero;"/>
            </g>
        </g>
    </g>
</svg>
