<svg xmlns="http://www.w3.org/2000/svg" width="18.971" height="18.784" viewBox="0 0 18.971 18.784">
  <g id="组_156" data-name="组 156" transform="translate(0)">
    <g id="组_154" data-name="组 154" transform="translate(0 1.347)">
      <path id="路径_78" data-name="路径 78" d="M73.21,73.043a8.718,8.718,0,0,1,0-17.436.508.508,0,0,1,.508.508v7.7h7.7a.508.508,0,0,1,.508.508A8.728,8.728,0,0,1,73.21,73.043Zm-.508-16.4a7.7,7.7,0,1,0,8.193,8.194H73.21a.508.508,0,0,1-.508-.508Z" transform="translate(-64.492 -55.607)" fill="#e12c0b"/>
    </g>
    <g id="组_155" data-name="组 155" transform="translate(11.357)">
      <path id="路径_79" data-name="路径 79" d="M103.324,59.457h-6.6a.508.508,0,0,1-.508-.508v-6.6a.508.508,0,0,1,.508-.508,7.114,7.114,0,0,1,7.106,7.106A.508.508,0,0,1,103.324,59.457Zm-6.09-1.016H102.8a6.1,6.1,0,0,0-5.561-5.561Z" transform="translate(-96.218 -51.843)" fill="#e12c0b"/>
    </g>
  </g>
</svg>
