<svg xmlns="http://www.w3.org/2000/svg" width="21.01" height="22.652" viewBox="0 0 21.01 22.652">
  <path id="路径_80" data-name="路径 80" d="M167.383,72.5a.711.711,0,0,0-.407.137,1.829,1.829,0,0,1-.91.357h-.038a1.259,1.259,0,0,1-.551-.163c-.016-.007-.079-.05-.121-.078-.117-.077-.15-.1-.189-.1a.771.771,0,0,0-.356-.088.86.86,0,0,0-.8.555.641.641,0,0,0,.234.729,2.929,2.929,0,0,0,1.816.648,2.98,2.98,0,0,0,1.7-.549.768.768,0,0,0,.3-.886.746.746,0,0,0-.687-.559Zm4.111-13.526a5.714,5.714,0,0,0-2.277-2.314,6.267,6.267,0,0,0-3.032-.765,6.645,6.645,0,0,0-2.671.563,6.124,6.124,0,0,0-2.238,1.683A6.532,6.532,0,0,0,160,63.4a6.1,6.1,0,0,0,2.789,4.277.753.753,0,0,0,.386.11.777.777,0,0,0,.73-.6.717.717,0,0,0-.342-.836c-1.943-1.151-2.5-3.923-1.893-5.834a4.58,4.58,0,0,1,4.459-3.1,4.911,4.911,0,0,1,2.471.657,4.334,4.334,0,0,1,2.01,2.725,4.882,4.882,0,0,1-.535,3.713,9.745,9.745,0,0,1-.938,1.22c-.212.246-.433.5-.632.767a3.392,3.392,0,0,0-.547,1.41l-.055.252-4.383,1.165a.718.718,0,0,0-.541.816.763.763,0,0,0,.735.691.844.844,0,0,0,.21-.03l3.419-.909c.126-.034.252-.065.37-.094.935-.231,1.674-.414,1.76-1.765a2.482,2.482,0,0,1,.8-1.315c.093-.1.18-.2.261-.292a7.868,7.868,0,0,0,1.316-2.014,6.245,6.245,0,0,0-.357-5.438Zm-12.94,3.264a.763.763,0,0,0-.763-.765h-1.485a.765.765,0,0,0,0,1.53h1.482a.763.763,0,0,0,.761-.764Zm17.294-.765h-1.482a.765.765,0,0,0,0,1.53h1.482a.765.765,0,0,0,0-1.53ZM159.7,56.912a.765.765,0,0,0,1.08-1.08l-1.049-1.051a.765.765,0,0,0-1.08,1.08Zm12.8,10.655a.765.765,0,0,0-1.08,1.08l1.049,1.05a.765.765,0,0,0,1.08-1.081Zm-6.4-12.741a.764.764,0,0,0,.763-.764V52.576a.764.764,0,0,0-1.527,0v1.485a.763.763,0,0,0,.763.764Zm-5.32,12.741a.763.763,0,0,0-1.079,0v0l-1.049,1.049a.764.764,0,0,0,1.08,1.081l1.049-1.049a.766.766,0,0,0,0-1.083Zm10.64-10.655a.763.763,0,0,0,1.079,0v0l1.049-1.05a.764.764,0,0,0-1.08-1.08l-1.049,1.048a.765.765,0,0,0,0,1.081Zm0,0" transform="translate(-155.571 -51.843)" fill="#e12c0b"/>
</svg>
