<svg xmlns="http://www.w3.org/2000/svg" width="21.011" height="18.431" viewBox="0 0 21.011 18.431">
  <g id="组_298" data-name="组 298" transform="translate(-403.521 -282.667)">
    <g id="组_287" data-name="组 287" transform="translate(404.365 283.466)">
      <path id="路径_138" data-name="路径 138" d="M420.568,301.837h-9.719l-4.86-8.417,4.86-8.417h9.719l4.86,8.417Zm-9.2-.9h8.679l4.339-7.515-4.339-7.516h-8.679l-4.339,7.516Z" transform="translate(-405.989 -285.003)" fill="#e12c0b"/>
    </g>
    <g id="组_288" data-name="组 288" transform="translate(409.094 283.691)">
      <rect id="矩形_14397" data-name="矩形 14397" width="18.398" height="0.901" transform="translate(0 15.932) rotate(-59.996)" fill="#e12c0b"/>
    </g>
    <g id="组_289" data-name="组 289" transform="translate(409.094 283.691)">
      <rect id="矩形_14398" data-name="矩形 14398" width="0.901" height="18.398" transform="translate(0 0.451) rotate(-30)" fill="#e12c0b"/>
    </g>
    <g id="组_290" data-name="组 290" transform="translate(404.885 291.432)">
      <rect id="矩形_14399" data-name="矩形 14399" width="18.398" height="0.902" transform="translate(0 0)" fill="#e12c0b"/>
    </g>
    <g id="组_291" data-name="组 291" transform="translate(412.835 290.634)">
      <circle id="椭圆_72" data-name="椭圆 72" cx="1.249" cy="1.249" r="1.249" transform="translate(0 0)" fill="#e12c0b"/>
    </g>
    <g id="组_292" data-name="组 292" transform="translate(422.034 290.634)">
      <circle id="椭圆_73" data-name="椭圆 73" cx="1.249" cy="1.249" r="1.249" transform="translate(0 0)" fill="#e12c0b"/>
    </g>
    <g id="组_293" data-name="组 293" transform="translate(417.283 298.6)">
      <circle id="椭圆_74" data-name="椭圆 74" cx="1.249" cy="1.249" r="1.249" transform="translate(0)" fill="#e12c0b"/>
    </g>
    <g id="组_294" data-name="组 294" transform="translate(408.156 298.6)">
      <circle id="椭圆_75" data-name="椭圆 75" cx="1.249" cy="1.249" r="1.249" transform="translate(0)" fill="#e12c0b"/>
    </g>
    <g id="组_295" data-name="组 295" transform="translate(403.521 290.634)">
      <circle id="椭圆_76" data-name="椭圆 76" cx="1.249" cy="1.249" r="1.249" transform="translate(0 0)" fill="#e12c0b"/>
    </g>
    <g id="组_296" data-name="组 296" transform="translate(408.156 282.667)">
      <circle id="椭圆_77" data-name="椭圆 77" cx="1.249" cy="1.249" r="1.249" transform="translate(0 0)" fill="#e12c0b"/>
    </g>
    <g id="组_297" data-name="组 297" transform="translate(417.435 282.667)">
      <circle id="椭圆_78" data-name="椭圆 78" cx="1.249" cy="1.249" r="1.249" transform="translate(0 0)" fill="#e12c0b"/>
    </g>
  </g>
</svg>
