<svg xmlns="http://www.w3.org/2000/svg" xmlns:xlink="http://www.w3.org/1999/xlink" width="17.346" height="18.784" viewBox="0 0 17.346 18.784">
  <defs>
    <clipPath id="clip-path">
      <rect id="SVGID" width="17.346" height="18.784" fill="none"/>
    </clipPath>
  </defs>
  <g id="组_159" data-name="组 159" transform="translate(0)">
    <g id="组_158" data-name="组 158" transform="translate(0)" clip-path="url(#clip-path)">
      <path id="路径_82" data-name="路径 82" d="M357.575,53.219a3.96,3.96,0,1,1-2.8,1.16,3.934,3.934,0,0,1,2.8-1.16m0-1.362A5.323,5.323,0,1,0,362.9,57.18a5.322,5.322,0,0,0-5.322-5.323Zm0,0" transform="translate(-349.111 -51.852)" fill="#e12c0b"/>
      <path id="路径_83" data-name="路径 83" d="M352.763,78.409a.62.62,0,0,0-.617-.621h-.015a8.019,8.019,0,0,0-3.4.754,8.652,8.652,0,0,0-2.761,2.043,9.535,9.535,0,0,0-1.848,3.007,10.1,10.1,0,0,0-.654,3.006.621.621,0,0,0,.62.659h.121a.623.623,0,0,0,.62-.585c.271-4.2,3.444-7.523,7.3-7.523h.006a.622.622,0,0,0,.625-.621v-.121Zm7.366,2.908h-3.151a.681.681,0,0,1,0-1.363h3.151a.681.681,0,0,1,0,1.363Zm0,2.969h-5.258a.681.681,0,0,1,0-1.362h5.258a.681.681,0,1,1,0,1.362Zm0,2.97h-5.258a.681.681,0,0,1,0-1.362h5.258a.681.681,0,1,1,0,1.362Zm0,0" transform="translate(-343.469 -68.5)" fill="#e12c0b"/>
    </g>
  </g>
</svg>
